<?xml version="1.0" standalone="no"?>
<!DOCTYPE svg PUBLIC "-//W3C//DTD SVG 20010904//EN"
 "http://www.w3.org/TR/2001/REC-SVG-20010904/DTD/svg10.dtd">
<svg version="1.0" xmlns="http://www.w3.org/2000/svg"
 width="1280.000000pt" height="978.000000pt" viewBox="0 0 1280.000000 978.000000"
 preserveAspectRatio="xMidYMid meet">
<metadata>
Created by potrace 1.15, written by Peter Selinger 2001-2017
</metadata>
<g transform="translate(0.000000,978.000000) scale(0.100000,-0.100000)"
fill="#000000" stroke="none">
<path d="M245 9766 c-33 -8 -79 -22 -102 -31 -37 -15 -43 -21 -43 -46 0 -19
-5 -29 -15 -29 -8 0 -15 -5 -15 -11 0 -5 4 -7 10 -4 5 3 10 1 10 -5 0 -7 6
-10 14 -7 7 3 29 -10 47 -30 l34 -35 -35 7 c-19 4 -44 9 -55 11 -16 4 -22 -3
-31 -31 -11 -35 -11 -36 11 -31 13 3 30 9 39 12 14 5 15 2 6 -21 -18 -49 -13
-53 44 -30 16 7 17 6 7 -13 -16 -30 -14 -32 21 -21 45 12 45 12 52 -17 4 -16
17 -29 37 -36 20 -7 28 -15 25 -24 -20 -49 -21 -46 27 -43 50 4 57 -1 32 -21
-21 -18 -13 -22 19 -11 29 12 31 9 16 -20 -8 -14 -8 -20 2 -23 66 -18 210 -46
236 -46 32 0 37 -6 26 -34 -6 -16 -64 -23 -77 -9 -4 3 -52 5 -106 4 -84 -1
-101 1 -109 16 -8 14 -14 15 -40 4 -23 -10 -34 -10 -49 -1 -16 10 -37 8 -110
-9 -50 -11 -102 -21 -117 -21 -22 0 -26 -4 -26 -28 0 -130 341 -300 940 -468
412 -115 684 -157 819 -124 l51 12 157 -87 c492 -274 902 -583 1237 -936 150
-157 371 -422 446 -534 142 -212 329 -554 430 -786 l37 -86 -188 -179 c-305
-289 -769 -781 -989 -1049 -289 -351 -386 -496 -419 -625 -25 -103 -33 -162
-22 -180 9 -12 13 -11 33 7 23 21 23 21 47 2 29 -23 97 -25 148 -4 53 22 157
104 323 255 l145 131 275 136 c151 74 365 179 475 233 223 109 346 191 436
289 33 35 61 62 62 60 2 -2 31 -56 64 -119 297 -571 803 -1073 1453 -1442 235
-133 544 -271 765 -341 204 -65 751 -169 1322 -253 67 -9 127 -20 133 -24 7
-4 -8 -38 -41 -91 -147 -236 -262 -562 -310 -874 -50 -330 -49 -401 6 -466 14
-17 25 -38 25 -48 0 -25 29 -61 49 -61 11 0 27 17 42 45 21 39 35 51 104 85
166 83 573 394 790 602 258 248 402 452 407 577 1 29 6 41 16 41 8 0 94 -18
191 -41 822 -189 1395 -433 1738 -741 97 -87 187 -230 237 -378 13 -41 39
-145 57 -230 28 -132 33 -173 31 -275 -6 -367 -144 -719 -406 -1034 -84 -100
-84 -101 -16 -121 54 -15 91 -12 145 14 95 44 194 176 276 365 69 162 170 477
189 595 10 61 28 154 39 206 21 100 34 196 50 368 19 207 -50 541 -181 874
-53 133 -185 408 -253 526 -20 34 -33 62 -30 62 11 0 203 -123 331 -213 320
-224 501 -373 725 -597 184 -185 223 -219 264 -234 27 -9 63 -16 80 -16 l31 0
-3 59 c-4 95 -54 210 -186 436 -68 117 -192 308 -265 410 -105 146 -353 426
-519 585 -362 348 -689 568 -1120 752 l-195 83 -111 145 c-390 513 -705 841
-1132 1180 -71 56 -135 108 -142 114 -9 8 56 11 245 12 215 1 303 7 542 33
557 62 635 58 1246 -64 307 -62 413 -76 579 -81 88 -2 166 -6 173 -9 7 -3 10
0 7 5 -3 6 1 10 10 10 19 0 -106 147 -169 199 -85 70 -209 143 -466 273 -352
179 -600 277 -985 388 -408 117 -765 193 -1295 274 -394 60 -380 59 -935 60
-516 1 -520 1 -555 23 -71 44 -289 136 -445 188 -261 87 -417 117 -1110 215
-600 85 -1038 207 -1364 381 -183 98 -296 183 -652 490 -445 386 -585 501
-804 665 -403 302 -708 467 -996 540 -73 18 -114 35 -154 63 -80 56 -191 88
-420 122 -210 31 -262 43 -490 114 -224 70 -347 104 -452 126 -128 26 -309 33
-388 15z m11415 -8821 c0 -36 -40 -236 -52 -258 -18 -34 -17 -13 3 58 10 39
22 107 26 152 3 45 10 80 14 77 5 -3 9 -16 9 -29z"/>
</g>
</svg>
