<?xml version="1.0" standalone="no"?>
<!DOCTYPE svg PUBLIC "-//W3C//DTD SVG 20010904//EN"
 "http://www.w3.org/TR/2001/REC-SVG-20010904/DTD/svg10.dtd">
<svg version="1.0" xmlns="http://www.w3.org/2000/svg"
 width="1280.000000pt" height="640.000000pt" viewBox="0 0 1280.000000 640.000000"
 preserveAspectRatio="xMidYMid meet">
<metadata>
Created by potrace 1.15, written by Peter Selinger 2001-2017
</metadata>
<g transform="translate(0.000000,640.000000) scale(0.100000,-0.100000)"
fill="#000000" stroke="none">
<path d="M8056 5600 c-15 -38 -18 -40 -59 -40 -35 0 -49 6 -72 30 -39 41 -58
38 -80 -10 -13 -28 -26 -42 -44 -46 -14 -3 -40 -10 -58 -15 -24 -8 -44 -6 -80
6 -34 12 -75 16 -142 14 l-94 -3 -27 32 c-36 44 -55 41 -72 -10 -11 -37 -17
-43 -44 -46 -26 -3 -35 3 -59 38 -39 56 -66 52 -78 -10 -17 -85 -47 -92 -96
-24 -27 40 -35 45 -46 33 -7 -8 -17 -34 -22 -59 -7 -36 -14 -47 -36 -54 -22
-8 -30 -7 -41 10 -8 10 -23 30 -35 44 -20 24 -22 24 -35 7 -8 -11 -18 -36 -21
-58 -6 -35 -10 -39 -43 -46 -48 -9 -45 -10 -205 53 -76 30 -147 54 -157 54
-35 0 -72 -46 -134 -165 -43 -85 -69 -124 -87 -132 -21 -10 -46 -8 -144 12
-144 30 -175 31 -207 6 -14 -11 -57 -74 -97 -140 -72 -120 -72 -121 -110 -121
-20 0 -86 9 -147 20 -112 21 -146 20 -176 -7 -9 -8 -38 -78 -64 -155 -34 -102
-52 -143 -69 -154 -12 -8 -76 -25 -141 -38 -66 -12 -130 -28 -142 -35 -35 -18
-59 -84 -67 -180 -4 -46 -11 -95 -16 -108 -12 -32 -57 -49 -174 -68 -163 -26
-165 -29 -190 -190 -9 -60 -21 -117 -26 -126 -12 -23 -56 -37 -162 -51 -123
-15 -127 -19 -156 -181 -14 -73 -31 -137 -40 -149 -14 -16 -34 -21 -111 -27
-52 -4 -105 -13 -117 -19 -17 -9 -30 -39 -54 -115 -17 -56 -37 -108 -44 -116
-8 -8 -59 -18 -130 -26 -64 -7 -121 -17 -126 -22 -5 -5 -27 -53 -49 -108 -56
-137 -53 -135 -171 -135 -115 0 -116 -1 -150 -115 -22 -71 -55 -115 -87 -115
-9 0 -51 12 -94 28 -60 21 -82 25 -95 16 -10 -6 -42 -45 -71 -87 -63 -92 -79
-96 -171 -42 -86 51 -108 48 -193 -25 -38 -33 -75 -60 -83 -60 -8 0 -44 27
-82 60 -78 68 -104 74 -179 38 -45 -23 -46 -23 -56 -3 -21 39 -126 131 -204
177 -143 86 -345 157 -554 195 -69 12 -152 17 -300 17 -236 1 -296 -10 -352
-67 -27 -27 -46 -36 -101 -46 -156 -27 -313 -105 -392 -192 -80 -89 -113 -222
-81 -331 51 -176 279 -337 676 -479 l105 -37 -3 -59 c-3 -52 9 -154 24 -206 8
-27 41 -20 66 14 28 37 152 99 199 99 19 0 45 8 59 17 22 16 23 16 17 -2 -13
-31 -19 -188 -10 -230 10 -44 37 -59 47 -27 18 57 186 162 259 162 18 0 43 7
55 16 16 11 34 14 58 10 31 -6 34 -10 29 -34 -23 -108 -31 -123 -79 -147 -12
-6 -22 -22 -24 -37 -5 -39 26 -51 112 -46 94 6 172 44 245 117 69 69 94 81
176 81 57 0 65 -2 65 -19 0 -28 -21 -83 -42 -110 -34 -44 -18 -91 31 -91 69 0
259 131 310 214 18 28 30 35 78 45 31 6 59 9 62 6 9 -10 -19 -95 -45 -135 -36
-54 -29 -75 22 -74 87 1 257 109 343 216 44 56 48 58 93 58 58 0 78 -7 71 -26
-3 -8 1 -21 8 -30 17 -21 103 -13 181 16 38 14 98 23 201 30 158 11 187 14
317 37 263 46 588 146 882 272 89 37 108 42 258 56 178 17 417 23 468 11 l32
-8 -25 -41 c-91 -148 -109 -217 -88 -337 9 -47 11 -104 7 -153 -4 -53 -2 -82
6 -92 8 -10 8 -19 1 -34 -6 -11 -11 -37 -11 -58 0 -44 47 -149 79 -177 16 -15
20 -26 15 -51 -8 -43 13 -89 70 -152 43 -48 104 -82 124 -69 5 3 16 -9 26 -26
23 -38 96 -72 140 -64 35 6 168 -15 208 -34 77 -36 77 60 0 142 -14 15 -24 30
-21 32 6 6 59 -20 99 -50 31 -22 41 -25 85 -19 73 10 195 10 236 1 32 -7 38
-6 43 12 4 11 2 41 -4 67 -13 57 -4 68 50 61 137 -19 140 -19 140 1 0 39 -22
95 -55 138 -19 25 -35 52 -35 60 0 42 -26 67 -114 110 -66 31 -100 54 -123 83
-18 22 -48 46 -67 53 l-34 12 19 26 c10 15 29 78 43 146 13 66 36 146 50 178
25 55 27 57 65 57 22 0 70 -11 108 -24 93 -34 248 -72 363 -91 52 -8 110 -18
129 -21 l33 -5 -7 -113 c-6 -102 -5 -117 14 -153 39 -77 117 -124 186 -111 15
3 30 -1 37 -9 21 -26 59 -34 149 -34 68 0 88 -3 93 -15 14 -37 118 -56 168
-30 47 25 84 28 117 12 41 -22 51 -20 51 8 0 19 6 25 33 29 17 3 60 11 95 18
49 9 69 9 89 0 40 -19 51 0 32 54 -17 45 -16 45 7 45 12 0 29 -7 38 -15 8 -8
22 -15 30 -15 23 0 21 67 -2 103 -28 42 -121 117 -145 117 -12 0 -33 9 -46 19
l-25 19 55 6 c29 3 103 10 164 16 60 6 111 13 113 14 1 2 28 -3 60 -10 31 -8
74 -14 94 -14 20 0 44 -3 53 -6 23 -9 73 -114 88 -187 16 -72 24 -89 83 -170
36 -48 44 -67 44 -102 0 -133 108 -265 216 -265 19 0 39 -9 53 -24 34 -36 76
-53 165 -66 53 -8 90 -20 110 -35 45 -33 101 -49 134 -37 15 5 61 5 107 1 70
-7 83 -11 101 -34 43 -55 80 -13 59 68 l-12 47 40 0 c25 0 57 -10 85 -26 43
-25 48 -26 91 -14 25 7 72 13 103 14 46 0 62 -5 82 -23 54 -51 79 -7 52 96
-12 44 -13 59 -3 62 6 2 25 17 41 33 25 26 34 29 65 23 20 -4 46 -16 58 -27
67 -63 53 93 -15 165 -15 16 -49 40 -75 53 -26 14 -50 31 -53 39 -8 19 -66 55
-89 55 -9 0 -35 16 -57 35 -45 37 -113 64 -191 74 -46 6 -50 8 -53 36 -2 20
-18 43 -48 70 -49 46 -72 103 -62 157 10 52 18 60 50 48 50 -19 194 -12 311
16 103 23 228 49 440 89 50 10 100 20 112 22 28 7 36 -12 58 -137 29 -166 30
-212 5 -261 -18 -34 -21 -54 -17 -94 9 -86 38 -135 110 -181 80 -53 138 -82
168 -86 13 -2 50 -24 82 -49 72 -57 118 -73 171 -58 28 8 46 8 63 0 48 -22
130 -5 175 36 15 14 24 14 58 4 22 -6 49 -21 59 -33 32 -34 51 -17 51 46 l0
54 35 0 c20 0 41 5 48 11 18 14 85 -4 114 -31 13 -13 29 -18 39 -14 14 5 16
18 12 81 -5 72 -4 75 17 75 21 0 83 -28 133 -60 19 -13 24 -13 31 -1 23 37
-28 173 -77 205 -15 10 -35 31 -44 47 -21 35 -78 65 -145 74 -39 5 -56 13 -67
31 -9 13 -34 34 -56 46 -29 17 -40 30 -40 47 0 13 -14 39 -31 59 -36 40 -59
90 -59 125 0 14 16 56 35 93 19 38 35 76 35 85 0 9 5 31 11 49 l12 33 111 -6
c91 -4 144 -14 294 -55 214 -59 318 -75 502 -76 l136 -1 91 60 c50 33 112 72
137 87 76 45 115 130 96 212 -9 42 -8 47 14 70 24 23 25 27 21 155 -4 171 -7
177 -165 294 -50 37 -79 85 -80 136 0 18 14 77 31 131 l31 99 -26 92 c-30 104
-72 189 -122 248 -30 35 -34 46 -34 98 l0 58 -71 67 -70 67 40 36 c22 20 44
51 50 68 6 19 7 97 3 197 -8 200 -9 200 -124 117 -41 -29 -99 -63 -129 -76
-71 -30 -108 -66 -115 -112 -5 -28 -10 -36 -21 -32 -15 6 -113 195 -113 219 0
13 -27 27 -40 19 -4 -2 -13 -25 -19 -51 -7 -25 -27 -77 -47 -115 l-34 -69 -43
1 c-23 1 -67 4 -97 7 l-54 7 -13 63 c-15 77 -33 117 -53 117 -7 0 -33 -23 -56
-52 l-42 -52 -53 57 c-92 98 -261 253 -343 314 -44 33 -85 69 -91 81 -6 12
-19 21 -29 20 -22 -1 -128 48 -150 70 -14 13 -21 14 -41 5 -14 -6 -27 -9 -28
-7 -2 2 -18 25 -37 51 -18 26 -55 66 -81 88 -27 23 -49 49 -49 59 0 28 -19 41
-45 29 -33 -15 -100 29 -108 71 -8 39 -31 49 -58 25 -19 -17 -21 -17 -79 11
-41 19 -60 35 -64 52 -7 24 -25 30 -42 13 -7 -7 -24 -6 -53 5 -24 8 -51 15
-59 15 -9 0 -26 12 -38 28 -19 22 -26 25 -40 16 -15 -9 -29 -3 -79 34 -115 84
-348 180 -530 217 -43 9 -84 20 -90 25 -5 4 -38 5 -73 1 -56 -7 -63 -5 -76 13
-11 17 -18 19 -32 10 -14 -8 -35 -5 -88 13 -70 24 -295 73 -334 73 -11 0 -32
16 -48 37 l-27 36 -22 -27 c-20 -25 -25 -27 -73 -20 -45 6 -55 11 -73 40 -26
42 -45 43 -67 3 -17 -29 -18 -30 -71 -24 -44 6 -58 13 -83 41 -17 19 -36 34
-43 34 -7 0 -20 -18 -29 -40z"/>
</g>
</svg>
