<?xml version="1.0" standalone="no"?>
<!DOCTYPE svg PUBLIC "-//W3C//DTD SVG 20010904//EN"
 "http://www.w3.org/TR/2001/REC-SVG-20010904/DTD/svg10.dtd">
<svg version="1.0" xmlns="http://www.w3.org/2000/svg"
 width="1280.000000pt" height="640.000000pt" viewBox="0 0 1280.000000 640.000000"
 preserveAspectRatio="xMidYMid meet">
<metadata>
Created by potrace 1.15, written by Peter Selinger 2001-2017
</metadata>
<g transform="translate(0.000000,640.000000) scale(0.100000,-0.100000)"
fill="#000000" stroke="none">
<path d="M7283 4383 c-8 -6 -3 -27 18 -77 32 -76 33 -80 19 -71 -6 4 -23 32
-39 64 -16 31 -36 63 -44 69 -12 10 -54 11 -181 3 -5 -1 -6 -14 -2 -31 7 -39
2 -38 -25 6 -19 32 -25 35 -53 30 -49 -10 -117 -17 -166 -16 -75 0 -75 0 -19
-111 28 -55 49 -103 46 -105 -5 -6 -61 84 -95 152 -18 36 -26 42 -63 47 -46 6
-69 1 -69 -17 0 -6 11 -35 25 -65 33 -69 25 -78 -13 -15 -45 74 -69 97 -95 90
-72 -21 -131 -30 -197 -31 -41 0 -82 -4 -89 -9 -8 -6 -36 -8 -63 -7 -26 1 -53
-1 -60 -5 -7 -5 -33 -9 -58 -10 -110 -6 -164 -18 -175 -40 -10 -21 -11 -21
-33 -4 -21 17 -24 17 -96 -4 -42 -12 -82 -30 -89 -40 -10 -13 -16 -15 -21 -8
-10 17 -56 15 -76 -3 -14 -13 -22 -14 -43 -4 -20 9 -32 8 -58 -5 -17 -9 -45
-16 -60 -16 -15 0 -47 -8 -71 -18 -24 -10 -79 -26 -123 -36 -124 -28 -130 -30
-127 -55 1 -12 14 -39 28 -59 19 -27 13 -23 -23 16 l-48 52 -48 -6 c-27 -4
-51 -13 -54 -21 -6 -16 29 -63 114 -154 l64 -67 -33 -10 c-109 -34 -126 -27
-232 97 -70 82 -80 90 -104 85 -50 -13 -72 -23 -72 -37 0 -7 36 -53 80 -102
44 -50 80 -93 80 -97 0 -16 -21 -7 -57 24 l-38 32 28 -30 c15 -17 27 -33 27
-37 0 -10 -66 -36 -139 -54 l-65 -16 -33 38 c-37 43 -36 62 1 22 26 -28 42
-36 30 -14 -4 6 -26 37 -49 67 -53 71 -57 78 -50 90 11 17 57 -15 128 -89 38
-39 71 -71 74 -71 9 0 -41 64 -100 127 -59 63 -80 73 -118 53 -25 -14 -24 -26
7 -67 34 -45 19 -42 -31 7 -41 40 -41 40 -80 27 -21 -8 -40 -18 -42 -23 -1 -5
33 -51 77 -102 44 -51 80 -95 80 -97 0 -16 -24 1 -62 42 -144 158 -140 155
-175 142 -22 -7 -33 -18 -33 -30 0 -15 -7 -19 -36 -19 -39 0 -74 -15 -74 -31
0 -6 25 -39 55 -74 55 -62 71 -90 38 -64 -16 12 -15 11 0 -8 23 -26 15 -43
-19 -43 -18 0 -44 18 -85 59 -67 67 -76 96 -29 89 19 -3 29 -1 27 6 -6 17 -60
18 -82 2 -19 -15 -17 -18 62 -96 77 -77 83 -81 115 -75 29 6 36 3 45 -17 9
-17 12 -19 12 -6 1 24 51 59 81 57 14 -2 37 5 52 15 45 29 66 15 70 -49 2 -44
0 -55 -12 -55 -33 0 -60 13 -65 31 -11 35 -27 20 -23 -21 l4 -40 -43 0 c-32 0
-43 4 -43 15 0 8 -4 15 -10 15 -5 0 -10 -11 -10 -24 0 -24 -16 -36 -51 -36
-14 0 -26 14 -41 47 -22 51 -135 175 -182 199 -26 15 -34 14 -117 -16 -49 -18
-92 -37 -95 -42 -7 -11 23 -58 36 -58 6 0 8 11 4 25 -10 39 20 43 64 8 59 -47
68 -49 38 -10 -16 20 -24 37 -19 37 17 0 105 -98 108 -121 1 -13 6 -43 10 -65
9 -55 -16 -84 -75 -84 -37 0 -39 2 -45 34 -9 44 8 73 48 85 l32 9 -36 1 c-24
1 -43 9 -59 26 -13 14 -26 23 -28 20 -3 -3 5 -16 18 -30 13 -14 21 -27 19 -29
-2 -3 -38 26 -79 64 -74 68 -105 82 -139 61 -11 -7 -7 -17 17 -52 48 -70 89
-115 97 -107 4 4 -8 25 -28 47 -58 65 -73 91 -56 102 10 6 30 -7 72 -49 61
-60 93 -115 99 -171 3 -32 0 -35 -36 -48 -50 -17 -62 -7 -75 61 -8 42 -18 58
-72 110 l-64 61 60 -63 c49 -51 57 -64 45 -72 -35 -22 -68 -11 -109 38 -44 51
-51 76 -24 91 10 5 15 13 11 16 -9 9 -61 -8 -65 -21 -2 -6 19 -39 47 -74 27
-34 50 -65 50 -68 0 -3 -26 20 -57 50 -74 70 -94 81 -127 68 -14 -5 -26 -13
-26 -16 0 -4 23 -34 51 -66 48 -55 61 -89 23 -57 -15 12 -16 11 -10 -9 7 -21
5 -23 -20 -20 -20 2 -38 17 -62 51 -40 55 -36 71 9 38 38 -28 50 -19 19 14
-24 26 -73 34 -85 14 -4 -5 9 -31 29 -56 54 -69 44 -73 -23 -10 -56 53 -59 55
-95 47 -21 -4 -40 -11 -44 -14 -3 -4 12 -24 33 -46 21 -22 41 -37 44 -34 3 3
-4 14 -16 24 -28 22 -30 50 -4 50 21 0 102 -58 109 -77 2 -7 -2 -15 -10 -17
-7 -2 -34 -10 -60 -17 -31 -9 -44 -17 -38 -23 6 -6 10 -34 10 -63 0 -41 -4
-55 -17 -60 -9 -4 -19 -1 -21 5 -2 7 -12 12 -23 12 -30 0 -35 29 -12 72 15 27
18 38 8 38 -14 0 -85 74 -85 89 0 22 20 19 61 -11 l43 -31 -22 34 c-16 27 -29
35 -56 37 -20 2 -43 -1 -51 -5 -13 -8 -11 -15 15 -54 43 -64 37 -68 -20 -15
-36 33 -57 46 -79 46 -45 0 -47 -17 -7 -74 20 -29 36 -56 36 -61 0 -14 -40 27
-72 73 -26 37 -33 42 -69 42 -48 0 -61 -21 -31 -53 29 -32 61 -99 68 -147 l7
-41 -39 6 c-63 11 -66 12 -62 47 2 28 8 34 31 36 15 2 27 5 27 7 0 3 -18 28
-40 57 -22 29 -40 56 -40 60 0 11 -36 19 -54 12 -17 -7 -22 -49 -6 -59 6 -4
10 5 10 19 0 35 12 33 49 -9 43 -49 41 -65 -9 -65 -36 0 -41 4 -66 45 -26 45
-58 63 -89 51 -20 -7 -18 -36 4 -63 23 -28 35 -30 21 -4 -13 25 -13 51 0 51 5
0 24 -19 41 -42 l30 -43 -23 -6 c-47 -14 -58 -9 -90 41 -18 27 -41 52 -50 56
-25 8 -58 -5 -58 -22 0 -17 12 -18 29 -1 10 10 18 5 42 -21 36 -40 33 -56 -8
-60 -27 -3 -35 3 -62 41 -30 43 -48 57 -77 57 -18 0 -18 -34 0 -49 12 -10 13
-8 9 8 -7 28 1 26 32 -6 48 -52 45 -53 -207 -53 -332 0 -493 -18 -978 -106
-47 -9 -90 -20 -97 -26 -7 -5 -13 -28 -15 -51 -4 -49 -26 -57 -41 -14 -7 22
-5 32 9 48 16 18 16 19 -3 19 -11 0 -42 -4 -69 -9 -139 -27 -432 -52 -697 -61
-295 -10 -379 -18 -400 -39 -42 -42 117 -61 513 -61 311 0 615 14 752 35 569
85 677 95 1168 105 405 9 662 26 734 50 16 5 70 17 120 25 50 9 154 34 231 57
204 60 219 61 173 10 -22 -23 -22 -24 -3 -20 11 2 31 20 44 41 13 20 32 37 40
37 9 0 27 7 39 16 17 12 22 12 22 2 0 -18 -48 -88 -60 -88 -6 0 -10 -9 -10
-20 0 -30 19 -24 38 11 39 70 73 120 84 123 81 25 210 56 238 58 19 1 45 8 57
16 19 12 23 11 31 -5 9 -16 12 -15 23 10 7 15 16 27 21 27 14 0 9 -14 -27 -69
-19 -29 -51 -82 -71 -118 -22 -38 -46 -68 -60 -73 -26 -10 -35 -60 -11 -60 19
0 38 24 82 105 75 138 137 233 156 238 10 3 19 1 19 -4 0 -5 10 -3 23 6 13 8
26 12 30 9 4 -4 17 0 29 8 26 17 274 88 307 88 12 0 24 -8 27 -17 6 -20 51
-109 80 -160 l19 -32 -31 -38 c-17 -21 -45 -48 -63 -60 -45 -31 -139 -66 -178
-66 -18 -1 -33 -5 -33 -9 0 -4 -9 -8 -19 -8 -11 0 -23 -5 -26 -11 -8 -12 -56
-32 -62 -25 -5 5 65 147 119 239 22 38 38 70 36 73 -3 2 -33 -44 -68 -104 -93
-159 -113 -188 -118 -174 -2 7 27 68 66 135 38 67 75 133 82 147 l11 25 -20
-25 c-37 -46 -144 -242 -158 -292 -14 -45 -21 -53 -106 -110 -62 -41 -141
-110 -242 -211 -82 -82 -185 -176 -227 -209 -43 -33 -78 -64 -78 -68 0 -8 20
-12 195 -35 179 -24 239 -20 368 21 149 48 194 72 272 146 74 69 115 123 160
213 73 144 131 238 153 248 41 19 56 -1 62 -79 l5 -69 45 -6 c25 -4 71 -12
104 -18 55 -12 136 -7 136 7 0 4 -18 24 -40 45 -22 20 -54 62 -70 91 -35 62
-107 133 -150 147 -46 17 -175 204 -194 281 -5 21 -3 26 8 22 8 -3 24 4 35 15
22 22 61 29 61 10 0 -6 -14 -24 -31 -41 -19 -20 -28 -36 -24 -47 12 -32 128
-212 133 -207 2 3 -22 49 -54 102 l-58 96 22 41 c32 59 59 93 68 84 5 -4 2
-17 -5 -28 -7 -12 -10 -23 -7 -26 2 -3 15 11 28 31 13 20 31 36 41 36 25 0 22
-9 -21 -66 -45 -60 -67 -108 -58 -129 6 -17 46 -21 46 -5 0 6 -7 10 -15 10 -8
0 -15 6 -15 13 0 16 64 121 102 168 44 54 33 12 -17 -69 -71 -114 -52 -105 25
12 63 96 73 106 100 106 33 0 38 -14 15 -44 -20 -26 -19 -36 3 -36 24 0 71 50
77 81 4 23 120 138 140 139 5 0 -12 -22 -38 -48 -26 -26 -47 -55 -47 -63 0 -9
-22 -47 -48 -85 -66 -93 -85 -124 -79 -124 2 0 40 47 83 104 44 58 80 101 82
96 4 -11 -16 -42 -92 -145 -32 -44 -67 -99 -77 -122 -21 -49 -26 -52 -38 -20
-8 19 -10 20 -16 5 -10 -25 2 -50 22 -46 10 2 27 18 38 36 108 179 226 332
256 332 16 0 2 -51 -19 -67 -11 -8 -13 -12 -4 -13 15 0 5 -20 -32 -65 -23 -28
-25 -29 -19 -6 4 17 3 22 -6 17 -6 -4 -10 -19 -9 -33 2 -20 -4 -30 -27 -43
-16 -9 -32 -25 -34 -35 -3 -17 -1 -18 13 -6 23 19 20 5 -9 -37 -14 -20 -25
-43 -25 -52 0 -8 -5 -22 -11 -30 -8 -11 -9 -5 -5 25 5 37 4 38 -9 21 -17 -22
-20 -62 -6 -70 20 -13 38 7 65 69 47 108 212 325 247 325 18 0 8 -20 -41 -85
-45 -59 -59 -85 -45 -85 2 0 19 21 36 48 18 26 48 65 66 86 34 40 42 66 22 66
-25 0 19 34 86 66 38 19 97 54 130 79 72 53 175 109 175 95 0 -6 -33 -31 -72
-56 -236 -151 -378 -302 -509 -539 -35 -64 -45 -75 -47 -56 -2 13 9 44 27 73
17 27 31 52 31 55 0 4 7 15 17 25 9 10 11 18 5 18 -16 0 -101 -139 -108 -177
-8 -42 8 -63 34 -47 9 6 41 55 70 109 29 55 74 128 100 165 59 83 153 179 159
163 2 -7 -2 -22 -10 -34 -9 -12 -13 -27 -11 -33 3 -7 -6 -17 -20 -24 -13 -6
-28 -21 -31 -34 -4 -13 -21 -38 -36 -56 -16 -18 -29 -38 -29 -43 0 -6 -11 -24
-24 -40 -13 -15 -27 -46 -31 -68 -5 -31 -10 -38 -22 -34 -13 5 -15 1 -10 -20
9 -33 -2 -60 -20 -53 -11 4 -14 -1 -11 -21 6 -52 26 -33 75 69 58 120 193 326
252 383 38 36 41 37 41 16 0 -22 1 -21 25 7 14 17 25 36 25 44 0 18 31 48 50
48 7 0 41 27 76 60 68 63 184 144 193 134 7 -6 -7 -18 -100 -84 -108 -78 -259
-235 -321 -336 -58 -93 -149 -270 -163 -313 -4 -13 -14 -40 -22 -59 -13 -32
-15 -33 -28 -16 -14 18 -14 18 -15 -3 0 -18 6 -23 24 -23 20 0 28 9 42 48 36
100 73 183 108 246 39 70 178 263 204 283 27 22 25 6 -5 -39 -16 -24 -33 -50
-37 -58 -10 -20 72 67 146 155 32 39 62 73 66 78 17 18 165 127 173 127 22 0
3 -23 -63 -78 -233 -190 -443 -476 -521 -707 -13 -38 -29 -71 -37 -73 -19 -7
-7 34 51 167 27 63 48 116 45 118 -5 6 -88 -167 -112 -233 -23 -65 -14 -110
35 -172 47 -59 112 -108 222 -166 173 -92 503 -212 719 -263 128 -29 385 -41
557 -24 141 13 353 60 528 116 22 7 29 13 -80 -73 -30 -24 -55 -47 -55 -51 0
-5 15 -12 33 -15 l32 -7 -28 -24 c-15 -14 -37 -25 -48 -25 -25 0 -24 9 3 19
l22 8 -21 12 c-20 10 -27 6 -74 -51 -28 -34 -63 -80 -77 -102 -74 -117 -98
-148 -177 -230 -99 -104 -99 -117 3 -124 201 -14 544 99 701 232 88 75 191
220 191 268 0 8 7 23 15 34 l14 21 57 -28 c50 -25 67 -29 138 -28 45 1 95 4
111 8 17 4 46 2 69 -6 56 -19 79 -16 153 17 53 24 79 30 137 30 39 0 77 4 84
8 17 12 32 68 32 126 0 35 -8 62 -26 93 l-26 44 80 122 c90 138 191 313 231
402 40 88 42 89 153 71 51 -9 113 -21 138 -27 25 -6 83 -17 130 -23 76 -11 85
-14 82 -32 -7 -35 -5 -108 3 -166 l8 -57 -37 -15 c-46 -19 -56 -46 -56 -150 0
-70 4 -91 28 -137 36 -71 58 -82 147 -72 122 13 283 6 455 -21 313 -49 350
-48 682 33 237 58 303 69 464 77 183 9 333 43 729 165 302 93 346 108 478 161
200 79 222 97 234 198 5 42 3 51 -13 57 -31 12 -733 -87 -1084 -153 -102 -19
-228 -42 -280 -51 -52 -8 -104 -19 -115 -24 -25 -10 -107 -25 -215 -39 -47 -7
-160 -25 -253 -42 -155 -27 -236 -33 -182 -14 62 23 127 56 190 96 104 67 145
83 201 77 27 -2 60 -8 74 -12 20 -6 18 -3 -10 17 -19 13 -35 30 -35 38 0 19
113 42 310 66 150 18 210 32 140 33 -22 1 -101 -8 -175 -19 -74 -12 -195 -29
-268 -38 l-132 -18 -53 -51 c-28 -28 -72 -62 -97 -76 -47 -27 -158 -67 -185
-67 -30 0 -14 20 37 46 63 32 118 75 118 92 0 6 4 12 9 12 5 0 12 -6 14 -12 4
-9 6 -7 6 3 1 9 -21 37 -49 63 -47 44 -49 47 -28 55 17 6 10 9 -32 14 -60 7
-84 22 -60 37 8 5 30 10 48 10 19 0 31 4 27 10 -3 5 6 12 21 16 17 4 22 9 14
14 -9 6 -7 11 8 19 26 14 67 14 93 1 25 -14 24 -28 -3 -40 -19 -8 -17 -9 10
-4 37 7 61 -9 93 -61 19 -30 19 -30 19 -5 0 17 -22 46 -77 100 -87 85 -189
142 -363 201 -110 37 -136 54 -70 46 95 -13 148 -29 294 -91 188 -80 251 -100
385 -126 316 -59 435 -75 736 -96 69 -5 84 -9 66 -15 -41 -16 -16 -20 55 -9
121 17 303 30 524 37 118 3 224 9 235 14 30 12 -227 11 -509 -2 -191 -9 -288
-9 -415 0 -457 33 -730 95 -1086 246 -103 44 -177 69 -235 79 -140 24 -378 39
-484 31 -88 -6 -101 -10 -131 -36 -19 -17 -40 -50 -49 -75 -8 -25 -28 -62 -44
-82 -16 -20 -35 -54 -43 -74 -7 -21 -16 -38 -20 -38 -4 0 -30 21 -59 47 -56
51 -121 139 -152 210 -26 60 -51 83 -89 83 l-32 0 6 -47 c6 -44 5 -46 -8 -29
-25 33 -18 -3 14 -70 16 -33 43 -77 61 -97 32 -37 31 -41 -14 -49 -11 -2 -25
-19 -35 -43 -9 -22 -20 -46 -24 -53 -14 -22 -57 -13 -88 17 -28 28 -28 30 -9
36 11 3 20 12 20 20 0 16 22 25 66 25 38 0 41 6 19 38 -14 20 -115 246 -115
257 0 3 15 5 33 6 32 0 32 0 7 11 -14 6 -61 28 -105 49 -146 70 -198 90 -208
80 -5 -5 17 -69 57 -165 36 -85 66 -160 66 -166 0 -11 -39 -14 -64 -4 -10 4
-30 51 -52 123 -20 64 -45 137 -55 163 -25 62 -24 66 14 70 l32 4 -25 11 c-14
6 -52 18 -85 28 -33 9 -103 30 -155 46 -52 16 -108 33 -125 38 -58 16 -150 43
-185 54 -81 25 -155 35 -181 23 -11 -5 -19 1 -27 19 -11 24 -17 26 -60 23
l-47 -3 1 -42 c1 -50 -10 -48 -26 5 -16 50 -23 55 -81 68 -61 14 -68 5 -44
-51 23 -56 10 -55 -17 1 -28 59 -34 64 -75 64 -37 0 -38 -3 -22 -49 18 -51 2
-49 -20 3 -13 30 -29 50 -45 56 -14 5 -80 9 -146 9 -66 0 -129 5 -139 11 -11
5 -36 10 -55 10 -44 0 -45 -9 -10 -87 49 -109 55 -125 44 -118 -6 3 -25 34
-42 68 -17 34 -33 56 -35 50 -3 -7 18 -55 46 -107 28 -51 51 -96 51 -100 0 -3
-16 -6 -35 -6 -25 0 -39 6 -50 23 -24 37 -115 245 -115 263 0 18 34 11 63 -14
20 -17 23 -4 4 21 -13 19 -75 32 -94 20z m-275 -50 c31 -46 142 -242 142 -253
0 -5 -11 -10 -25 -10 -23 0 -33 14 -90 133 -36 72 -65 138 -65 145 0 20 18 13
38 -15z m220 10 c25 -21 142 -233 142 -257 0 -26 -66 -22 -84 7 -19 28 -106
238 -106 255 0 17 24 15 48 -5z m-90 -36 c45 -72 116 -226 108 -234 -16 -16
-44 19 -98 123 -55 104 -70 154 -48 154 6 0 23 -20 38 -43z m370 29 c16 -8 46
-47 73 -92 47 -79 99 -179 99 -189 0 -3 -20 -5 -44 -5 -55 0 -66 13 -136 169
-59 130 -57 151 8 117z m-648 -86 c25 -47 58 -106 73 -132 26 -45 27 -48 8
-48 -30 0 -47 23 -107 141 -59 118 -63 132 -36 127 10 -2 36 -39 62 -88z m62
73 c9 -10 43 -71 78 -135 61 -117 61 -118 36 -118 -19 0 -32 10 -51 41 -26 40
-87 169 -100 208 -8 26 15 28 37 4z m-145 -128 c40 -71 68 -132 62 -133 -31
-11 -57 12 -110 100 -81 132 -91 155 -76 162 37 15 52 -1 124 -129z m895 108
c14 -16 38 -53 53 -83 15 -30 42 -80 61 -111 19 -31 34 -62 34 -68 0 -21 -60
-12 -85 13 -22 22 -135 246 -135 267 0 20 48 7 72 -18z m122 6 c15 -12 43 -53
63 -93 19 -39 55 -101 79 -138 l44 -68 -39 0 c-22 0 -48 8 -62 19 -29 22 -154
275 -145 290 11 17 30 13 60 -10z m-1234 -9 c10 -5 37 -44 60 -85 23 -42 57
-94 77 -116 l35 -39 -31 0 c-27 0 -37 9 -82 73 -71 101 -102 155 -94 167 8 12
12 13 35 0z m1425 -128 c122 -229 149 -239 65 -25 -27 70 -50 132 -50 136 0 5
12 7 27 5 26 -3 38 -16 85 -94 10 -16 22 -36 26 -44 5 -8 15 -33 22 -55 7 -22
24 -57 37 -77 34 -56 31 -60 -33 -52 -49 6 -57 4 -70 -14 -8 -11 -53 -41 -101
-67 -48 -25 -123 -72 -167 -103 -102 -73 -286 -251 -286 -278 0 -11 -16 -52
-35 -92 -19 -40 -33 -72 -31 -72 2 0 29 41 61 90 76 121 121 177 186 230 59
49 52 37 -29 -55 -73 -82 -163 -219 -222 -340 -47 -97 -113 -283 -125 -356 -4
-19 -10 -42 -15 -49 -18 -29 -20 -1 -5 70 8 40 14 75 11 77 -8 9 -27 -65 -33
-128 -5 -59 -3 -71 21 -111 14 -25 26 -51 26 -58 0 -7 7 -22 17 -32 9 -10 14
-20 11 -23 -8 -8 -59 44 -96 99 -39 57 -52 55 -22 -4 30 -58 19 -60 -19 -3
-17 26 -31 41 -31 32 0 -9 18 -42 40 -73 51 -72 30 -68 -28 5 -24 30 -54 67
-68 84 -13 16 -24 37 -24 46 0 51 105 387 117 375 3 -3 -9 -48 -27 -100 -17
-53 -30 -102 -27 -109 2 -6 16 25 31 70 68 204 175 372 346 544 123 124 180
170 167 135 -8 -21 7 -21 24 0 16 20 193 139 266 180 53 29 66 44 39 44 -23 0
-64 56 -113 154 -69 138 -82 184 -49 173 6 -2 43 -62 81 -135z m-1478 71 c20
-32 56 -84 80 -117 24 -32 43 -62 43 -67 0 -5 -13 -9 -29 -9 -38 0 -86 55
-138 157 -32 63 -36 75 -23 83 24 16 29 13 67 -47z m-131 -79 c41 -63 74 -117
74 -120 0 -3 -12 -4 -27 -2 -22 2 -39 20 -80 78 -70 101 -91 149 -73 160 8 5
18 6 23 3 5 -3 42 -57 83 -119z m78 6 c41 -63 72 -118 70 -122 -16 -26 -45 1
-112 107 -68 105 -81 141 -47 133 7 -2 47 -55 89 -118z m-214 45 c45 -61 110
-166 110 -177 0 -5 -11 -8 -25 -8 -29 0 -57 25 -81 72 -9 18 -35 56 -57 85
-41 55 -43 83 -8 83 13 0 35 -20 61 -55z m1360 40 c0 -8 -2 -15 -4 -15 -2 0
-6 7 -10 15 -3 8 -1 15 4 15 6 0 10 -7 10 -15z m607 -2 c11 -10 25 -36 32 -58
7 -22 33 -82 57 -134 24 -51 44 -98 44 -102 0 -16 -57 -9 -73 9 -21 23 -70
129 -101 217 -18 51 -21 72 -13 77 19 12 33 9 54 -9z m-2106 -30 c44 -47 159
-189 159 -197 0 -10 -50 -7 -72 5 -24 13 -138 187 -138 211 0 27 12 22 51 -19z
m-80 -40 c23 -32 63 -82 88 -111 36 -43 42 -55 30 -63 -19 -12 -26 -11 -57 5
-35 18 -69 56 -121 134 -45 67 -47 92 -8 92 18 0 36 -15 68 -57z m2328 -28
c16 -38 45 -105 65 -148 41 -89 40 -87 23 -87 -35 0 -89 90 -145 241 -22 60
-20 72 11 67 13 -2 27 -25 46 -73z m-2469 18 c19 -26 56 -74 83 -107 26 -32
47 -63 47 -68 0 -18 -57 -7 -77 15 -38 41 -133 180 -133 193 0 32 46 12 80
-33z m2558 13 c5 -6 19 -40 31 -76 13 -36 38 -93 57 -128 19 -34 34 -67 34
-72 0 -6 -13 -10 -29 -10 -23 0 -34 8 -51 38 -38 63 -110 256 -98 263 13 8 45
0 56 -15z m-2575 -145 c47 -54 49 -70 8 -71 -33 0 -180 197 -165 221 7 12 46
-25 157 -150z m2157 114 c0 -5 -5 -3 -10 5 -5 8 -10 20 -10 25 0 6 5 3 10 -5
5 -8 10 -19 10 -25z m523 15 c13 -11 28 -32 32 -47 3 -15 28 -76 55 -135 39
-89 45 -108 31 -108 -9 0 -39 -11 -67 -24 -27 -12 -81 -35 -120 -50 -40 -15
-107 -50 -151 -79 -112 -74 -317 -250 -367 -316 -80 -105 -166 -272 -201 -394
-8 -30 -22 -62 -30 -73 -14 -18 -14 -18 -16 6 -1 23 -2 23 -11 -7 -15 -46 -3
-78 49 -134 76 -81 33 -80 -69 2 -67 53 -76 57 -85 33 -4 -10 10 -32 41 -63
25 -26 46 -50 46 -54 0 -22 -42 0 -92 50 -63 63 -85 68 -37 9 40 -48 32 -56
-15 -16 -48 43 -46 30 5 -25 25 -27 36 -45 27 -45 -19 0 -65 35 -116 90 -50
55 -55 39 -7 -24 19 -25 31 -46 26 -46 -14 0 -81 81 -81 97 0 8 -4 11 -10 8
-17 -11 -11 -22 46 -89 30 -36 52 -66 49 -66 -19 0 -99 67 -121 100 -25 38
-26 40 -11 82 9 24 27 85 42 137 46 168 136 359 218 464 46 59 43 36 -6 -45
-52 -86 -102 -183 -111 -218 -4 -14 18 22 49 80 92 171 142 238 269 366 85 85
146 136 206 172 87 54 206 105 273 117 67 13 39 -10 -47 -38 -153 -50 -274
-126 -410 -257 -167 -161 -276 -340 -351 -578 -58 -184 -60 -187 -78 -186 -9
1 -17 -3 -17 -8 0 -5 12 -8 26 -6 25 3 30 13 70 138 49 152 165 395 218 455
30 36 26 23 -40 -110 -41 -82 -74 -156 -73 -165 0 -8 26 37 57 100 115 231
232 368 426 499 54 38 295 143 311 137 5 -2 -6 -10 -25 -18 -19 -7 -96 -43
-170 -80 -149 -74 -262 -163 -358 -280 -114 -139 -262 -455 -287 -611 -6 -39
-24 -42 -26 -4 -1 17 -3 15 -8 -8 -9 -35 -1 -48 24 -43 13 2 24 27 42 93 53
202 170 433 294 583 59 71 185 174 261 213 48 25 50 8 2 -21 -19 -12 -33 -24
-30 -27 7 -8 126 68 126 81 0 12 207 112 215 104 3 -2 -34 -26 -81 -52 -219
-122 -386 -254 -474 -375 -24 -33 -46 -58 -48 -56 -6 6 55 100 74 116 17 14
38 49 29 49 -2 0 -32 -34 -65 -76 -62 -78 -128 -192 -96 -165 22 18 21 14 -20
-75 -20 -44 -56 -133 -80 -199 -24 -68 -52 -127 -64 -137 -23 -19 -11 -33 20
-23 13 4 23 21 30 48 55 217 176 444 323 605 68 73 267 212 306 212 7 0 66 25
131 55 65 30 128 55 139 55 30 0 27 33 -10 127 -68 169 -70 223 -6 173z
m-2824 -104 c49 -57 87 -107 84 -110 -19 -18 -55 -2 -93 42 -52 58 -110 142
-110 159 0 32 35 5 119 -91z m-121 7 c33 -43 71 -89 86 -102 33 -31 33 -41 -1
-41 -37 0 -38 1 -116 102 -70 90 -81 118 -47 118 12 0 40 -27 78 -77z m3069
55 c5 -7 22 -49 37 -93 36 -102 105 -245 122 -252 25 -9 15 -22 -36 -48 -62
-31 -88 -32 -37 -1 34 21 36 24 17 29 -14 4 -18 11 -14 24 3 10 -12 -1 -33
-23 -42 -46 -95 -77 -121 -72 -12 3 -3 11 26 27 68 35 40 38 -30 3 -76 -37
-192 -113 -233 -153 -21 -20 -41 -29 -63 -29 -18 0 -32 4 -32 8 0 10 74 81
120 115 19 14 51 27 70 29 19 2 33 6 30 9 -10 14 34 49 69 54 42 7 102 35 96
45 -2 4 7 18 20 30 14 13 25 29 25 35 0 6 -20 67 -45 135 -25 68 -45 127 -45
132 0 13 47 9 57 -4z m-3209 -30 c15 -17 47 -54 72 -82 92 -105 85 -95 66
-102 -13 -5 -32 7 -67 42 -59 58 -129 146 -129 162 0 23 32 12 58 -20z m3310
0 c5 -7 36 -78 67 -158 32 -80 65 -154 75 -165 32 -37 31 -42 -18 -60 -26 -10
-104 -46 -173 -80 -103 -51 -129 -60 -142 -50 -14 10 -12 14 19 28 19 9 39 17
45 17 5 0 19 9 30 19 11 10 41 24 66 30 63 16 143 58 143 75 0 8 -11 23 -24
34 -14 10 -34 39 -45 63 -21 45 -101 248 -101 255 0 10 49 3 58 -8z m-3321
-116 c61 -60 79 -84 68 -88 -8 -4 -26 -3 -39 0 -38 9 -173 177 -160 198 7 11
21 0 131 -110z m-146 46 c13 -18 45 -59 72 -91 27 -32 48 -59 46 -61 -2 -2
-14 -7 -27 -11 -19 -5 -30 1 -60 33 -81 88 -129 203 -73 172 11 -5 30 -25 42
-42z m3571 40 c8 -7 27 -49 43 -93 15 -44 49 -128 76 -186 27 -58 49 -110 49
-116 0 -6 -13 -27 -30 -48 -40 -50 -38 -54 6 -15 37 32 83 55 92 45 3 -3 -13
-21 -36 -41 -23 -19 -42 -40 -42 -45 0 -17 22 -9 57 22 48 42 76 36 85 -16 8
-49 2 -75 -19 -75 -9 0 -13 6 -9 15 3 8 9 21 12 29 5 13 -24 32 -34 21 -3 -3
0 -5 6 -5 7 0 12 -4 12 -9 0 -4 -40 -13 -89 -20 -48 -6 -112 -19 -142 -30
-139 -48 -307 -153 -369 -232 -38 -47 -59 -52 -32 -6 11 17 22 45 26 60 5 22
10 26 20 18 10 -8 18 -6 31 9 17 18 17 20 2 14 -9 -3 -17 -2 -17 4 0 18 100
84 234 154 162 85 128 79 -51 -8 -111 -54 -145 -76 -211 -139 -44 -41 -83 -75
-86 -75 -10 0 -7 35 5 47 6 6 16 22 23 34 29 60 197 167 395 253 123 53 146
66 119 66 -38 0 -332 -142 -433 -210 -65 -43 -72 -45 -37 -8 45 48 169 121
287 168 121 48 165 70 165 82 0 5 -11 19 -25 31 -18 15 -41 65 -76 160 -27 76
-47 143 -43 148 7 12 17 11 36 -3z m-3675 -55 c21 -25 60 -71 87 -101 43 -48
46 -56 31 -65 -26 -14 -56 4 -107 65 -67 79 -90 117 -84 133 10 27 34 16 73
-32z m3768 -90 c4 -18 3 -25 -3 -18 -14 14 -51 142 -44 150 5 5 30 -66 47
-132z m-2025 109 c0 -5 -39 -38 -87 -74 -49 -36 -139 -113 -200 -169 -62 -57
-131 -119 -153 -138 -22 -18 -40 -38 -40 -44 0 -6 16 5 36 24 l37 34 -27 -45
c-102 -172 -208 -409 -221 -495 -3 -25 10 1 33 67 50 136 116 271 182 373 51
78 203 245 224 245 5 0 0 -10 -11 -22 -27 -30 -115 -169 -110 -174 5 -5 167
211 167 222 0 5 17 21 38 37 20 15 62 48 92 73 55 45 156 101 166 92 2 -3 -26
-27 -63 -55 -179 -130 -301 -268 -437 -491 -89 -145 -172 -348 -211 -512 -23
-98 -35 -109 -36 -35 0 50 -2 56 -10 35 -6 -13 -9 -45 -7 -70 3 -38 7 -46 25
-48 18 -3 24 4 32 40 70 283 146 469 278 673 74 113 212 259 236 249 10 -4 21
4 30 23 15 29 41 50 137 114 75 50 138 81 157 77 8 -2 -30 -34 -88 -73 -198
-133 -364 -325 -479 -555 -54 -108 -136 -322 -175 -455 -14 -49 -28 -98 -31
-107 -3 -12 0 -18 9 -18 10 0 21 30 37 98 39 167 144 428 238 589 86 147 282
367 282 317 0 -10 -10 -29 -22 -43 -34 -38 2 -10 82 64 117 107 250 198 267
181 4 -3 4 -8 2 -9 -2 -2 -44 -32 -94 -67 -174 -122 -296 -242 -401 -395 -30
-44 -60 -80 -67 -80 -17 0 -27 -16 -27 -46 0 -15 -23 -79 -50 -143 -52 -121
-101 -273 -123 -385 -15 -71 -37 -94 -37 -38 0 48 32 165 79 291 41 110 52
153 26 105 -37 -68 -99 -264 -115 -362 -9 -58 1 -87 29 -87 15 0 21 16 35 88
50 258 200 581 359 773 54 64 164 166 172 158 2 -3 -30 -43 -71 -89 -123 -141
-271 -363 -261 -394 3 -9 33 38 98 156 37 64 108 155 195 249 41 43 74 85 74
94 0 8 6 15 14 15 7 0 46 25 87 55 75 56 181 115 206 115 13 0 19 -20 6 -20
-16 -1 -184 -128 -279 -210 -184 -161 -303 -326 -397 -550 -34 -81 -98 -302
-112 -382 -4 -25 -11 -38 -22 -38 -13 0 -14 8 -8 48 9 62 58 252 85 331 12 34
20 65 17 68 -13 12 -127 -387 -127 -444 0 -29 39 -42 56 -19 6 10 24 67 39
129 78 317 185 529 361 716 88 93 120 113 69 44 -15 -21 15 4 67 55 101 101
224 198 302 237 53 26 78 24 36 -4 -188 -123 -417 -338 -504 -472 -139 -215
-239 -470 -263 -668 -9 -79 12 -57 27 26 15 89 62 252 99 343 39 95 157 292
230 382 101 125 237 245 201 177 -10 -18 -9 -19 7 -11 27 15 89 82 76 82 -7 0
-15 -4 -18 -10 -9 -15 -35 -12 -30 3 5 11 88 67 100 67 2 0 2 -7 -1 -15 -11
-27 10 -16 80 45 63 54 106 75 106 51 0 -5 -51 -48 -113 -94 -135 -102 -281
-245 -372 -365 -107 -141 -223 -398 -285 -632 -22 -83 -31 -104 -44 -102 -13
2 -16 -6 -16 -41 0 -46 12 -67 74 -136 24 -26 26 -32 11 -26 -11 4 -35 9 -54
10 -36 2 -52 17 -97 93 -21 34 -24 45 -14 57 10 12 9 15 -7 15 -11 0 -22 -3
-26 -6 -9 -10 19 -71 58 -125 19 -27 30 -49 24 -49 -17 0 -69 60 -102 119 -38
68 -47 51 -13 -25 34 -74 10 -65 -30 12 -17 33 -33 66 -36 74 -3 8 -9 12 -12
8 -11 -9 30 -96 65 -140 20 -26 25 -38 16 -38 -24 0 -76 61 -107 125 -20 41
-30 53 -30 37 0 -13 6 -35 14 -50 7 -15 17 -38 21 -52 6 -20 5 -23 -6 -12 -20
19 -31 14 -24 -10 10 -40 -62 49 -81 98 -22 59 -37 56 -19 -3 18 -57 17 -56 5
-48 -6 4 -21 27 -35 53 -29 56 -33 36 -5 -25 10 -24 15 -43 11 -43 -14 0 -38
33 -70 98 -17 34 -36 62 -42 62 -8 0 -8 -4 -1 -12 15 -19 51 -118 43 -118 -4
0 -13 6 -19 12 -10 10 -14 10 -20 0 -5 -8 -22 13 -49 61 -23 41 -48 74 -58 76
-15 3 -14 -2 8 -29 15 -17 27 -41 27 -53 l-1 -22 -12 23 c-10 16 -16 19 -24
11 -8 -8 -17 0 -33 32 -24 47 -48 79 -60 79 -20 0 -17 -33 7 -77 24 -46 24
-47 3 -28 -12 11 -29 32 -36 48 -8 15 -19 25 -24 22 -5 -3 -14 4 -20 15 -6 11
-7 20 -2 20 11 0 13 6 57 175 38 150 115 345 175 445 89 150 270 344 270 290
0 -6 11 -3 25 6 43 28 28 5 -54 -85 -97 -106 -156 -197 -232 -355 -50 -106
-112 -283 -134 -385 -4 -20 -14 -35 -26 -38 -15 -4 -16 -9 -8 -24 20 -39 35
-19 58 79 44 184 142 413 240 562 49 75 146 181 161 177 5 -1 57 41 117 94
129 115 155 137 208 172 44 30 45 30 45 19z m-1818 -95 c43 -45 80 -92 84
-104 4 -14 14 -23 25 -23 27 0 31 -18 16 -69 -11 -40 -15 -44 -47 -47 -20 -2
-43 3 -54 11 -18 13 -19 19 -8 48 7 19 12 39 12 46 0 7 -31 44 -68 84 -80 84
-106 122 -97 137 15 25 63 -4 137 -83z m1370 66 c-59 -21 -256 -231 -350 -373
-69 -104 -171 -304 -208 -408 -70 -198 -65 -187 -80 -167 -14 18 -14 18 -14
-1 0 -28 15 -46 35 -42 14 2 24 25 40 93 39 158 114 313 246 504 68 100 84
121 92 121 4 0 4 -8 0 -17 -3 -10 18 14 46 52 69 91 143 167 209 212 60 42 81
40 25 -3 -106 -80 -272 -271 -336 -388 -115 -211 -216 -449 -232 -549 -4 -23
-10 -35 -17 -31 -7 5 -9 -12 -6 -55 4 -60 -4 -81 -17 -40 -4 12 -13 18 -20 15
-9 -3 -18 7 -26 29 -7 18 -17 31 -23 29 -6 -2 -23 11 -38 29 l-26 34 42 119
c23 65 61 160 83 209 22 50 43 100 47 112 4 12 20 36 36 53 16 17 32 47 36 67
4 19 9 30 13 25 3 -6 26 13 49 41 101 121 383 360 401 341 3 -4 0 -9 -7 -11z
m234 4 c-161 -102 -288 -218 -386 -351 -49 -66 -98 -131 -110 -144 -11 -12
-20 -29 -20 -36 0 -8 -20 -65 -44 -128 -24 -62 -55 -156 -70 -208 -46 -167
-49 -175 -54 -162 -11 34 70 318 119 413 22 44 26 77 3 36 -49 -90 -127 -338
-147 -467 l-12 -81 -23 24 c-23 24 -23 26 -8 71 9 26 16 55 16 65 0 42 54 202
105 309 90 189 243 430 245 384 0 -7 46 34 103 91 106 108 176 162 237 183 46
17 72 17 46 1z m-428 -40 c-20 -18 -77 -70 -127 -116 -50 -46 -91 -79 -91 -74
0 18 240 237 249 227 3 -3 -11 -20 -31 -37z m102 34 c0 -11 -169 -155 -175
-149 -4 4 163 158 171 158 2 0 4 -4 4 -9z m420 5 c0 -7 -190 -157 -207 -163
-31 -11 49 67 121 118 62 44 86 57 86 45z m935 -24 c-6 -5 -62 -42 -125 -84
-146 -96 -293 -234 -364 -342 -61 -92 -141 -247 -192 -375 -37 -89 -116 -362
-108 -370 11 -11 24 21 48 117 36 141 87 274 162 422 70 138 142 255 151 247
3 -3 -4 -18 -15 -34 -23 -33 -54 -93 -48 -93 2 0 32 39 67 88 145 200 361 378
517 426 42 14 22 -12 -35 -45 -261 -147 -481 -382 -603 -641 -44 -95 -98 -250
-130 -378 -28 -109 -45 -128 -37 -40 8 76 -7 61 -17 -18 l-7 -53 27 3 c25 3
28 9 59 133 74 291 155 455 329 663 40 48 85 98 100 111 46 43 38 15 -12 -40
-198 -219 -333 -476 -387 -735 -27 -130 -24 -164 19 -234 21 -34 36 -63 34
-66 -3 -2 -26 23 -52 56 -56 71 -74 90 -87 90 -18 0 -9 -56 17 -104 39 -73 21
-67 -30 11 -53 82 -72 101 -88 85 -15 -15 -3 -52 38 -112 19 -28 34 -54 31
-56 -2 -3 -35 28 -72 67 l-68 72 6 61 c12 126 114 408 206 568 56 99 140 210
163 216 10 2 18 8 18 13 0 12 167 172 240 231 104 84 203 148 229 148 14 0 21
-4 16 -8z m1375 -54 c0 -4 30 -73 66 -154 36 -80 63 -148 60 -151 -3 -4 -17
-1 -32 5 -28 13 -72 101 -124 248 -39 111 -39 126 0 89 17 -16 30 -32 30 -37z
m-3045 43 c-6 -4 -44 -31 -86 -59 -42 -28 -122 -92 -178 -143 -57 -50 -98 -81
-91 -69 9 17 9 24 1 30 -9 5 -8 10 3 19 8 7 20 10 25 7 5 -4 34 17 63 45 68
66 227 179 252 179 12 0 16 -3 11 -9z m1899 1 c3 -5 -29 -28 -71 -52 -124 -70
-260 -179 -384 -307 -64 -66 -132 -146 -151 -179 -84 -141 -108 -177 -108
-162 0 21 93 173 170 276 117 157 271 296 439 394 65 37 95 46 105 30z m-3117
-120 c46 -48 83 -90 83 -94 0 -4 -12 -11 -26 -14 -21 -6 -34 1 -76 42 -77 76
-130 142 -123 155 16 25 63 -4 142 -89z m938 53 c-16 -13 -86 -60 -155 -104
-97 -64 -115 -73 -81 -42 54 51 252 183 260 175 3 -3 -7 -16 -24 -29z m3407
18 c20 -23 160 -315 154 -321 -3 -2 -17 0 -33 5 -22 7 -36 25 -65 83 -36 74
-88 213 -88 238 0 17 14 15 32 -5z m-2128 -14 c-22 -24 -54 -43 -61 -36 -4 5
66 57 76 57 2 0 -4 -9 -15 -21z m1055 6 c-20 -7 -51 -20 -69 -30 -18 -9 -29
-11 -25 -5 10 16 85 49 110 49 12 0 6 -6 -16 -14z m-2464 -25 c-3 -5 -11 -10
-16 -10 -6 0 -7 5 -4 10 3 6 11 10 16 10 6 0 7 -4 4 -10z m-115 -15 c0 -8 -82
-47 -87 -41 -7 6 58 46 75 46 6 0 12 -2 12 -5z m65 -15 c-3 -5 -11 -10 -16
-10 -6 0 -7 5 -4 10 3 6 11 10 16 10 6 0 7 -4 4 -10z m960 0 c-3 -5 -11 -10
-16 -10 -6 0 -7 5 -4 10 3 6 11 10 16 10 6 0 7 -4 4 -10z m-575 -35 c-19 -19
-39 -35 -44 -35 -12 1 59 70 71 70 4 0 -8 -16 -27 -35z m2655 25 c3 -5 -3 -10
-15 -10 -12 0 -18 5 -15 10 3 6 10 10 15 10 5 0 12 -4 15 -10z m-3300 -75
c-39 -35 -73 -64 -77 -65 -12 0 -9 46 4 75 8 19 26 30 72 44 34 10 63 16 66
14 3 -3 -27 -33 -65 -68z m2605 54 c-86 -52 -104 -61 -93 -49 16 17 105 70
118 70 6 0 -6 -10 -25 -21z m1545 -87 c27 -50 68 -113 90 -140 34 -39 40 -51
33 -72 -4 -14 -10 -42 -13 -62 -5 -31 -10 -38 -28 -38 -45 0 -52 14 -40 72 10
50 10 55 -12 78 -33 36 -91 146 -109 208 -15 53 -15 53 7 50 16 -2 35 -27 72
-96z m-5038 21 c75 -81 93 -111 74 -122 -11 -7 -10 -11 4 -18 12 -7 19 -26 22
-59 l5 -49 -56 -2 -56 -2 0 33 c0 20 8 40 20 51 11 10 20 23 20 28 0 5 -19 33
-43 61 -87 103 -102 127 -86 137 24 15 32 11 96 -58z m1073 54 c-8 -8 -45 -37
-82 -65 -75 -58 -93 -55 -25 3 50 43 150 101 107 62z m3058 -8 c2 -12 -7 -18
-36 -22 -48 -8 -217 -119 -329 -216 -161 -140 -276 -294 -343 -461 -49 -121
-73 -170 -82 -170 -4 0 -8 3 -8 8 0 7 22 89 35 132 14 48 -12 6 -34 -53 -25
-68 -27 -129 -6 -147 12 -10 15 -10 15 3 0 10 6 13 19 10 15 -4 19 3 25 37 9
55 68 208 108 279 64 115 203 291 229 291 22 0 7 -64 -22 -102 -43 -54 -30
-59 15 -6 30 35 39 40 46 28 5 -8 10 -25 10 -38 0 -33 24 -22 28 12 2 19 -4
35 -18 48 -30 28 -22 51 23 62 45 11 90 -2 95 -27 3 -15 -2 -17 -36 -11 -46 7
-64 -9 -38 -34 15 -15 16 -15 16 3 0 12 3 16 10 9 5 -5 23 -83 40 -174 16 -91
33 -175 36 -186 3 -12 1 -25 -5 -28 -15 -10 -14 -29 5 -52 13 -16 15 -16 10
-1 -9 27 7 20 31 -15 29 -41 20 -47 -77 -55 -53 -4 -80 -2 -115 11 -54 21 -56
36 -15 90 30 39 43 83 18 58 -23 -23 -25 -12 -7 41 10 28 18 60 19 70 0 10 7
20 15 23 19 8 27 36 19 68 -7 28 -24 26 -24 -3 0 -9 -20 -50 -45 -91 -25 -41
-55 -106 -66 -145 -26 -83 -28 -87 -39 -80 -5 3 -3 27 5 52 8 26 12 49 10 51
-6 7 -35 -68 -41 -109 -5 -29 -10 -36 -22 -32 -11 5 -14 2 -9 -9 4 -11 -9 -28
-41 -53 -47 -36 -64 -39 -114 -20 -12 5 -18 2 -18 -8 0 -8 -6 -17 -12 -20 -10
-3 -10 -7 1 -20 12 -15 11 -17 -6 -17 -21 0 -101 48 -122 73 -45 55 65 339
201 520 103 139 377 357 490 391 29 9 69 25 88 36 40 22 63 22 68 -1z m1516
-34 c80 -28 168 -83 193 -121 21 -32 10 -55 -35 -69 -53 -18 -49 -26 9 -19 54
6 99 -5 99 -25 0 -5 -26 -11 -57 -15 -65 -8 -112 -33 -149 -81 -25 -34 -100
-65 -154 -65 -11 0 -18 -4 -15 -10 3 -5 19 -10 35 -10 16 0 32 5 35 10 9 14
45 13 45 -2 0 -6 -8 -20 -17 -31 -17 -19 -17 -19 3 -13 18 6 25 -3 53 -58 17
-36 45 -76 62 -90 46 -39 9 -32 -47 9 -27 19 -83 55 -124 80 l-75 45 50 1 c62
1 33 17 -32 18 -31 1 -43 5 -43 15 0 8 5 18 10 21 6 3 10 17 10 31 0 14 6 24
14 24 8 0 32 20 54 45 43 49 56 53 84 29 19 -18 16 -21 33 32 5 14 -1 16 -40
11 -27 -2 -56 -13 -68 -25 -18 -16 -31 -19 -68 -15 -64 7 -97 -13 -206 -125
-51 -53 -96 -93 -99 -89 -4 3 8 36 25 73 17 37 38 95 46 131 16 69 50 143 65
143 13 0 12 -15 -5 -80 -18 -65 -17 -60 -7 -60 5 0 19 18 31 41 18 31 23 57
24 119 2 71 5 82 28 106 49 48 132 55 233 19z m-5755 -72 c78 -82 82 -87 61
-95 -13 -5 -31 -6 -42 -2 -26 8 -138 141 -138 164 0 39 36 19 119 -67z m729 9
c2 -42 0 -52 -12 -52 -9 0 -16 4 -16 10 0 6 -9 6 -26 0 -47 -18 -55 -13 -52
28 3 31 9 40 38 55 53 26 65 20 68 -41z m5244 39 c29 -10 71 -23 93 -29 139
-36 304 -103 359 -145 17 -13 15 -14 -30 -20 -27 -3 -78 -19 -114 -36 -36 -17
-75 -31 -86 -31 -37 0 -163 69 -189 104 -14 18 -25 37 -25 42 -1 16 -53 71
-99 103 l-44 31 41 0 c22 0 64 -8 94 -19z m-6093 -77 c53 -66 95 -92 46 -28
-42 55 -23 51 24 -5 l41 -49 -31 -11 c-53 -18 -65 -13 -114 47 -60 72 -74 100
-55 112 21 13 34 4 89 -66z m1251 51 c-7 -8 -20 -15 -29 -15 -13 1 -13 3 3 15
26 19 42 19 26 0z m536 -3 c-3 -3 -16 -10 -28 -16 -13 -6 -24 -20 -26 -30 -3
-13 0 -16 10 -11 7 5 10 5 6 0 -4 -4 -18 -13 -30 -20 -14 -6 -22 -19 -21 -31
1 -10 -7 -30 -17 -44 -12 -16 -20 -20 -20 -11 0 8 -11 0 -25 -19 -28 -38 -29
-40 -17 -40 5 0 14 12 21 26 6 15 14 24 17 21 3 -2 -13 -35 -35 -71 -55 -89
-123 -227 -151 -303 -12 -35 -27 -63 -32 -63 -6 0 -8 7 -4 15 7 20 -4 19 -20
-2 -22 -31 -28 -5 -9 44 34 91 147 303 202 380 86 120 152 193 169 186 8 -3
12 -8 10 -11z m-1078 -29 c3 -25 -3 -35 -26 -52 -38 -26 -47 -26 -66 1 -18 26
-8 51 32 73 39 21 57 15 60 -22z m-128 -49 c0 -45 -7 -53 -27 -33 -9 9 -18 8
-37 -4 -23 -16 -25 -16 -31 3 -10 31 4 60 38 80 40 25 57 12 57 -46z m1246 41
c-3 -9 -11 -13 -16 -10 -8 5 -7 11 1 21 14 18 24 11 15 -11z m-44 -37 c-7 -7
-12 -8 -12 -2 0 14 12 26 19 19 2 -3 -1 -11 -7 -17z m2551 13 c17 -6 17 -8 3
-20 -8 -7 -20 -10 -25 -6 -10 6 -57 -18 -76 -40 -9 -10 -103 -65 -111 -65 -19
0 10 29 79 79 82 61 96 66 130 52z m-3885 -13 c7 -7 12 -31 12 -55 0 -40 -2
-43 -28 -43 -15 0 -34 -6 -41 -12 -25 -26 -56 55 -33 88 20 30 70 42 90 22z
m-678 -64 c38 -37 70 -70 70 -74 0 -5 -14 -11 -31 -15 -24 -6 -36 -2 -56 17
-39 35 -83 99 -83 120 0 33 28 19 100 -48z m5251 6 c23 -13 25 -45 4 -54 -8
-3 -15 -12 -15 -20 0 -26 -20 -28 -40 -4 -24 28 -25 52 -4 72 18 19 28 20 55
6z m-756 -40 c-10 -11 -25 -20 -34 -20 -12 1 -10 5 8 20 30 26 49 26 26 0z
m60 10 c-3 -5 -11 -10 -16 -10 -6 0 -7 5 -4 10 3 6 11 10 16 10 6 0 7 -4 4
-10z m-2635 -45 c-11 -22 -20 -48 -20 -60 0 -11 -16 -54 -35 -95 -19 -41 -49
-121 -67 -177 -27 -87 -35 -102 -50 -97 -27 8 -22 -10 17 -56 19 -23 35 -48
35 -56 0 -28 -28 -13 -70 37 l-42 50 21 67 c31 94 122 281 177 363 50 75 66
87 34 24z m3578 11 c6 -49 -6 -76 -33 -76 -28 0 -45 25 -45 68 0 37 7 44 45
40 25 -2 31 -8 33 -32z m-1078 -26 c0 -5 -5 -10 -11 -10 -5 0 -7 5 -4 10 3 6
8 10 11 10 2 0 4 -4 4 -10z m855 -10 c3 -5 -1 -10 -10 -10 -9 0 -13 5 -10 10
3 6 8 10 10 10 2 0 7 -4 10 -10z m425 -27 c0 -21 -5 -45 -10 -53 -8 -13 -13
-13 -37 0 -15 9 -29 23 -31 32 -4 22 32 58 58 58 16 0 20 -7 20 -37z m-5584
-19 c7 -23 9 -46 5 -52 -3 -5 -28 -11 -56 -13 l-50 -4 -3 42 c-3 34 1 44 20
57 13 9 34 15 48 14 19 -2 27 -12 36 -44z m4769 -19 c-14 -30 -41 -87 -60
-126 -20 -39 -34 -76 -32 -82 2 -7 14 8 27 33 13 25 25 40 27 33 5 -13 -19
-55 -104 -192 -43 -69 -50 -87 -42 -103 6 -11 9 -29 6 -39 -3 -10 -1 -19 4
-19 17 0 22 31 9 54 -11 22 -4 37 80 172 50 82 110 186 132 232 40 83 60 104
80 84 14 -14 -107 -255 -198 -392 -20 -29 -25 -45 -17 -47 10 -4 9 -12 -3 -36
l-15 -32 26 30 c40 46 177 269 229 373 25 50 51 92 56 92 49 0 -25 -163 -174
-384 -31 -46 -43 -72 -36 -76 21 -13 -45 -102 -92 -124 -34 -16 -39 -21 -23
-24 13 -2 33 -25 54 -63 41 -75 36 -99 -8 -33 -19 27 -88 101 -154 165 -117
113 -121 118 -109 143 12 27 4 34 -15 15 -14 -14 -33 -3 -33 18 0 9 6 13 15 9
8 -3 15 -1 15 5 0 5 -8 13 -17 16 -18 7 -42 32 -43 45 0 11 121 138 131 138
16 0 10 -16 -32 -81 -59 -91 -13 -45 67 67 65 92 106 134 112 115 4 -11 -41
-103 -69 -143 -23 -32 -24 -39 -4 -32 21 8 19 -5 -6 -46 -15 -25 -17 -31 -5
-21 9 8 49 66 88 130 74 120 123 181 144 181 9 0 5 -17 -11 -55z m-5389 26
c18 -11 44 -36 60 -56 23 -30 25 -38 13 -46 -8 -5 -18 -9 -23 -9 -13 0 -116
105 -116 118 0 18 31 14 66 -7z m6464 9 c0 -5 -7 -10 -15 -10 -8 0 -15 5 -15
10 0 6 7 10 15 10 8 0 15 -4 15 -10z m402 0 c59 -17 90 -62 52 -77 -10 -3 -27
7 -48 31 -19 20 -41 36 -49 36 -9 0 -19 5 -22 10 -8 13 20 13 67 0z m149 -20
c10 -6 19 -17 19 -25 0 -8 6 -15 14 -15 19 0 46 -39 46 -66 0 -17 -8 -23 -41
-28 -58 -9 -78 8 -48 41 l22 23 -32 0 c-34 0 -36 4 -44 62 -5 36 -5 37 19 27
14 -5 34 -14 45 -19z m-592 2 c8 -15 4 -24 -19 -44 -20 -18 -32 -22 -39 -15
-18 18 -13 45 11 61 29 20 35 20 47 -2z m419 -25 c6 -5 12 -18 12 -29 0 -18
-4 -20 -45 -14 -25 4 -51 4 -57 -1 -8 -5 1 -10 26 -13 34 -4 41 -9 48 -36 4
-17 15 -37 23 -44 8 -7 15 -21 15 -31 0 -18 2 -19 30 -4 16 8 35 15 43 15 8 0
20 7 27 15 17 20 99 20 106 0 8 -21 -67 -90 -120 -110 -59 -22 -100 -14 -90
18 7 22 6 22 -14 3 -29 -25 -63 -15 -114 34 -34 33 -42 47 -46 88 -3 41 -1 52
15 63 11 8 23 24 27 36 10 32 79 38 114 10z m-473 -57 c15 -22 26 -42 24 -44
-2 -2 -17 -8 -34 -13 -40 -13 -44 -45 -11 -78 22 -22 33 -25 101 -25 105 0
157 -15 195 -56 21 -23 39 -34 58 -34 16 0 37 -6 47 -14 19 -13 18 -15 -16
-31 -35 -17 -44 -16 -210 4 -226 28 -224 28 -238 57 -15 33 -14 99 1 124 9 14
10 29 2 60 -12 41 -2 54 23 29 7 -7 9 -3 6 15 -6 30 3 60 15 52 5 -3 21 -23
37 -46z m2785 15 c-9 -11 -10 -18 -1 -28 8 -11 5 -16 -15 -25 -14 -7 -33 -12
-44 -12 -10 0 -22 -5 -26 -12 -7 -11 33 -9 114 8 19 4 32 3 32 -4 0 -14 -148
-71 -315 -121 -77 -23 -153 -49 -168 -57 -16 -7 -35 -14 -42 -14 -7 0 -15 -4
-17 -9 -8 -23 -531 -124 -813 -157 -219 -26 -715 -27 -799 -1 -64 20 -81 17
-43 -8 31 -20 120 -35 217 -36 41 0 95 -4 120 -7 l45 -7 -65 -19 c-36 -10
-112 -20 -170 -23 -99 -5 -115 -3 -240 31 -203 54 -219 56 -540 56 -340 0
-318 -7 -298 92 17 84 -12 82 382 29 264 -36 318 -38 310 -16 -11 27 65 18
121 -15 l50 -30 325 0 c179 0 375 5 435 10 191 18 817 134 892 165 38 16 41
30 12 64 -24 30 -36 20 -20 -16 10 -21 9 -28 -1 -34 -23 -15 -36 -10 -47 21
-5 17 -15 30 -20 30 -15 0 -14 -23 1 -38 15 -15 -4 -31 -37 -32 -11 0 -38 -7
-60 -15 -45 -16 -99 -20 -77 -6 18 11 11 46 -8 46 -10 0 -16 -12 -18 -32 -4
-40 -17 -42 -34 -5 -7 15 -18 27 -23 27 -15 0 -19 -37 -5 -45 10 -6 -67 -40
-92 -40 -9 0 -10 40 -2 93 7 41 18 46 46 20 18 -16 19 -16 25 5 6 26 21 28 38
5 13 -18 35 -10 35 13 0 16 16 19 25 4 10 -15 35 -12 35 5 0 18 31 20 48 3 10
-10 14 -8 18 10 7 26 8 26 34 10 16 -10 22 -9 33 6 11 16 17 17 36 7 20 -11
23 -10 28 8 6 22 37 29 48 11 10 -16 22 -11 28 12 5 17 9 19 21 9 11 -9 15 -9
19 1 3 7 6 3 6 -9 1 -31 21 -40 21 -9 0 32 10 37 40 21 18 -10 28 -10 42 -1
16 9 22 7 38 -14 11 -14 20 -33 20 -42 0 -25 -26 -23 -33 2 -8 31 -27 24 -27
-10 0 -23 5 -30 19 -30 23 0 151 39 151 46 0 15 -32 64 -41 64 -8 0 -7 5 1 15
7 8 16 15 21 15 5 0 6 -7 3 -15 -4 -8 -1 -15 5 -15 6 0 11 7 11 15 0 17 35 21
45 5 10 -16 26 -11 23 8 -2 12 5 18 25 20 29 4 35 -6 15 -26 -6 -6 -8 -15 -3
-19 4 -5 10 -2 12 5 3 6 13 12 24 12 10 0 19 7 19 15 0 14 31 37 39 29 2 -2
-2 -10 -9 -19z m110 13 c0 -19 -18 -44 -25 -36 -4 3 0 15 7 27 15 24 18 26 18
9z m-2840 -18 c0 -5 -5 -10 -11 -10 -5 0 -7 5 -4 10 3 6 8 10 11 10 2 0 4 -4
4 -10z m-6208 -35 c12 -44 2 -74 -29 -81 -32 -9 -63 24 -63 66 0 22 6 31 28
38 40 16 55 10 64 -23z m6733 -15 c0 -22 -5 -25 -42 -28 -44 -3 -51 5 -37 43
5 12 17 15 43 13 31 -3 36 -6 36 -28z m1945 16 c0 -7 9 -25 20 -39 25 -32 25
-37 0 -37 -11 0 -35 17 -54 38 -34 36 -34 37 -13 44 36 10 47 9 47 -6z m-9316
-39 c34 -44 33 -57 -4 -57 -23 0 -35 7 -50 33 -26 42 -25 57 4 57 17 0 34 -12
50 -33z m518 9 c24 -36 -5 -83 -44 -70 -28 8 -38 22 -38 51 0 39 60 53 82 19z
m6164 -47 c-12 -117 -32 -145 -65 -88 -16 29 -2 92 30 133 34 44 42 33 35 -45z
m-6812 19 c43 -50 45 -60 9 -56 -18 2 -35 15 -50 37 -47 70 -15 85 41 19z
m546 -3 c17 -46 -4 -75 -57 -75 -32 0 -33 2 -33 40 0 42 16 59 58 60 15 0 26
-8 32 -25z m-117 -14 c9 -45 -6 -85 -36 -95 -37 -13 -51 3 -51 61 -1 42 2 48
24 54 47 13 57 10 63 -20z m6606 3 c19 -8 31 -17 28 -20 -12 -12 -92 -23 -124
-17 -26 4 -33 10 -33 28 0 36 52 40 129 9z m-1509 6 c0 -5 -5 -10 -11 -10 -5
0 -7 5 -4 10 3 6 8 10 11 10 2 0 4 -4 4 -10z m3380 -20 c0 -5 -2 -10 -4 -10
-3 0 -8 5 -11 10 -3 6 -1 10 4 10 6 0 11 -4 11 -10z m-3430 -25 c10 -20 11
-28 2 -37 -9 -9 -12 -9 -12 1 0 7 -7 19 -15 28 -8 8 -13 19 -10 24 10 15 21
10 35 -16z m-5282 3 c16 -16 15 -60 -1 -82 -9 -12 -23 -17 -42 -14 -28 3 -30
6 -30 43 0 32 5 42 25 52 31 16 33 16 48 1z m1648 -85 c-58 -77 -64 -88 -46
-91 11 -2 20 -11 20 -20 0 -26 -20 -92 -28 -92 -4 0 -33 8 -64 17 l-58 18 0
61 0 61 36 6 c43 7 116 52 163 101 59 60 47 31 -23 -61z m-1772 51 c18 -17 22
-79 6 -89 -5 -3 -10 1 -10 9 0 9 -6 16 -14 16 -14 0 -46 36 -46 53 0 6 17 16
47 26 1 1 9 -6 17 -15z m8495 -25 l19 -42 15 29 15 28 7 -32 c13 -63 -23 -100
-47 -47 -6 14 -15 25 -19 25 -11 0 -18 -26 -12 -49 4 -16 1 -21 -15 -21 -18 0
-19 3 -10 38 6 20 12 54 15 75 3 20 7 37 10 37 2 0 12 -19 22 -41z m-8725 5
c21 -20 31 -63 19 -75 -6 -6 -28 -9 -49 -7 -37 3 -39 5 -42 41 -3 31 1 39 20
46 32 13 35 13 52 -5z m2250 -17 c24 -17 86 -130 86 -158 0 -23 -22 -4 -54 45
-19 30 -49 65 -65 77 -29 21 -39 47 -25 62 7 7 15 4 58 -26z m6611 24 c3 -5
-5 -27 -17 -48 -27 -48 -27 -47 -34 -40 -8 7 26 97 37 97 4 0 10 -4 14 -9z
m-9362 -22 c5 -9 7 -28 3 -42 -5 -21 -12 -27 -34 -27 -42 0 -66 22 -58 53 9
37 69 48 89 16z m153 -4 c18 -28 12 -87 -8 -67 -6 6 -25 8 -43 5 -42 -7 -75
11 -75 40 0 34 19 47 67 47 34 0 46 -5 59 -25z m240 1 c9 -36 -4 -65 -32 -72
-32 -8 -54 11 -54 48 0 47 75 68 86 24z m-642 8 c21 -8 22 -82 2 -90 -26 -10
-71 19 -74 47 -4 33 36 57 72 43z m134 -44 c3 -36 1 -43 -9 -32 -7 6 -28 12
-46 12 -30 0 -33 3 -33 29 0 33 11 41 55 38 28 -2 30 -5 33 -47z m382 9 c0
-40 -1 -41 -27 -34 -70 17 -70 75 -1 75 26 0 28 -3 28 -41z m5924 -43 c29 -59
49 -85 91 -118 30 -23 52 -44 50 -47 -12 -11 -98 35 -130 71 -55 60 -90 149
-69 171 11 11 19 0 58 -77z m2936 34 c6 0 10 9 10 19 0 24 16 36 23 17 9 -24
-19 -90 -44 -102 -13 -6 -45 -14 -71 -18 -44 -5 -48 -4 -60 22 -16 33 -32 32
-36 -3 -2 -14 -8 -25 -13 -25 -12 0 -12 47 1 55 6 3 7 17 4 31 -9 37 12 29 42
-16 15 -22 33 -40 41 -40 8 0 13 3 11 8 -2 4 -10 19 -17 34 -8 15 -10 35 -6
45 6 17 8 16 22 -4 19 -28 43 -30 43 -5 0 31 13 34 27 7 8 -14 18 -25 23 -25z
m-9472 2 c3 -26 -1 -34 -22 -43 -20 -9 -29 -9 -41 1 -23 19 -19 59 8 70 37 15
52 7 55 -28z m6927 -14 c-14 -24 -30 -50 -35 -58 -4 -8 -11 -12 -14 -9 -6 5
61 109 70 109 3 0 -7 -19 -21 -42z m-7031 17 c9 -25 -12 -68 -30 -61 -9 3 -22
6 -30 6 -20 0 -30 50 -13 61 22 14 66 10 73 -6z m-109 -35 c0 -29 -4 -36 -24
-38 -28 -4 -41 12 -41 51 0 26 3 28 33 25 29 -3 32 -6 32 -38z m9450 -18 c1
-42 -2 -52 -15 -52 -9 0 -22 12 -29 27 -9 19 -15 23 -23 15 -8 -8 -8 -15 2
-26 10 -13 9 -17 -4 -22 -18 -7 -96 61 -96 84 0 18 14 15 35 -8 20 -22 35 -18
35 11 0 25 15 24 34 -2 17 -24 36 -17 36 12 0 12 5 19 13 16 7 -2 12 -23 12
-55z m-9547 40 c7 -5 14 -22 15 -38 2 -26 -2 -30 -36 -38 -30 -8 -40 -7 -48 5
-29 46 23 100 69 71z m-98 -63 c0 -32 -4 -39 -19 -39 -29 0 -46 73 -18 83 25
9 37 -6 37 -44z m-77 -2 c6 -40 2 -47 -28 -47 -32 0 -47 57 -20 76 25 18 42 7
48 -29z m3123 17 c10 -38 -7 -98 -29 -102 -29 -6 -47 17 -47 59 0 64 62 99 76
43z m6397 12 c3 -7 -3 -25 -12 -40 -16 -24 -19 -25 -32 -10 -11 14 -11 18 4
29 9 7 17 17 17 24 0 15 17 14 23 -3z m-5315 -27 c4 -24 3 -24 -12 -4 -19 24
-20 38 -3 33 6 -3 13 -15 15 -29z m5252 27 c0 -20 -22 -56 -35 -56 -20 0 -19
19 2 42 15 17 33 24 33 14z m-9550 -27 c18 -33 9 -64 -20 -64 -35 0 -53 51
-25 71 25 19 32 18 45 -7z m3110 -24 c0 -33 -5 -47 -16 -52 -37 -14 -48 67
-11 85 12 6 23 11 25 11 1 1 2 -19 2 -44z m6360 9 c0 -26 -17 -33 -26 -9 -8
20 3 48 16 40 5 -3 10 -17 10 -31z m-9566 10 c9 -8 16 -26 16 -40 0 -19 -5
-24 -24 -24 -33 0 -53 62 -23 73 6 3 13 6 14 6 1 1 9 -6 17 -15z m9187 -17
c-8 -8 -11 -7 -11 4 0 20 13 34 18 19 3 -7 -1 -17 -7 -23z m319 13 c20 -20 26
-40 12 -40 -4 0 -15 9 -25 20 -17 20 -44 19 -32 -1 8 -12 -26 -11 -45 1 -12 8
-11 10 6 10 12 0 27 7 34 15 17 20 26 19 50 -5z m-130 -10 c0 -15 -7 -20 -29
-20 -17 0 -33 5 -36 11 -11 17 3 23 20 9 12 -10 16 -9 21 4 9 22 24 20 24 -4z
m391 -6 c12 -14 11 -16 -5 -13 -11 2 -21 10 -24 17 -5 17 13 15 29 -4z m-9925
-2 c28 -18 27 -82 -2 -82 -18 0 -44 40 -44 67 0 23 23 31 46 15z m3294 -11 c0
-23 -45 -61 -72 -61 -28 0 -19 32 15 48 15 7 27 17 27 23 0 5 7 9 15 9 8 0 15
-9 15 -19z m6150 -2 c0 -11 -27 -12 -34 0 -3 4 -3 11 0 14 8 8 34 -3 34 -14z
m430 5 c0 -8 -5 -12 -10 -9 -6 4 -8 11 -5 16 9 14 15 11 15 -7z m-9939 -32 c5
-25 3 -35 -8 -39 -35 -14 -66 34 -42 63 19 23 43 12 50 -24z m-184 10 c21 -13
21 -56 0 -60 -35 -7 -67 48 -34 61 18 8 21 8 34 -1z m98 -27 c0 -23 -5 -30
-19 -30 -24 0 -41 27 -33 49 4 11 15 16 29 14 18 -2 23 -9 23 -33z m-267 -19
c3 -24 0 -27 -20 -24 -26 3 -37 36 -16 49 20 13 33 5 36 -25z m96 17 c7 -18
-17 -43 -41 -43 -17 0 -27 25 -19 45 8 21 52 19 60 -2z m-502 -35 c-16 -16
-37 4 -28 28 6 16 8 16 23 1 13 -13 15 -19 5 -29z m66 14 c2 -14 -2 -22 -12
-22 -19 0 -29 17 -22 36 8 22 30 12 34 -14z m62 -14 c0 -4 -7 -8 -15 -8 -10 0
-15 10 -15 28 1 26 1 26 15 8 8 -11 15 -23 15 -28z m60 23 c14 -27 13 -31 -10
-31 -15 0 -20 7 -20 25 0 30 15 33 30 6z m78 -4 c4 -20 -25 -34 -40 -19 -15
15 -1 44 19 40 10 -2 19 -11 21 -21z m66 7 c8 -21 -1 -34 -25 -34 -12 0 -19 7
-19 18 0 34 33 45 44 16z m-434 -20 c0 -8 -7 -14 -15 -14 -15 0 -21 21 -9 33
10 9 24 -2 24 -19z m50 0 c0 -8 -7 -14 -15 -14 -15 0 -21 21 -9 33 10 9 24 -2
24 -19z m11439 16 c-16 -9 -229 -50 -258 -50 -43 1 26 21 131 39 136 23 149
24 127 11z m-11584 -10 c3 -5 1 -10 -4 -10 -6 0 -11 5 -11 10 0 6 2 10 4 10 3
0 8 -4 11 -10z m40 0 c3 -5 1 -10 -4 -10 -6 0 -11 5 -11 10 0 6 2 10 4 10 3 0
8 -4 11 -10z m4165 -5 c0 -8 -7 -15 -15 -15 -8 0 -15 7 -15 15 0 8 7 15 15 15
8 0 15 -7 15 -15z m359 5 c11 0 51 -39 51 -50 0 -6 -25 -10 -55 -10 -44 0 -56
4 -65 19 -8 16 -6 23 12 36 13 8 29 13 36 10 8 -3 17 -5 21 -5z m3558 -16 l27
-27 -23 -18 c-13 -11 -34 -19 -46 -19 -29 0 -80 -42 -101 -82 -15 -29 -15 -32
5 -59 34 -46 28 -59 -28 -59 -45 0 -52 3 -74 33 -13 17 -28 44 -35 59 -10 25
-8 29 41 66 29 21 76 60 106 85 63 54 91 58 128 21z m-3693 -5 c29 -22 35 -59
11 -59 -23 0 -72 27 -78 43 -6 16 10 37 29 37 6 0 23 -9 38 -21z m-99 -54 c0
-58 -1 -60 -27 -63 -20 -2 -28 1 -28 13 0 8 7 18 15 21 19 8 20 24 1 24 -24 0
-30 39 -9 56 35 27 48 14 48 -51z m-167 38 c2 -8 -6 -13 -22 -13 -17 0 -26 5
-26 16 0 19 41 16 48 -3z m5947 -12 c143 -29 244 -51 275 -60 19 -6 86 -11
149 -11 91 0 139 6 241 30 287 68 342 57 84 -16 -245 -70 -331 -87 -397 -80
-28 3 -90 7 -137 9 -47 2 -112 12 -145 21 -33 9 -102 23 -152 31 -75 13 -96
13 -113 3 -15 -10 -26 -10 -52 0 -21 8 -34 9 -36 2 -2 -6 -55 -10 -134 -10
l-130 0 -29 29 c-35 35 -37 58 -6 63 52 7 536 -2 582 -11z m-1665 -8 c41 -27
90 -76 90 -90 0 -20 -30 -31 -96 -34 l-61 -4 -41 48 c-23 27 -42 52 -42 57 0
36 106 53 150 23z m-4332 -11 c2 -7 -3 -12 -12 -12 -9 0 -16 7 -16 16 0 17 22
14 28 -4z m92 8 c0 -5 -4 -10 -10 -10 -5 0 -10 5 -10 10 0 6 5 10 10 10 6 0
10 -4 10 -10z m4050 -65 c0 -28 7 -35 71 -69 52 -28 74 -35 82 -27 16 16 31
13 17 -3 -6 -8 -21 -16 -33 -18 -27 -4 -28 -27 -2 -42 11 -6 22 -12 24 -14 3
-1 -6 -13 -19 -27 -56 -60 -212 -84 -296 -46 -61 28 -61 38 -3 46 30 4 61 16
77 30 l26 23 -23 70 c-22 68 -22 100 0 128 7 8 19 7 44 -5 28 -13 34 -22 35
-46z m-4018 33 c-7 -7 -12 -8 -12 -2 0 6 3 14 7 17 3 4 9 5 12 2 2 -3 -1 -11
-7 -17z m1798 -18 c0 -13 -1 -13 -10 0 -5 8 -10 22 -10 30 0 13 1 13 10 0 5
-8 10 -22 10 -30z m-1880 20 c0 -5 -4 -10 -10 -10 -5 0 -10 5 -10 10 0 6 5 10
10 10 6 0 10 -4 10 -10z m3536 -34 c52 -43 60 -62 19 -46 -26 11 -103 90 -86
90 7 0 37 -20 67 -44z m-3116 18 c13 -5 13 -6 0 -14 -8 -5 -23 -7 -32 -4 -10
3 -23 2 -30 -3 -9 -5 -3 -9 16 -13 35 -6 48 -30 16 -30 -48 0 -77 39 -49 67 9
9 43 8 79 -3z m3020 -76 c0 -17 -19 -6 -59 32 -23 23 -39 45 -35 51 6 11 94
-67 94 -83z m-3494 45 c-10 -10 -19 5 -10 18 6 11 8 11 12 0 2 -7 1 -15 -2
-18z m112 9 c2 -7 -3 -12 -12 -12 -9 0 -16 7 -16 16 0 17 22 14 28 -4z m217 8
c10 -16 -15 -40 -41 -40 -19 0 -24 5 -24 25 0 21 5 25 29 25 17 0 33 -5 36
-10z m3420 0 c3 -5 -3 -10 -15 -10 -12 0 -18 5 -15 10 3 6 10 10 15 10 5 0 12
-4 15 -10z m285 -16 c0 -8 10 -38 21 -65 21 -47 21 -50 4 -69 -19 -21 -105
-43 -118 -31 -13 13 9 81 43 134 30 47 50 60 50 31z m479 -21 c11 -21 20 -32
21 -24 0 22 25 -4 45 -50 15 -32 16 -42 6 -48 -26 -17 -121 -45 -127 -38 -4 3
5 22 20 41 30 40 36 105 11 126 -8 7 -12 16 -9 21 9 14 12 11 33 -28z m-4451
-1 c2 -7 -6 -12 -17 -12 -21 0 -27 11 -14 24 9 9 26 2 31 -12z m-98 -1 c0 -6
-4 -13 -10 -16 -5 -3 -10 1 -10 9 0 9 5 16 10 16 6 0 10 -4 10 -9z m225 -12
c5 -5 -4 -9 -23 -9 -22 0 -32 5 -32 16 0 11 6 14 23 9 12 -4 26 -11 32 -16z
m2695 -39 c24 -47 25 -57 4 -39 -17 14 -44 62 -44 79 0 20 20 0 40 -40z m68
38 c5 -7 13 -24 17 -37 10 -32 -10 -19 -30 20 -15 29 -7 40 13 17z m-282 -36
c12 -20 41 -59 65 -86 l44 -50 -44 25 c-47 26 -101 95 -101 128 0 31 12 25 36
-17z m124 -18 c0 -8 -2 -14 -5 -14 -6 0 -35 56 -35 67 1 14 40 -39 40 -53z
m924 34 c34 -30 44 -79 21 -101 -26 -26 -42 -20 -75 27 -36 53 -37 60 -8 80
29 21 32 20 62 -6z m-3704 2 c0 -5 -4 -10 -10 -10 -5 0 -10 5 -10 10 0 6 5 10
10 10 6 0 10 -4 10 -10z m114 4 c9 -3 16 -13 16 -21 0 -21 -44 -12 -48 10 -4
18 6 21 32 11z m147 -17 c-12 -12 -45 -1 -37 12 3 5 15 7 27 4 13 -4 17 -9 10
-16z m-371 3 c0 -5 -4 -10 -10 -10 -5 0 -10 5 -10 10 0 6 5 10 10 10 6 0 10
-4 10 -10z m520 -6 c0 -13 -6 -15 -27 -9 -46 11 -51 25 -10 25 27 0 37 -4 37
-16z m3955 -4 c3 -5 1 -10 -4 -10 -6 0 -11 5 -11 10 0 6 2 10 4 10 3 0 8 -4
11 -10z m65 -11 c0 -4 -7 -6 -15 -3 -8 4 -15 10 -15 15 0 4 7 6 15 3 8 -4 15
-10 15 -15z m-4215 -10 c0 -8 -10 -15 -22 -17 -25 -4 -33 22 -10 31 18 8 32 2
32 -14z m-285 1 c0 -5 -7 -10 -15 -10 -8 0 -15 5 -15 10 0 6 7 10 15 10 8 0
15 -4 15 -10z m144 4 c9 -3 16 -10 16 -15 0 -15 -37 -10 -50 6 -10 12 -10 15
3 15 8 0 22 -3 31 -6z m295 -10 c6 -5 -10 -24 -22 -24 -21 0 -40 17 -32 29 6
10 41 7 54 -5z m3249 -27 c12 -11 22 -26 22 -34 0 -22 -47 -15 -77 12 -27 24
-27 26 -9 40 20 15 29 13 64 -18z m-3738 -2 c10 -12 10 -15 -4 -15 -9 0 -16 7
-16 15 0 8 2 15 4 15 2 0 9 -7 16 -15z m150 -1 c0 -10 -7 -14 -22 -12 -32 5
-35 28 -4 28 17 0 26 -5 26 -16z m125 -4 c-3 -5 -10 -10 -16 -10 -5 0 -9 5 -9
10 0 6 7 10 16 10 8 0 12 -4 9 -10z m151 -4 c10 -8 16 -18 11 -22 -10 -10 -59
8 -65 24 -5 17 30 15 54 -2z m3242 -24 c30 -20 28 -32 -7 -32 -37 0 -82 35
-62 49 15 10 33 6 69 -17z m-3574 -3 c-7 -11 -44 -12 -44 -1 0 15 11 20 30 15
11 -3 17 -9 14 -14z m-144 1 c0 -5 -4 -10 -10 -10 -5 0 -10 5 -10 10 0 6 5 10
10 10 6 0 10 -4 10 -10z m280 0 c0 -5 -7 -10 -15 -10 -8 0 -15 5 -15 10 0 6 7
10 15 10 8 0 15 -4 15 -10z m134 -10 c31 -11 34 -30 5 -30 -28 0 -61 19 -54
31 8 11 17 11 49 -1z m3224 -6 c29 -20 28 -34 -2 -34 -26 0 -51 24 -41 40 8
14 17 13 43 -6z m386 10 c38 -15 2 -74 -45 -74 -26 0 -59 22 -59 39 0 25 69
48 104 35z m-3934 -24 c0 -5 -7 -10 -15 -10 -8 0 -15 5 -15 10 0 6 7 10 15 10
8 0 15 -4 15 -10z m150 0 c0 -5 -7 -10 -15 -10 -8 0 -15 5 -15 10 0 6 7 10 15
10 8 0 15 -4 15 -10z m-210 -20 c0 -5 -7 -10 -15 -10 -8 0 -15 5 -15 10 0 6 7
10 15 10 8 0 15 -4 15 -10z m170 0 c0 -5 -7 -10 -15 -10 -8 0 -15 5 -15 10 0
6 7 10 15 10 8 0 15 -4 15 -10z m168 4 c12 -4 22 -10 22 -15 0 -13 -45 -22
-70 -14 -17 5 -19 10 -9 21 13 15 23 17 57 8z m3213 -19 c0 -5 -12 -11 -26
-13 -18 -2 -25 1 -25 13 0 12 7 15 25 13 14 -2 26 -7 26 -13z m179 5 c0 -5 -5
-10 -11 -10 -5 0 -7 5 -4 10 3 6 8 10 11 10 2 0 4 -4 4 -10z m94 2 c2 -4 1
-14 -3 -21 -11 -18 -45 -10 -49 12 -3 12 3 17 22 17 14 0 27 -4 30 -8z m-3557
-36 c-3 -10 -50 -25 -91 -29 -10 -1 -21 4 -23 11 -3 8 6 12 25 12 16 0 35 6
41 14 13 16 54 9 48 -8z m3383 14 c0 -5 -8 -10 -17 -10 -15 0 -16 2 -3 10 19
12 20 12 20 0z m-3585 -10 c3 -5 2 -10 -4 -10 -5 0 -13 5 -16 10 -3 6 -2 10 4
10 5 0 13 -4 16 -10z m3512 -47 c-14 -14 -31 -23 -38 -21 -10 3 -3 15 21 37
40 38 56 23 17 -16z m104 22 c0 -13 -41 -19 -41 -7 0 11 20 22 33 18 5 -1 8
-6 8 -11z m289 5 c12 -8 12 -14 -3 -46 -17 -35 -19 -36 -60 -30 -57 9 -74 27
-59 61 10 22 18 25 59 25 27 0 55 -4 63 -10z m-220 -4 c0 -3 -4 -8 -10 -11 -5
-3 -10 -1 -10 4 0 6 5 11 10 11 6 0 10 -2 10 -4z m60 -15 c0 -12 -20 -25 -27
-18 -7 7 6 27 18 27 5 0 9 -4 9 -9z m-3690 -11 c0 -5 -4 -10 -10 -10 -5 0 -10
5 -10 10 0 6 5 10 10 10 6 0 10 -4 10 -10z m3586 -29 c-9 -10 -16 -22 -16 -27
-1 -13 -49 -46 -61 -42 -6 2 11 28 37 57 27 30 50 48 52 42 2 -7 -3 -20 -12
-30z m-68 17 c-6 -18 -28 -21 -28 -4 0 9 7 16 16 16 9 0 14 -5 12 -12z m-113
-28 c0 -22 -29 -18 -33 3 -3 14 1 18 15 15 10 -2 18 -10 18 -18z m70 0 c3 -5
-1 -10 -10 -10 -9 0 -13 5 -10 10 3 6 8 10 10 10 2 0 7 -4 10 -10z m191 -4 c8
-20 -11 -54 -54 -98 -39 -41 -62 -47 -82 -23 -11 13 -8 15 15 15 21 0 26 4 21
17 -5 11 3 25 22 42 15 15 31 34 35 44 8 21 35 23 43 3z m-299 -29 c-5 -17
-38 -21 -48 -6 -13 21 9 41 33 28 10 -6 17 -16 15 -22z m408 8 c17 -4 25 -12
25 -25 0 -28 -58 -27 -88 1 -27 24 -20 41 14 34 13 -3 35 -7 49 -10z m-505 -5
c0 -5 -7 -10 -16 -10 -8 0 -12 5 -9 10 3 6 10 10 16 10 5 0 9 -4 9 -10z m175
-1 c10 -15 -1 -23 -20 -15 -9 3 -13 10 -10 16 8 13 22 13 30 -1z m-131 -25 c9
-3 16 -10 16 -15 0 -12 -80 -69 -97 -69 -25 0 -13 19 22 36 22 10 35 23 35 35
0 21 1 22 24 13z m101 -5 c8 -12 -22 -49 -40 -49 -7 0 -18 -7 -25 -15 -7 -8
-16 -12 -21 -10 -8 6 60 84 73 85 4 0 10 -5 13 -11z m77 -43 c-2 -20 3 -29 23
-38 25 -11 29 -28 9 -35 -10 -3 -84 59 -84 71 0 3 7 6 15 6 8 0 15 7 15 16 0
9 6 14 13 11 6 -2 11 -16 9 -31z m233 12 c31 -14 32 -35 1 -49 -29 -14 -66 3
-66 30 0 33 21 39 65 19z m-290 -48 c3 -5 -1 -10 -9 -10 -9 0 -16 5 -16 10 0
6 4 10 9 10 6 0 13 -4 16 -10z m-125 -21 c0 -5 -10 -9 -21 -9 -18 0 -19 2 -9
15 12 15 30 12 30 -6z m-96 2 c3 -5 -5 -16 -19 -25 -34 -22 -38 -20 -19 9 17
26 29 31 38 16z m461 -6 c18 -14 18 -16 2 -32 -16 -16 -19 -16 -53 0 -30 15
-34 20 -24 32 16 19 49 19 75 0z m-275 -11 c0 -17 -22 -14 -28 4 -2 7 3 12 12
12 9 0 16 -7 16 -16z m84 0 c9 -3 16 -10 16 -16 0 -14 -43 -5 -48 10 -4 13 7
15 32 6z m-229 -14 c3 -5 1 -10 -4 -10 -6 0 -11 5 -11 10 0 6 2 10 4 10 3 0 8
-4 11 -10z m100 -9 c7 -12 -12 -24 -25 -16 -11 7 -4 25 10 25 5 0 11 -4 15 -9z
m91 -16 c16 -13 17 -16 4 -25 -26 -18 -61 -23 -73 -11 -9 9 -6 13 11 17 12 4
22 13 22 20 0 18 11 18 36 -1z m144 5 c23 -12 16 -40 -10 -40 -22 0 -52 28
-45 41 8 12 32 11 55 -1z m-440 -10 c0 -5 -5 -10 -11 -10 -5 0 -7 5 -4 10 3 6
8 10 11 10 2 0 4 -4 4 -10z m75 0 c3 -5 -1 -10 -9 -10 -8 0 -18 5 -21 10 -3 6
1 10 9 10 8 0 18 -4 21 -10z m88 -6 c9 -10 -4 -34 -18 -34 -17 0 -28 17 -20
30 7 11 28 13 38 4z m-128 -24 c3 -5 -1 -10 -10 -10 -9 0 -13 5 -10 10 3 6 8
10 10 10 2 0 7 -4 10 -10z m326 0 c26 -15 24 -30 -5 -30 -27 0 -41 14 -31 30
8 13 12 12 36 0z m-241 -25 c16 -19 46 -19 53 -1 4 9 14 12 26 9 24 -6 28 -23
6 -23 -8 0 -24 -6 -35 -12 -16 -10 -25 -10 -47 4 -28 17 -42 38 -25 38 5 0 15
-7 22 -15z m-130 -5 c0 -5 -5 -10 -11 -10 -5 0 -7 5 -4 10 3 6 8 10 11 10 2 0
4 -4 4 -10z m321 -10 c30 -16 23 -30 -16 -30 -22 0 -35 5 -35 13 0 27 19 34
51 17z m-366 -10 c3 -5 1 -10 -4 -10 -6 0 -11 5 -11 10 0 6 2 10 4 10 3 0 8
-4 11 -10z m115 0 c0 -5 -5 -10 -11 -10 -5 0 -7 5 -4 10 3 6 8 10 11 10 2 0 4
-4 4 -10z m-50 -20 c0 -5 -7 -10 -16 -10 -8 0 -12 5 -9 10 3 6 10 10 16 10 5
0 9 -4 9 -10z m220 0 c0 -5 -5 -10 -11 -10 -5 0 -7 5 -4 10 3 6 8 10 11 10 2
0 4 -4 4 -10z m-124 -9 c-3 -5 -20 -14 -36 -20 -35 -12 -32 5 4 19 28 12 38
12 32 1z m-146 -21 c0 -5 -5 -10 -11 -10 -5 0 -7 5 -4 10 3 6 8 10 11 10 2 0
4 -4 4 -10z"/>
<path d="M7508 3531 c-74 -82 -201 -298 -233 -396 -32 -97 -76 -277 -70 -283
5 -6 4 -10 49 150 40 144 82 250 127 322 41 66 47 52 10 -23 -47 -92 -96 -221
-85 -221 2 0 31 57 64 127 33 70 81 160 105 199 25 39 45 80 45 91 0 10 11 34
25 53 14 19 25 35 25 37 0 10 -14 -3 -62 -56z m-22 -69 c-8 -16 -23 -35 -32
-43 -16 -12 -17 -12 -9 1 16 28 46 70 51 70 2 0 -2 -13 -10 -28z"/>
<path d="M7281 3014 c-5 -22 -15 -66 -21 -99 -7 -33 -16 -68 -21 -77 -7 -12
-6 -18 1 -18 16 0 28 36 45 134 15 93 14 126 -4 60z"/>
<path d="M7163 2900 c-6 -30 -8 -59 -3 -64 9 -9 24 71 18 100 -2 11 -9 -6 -15
-36z"/>
<path d="M8172 3671 c-55 -44 -104 -85 -108 -93 -10 -17 6 -5 125 91 84 68 98
81 87 81 -3 0 -50 -36 -104 -79z"/>
<path d="M7952 3463 c-51 -63 -112 -153 -152 -228 -40 -75 -7 -38 39 44 18 32
58 90 87 128 56 71 78 103 70 103 -2 0 -22 -21 -44 -47z"/>
<path d="M7716 3253 c-6 -14 -5 -15 5 -6 7 7 10 15 7 18 -3 3 -9 -2 -12 -12z"/>
<path d="M7444 3094 c-8 -20 -13 -39 -10 -42 3 -3 6 -3 6 0 0 3 7 22 15 42 8
20 13 36 10 36 -3 0 -13 -16 -21 -36z"/>
<path d="M7642 3081 c-7 -19 -10 -36 -7 -39 6 -7 26 49 22 62 -2 6 -9 -5 -15
-23z"/>
<path d="M7527 3034 c-4 -4 -7 -14 -7 -23 0 -11 3 -12 11 -4 6 6 10 16 7 23
-2 6 -7 8 -11 4z"/>
<path d="M7485 2830 c-3 -5 -1 -10 4 -10 6 0 11 5 11 10 0 6 -2 10 -4 10 -3 0
-8 -4 -11 -10z"/>
<path d="M8720 3830 c-13 -8 -12 -10 3 -10 9 0 17 5 17 10 0 12 -1 12 -20 0z"/>
<path d="M8708 3451 c-25 -16 -49 -34 -53 -40 -4 -7 20 5 52 25 69 44 69 44
57 44 -6 0 -31 -13 -56 -29z"/>
<path d="M6797 3738 c-19 -24 -38 -50 -42 -58 -17 -30 20 8 54 55 41 57 33 59
-12 3z"/>
<path d="M6378 3623 c-22 -26 -91 -153 -86 -159 3 -2 17 17 31 43 15 27 38 67
52 91 27 44 28 54 3 25z"/>
<path d="M7045 3604 c-15 -19 -25 -37 -22 -40 2 -2 16 14 31 36 33 50 28 52
-9 4z"/>
<path d="M6558 3563 c-34 -51 -60 -104 -55 -109 5 -5 46 55 71 104 24 47 14
50 -16 5z"/>
<path d="M6675 3559 c-9 -17 -15 -33 -13 -35 3 -2 12 12 21 31 21 43 13 47 -8
4z"/>
<path d="M7130 3565 c-7 -9 -11 -18 -8 -20 3 -3 11 1 18 10 7 9 11 18 8 20 -3
3 -11 -1 -18 -10z"/>
<path d="M6412 3528 c-5 -7 -17 -29 -26 -48 -15 -31 -15 -33 -1 -15 19 23 48
75 41 75 -2 0 -8 -6 -14 -12z"/>
<path d="M6960 3484 c-43 -68 -132 -255 -164 -342 -46 -129 -80 -332 -56 -332
6 0 10 19 10 43 0 54 40 219 80 327 34 93 132 295 157 323 9 9 13 20 10 23 -3
4 -20 -16 -37 -42z"/>
<path d="M7070 3480 c-66 -92 -228 -493 -217 -538 2 -9 16 23 32 73 40 130
109 296 165 403 51 95 57 114 20 62z"/>
<path d="M6572 3383 c-89 -172 -192 -463 -164 -463 5 0 17 30 27 68 28 104 78
238 134 357 28 59 49 110 47 112 -2 2 -22 -31 -44 -74z"/>
<path d="M6336 3383 c-36 -76 -68 -170 -102 -301 -39 -151 -42 -197 -17 -206
26 -10 43 21 42 78 l0 51 -13 -48 c-19 -70 -30 -71 -23 -2 9 89 52 245 98 352
39 93 51 152 15 76z"/>
<path d="M6445 3355 c-9 -26 -15 -48 -12 -51 3 -3 13 15 22 41 10 25 16 48 13
50 -3 3 -13 -15 -23 -40z"/>
<path d="M6660 3338 c-12 -22 -12 -22 6 -6 10 10 15 20 12 24 -4 3 -12 -5 -18
-18z"/>
<path d="M6171 3204 c-12 -31 -19 -59 -17 -62 6 -5 6 -4 31 67 23 66 10 62
-14 -5z"/>
<path d="M6365 3160 c-3 -5 -1 -10 4 -10 6 0 11 5 11 10 0 6 -2 10 -4 10 -3 0
-8 -4 -11 -10z"/>
<path d="M6141 3094 c0 -11 3 -14 6 -6 3 7 2 16 -1 19 -3 4 -6 -2 -5 -13z"/>
<path d="M6287 2780 c3 -11 9 -20 14 -20 11 0 11 3 3 24 -9 23 -23 20 -17 -4z"/>
<path d="M6491 2777 c-1 -30 27 -93 36 -83 4 3 1 16 -5 29 -6 12 -15 36 -20
52 l-10 30 -1 -28z"/>
<path d="M6800 2681 c0 -5 7 -15 17 -22 15 -13 15 -12 4 9 -12 23 -21 28 -21
13z"/>
<path d="M6290 3649 c-7 -11 -10 -23 -7 -25 2 -2 9 7 15 21 14 30 7 33 -8 4z"/>
<path d="M7126 3398 c-72 -129 -162 -358 -180 -461 -12 -65 10 -33 24 35 16
79 50 165 134 342 70 147 82 190 22 84z"/>
<path d="M7220 3400 c-29 -56 -44 -98 -31 -85 12 12 63 125 56 125 -2 0 -14
-18 -25 -40z"/>
<path d="M7116 3173 c-6 -14 -5 -15 5 -6 7 7 10 15 7 18 -3 3 -9 -2 -12 -12z"/>
<path d="M7081 3064 c-12 -31 -20 -59 -17 -61 2 -2 14 21 25 53 12 31 20 59
17 61 -2 2 -14 -21 -25 -53z"/>
<path d="M8165 3550 c-75 -66 -160 -160 -188 -209 -27 -47 -14 -37 30 22 22
28 85 96 139 150 54 53 95 97 92 97 -3 0 -36 -27 -73 -60z"/>
<path d="M8088 3333 c-54 -74 -132 -223 -152 -292 -16 -54 -14 -85 2 -40 43
118 56 150 68 160 19 15 18 10 -11 -67 -14 -36 -25 -81 -25 -99 0 -25 -7 -39
-27 -54 -27 -19 -27 -20 -10 -38 18 -17 19 -17 33 1 8 11 14 32 14 46 0 45 29
139 67 218 20 43 39 82 41 87 3 6 -8 -1 -23 -15 -37 -33 -29 -10 23 68 49 72
54 82 48 82 -3 0 -24 -26 -48 -57z"/>
<path d="M8186 3338 c-20 -29 -20 -48 0 -48 8 0 12 5 9 10 -3 6 0 10 7 10 7 0
19 4 27 9 12 8 12 12 -2 25 -20 21 -23 20 -41 -6z"/>
<path d="M8120 3315 c-7 -9 -8 -15 -2 -15 5 0 12 7 16 15 3 8 4 15 2 15 -2 0
-9 -7 -16 -15z"/>
<path d="M7923 3248 c-20 -26 -26 -41 -15 -34 12 7 36 46 29 46 -3 0 -9 -6
-14 -12z"/>
<path d="M8125 3241 c-3 -5 -1 -12 5 -16 16 -10 12 -28 -5 -21 -20 7 -81 -114
-64 -125 13 -8 3 -86 -12 -95 -5 -3 -9 10 -9 28 0 25 -3 29 -10 18 -15 -23
-12 -84 5 -106 14 -18 14 -18 9 2 -3 12 -1 25 5 28 5 4 22 46 37 94 14 48 37
108 50 135 23 45 24 67 4 67 -5 0 -11 -4 -15 -9z"/>
<path d="M8296 3193 c-6 -14 -5 -15 5 -6 7 7 10 15 7 18 -3 3 -9 -2 -12 -12z"/>
<path d="M9993 3751 c-37 -10 -59 -26 -74 -54 -14 -25 20 -62 64 -71 18 -3 57
-13 87 -21 81 -22 133 -20 167 9 24 21 26 27 18 51 -22 61 -170 109 -262 86z
m182 -66 c53 -31 63 -44 44 -56 -37 -23 -231 9 -267 45 -13 13 -13 17 -1 32
22 27 164 13 224 -21z"/>
<path d="M10072 3440 c-18 -17 -29 -30 -24 -30 5 0 21 14 37 30 37 38 30 38
-13 0z"/>
<path d="M5745 3308 c-66 -137 -72 -168 -8 -43 54 106 75 155 68 155 -4 0 -31
-51 -60 -112z"/>
<path d="M5854 3359 c-19 -39 -33 -73 -30 -76 5 -6 15 13 50 90 35 80 23 71
-20 -14z"/>
<path d="M8762 3153 c-29 -43 -34 -53 -24 -53 4 0 18 18 31 40 26 46 22 53 -7
13z"/>
<path d="M8615 3080 c-4 -7 -1 -16 6 -21 23 -14 32 -10 18 9 -7 9 -14 18 -15
20 -1 2 -5 -2 -9 -8z"/>
<path d="M10283 3300 c-33 -20 -41 -30 -24 -30 10 0 70 49 61 50 -3 0 -20 -9
-37 -20z"/>
<path d="M10490 3240 c0 -6 7 -10 15 -10 8 0 15 2 15 4 0 2 -7 6 -15 10 -8 3
-15 1 -15 -4z"/>
<path d="M9856 3347 c3 -10 9 -15 12 -12 3 3 0 11 -7 18 -10 9 -11 8 -5 -6z"/>
<path d="M9820 3166 c0 -2 7 -9 15 -16 13 -11 14 -10 9 4 -5 14 -24 23 -24 12z"/>
<path d="M10030 3134 c0 -5 7 -19 15 -30 8 -10 15 -14 15 -8 0 5 -7 19 -15 30
-8 10 -15 14 -15 8z"/>
<path d="M10060 3131 c0 -5 7 -14 15 -21 16 -14 18 -10 9 14 -6 17 -24 22 -24
7z"/>
<path d="M10130 3135 c0 -15 18 -40 24 -34 3 3 -1 14 -9 25 -8 10 -14 15 -15
9z"/>
<path d="M12501 3323 c0 -10 4 -27 8 -37 11 -28 25 -2 17 30 -7 28 -26 33 -25
7z"/>
<path d="M12250 3284 c0 -5 7 -19 15 -30 8 -10 15 -14 15 -8 0 5 -7 19 -15 30
-8 10 -15 14 -15 8z"/>
<path d="M12180 3240 c0 -11 7 -23 15 -26 14 -6 13 -8 -2 -21 -16 -13 -15 -14
16 -9 19 4 36 8 38 10 4 4 -53 66 -61 66 -3 0 -6 -9 -6 -20z"/>
<path d="M11960 3222 c0 -15 28 -47 35 -40 8 8 -13 48 -25 48 -6 0 -10 -4 -10
-8z"/>
<path d="M11907 3194 c-4 -4 -7 -15 -7 -25 0 -12 6 -16 20 -12 12 3 20 12 18
21 -3 17 -21 26 -31 16z"/>
<path d="M11715 3150 c-7 -12 2 -30 16 -30 5 0 9 9 9 20 0 21 -15 27 -25 10z"/>
<path d="M10354 2969 c-12 -21 13 -31 60 -24 47 7 58 18 30 29 -26 10 -82 7
-90 -5z"/>
<path d="M11387 3086 c-6 -15 1 -26 15 -26 4 0 8 9 8 20 0 23 -15 27 -23 6z"/>
<path d="M4822 4002 c-7 -5 -10 -16 -6 -25 8 -21 20 -22 28 -2 10 28 36 15
123 -65 128 -118 144 -118 28 -1 -83 84 -105 101 -130 101 -16 0 -36 -4 -43
-8z"/>
<path d="M4593 3923 c-13 -2 -23 -10 -23 -17 0 -13 30 -56 61 -87 9 -9 21 -25
27 -35 6 -10 13 -16 16 -13 4 3 -10 27 -29 52 -40 53 -44 72 -14 80 12 3 18
10 14 16 -6 11 -13 12 -52 4z"/>
<path d="M4890 3892 c12 -18 25 -31 28 -27 3 3 -7 18 -23 33 l-28 27 23 -33z"/>
<path d="M4689 3862 c11 -16 28 -35 38 -43 10 -8 3 5 -16 29 -37 47 -53 58
-22 14z"/>
<path d="M4960 3810 c0 -5 5 -10 11 -10 5 0 7 5 4 10 -3 6 -8 10 -11 10 -2 0
-4 -4 -4 -10z"/>
<path d="M4690 3752 c0 -5 7 -15 15 -22 8 -7 15 -8 15 -2 0 5 -7 15 -15 22 -8
7 -15 8 -15 2z"/>
<path d="M5639 3743 c-13 -16 -12 -17 4 -4 9 7 17 15 17 17 0 8 -8 3 -21 -13z"/>
<path d="M4160 3621 c0 -5 5 -13 10 -16 6 -3 10 -2 10 4 0 5 -4 13 -10 16 -5
3 -10 2 -10 -4z"/>
<path d="M5730 3605 c-8 -9 -8 -15 -2 -15 12 0 26 19 19 26 -2 2 -10 -2 -17
-11z"/>
<path d="M5811 3581 c-23 -31 -27 -46 -11 -36 11 7 43 65 36 65 -3 0 -14 -13
-25 -29z"/>
<path d="M5088 3464 c-38 -52 -64 -101 -57 -108 2 -2 13 -6 23 -8 15 -2 29 12
58 62 36 62 48 98 29 86 -5 -4 -11 -1 -13 5 -2 7 -20 -10 -40 -37z m-12 -82
c-14 -14 -16 -14 -16 -1 0 20 23 44 29 28 2 -6 -4 -18 -13 -27z"/>
<path d="M4465 3403 l-17 -28 23 22 c12 12 20 25 17 28 -3 3 -13 -7 -23 -22z"/>
<path d="M4690 3389 c-7 -11 -10 -23 -7 -25 2 -2 9 7 15 21 14 30 7 33 -8 4z"/>
<path d="M10810 3398 c14 -5 45 -19 69 -29 24 -11 46 -18 49 -15 7 8 -100 56
-123 55 -17 0 -16 -2 5 -11z"/>
<path d="M4346 3313 c-24 -38 -63 -103 -87 -146 -48 -85 -66 -91 -24 -7 15 29
25 54 22 56 -7 8 -108 -166 -102 -176 10 -16 30 -11 51 13 39 43 202 327 189
327 -3 0 -25 -30 -49 -67z"/>
<path d="M4475 3360 c-3 -5 -1 -10 4 -10 6 0 11 5 11 10 0 6 -2 10 -4 10 -3 0
-8 -4 -11 -10z"/>
<path d="M4730 3300 c-11 -22 -18 -40 -15 -40 2 0 14 18 25 40 11 22 18 40 15
40 -2 0 -14 -18 -25 -40z"/>
<path d="M4382 3263 c-22 -37 -52 -94 -67 -126 -15 -31 -31 -60 -36 -63 -11
-7 -12 -44 -1 -44 18 0 52 48 52 73 0 32 13 63 63 150 22 37 37 70 34 73 -3 3
-23 -25 -45 -63z"/>
<path d="M4641 3294 c-12 -20 -20 -41 -19 -46 2 -5 13 11 26 36 26 55 22 60
-7 10z"/>
<path d="M4697 3323 c-4 -3 -7 -11 -7 -17 0 -6 5 -5 12 2 6 6 9 14 7 17 -3 3
-9 2 -12 -2z"/>
<path d="M4295 3299 c-4 -6 -5 -12 -2 -15 2 -3 7 2 10 11 7 17 1 20 -8 4z"/>
<path d="M5502 3245 c-23 -48 -27 -65 -14 -65 8 0 44 101 39 107 -2 1 -13 -18
-25 -42z"/>
<path d="M5546 3265 c-9 -26 -7 -32 5 -12 6 10 9 21 6 23 -2 3 -7 -2 -11 -11z"/>
<path d="M4026 3180 c-25 -51 -46 -98 -46 -106 0 -23 27 -16 48 14 28 39 94
173 88 179 -2 3 -23 -30 -46 -72 -23 -42 -44 -74 -47 -72 -2 3 10 35 27 73 45
100 29 89 -24 -16z"/>
<path d="M3986 3203 c-52 -84 -58 -92 -53 -68 3 11 8 29 12 40 4 11 -3 6 -14
-11 -11 -17 -24 -45 -27 -63 -6 -28 -4 -33 11 -30 10 2 30 24 44 49 32 56 72
140 67 140 -3 0 -20 -26 -40 -57z"/>
<path d="M3928 3233 c-9 -10 -23 -33 -32 -51 -10 -18 -24 -36 -32 -39 -15 -5
-20 -43 -6 -43 10 0 95 140 89 146 -2 2 -11 -4 -19 -13z"/>
<path d="M4155 3240 c-3 -5 -1 -10 4 -10 6 0 11 5 11 10 0 6 -2 10 -4 10 -3 0
-8 -4 -11 -10z"/>
<path d="M4567 3223 c-4 -3 -7 -11 -7 -17 0 -6 5 -5 12 2 6 6 9 14 7 17 -3 3
-9 2 -12 -2z"/>
<path d="M4371 3182 c-6 -12 -11 -27 -11 -34 1 -7 8 0 16 15 9 16 13 31 11 34
-3 2 -10 -4 -16 -15z"/>
</g>
</svg>
