<?xml version="1.0" standalone="no"?>
<!DOCTYPE svg PUBLIC "-//W3C//DTD SVG 20010904//EN"
 "http://www.w3.org/TR/2001/REC-SVG-20010904/DTD/svg10.dtd">
<svg version="1.0" xmlns="http://www.w3.org/2000/svg"
 width="966.000000pt" height="1280.000000pt" viewBox="0 0 966.000000 1280.000000"
 preserveAspectRatio="xMidYMid meet">
<metadata>
Created by potrace 1.15, written by Peter Selinger 2001-2017
</metadata>
<g transform="translate(0.000000,1280.000000) scale(0.100000,-0.100000)"
fill="#000000" stroke="none">
<path d="M8232 12785 c-73 -20 -217 -93 -321 -162 -219 -145 -401 -403 -467
-663 -49 -191 -42 -339 23 -504 31 -81 35 -101 35 -178 -1 -136 -64 -295 -134
-340 -13 -8 -77 -34 -143 -57 -152 -54 -266 -107 -341 -159 -74 -50 -162 -142
-199 -207 -15 -27 -48 -80 -72 -117 -50 -74 -57 -112 -29 -170 13 -27 26 -39
49 -44 18 -4 51 -24 75 -44 102 -90 242 -126 457 -117 77 3 195 11 263 18 148
16 168 12 332 -68 157 -76 178 -82 314 -98 65 -8 120 -16 122 -18 10 -10 34
-157 34 -212 0 -64 0 -65 -86 -268 -14 -32 -27 -77 -30 -101 -5 -36 -15 -52
-53 -86 -25 -23 -60 -51 -77 -63 -80 -56 -131 -95 -162 -124 -28 -27 -45 -33
-110 -43 -584 -84 -1115 -324 -1589 -717 -138 -114 -339 -324 -538 -558 -239
-284 -340 -390 -505 -535 -315 -277 -473 -475 -625 -785 -117 -238 -186 -444
-244 -731 -71 -351 -95 -593 -131 -1329 -11 -231 -25 -481 -31 -555 -43 -554
-218 -968 -521 -1235 -126 -111 -250 -175 -461 -239 -309 -94 -586 -123 -1337
-141 -658 -16 -1007 -80 -1350 -249 -197 -97 -387 -239 -378 -283 3 -15 13
-18 68 -17 50 1 102 13 223 53 328 108 521 142 846 148 365 8 526 -12 1148
-141 609 -127 728 -144 1031 -153 234 -7 372 3 588 43 130 23 357 87 485 137
l67 25 6 -45 c9 -69 7 -264 -4 -409 -21 -262 -59 -417 -151 -618 -77 -167 -93
-223 -86 -299 4 -45 13 -71 36 -104 17 -24 31 -48 31 -54 0 -23 51 -108 80
-133 36 -29 77 -33 119 -11 29 15 111 101 111 116 0 5 14 9 30 9 17 0 45 7 61
16 26 13 39 14 80 4 26 -7 53 -9 59 -5 5 3 35 -21 65 -53 61 -66 117 -98 192
-108 46 -6 53 -4 86 26 20 17 48 57 63 88 81 175 73 164 113 157 24 -5 46 -19
69 -46 45 -52 103 -81 177 -86 84 -7 154 20 177 67 27 53 23 126 -10 196 -16
32 -34 86 -40 118 -17 86 -44 119 -135 167 -43 22 -94 55 -113 72 -67 58 -132
169 -229 392 -55 125 -65 189 -46 295 12 63 11 71 -18 162 -17 52 -31 108 -31
124 0 31 49 189 81 264 18 41 29 50 122 100 298 161 493 324 731 610 163 197
220 261 520 580 279 296 391 423 505 567 l72 93 72 -62 c69 -59 211 -158 228
-158 4 0 13 -25 19 -56 7 -31 29 -90 50 -130 l38 -74 -30 -76 c-36 -93 -83
-280 -99 -394 -20 -138 -15 -415 10 -553 29 -162 27 -206 -15 -370 -50 -193
-47 -240 25 -394 42 -89 58 -142 80 -250 16 -76 60 -248 99 -383 38 -135 78
-279 87 -320 20 -91 51 -147 108 -193 71 -59 125 -82 193 -83 33 0 66 -4 72
-8 6 -3 53 -19 106 -36 80 -24 101 -27 133 -19 47 13 73 42 73 81 l0 30 53 -7
c28 -4 73 -14 99 -22 68 -22 218 -15 247 11 25 23 28 75 6 136 -8 23 -15 43
-15 45 0 1 39 2 88 2 51 0 97 5 111 12 21 12 23 18 18 66 -7 69 -46 143 -96
186 -23 19 -65 57 -94 85 -37 37 -65 55 -97 63 -83 20 -149 61 -211 130 -187
210 -309 424 -366 640 -21 79 -25 119 -25 226 0 263 77 472 305 819 213 325
308 546 352 818 20 126 19 304 -2 414 -11 54 -17 123 -15 174 4 131 -17 381
-43 525 -51 277 -132 504 -283 798 -2 4 0 7 5 7 4 0 20 -20 35 -45 14 -24 40
-51 57 -60 30 -15 32 -15 55 8 13 13 25 29 28 37 3 10 8 10 26 1 30 -16 57 0
71 40 18 51 13 90 -23 196 -43 124 -63 224 -76 378 -13 166 -53 273 -139 383
l-41 52 109 212 c60 117 126 252 147 300 26 61 57 111 103 166 36 42 93 113
125 157 33 44 62 84 66 88 4 4 17 -18 29 -49 12 -32 36 -78 54 -103 49 -69 68
-150 61 -263 -5 -75 0 -136 26 -318 l33 -225 -18 -153 c-19 -163 -16 -239 11
-312 10 -29 19 -96 24 -185 7 -148 10 -159 48 -217 35 -53 73 -61 87 -17 6 18
9 16 28 -12 35 -51 54 -59 77 -29 10 14 22 42 25 63 6 30 10 36 20 27 17 -14
41 0 78 49 25 31 28 42 24 81 -3 25 -9 55 -12 67 -6 18 -4 21 14 16 46 -12 54
91 15 194 -17 45 -28 101 -33 164 -5 52 -18 126 -31 164 -25 74 -25 152 1 370
6 55 12 181 13 280 1 211 -1 221 -104 485 -37 96 -73 200 -81 230 -17 72 -17
209 0 288 22 99 9 283 -33 487 -51 242 -54 305 -22 435 32 128 32 179 5 436
l-21 200 22 85 c49 185 52 207 47 364 -5 142 -8 160 -56 335 -65 234 -126 363
-250 527 -58 77 -93 134 -101 163 -17 63 -5 145 40 282 53 159 59 185 71 286
12 105 -2 238 -37 359 -84 291 -287 531 -558 659 -90 43 -188 53 -274 29z
m-16 -6652 c14 -19 16 -78 5 -125 l-6 -27 -33 39 -32 39 22 45 c12 26 24 46
26 46 3 0 11 -8 18 -17z"/>
</g>
</svg>
