<?xml version="1.0" standalone="no"?>
<!DOCTYPE svg PUBLIC "-//W3C//DTD SVG 20010904//EN"
 "http://www.w3.org/TR/2001/REC-SVG-20010904/DTD/svg10.dtd">
<svg version="1.0" xmlns="http://www.w3.org/2000/svg"
 width="1280.000000pt" height="644.000000pt" viewBox="0 0 1280.000000 644.000000"
 preserveAspectRatio="xMidYMid meet">
<metadata>
Created by potrace 1.15, written by Peter Selinger 2001-2017
</metadata>
<g transform="translate(0.000000,644.000000) scale(0.100000,-0.100000)"
fill="#000000" stroke="none">
<path d="M6580 6434 c-25 -2 -101 -8 -170 -14 -671 -58 -1465 -290 -2360 -690
-794 -355 -841 -374 -1031 -429 -373 -107 -833 -218 -1065 -257 -362 -61 -702
-20 -965 118 -268 139 -402 363 -369 615 17 131 52 223 149 388 57 97 55 145
-5 165 -104 35 -339 -129 -501 -347 -411 -557 -327 -1460 187 -1996 124 -130
227 -206 385 -282 225 -109 402 -166 935 -299 190 -48 414 -107 498 -132 275
-80 555 -194 652 -267 86 -64 328 -277 335 -296 4 -9 18 -46 30 -83 22 -64 23
-69 8 -124 -20 -78 -43 -121 -103 -193 -94 -113 -273 -231 -497 -328 -159 -69
-217 -110 -252 -178 -24 -45 -26 -60 -25 -165 1 -129 13 -218 49 -365 30 -121
105 -323 143 -385 56 -91 290 -241 432 -276 77 -20 251 -14 340 11 43 11 85
13 190 9 109 -5 142 -4 171 9 26 10 56 13 103 10 63 -5 66 -5 66 16 0 12 -7
36 -16 52 -18 35 -19 33 25 45 78 21 57 74 -46 113 -30 12 -66 30 -81 41 -14
11 -50 27 -81 36 -31 9 -84 30 -119 46 -57 28 -68 30 -137 25 -94 -7 -148 7
-139 37 35 116 151 238 266 280 203 75 293 119 415 205 148 105 300 274 338
378 25 67 28 68 53 25 55 -99 69 -286 32 -442 -41 -173 -121 -297 -273 -423
-100 -84 -123 -171 -69 -258 16 -24 45 -56 65 -71 27 -21 40 -42 51 -82 22
-75 68 -132 158 -194 46 -31 127 -105 200 -183 131 -138 206 -202 278 -239 58
-30 151 -37 209 -17 44 16 45 15 87 -14 l43 -29 7 35 c8 43 -2 111 -21 148
-12 24 -12 27 3 27 10 0 53 -19 97 -41 44 -23 102 -53 129 -67 66 -33 125 -39
182 -17 l45 17 80 -36 c44 -20 84 -34 89 -31 15 9 11 97 -5 125 -21 36 -19 40
16 28 17 -6 58 -8 91 -5 51 4 70 1 130 -24 39 -16 73 -28 74 -26 7 7 -27 142
-41 163 -8 13 -15 26 -15 29 0 3 27 5 60 5 33 0 60 3 60 8 -1 20 -49 88 -80
114 -20 15 -62 37 -94 48 -31 12 -74 32 -94 45 -63 41 -168 75 -268 85 -122
13 -139 17 -194 48 -120 67 -170 133 -170 224 0 91 35 149 216 361 104 121
160 207 184 279 11 35 29 59 67 92 104 88 199 218 263 358 26 57 39 76 50 72
8 -3 67 -21 130 -39 343 -99 725 -140 1078 -116 103 7 199 15 213 17 l26 6 -5
-95 c-10 -190 29 -374 126 -603 124 -293 131 -319 141 -536 7 -146 11 -172 32
-214 36 -72 57 -82 220 -110 270 -45 375 -42 495 13 49 22 66 25 130 21 41 -3
74 -2 74 2 0 4 -7 24 -15 43 l-15 36 54 6 c47 6 93 2 230 -20 26 -5 28 -3 21
23 -3 15 -13 40 -21 56 -8 16 -11 32 -8 35 3 3 39 6 80 6 41 0 74 4 74 8 0 19
-32 67 -60 91 -32 27 -126 60 -142 50 -5 -3 -17 1 -26 10 -34 30 -96 47 -217
61 -140 15 -200 39 -265 106 -61 63 -93 139 -98 234 -4 72 -1 92 28 175 48
139 79 287 80 377 0 49 50 198 118 348 49 108 50 110 88 117 22 4 53 7 70 7
31 1 32 0 36 -56 4 -47 0 -71 -22 -128 -69 -174 -106 -408 -80 -502 18 -63
107 -153 213 -215 72 -43 82 -53 130 -130 123 -201 391 -404 727 -553 58 -26
133 -68 167 -93 59 -43 63 -49 63 -85 0 -117 84 -168 276 -168 110 0 183 8
321 38 69 14 75 14 135 -6 45 -15 100 -22 191 -26 114 -5 127 -4 127 11 0 9
-17 32 -37 52 l-38 35 40 -7 c22 -5 76 -7 120 -5 44 1 126 1 183 0 56 -1 102
1 102 5 0 12 -91 91 -127 111 -18 10 -33 21 -33 25 0 14 51 21 106 14 l54 -6
-11 27 c-20 52 -73 93 -122 93 -13 0 -36 9 -49 20 -15 12 -55 24 -99 31 -41 6
-108 19 -149 29 -54 14 -109 19 -195 18 -173 -1 -282 34 -401 130 -79 64 -133
133 -281 357 -149 225 -196 288 -280 376 l-63 66 69 144 c84 175 182 396 207
465 17 50 20 52 73 67 108 31 204 117 233 209 6 21 12 38 12 38 34 -4 107 -38
138 -64 127 -109 324 -93 495 40 91 72 127 87 219 92 62 3 113 -2 220 -24 98
-20 170 -28 244 -28 96 -1 110 2 161 27 l55 28 53 -35 c76 -52 146 -69 250
-64 94 5 164 32 210 82 18 19 34 26 63 26 53 0 78 15 78 46 0 54 -100 106
-234 124 -39 5 -104 13 -143 19 -58 7 -81 15 -113 41 -42 33 -49 50 -26 69 10
8 23 7 51 -5 20 -8 88 -19 149 -24 85 -7 126 -16 168 -35 39 -18 91 -29 178
-40 100 -11 130 -19 161 -39 43 -29 95 -34 124 -12 52 38 44 356 -16 616 -29
128 -45 161 -120 255 -165 210 -432 426 -731 594 -70 39 -106 67 -130 99 -63
84 -213 165 -344 187 -135 22 -235 102 -449 355 -148 176 -185 210 -360 330
-264 182 -457 356 -544 490 -21 33 -60 111 -86 172 -26 62 -61 133 -79 156
-75 105 -184 123 -376 63 -200 -63 -363 -162 -493 -300 l-67 -72 -153 94
c-610 378 -982 520 -1551 593 -115 14 -583 27 -686 18z"/>
</g>
</svg>
