<?xml version="1.0" standalone="no"?>
<!DOCTYPE svg PUBLIC "-//W3C//DTD SVG 20010904//EN"
 "http://www.w3.org/TR/2001/REC-SVG-20010904/DTD/svg10.dtd">
<svg version="1.0" xmlns="http://www.w3.org/2000/svg"
 width="1130.000000pt" height="1280.000000pt" viewBox="0 0 1130.000000 1280.000000"
 preserveAspectRatio="xMidYMid meet">
<metadata>
Created by potrace 1.15, written by Peter Selinger 2001-2017
</metadata>
<g transform="translate(0.000000,1280.000000) scale(0.100000,-0.100000)"
fill="#000000" stroke="none">
<path d="M7505 12790 c-116 -19 -221 -52 -360 -113 -409 -181 -565 -288 -565
-386 1 -99 21 -109 257 -119 169 -7 182 -9 238 -37 33 -16 80 -48 105 -71 67
-62 79 -66 201 -65 125 0 112 -2 414 59 223 45 236 46 415 46 l185 1 110 -38
c281 -98 585 -301 860 -573 308 -304 513 -595 655 -928 67 -155 91 -241 144
-515 48 -243 61 -338 71 -517 6 -103 4 -122 -25 -245 -43 -179 -76 -247 -160
-330 -235 -232 -750 -254 -1207 -53 -71 31 -172 74 -227 96 -70 28 -116 55
-160 92 -283 240 -656 455 -1371 789 -181 85 -487 231 -680 325 -513 249 -773
362 -1115 484 -356 128 -698 215 -1035 265 -170 25 -713 25 -899 0 -759 -103
-1403 -385 -1896 -831 -225 -204 -400 -435 -547 -726 -41 -80 -105 -190 -143
-244 -417 -594 -654 -1559 -761 -3096 -11 -157 -6 -489 8 -554 4 -22 3 -27 -7
-21 -10 6 -11 -19 -5 -121 20 -360 119 -696 319 -1079 430 -823 1106 -1486
2023 -1984 660 -358 1477 -596 2547 -741 328 -44 740 -83 1476 -140 1074 -83
1442 -120 1920 -196 1195 -189 2102 -543 2875 -1123 66 -49 121 -88 124 -86 2
2 -16 39 -39 82 -267 487 -724 852 -1400 1116 -221 86 -445 156 -725 226 -385
97 -712 156 -1625 296 -972 149 -1113 179 -1800 385 -1018 305 -1475 472
-1970 720 -647 324 -1124 712 -1473 1202 -122 170 -285 474 -357 662 l-31 79
27 38 c43 63 211 245 361 390 76 75 162 163 190 195 148 171 313 502 338 679
10 70 19 81 78 111 113 58 239 150 388 286 53 48 98 86 100 83 6 -6 300 -53
400 -64 l87 -10 131 -96 c72 -53 131 -99 131 -103 0 -3 -9 -53 -20 -111 -36
-190 -51 -387 -57 -711 -7 -373 -5 -386 84 -800 58 -272 66 -322 73 -465 11
-209 25 -253 102 -320 85 -73 253 -132 437 -154 50 -6 131 -16 181 -22 96 -12
202 -6 315 17 82 17 94 26 65 47 -21 14 -18 16 47 22 99 10 202 32 229 50 21
13 23 22 21 80 -3 78 -23 104 -112 146 -66 32 -81 35 -87 17 -7 -21 -263 145
-322 209 -14 15 -30 49 -36 75 -14 69 -12 304 5 578 14 216 14 251 -1 430 -20
228 -22 530 -5 648 10 68 19 93 46 130 62 86 79 144 78 263 l0 106 106 12
c123 14 330 42 551 75 85 13 156 22 158 21 2 -2 -5 -43 -14 -91 -13 -65 -25
-97 -44 -119 -37 -42 -53 -71 -80 -140 -22 -54 -24 -75 -23 -210 0 -212 37
-396 124 -623 193 -504 218 -582 244 -767 8 -55 15 -136 15 -180 1 -127 34
-182 140 -228 111 -48 306 -65 550 -47 85 6 189 11 230 10 57 -1 96 5 160 26
109 34 330 139 330 156 -1 25 -37 93 -66 121 -42 43 -108 78 -151 82 -40 3
-185 63 -243 100 -82 52 -110 109 -110 222 -1 244 -72 692 -185 1169 -24 103
-42 190 -39 193 3 3 15 -5 26 -18 l19 -25 36 19 c45 24 184 162 243 241 63 83
183 225 187 221 2 -2 18 -60 37 -128 29 -106 34 -139 33 -224 -2 -167 26 -248
198 -556 64 -115 125 -234 137 -266 11 -32 42 -151 69 -265 52 -223 77 -305
115 -379 74 -147 182 -187 479 -176 138 5 403 36 446 52 8 2 51 9 96 14 56 6
103 18 152 41 39 18 71 35 71 37 0 18 -46 86 -76 112 -42 37 -52 42 -233 111
-287 109 -314 136 -374 365 -15 55 -49 226 -77 380 -28 154 -58 307 -66 340
-20 76 -88 206 -163 312 -62 85 -114 217 -146 368 -23 110 -25 106 59 138 40
15 86 27 103 27 40 0 229 26 328 46 490 96 1186 357 1610 604 349 203 629 457
828 753 104 154 232 460 282 672 20 82 23 271 7 330 -7 22 -12 72 -12 110 0
39 -7 129 -15 200 -74 665 -379 1287 -889 1813 -406 418 -866 716 -1405 909
-456 163 -749 252 -953 289 -102 18 -361 26 -443 14z m-5454 -6415 c2 -22 -8
-48 -40 -96 -24 -37 -58 -102 -76 -145 -29 -71 -39 -85 -104 -138 -40 -32 -74
-56 -77 -54 -8 8 56 180 89 238 38 68 67 108 136 188 57 66 66 67 72 7z"/>
</g>
</svg>
