<?xml version="1.0" standalone="no"?>
<!DOCTYPE svg PUBLIC "-//W3C//DTD SVG 20010904//EN"
 "http://www.w3.org/TR/2001/REC-SVG-20010904/DTD/svg10.dtd">
<svg version="1.0" xmlns="http://www.w3.org/2000/svg"
 width="1280.000000pt" height="1280.000000pt" viewBox="0 0 1280.000000 1280.000000"
 preserveAspectRatio="xMidYMid meet">
<metadata>
Created by potrace 1.15, written by Peter Selinger 2001-2017
</metadata>
<g transform="translate(0.000000,1280.000000) scale(0.100000,-0.100000)"
fill="#000000" stroke="none">
<path d="M7760 11886 c0 -8 -3 -22 -7 -32 -4 -11 -3 -15 4 -11 15 9 23 46 12
53 -5 3 -9 -1 -9 -10z"/>
<path d="M7236 11817 c3 -10 9 -15 12 -12 3 3 0 11 -7 18 -10 9 -11 8 -5 -6z"/>
<path d="M7754 11822 c-7 -4 -23 -45 -35 -92 -24 -83 -24 -84 -29 -45 l-6 40
-7 -52 c-4 -29 -12 -55 -18 -59 -8 -4 -9 1 -5 17 7 23 7 23 -8 5 -15 -19 -16
-18 -17 15 -1 31 -2 32 -9 9 l-8 -25 -2 25 c-1 14 -2 32 -1 40 1 13 0 13 -8
-1 -6 -8 -15 -47 -21 -84 -21 -133 -24 -78 -5 80 3 22 1 54 -5 70 -9 28 -9 27
-6 -12 4 -53 -11 -57 -20 -6 -6 30 -8 33 -14 18 -13 -36 -20 -101 -10 -85 8
12 9 10 7 -7 -2 -12 -7 -26 -12 -30 -4 -5 -5 -2 -1 5 4 6 3 12 -3 12 -5 0 -12
-6 -14 -12 -3 -7 -3 10 0 37 2 28 1 61 -5 74 -8 23 -10 22 -36 -32 -21 -41
-32 -54 -43 -50 -12 5 -14 3 -8 -7 5 -9 4 -11 -3 -6 -7 4 -12 14 -12 22 0 8
-4 12 -10 9 -5 -3 -10 -1 -10 5 0 6 -5 8 -11 4 -8 -4 -7 -9 2 -14 10 -7 10
-11 0 -24 -23 -27 -30 -18 -30 38 1 61 -8 87 -22 65 -5 -8 -9 -18 -9 -24 0 -5
5 -3 10 5 8 12 10 9 10 -13 0 -16 -4 -26 -10 -22 -6 4 -10 -11 -11 -37 0 -24
-4 -52 -9 -63 -5 -12 -7 15 -6 69 1 49 0 84 -2 77 -2 -6 -7 -9 -10 -7 -4 2 -7
-19 -7 -47 0 -30 -6 -58 -13 -66 -8 -8 -12 -27 -10 -42 3 -17 -1 -30 -9 -33
-18 -7 -17 37 2 89 18 52 18 62 -1 69 -14 5 -15 4 -5 -8 10 -11 9 -21 -3 -45
-9 -16 -16 -39 -16 -51 0 -11 -5 -20 -11 -20 -6 0 -9 6 -6 14 8 20 -3 27 -24
16 -13 -8 -20 -6 -28 7 -10 17 -10 16 -11 -2 0 -16 -2 -17 -9 -6 -7 10 -9 4
-8 -19 1 -20 -3 -35 -12 -38 -11 -3 -12 2 -7 23 4 17 3 24 -4 20 -5 -3 -10
-13 -10 -21 0 -8 -4 -14 -10 -14 -5 0 -10 5 -10 10 0 6 -4 10 -10 10 -5 0 -7
-7 -4 -15 4 -9 0 -15 -10 -15 -9 0 -16 -5 -16 -11 0 -5 5 -7 12 -3 7 5 8 3 4
-5 -5 -7 -14 -10 -22 -7 -22 8 -44 -4 -44 -26 0 -10 4 -16 10 -13 5 3 7 0 4
-9 -3 -8 -12 -17 -20 -20 -10 -4 -13 1 -11 17 2 14 -7 33 -26 52 l-30 30 22
-32 c22 -33 28 -59 11 -48 -7 4 -7 -3 0 -20 8 -20 7 -26 -2 -23 -7 3 -14 20
-16 40 -2 21 -15 49 -32 69 l-29 34 0 -30 c0 -23 2 -26 8 -11 7 17 8 16 24 -7
19 -29 21 -45 9 -65 -11 -16 -56 44 -55 73 1 11 -1 14 -4 7 -4 -10 -10 -9 -27
5 -20 17 -20 16 2 -8 12 -14 22 -30 22 -36 0 -6 4 -13 9 -15 4 -1 12 -13 15
-26 6 -18 -4 -12 -41 24 -26 26 -47 51 -45 56 1 5 -2 7 -7 3 -6 -3 -8 -12 -4
-20 7 -21 -14 -19 -26 3 -8 13 -10 14 -11 2 0 -19 15 -42 26 -40 5 1 10 -2 11
-7 2 -5 -5 -9 -15 -10 -11 -1 -26 11 -36 28 -10 17 -20 28 -23 25 -3 -3 2 -17
11 -31 19 -29 11 -33 -16 -8 -18 16 -18 15 -4 -25 8 -23 12 -42 8 -42 -5 0
-14 16 -21 35 -7 19 -19 35 -27 35 -12 0 -12 -4 2 -27 l16 -28 -20 25 c-11 14
-19 27 -16 29 6 6 -27 41 -38 41 -5 0 -7 -4 -4 -9 4 -5 -5 -4 -18 2 -13 7 -22
15 -20 18 5 9 -25 33 -32 26 -4 -3 -34 7 -68 24 -43 21 -54 24 -36 10 14 -11
39 -27 55 -35 17 -9 24 -16 16 -16 -8 0 -33 11 -55 24 -23 13 -52 26 -66 30
-15 4 -10 -2 15 -15 22 -12 53 -32 68 -45 16 -13 34 -24 42 -24 7 0 18 -7 25
-15 10 -12 10 -15 -3 -15 -9 0 -19 5 -22 10 -3 6 -11 10 -17 10 -6 0 -3 -10 8
-22 l19 -21 -35 19 c-19 10 -49 31 -66 47 -25 23 -33 25 -42 14 -9 -11 -6 -18
12 -35 13 -11 27 -18 30 -15 2 3 3 -9 1 -25 -4 -28 0 -32 31 -44 36 -13 50
-44 14 -33 -12 4 -20 2 -20 -5 0 -6 4 -9 9 -5 5 3 12 1 16 -5 4 -6 11 -8 16
-5 5 4 6 -2 2 -11 -4 -11 -8 -13 -11 -6 -2 7 -8 12 -13 12 -6 0 -7 -6 -4 -12
8 -16 -16 14 -31 39 -7 10 -15 15 -19 11 -4 -4 3 -21 15 -37 12 -17 17 -31 12
-31 -5 0 -14 10 -21 23 -8 15 -22 23 -44 24 -25 1 -28 0 -12 -7 11 -4 29 -17
39 -29 35 -39 -7 -24 -53 19 -53 50 -62 51 -22 3 17 -21 31 -40 31 -44 0 -11
-40 -3 -53 11 -9 10 -9 11 1 6 6 -4 12 -3 12 1 0 5 -20 19 -45 31 -25 12 -45
17 -45 12 0 -5 -8 -6 -17 -3 -16 6 -17 5 -3 -12 14 -17 13 -18 -12 -13 -15 3
-25 1 -22 -3 5 -8 -17 -13 -38 -10 -52 8 -127 6 -160 -4 -34 -10 -38 -13 -20
-17 11 -3 22 -2 24 3 2 6 23 11 48 13 42 3 69 -5 94 -25 6 -5 24 -19 39 -30
15 -12 26 -23 23 -26 -5 -5 -66 36 -78 52 -5 6 -8 6 -8 1 0 -6 -6 -2 -13 8
-11 15 -18 17 -33 8 -18 -11 -18 -11 1 -12 27 -1 78 -39 53 -40 -10 0 -18 -4
-18 -10 0 -5 6 -10 14 -10 8 0 27 -5 43 -11 l28 -12 -28 -8 c-18 -5 -43 -3
-69 7 -50 17 -71 18 -39 0 l23 -13 -23 -6 c-13 -3 -28 -2 -34 3 -12 10 -81 -7
-72 -16 2 -3 16 0 30 5 20 8 35 5 66 -9 22 -11 43 -26 47 -32 4 -7 4 -10 -1
-6 -4 4 -14 3 -22 -3 -7 -6 -22 -9 -33 -6 -11 3 -18 1 -15 -3 3 -5 -4 -8 -15
-7 -11 1 -20 4 -20 8 0 12 -39 17 -44 5 -3 -7 -5 -7 -5 2 -1 6 -9 12 -18 12
-14 0 -15 -2 -4 -9 9 -6 11 -14 4 -26 -7 -12 -13 -14 -17 -6 -4 6 -15 11 -24
10 -11 0 -13 -2 -4 -6 10 -4 10 -8 1 -19 -6 -8 -17 -14 -23 -14 -6 0 -26 -15
-43 -33 -28 -30 -37 -34 -83 -33 -53 2 -79 -8 -33 -12 38 -3 42 -12 5 -12 -36
0 -43 -15 -10 -23 17 -5 19 -9 9 -21 -10 -12 -4 -15 41 -21 29 -4 56 -9 61
-12 10 -6 -19 -33 -37 -33 -8 0 -18 -4 -21 -10 -4 -6 9 -10 32 -11 21 -1 30
-3 20 -6 -9 -2 -14 -9 -11 -15 4 -7 0 -7 -12 0 -11 5 -25 7 -31 5 -7 -3 -13 0
-13 6 0 14 -27 14 -35 1 -4 -6 -3 -9 2 -8 4 2 9 -1 10 -7 1 -5 -11 -9 -27 -9
-17 1 -28 -2 -25 -6 3 -5 -7 -5 -22 -1 -22 6 -33 2 -53 -18 -14 -14 -39 -36
-56 -49 -20 -15 -22 -19 -7 -12 24 11 73 4 73 -11 0 -5 -9 -14 -20 -21 -11 -7
-20 -17 -20 -22 0 -4 7 -3 15 4 26 21 90 29 116 13 23 -12 21 -13 -16 -7 -30
4 -36 3 -25 -5 19 -13 5 -14 -19 -2 -13 7 -18 6 -18 -5 0 -7 6 -14 13 -14 6 0
14 -7 18 -15 3 -8 1 -15 -5 -15 -6 0 -7 -5 -4 -10 4 -6 12 -7 18 -4 7 3 -1 -5
-17 -20 -16 -14 -24 -26 -18 -26 7 0 12 -5 12 -10 0 -6 -7 -6 -19 2 -16 10
-17 13 -4 26 7 8 11 17 8 21 -4 3 -16 -5 -27 -19 -12 -15 -15 -26 -9 -28 6 -2
11 -8 11 -13 0 -4 -7 -6 -16 -2 -14 5 -15 3 -5 -15 8 -15 8 -22 1 -22 -5 0
-10 5 -10 11 0 5 -5 7 -11 3 -8 -4 -8 0 0 15 7 12 8 21 2 21 -5 0 -18 3 -28 7
-16 6 -16 5 -4 -10 20 -26 7 -31 -29 -12 -18 9 -35 14 -38 10 -3 -3 3 -8 15
-11 18 -5 35 -27 51 -69 3 -5 -14 8 -36 29 -32 31 -44 37 -55 28 -10 -9 -17
-8 -28 1 -7 6 -2 -2 14 -19 38 -42 34 -49 -12 -18 -25 16 -38 31 -34 40 3 8 0
14 -6 14 -13 0 -14 -11 -2 -43 14 -36 -10 -42 -46 -11 -28 24 -43 30 -43 18 0
-4 8 -13 18 -20 9 -7 12 -14 5 -14 -6 0 -15 4 -18 10 -3 5 -16 15 -28 22 -20
10 -21 10 -8 -5 20 -25 5 -21 -55 13 -29 16 -56 26 -59 21 -3 -5 3 -12 14 -16
11 -3 25 -12 32 -21 10 -12 9 -13 -7 -7 -10 4 -39 19 -63 35 -25 15 -52 28
-60 28 -9 -1 1 -10 21 -20 20 -11 40 -25 44 -31 4 -7 3 -9 -4 -5 -5 3 -13 0
-15 -6 -3 -8 -6 -6 -6 5 -1 10 -6 15 -11 12 -6 -4 -7 -12 -4 -18 5 -8 3 -8 -7
1 -7 6 -21 12 -31 12 -11 0 -32 7 -48 15 -17 9 -30 11 -30 6 0 -5 7 -11 15
-15 25 -9 18 -26 -7 -17 -45 16 -127 5 -156 -20 -41 -36 -67 -48 -83 -38 -8 4
-29 8 -47 7 -18 -1 -28 -4 -21 -8 6 -4 19 -5 29 -3 10 3 21 -1 26 -8 5 -9 2
-11 -9 -6 -9 3 -16 3 -16 -1 4 -25 -4 -32 -41 -32 -38 0 -59 -19 -22 -21 9 0
4 -5 -12 -9 -18 -6 -36 -5 -48 1 -10 5 -18 7 -18 3 0 -3 -8 0 -17 7 -16 13
-17 12 -4 -3 11 -15 11 -18 -1 -18 -8 0 -19 5 -26 12 -8 8 -12 9 -12 1 0 -6 6
-13 13 -16 6 -2 9 -8 5 -12 -4 -4 -19 0 -34 9 -14 10 -28 15 -32 12 -3 -3 0
-6 6 -6 7 0 9 -7 5 -17 -5 -12 -2 -15 10 -10 9 3 19 1 23 -5 4 -6 3 -9 -2 -5
-5 3 -20 0 -33 -7 l-23 -13 34 -16 c18 -9 26 -17 18 -17 -9 0 -20 4 -25 8 -16
13 -116 45 -122 38 -3 -3 3 -8 13 -12 10 -3 30 -10 44 -16 l25 -11 -25 -8
c-24 -8 -24 -8 5 -7 49 0 57 -1 49 -13 -3 -6 -22 -9 -41 -7 -31 4 -33 3 -17
-9 16 -11 16 -13 1 -13 -9 0 -27 5 -41 11 -17 8 -32 8 -53 1 l-28 -11 29 2
c21 1 29 -3 31 -15 3 -18 -10 -25 -19 -10 -3 5 -29 5 -58 2 -29 -4 -56 -6 -60
-3 -5 2 -8 0 -8 -6 0 -5 8 -11 18 -13 9 -3 -7 -8 -35 -12 -56 -8 -82 -26 -39
-26 14 0 28 5 31 10 3 6 19 10 35 10 16 0 32 5 35 10 3 6 17 10 31 10 30 0 22
-19 -9 -22 -12 0 -2 -4 23 -8 l45 -7 -55 -2 c-63 -3 -162 -17 -140 -20 21 -3
-39 -30 -70 -31 -14 -1 -19 -4 -12 -7 21 -8 2 -23 -31 -24 -27 0 -29 -2 -12
-9 16 -6 10 -9 -25 -12 l-45 -5 47 -1 c26 -1 50 3 53 8 3 6 11 10 16 10 6 0 8
-4 4 -9 -3 -5 3 -12 12 -14 10 -2 8 -3 -5 -2 -13 1 -22 -3 -22 -11 0 -8 -3
-13 -7 -12 -12 2 -47 -14 -58 -28 -16 -18 -63 -26 -86 -13 -14 7 -25 7 -31 1
-6 -6 4 -12 29 -17 l38 -7 -40 -15 c-22 -8 -46 -15 -53 -16 -8 0 -9 -4 -3 -10
5 -5 17 -5 29 2 30 16 39 13 16 -4 -17 -14 -14 -15 39 -10 52 5 57 3 43 -10
-8 -8 -21 -15 -29 -15 -9 0 -17 -5 -19 -10 -2 -7 -14 -7 -36 1 -17 6 -29 15
-26 21 3 5 0 8 -7 7 -8 -2 -24 0 -36 5 -13 4 -30 3 -39 -2 -14 -8 -6 -13 38
-26 58 -17 91 -40 60 -43 -9 -1 -35 -6 -57 -11 -33 -8 -35 -10 -12 -11 15 0
27 -5 27 -11 0 -5 9 -10 19 -10 11 0 23 -4 26 -10 6 -9 -20 -11 -167 -12 -15
-1 -25 -4 -22 -9 2 -4 10 -6 17 -4 7 3 26 1 42 -5 24 -7 18 -8 -33 -6 -38 2
-69 -2 -79 -9 -14 -11 -3 -12 62 -8 59 3 85 1 99 -9 16 -13 14 -14 -20 -10
-30 2 -35 1 -24 -7 12 -9 13 -11 1 -11 -8 0 -23 8 -33 17 -14 12 -17 13 -13 2
4 -10 -2 -14 -20 -15 -14 -1 -23 1 -21 5 3 4 -11 5 -31 3 -23 -3 -33 -1 -29 6
4 6 -4 6 -19 -1 -14 -7 -25 -15 -25 -19 0 -5 -10 -8 -22 -9 -13 0 -18 -3 -11
-5 7 -3 9 -12 6 -20 -3 -10 0 -12 10 -8 8 3 18 1 22 -5 4 -7 -5 -11 -22 -12
-17 -1 -21 -3 -10 -6 9 -2 17 -9 17 -14 0 -6 4 -8 9 -5 5 3 11 0 14 -8 4 -9
-4 -15 -23 -18 -24 -4 -27 -2 -18 9 8 11 7 12 -6 7 -23 -9 -15 -27 15 -34 18
-5 11 -8 -31 -14 -30 -5 -67 -9 -82 -9 -15 0 -25 -3 -23 -8 3 -4 -11 -2 -31 4
-29 9 -37 8 -45 -4 -6 -10 -9 -10 -9 -1 0 17 -50 15 -91 -3 -25 -10 -29 -15
-14 -15 l20 -1 -20 -9 c-14 -6 -15 -9 -5 -10 8 0 -9 -9 -38 -19 -29 -10 -58
-23 -64 -29 -7 -7 28 2 77 19 49 16 96 28 104 26 9 -3 6 -5 -8 -6 -15 -1 -21
-6 -18 -15 6 -15 -20 -26 -60 -26 -13 0 -23 -5 -23 -11 0 -5 -6 -7 -12 -3 -9
5 -9 2 1 -9 7 -9 19 -17 26 -17 6 0 12 -7 12 -15 0 -10 -6 -14 -15 -10 -7 3
-26 7 -40 10 -27 5 -27 5 -3 -5 23 -10 23 -11 5 -31 -14 -16 -15 -22 -5 -28
10 -6 9 -10 -4 -15 -24 -9 -25 -8 -18 11 5 13 2 15 -11 10 -10 -4 -24 -7 -32
-7 -9 0 -12 -5 -9 -11 4 -6 14 -8 22 -5 8 3 11 1 8 -4 -3 -6 -1 -10 5 -10 6 0
8 -4 5 -10 -3 -5 -11 -10 -16 -10 -6 0 -7 5 -3 11 4 8 -1 9 -16 4 -15 -5 -20
-4 -16 4 5 7 1 9 -8 5 -9 -3 -14 -9 -11 -14 2 -4 -6 -5 -19 -3 -13 3 -27 0
-30 -6 -4 -6 -15 -11 -24 -10 -14 0 -13 2 3 9 13 6 15 9 5 9 -8 0 -26 -9 -40
-20 l-25 -20 34 3 c22 2 36 -2 39 -11 3 -8 0 -11 -7 -7 -6 4 -11 3 -11 -3 0
-6 -22 -13 -50 -17 -27 -4 -47 -10 -44 -15 3 -5 -7 -14 -21 -21 -36 -16 -29
-44 10 -41 29 2 28 2 -10 -17 l-40 -20 35 5 c63 9 66 -10 5 -33 -61 -24 -180
-100 -170 -110 3 -4 9 -2 13 3 12 16 70 55 83 55 15 0 -12 -27 -63 -61 -21
-14 -35 -29 -31 -33 4 -4 -1 -4 -10 0 -10 4 -16 13 -13 20 7 19 3 18 -18 -8
-15 -18 -16 -20 -2 -15 9 4 16 2 16 -3 0 -6 -12 -10 -27 -11 -32 -1 -77 -17
-53 -19 11 0 8 -6 -9 -20 -12 -11 -27 -17 -32 -14 -16 9 -47 -6 -52 -26 -3
-13 -12 -18 -26 -15 -11 2 -24 -1 -27 -7 -4 -7 -2 -8 4 -4 7 4 12 3 12 -1 0
-11 -41 -36 -63 -38 -17 -2 -70 -45 -63 -52 1 -2 15 3 30 11 18 9 23 16 14 19
-7 2 -1 4 14 3 20 -1 24 -4 16 -13 -6 -7 -16 -13 -23 -13 -19 0 -49 -37 -34
-42 10 -3 10 -6 1 -12 -7 -4 -12 -2 -12 3 0 18 -26 12 -45 -9 -10 -11 -24 -20
-30 -20 -7 0 -16 -8 -20 -17 -11 -25 -12 -63 -3 -63 8 0 12 16 9 33 0 4 4 7 9
7 6 0 10 5 10 11 0 5 -6 7 -12 3 -7 -4 -10 -3 -5 1 4 5 17 10 30 11 12 2 36 5
54 8 25 4 31 2 27 -9 -3 -7 -14 -12 -25 -10 -10 2 -21 0 -24 -6 -4 -5 0 -9 8
-9 7 0 14 -7 14 -15 0 -11 -3 -13 -11 -5 -8 8 -14 1 -22 -22 -6 -18 -18 -33
-25 -32 -8 0 -23 -9 -33 -20 -16 -16 -16 -18 -3 -13 9 4 24 10 33 14 14 5 15
3 3 -18 -7 -13 -12 -27 -11 -31 1 -3 -22 -23 -51 -44 -30 -22 -46 -39 -39 -42
10 -3 9 -9 -5 -25 -10 -12 2 -5 27 14 77 60 141 95 124 68 -3 -5 -9 -7 -14 -4
-5 3 -19 -9 -31 -27 -13 -18 -29 -37 -37 -42 -23 -14 -53 -89 -39 -98 9 -6 9
-8 0 -8 -7 0 -13 -7 -13 -16 0 -14 2 -14 15 0 8 8 12 21 9 29 -3 10 5 18 25
25 35 12 42 -1 11 -18 -11 -6 -20 -16 -19 -23 5 -27 -14 -65 -37 -76 -13 -6
-23 -14 -22 -18 3 -19 -19 -52 -69 -100 -58 -57 -67 -73 -28 -47 20 13 25 14
23 3 -2 -8 -5 -16 -8 -19 -42 -43 -53 -62 -41 -69 9 -6 2 -14 -24 -30 -34 -19
-37 -20 -31 -4 5 16 4 16 -7 -1 -7 -10 -22 -31 -34 -46 -25 -31 -30 -47 -10
-34 7 5 1 -2 -14 -16 -51 -48 -126 -167 -113 -179 4 -3 9 0 11 7 3 7 14 17 25
23 20 11 20 11 2 -20 -10 -17 -22 -31 -26 -31 -4 0 -8 -4 -8 -10 0 -5 7 -10
15 -10 18 0 18 -4 5 -33 -7 -15 -1 -11 18 11 16 17 33 32 38 32 5 0 3 -4 -4
-9 -7 -4 -14 -17 -15 -29 -1 -22 -38 -38 -60 -26 -7 4 -9 4 -5 0 10 -11 -24
-46 -44 -46 -17 0 -55 -46 -46 -55 3 -3 27 6 54 20 l49 25 -35 -30 c-19 -16
-30 -30 -26 -30 5 0 3 -7 -4 -15 -7 -8 -17 -15 -23 -15 -6 0 -2 7 9 16 10 8
14 14 8 12 -19 -5 -96 -79 -90 -85 3 -4 -1 -15 -11 -25 -9 -10 -13 -21 -9 -25
4 -5 12 0 17 10 6 9 20 17 32 16 12 0 16 -3 9 -6 -6 -2 -10 -9 -6 -14 3 -5 0
-8 -8 -7 -7 2 -14 -8 -16 -21 -3 -17 0 -21 10 -17 7 4 3 -1 -10 -10 -12 -9
-22 -24 -22 -33 0 -14 2 -14 10 -1 7 12 9 10 7 -7 0 -12 -5 -19 -9 -17 -10 6
-9 -4 1 -31 7 -17 10 -15 21 17 8 20 17 35 22 32 4 -3 -1 -23 -12 -44 -24 -47
-26 -63 -4 -32 8 12 19 22 23 22 14 0 7 -54 -10 -81 -30 -47 -33 -52 -21 -45
18 11 52 16 52 7 0 -4 -9 -16 -19 -25 -20 -18 -36 -61 -32 -85 1 -7 -2 -10 -7
-7 -5 3 -8 -8 -7 -24 1 -16 -2 -27 -7 -24 -9 6 -32 -46 -23 -54 3 -3 5 0 5 6
0 7 5 12 10 12 7 0 7 -6 0 -19 -5 -11 -10 -32 -10 -47 0 -27 1 -27 15 -8 14
18 14 18 15 -6 0 -14 -8 -42 -19 -63 -10 -20 -15 -34 -10 -31 12 7 11 -1 -5
-41 -8 -19 -13 -35 -10 -35 2 0 -3 -14 -12 -31 -8 -17 -11 -28 -5 -25 25 16 2
-42 -29 -74 -9 -8 -10 -11 -3 -6 20 13 15 2 -13 -30 -14 -16 -30 -38 -36 -48
-9 -17 -7 -17 21 3 17 12 35 20 40 17 5 -3 14 1 21 9 19 22 41 7 34 -24 -9
-36 -35 -82 -59 -103 -19 -17 -19 -18 -1 -11 19 6 19 5 3 -17 -21 -31 -22 -44
-1 -36 12 4 15 2 10 -9 -3 -8 -9 -22 -12 -30 -3 -8 -1 -15 5 -15 6 0 11 5 11
10 0 6 4 10 9 10 11 0 -14 -99 -28 -113 -21 -21 -11 -30 10 -11 22 19 22 19
14 -5 -4 -15 -3 -21 3 -17 25 15 15 -114 -11 -140 -11 -11 -8 -26 3 -19 14 9
1 -52 -22 -100 l-19 -40 36 39 c25 28 35 34 35 22 0 -9 5 -14 10 -11 9 5 15
-43 12 -94 0 -16 23 -43 31 -35 3 3 3 13 0 22 -5 14 -4 15 8 4 15 -14 24 -176
9 -167 -10 6 -22 -24 -14 -36 3 -5 8 -39 11 -75 4 -49 3 -65 -5 -60 -8 5 -10
2 -6 -8 5 -12 11 -13 24 -6 18 10 19 6 14 -71 -4 -62 -9 -86 -25 -102 -11 -12
-22 -32 -24 -44 -16 -75 -16 -78 -5 -63 9 11 10 7 5 -20 l-6 -35 15 33 c17 37
26 42 20 9 -2 -12 3 -2 11 22 8 24 12 49 9 55 -3 6 4 0 15 -13 14 -15 19 -31
15 -44 -4 -13 -2 -17 5 -13 15 9 14 2 -5 -42 -8 -20 -14 -51 -12 -69 1 -18 -1
-35 -5 -39 -10 -10 -9 -86 2 -80 4 3 7 18 5 33 l-4 28 9 -29 c6 -15 7 -47 4
-70 -5 -38 -6 -60 -2 -123 2 -33 19 -17 19 18 0 16 5 29 10 29 6 0 10 6 10 14
0 7 7 19 15 26 12 10 13 7 6 -17 -13 -46 -13 -130 0 -175 15 -52 16 -55 17
-91 2 -26 3 -27 18 -13 26 26 37 19 31 -20 -5 -29 -4 -34 8 -24 11 9 13 4 12
-27 -1 -21 -6 -43 -10 -50 -4 -6 -2 -15 4 -18 7 -5 2 -16 -13 -33 -15 -18 -17
-22 -4 -12 18 14 19 13 14 -13 -4 -19 -2 -25 6 -19 6 5 19 12 30 16 15 5 13
-1 -10 -31 l-29 -38 29 19 c30 19 29 14 -6 -37 -25 -35 -14 -35 17 1 13 15 25
22 25 15 0 -6 -21 -32 -47 -58 l-48 -47 39 21 c21 12 41 20 43 17 3 -3 15 0
27 6 15 7 10 -1 -14 -28 -19 -21 -28 -33 -19 -26 14 11 16 7 14 -26 -1 -21 -5
-44 -9 -50 -5 -8 -1 -10 11 -5 16 6 17 5 3 -12 -14 -17 -14 -18 7 -7 12 7 24
12 26 12 8 0 -5 -43 -16 -57 -7 -9 -5 -13 7 -13 9 0 16 -5 16 -11 0 -5 6 -7
13 -3 6 4 -6 -12 -28 -35 l-40 -42 33 6 c37 6 36 0 -2 -44 l-21 -24 25 13 c21
10 23 10 13 -1 -15 -16 -17 -33 -3 -24 16 10 12 -11 -5 -25 -13 -11 -13 -14 2
-26 17 -12 17 -14 -4 -34 -13 -11 -23 -24 -23 -27 0 -4 5 -2 12 5 17 17 44 16
29 -1 -6 -8 -8 -17 -4 -20 3 -4 1 -7 -6 -7 -9 0 -11 -8 -7 -24 4 -15 1 -26 -7
-29 -9 -3 -9 -7 2 -20 11 -14 11 -20 1 -32 -10 -13 -9 -15 10 -15 22 0 23 -1
5 -20 -11 -13 -14 -20 -6 -20 8 0 5 -11 -8 -29 -26 -36 -26 -45 -2 -31 38 20
33 9 -19 -41 -29 -28 -42 -46 -29 -39 13 7 37 15 53 17 l30 3 -34 -25 c-19
-14 -28 -25 -22 -25 10 0 10 -5 2 -20 -7 -13 -7 -20 -1 -20 6 0 2 -16 -9 -36
-20 -35 -20 -35 -1 -29 22 7 23 -7 1 -45 -20 -36 -21 -50 -2 -42 12 4 11 -2
-6 -25 -28 -39 -28 -41 6 -35 l27 5 -22 -25 c-27 -29 -30 -43 -7 -34 13 5 15
2 9 -11 -16 -37 -17 -64 -4 -80 10 -12 10 -14 2 -9 -8 4 -13 2 -13 -7 0 -8 -7
-17 -15 -21 -8 -3 -15 -15 -15 -27 0 -16 5 -20 20 -16 30 8 35 -12 6 -23 -14
-5 -26 -12 -26 -15 0 -4 5 -3 10 0 17 11 11 -10 -10 -33 -27 -28 -25 -33 8
-27 23 5 24 4 6 -4 -31 -14 -37 -27 -19 -44 12 -12 12 -16 1 -20 -7 -3 -16
-14 -18 -25 -4 -15 -2 -19 9 -15 10 4 9 -3 -6 -27 -19 -32 -20 -56 -1 -45 5 3
7 -4 5 -15 -2 -11 -1 -20 3 -20 4 0 7 -18 7 -39 0 -31 2 -37 12 -29 10 8 12 3
6 -23 -6 -32 -5 -33 12 -19 17 14 18 13 11 -5 -7 -19 -6 -19 10 -3 13 13 21
14 40 6 13 -6 24 -18 25 -27 0 -10 2 -12 6 -3 7 17 33 15 33 -3 0 -8 4 -15 9
-15 4 0 6 -12 3 -27 l-5 -28 26 28 c32 33 37 34 29 5 -5 -23 -5 -23 16 -4 22
19 22 19 22 -4 0 -19 2 -21 16 -9 12 10 50 12 147 11 73 -2 140 -5 149 -8 10
-3 21 -17 24 -31 l7 -26 13 29 c12 29 12 29 13 4 1 -14 6 -32 11 -40 7 -12 10
-8 11 15 l1 30 12 -29 13 -28 17 43 c12 30 20 39 25 30 6 -10 10 -10 12 -2 8
22 39 0 40 -28 1 -28 3 -23 13 22 7 31 42 38 49 10 4 -14 5 -12 6 5 1 25 11
28 29 10 8 -8 12 -8 12 -1 0 15 71 25 87 11 10 -8 13 -7 13 3 1 10 5 8 15 -5
13 -18 14 -17 21 8 6 27 23 36 25 14 0 -7 4 -4 9 8 5 12 21 24 38 27 23 5 34
16 48 47 10 22 22 40 27 40 5 0 4 7 -3 15 -6 8 -10 20 -8 27 3 7 -1 33 -9 57
-7 24 -10 47 -7 50 4 3 9 0 11 -6 3 -7 9 -13 14 -13 17 0 9 19 -22 51 -32 33
-28 48 16 50 11 0 14 3 8 6 -7 2 -13 9 -13 14 0 6 6 7 13 3 8 -6 8 -3 -1 9 -8
9 -11 21 -8 26 4 5 -4 17 -16 26 -13 8 -23 25 -23 38 -1 12 -6 21 -13 19 -14
-2 -16 24 -2 33 25 15 -19 77 -90 128 -20 14 -20 15 -3 7 29 -13 36 -13 27 3
-4 7 -3 9 2 4 5 -5 9 -13 9 -18 0 -5 4 -9 10 -10 18 -1 16 17 -5 41 -24 28
-25 31 -5 24 15 -6 13 11 -4 41 -3 6 -7 18 -8 28 -3 19 13 23 20 5 3 -7 6 -3
6 9 1 12 -4 25 -10 28 -6 4 -8 13 -5 20 3 8 -1 19 -9 25 -8 6 -11 19 -8 27 4
11 2 14 -5 9 -8 -4 -10 -2 -6 8 3 8 1 24 -6 35 -13 26 4 29 19 4 10 -17 10
-17 11 0 0 10 -5 27 -10 38 -14 25 -2 24 27 -3 35 -33 29 0 -8 40 -27 29 -29
48 -1 20 6 -6 15 -8 19 -4 4 4 -3 15 -16 25 -17 13 -22 24 -17 39 4 12 10 21
14 19 13 -4 12 13 -2 42 -9 16 -13 31 -9 34 3 4 -2 18 -11 32 -17 26 -9 34 12
13 7 -7 12 -8 12 -3 0 4 9 0 20 -10 23 -21 26 -7 6 33 -17 35 -27 88 -19 108
5 13 7 13 14 2 7 -10 9 -9 9 4 0 9 6 18 13 21 8 3 6 10 -7 26 -15 16 -16 20
-5 16 12 -5 16 3 18 32 1 21 3 44 3 50 1 10 5 10 17 0 13 -10 12 -7 -2 16 -10
15 -13 27 -7 27 6 0 8 5 4 12 -4 7 -3 8 5 4 6 -4 9 -11 6 -15 -2 -5 2 -16 9
-26 12 -17 14 -15 20 21 7 37 9 38 23 19 13 -19 14 -18 7 10 -3 17 -12 39 -19
50 -17 28 -9 50 13 33 9 -7 2 6 -17 30 -18 24 -31 46 -27 49 3 3 8 -2 12 -11
3 -9 10 -16 14 -16 5 0 -3 21 -17 48 l-25 47 24 -23 c31 -29 40 -28 32 3 -8
32 9 32 26 0 18 -34 24 -25 12 19 -12 43 -1 46 28 9 l22 -28 -7 40 c-4 22 -12
49 -17 59 -9 16 -7 18 6 13 14 -5 15 -3 6 13 -12 22 -2 53 15 47 6 -3 17 4 23
14 7 10 9 19 5 19 -5 0 -9 16 -10 35 -2 41 4 45 17 9 6 -14 15 -22 21 -19 6 4
8 14 4 22 -4 12 -2 13 8 5 11 -9 13 -4 11 26 -1 20 -5 46 -9 57 -3 11 4 1 17
-23 22 -40 24 -53 22 -189 -1 -122 1 -141 11 -117 l12 29 7 -35 c13 -61 17
-70 28 -64 7 5 9 -2 4 -22 -4 -16 -12 -30 -17 -32 -5 -2 -9 -12 -9 -22 0 -10
-4 -22 -10 -25 -6 -3 -10 -15 -10 -27 0 -19 1 -20 25 -4 24 16 25 16 25 -8 0
-13 -14 -54 -31 -91 -32 -68 -51 -153 -31 -141 13 8 22 -21 18 -56 -2 -15 0
-25 5 -23 4 3 10 -3 13 -12 3 -10 3 16 1 57 -3 41 -1 91 4 110 5 19 9 29 10
22 1 -7 5 -11 11 -7 5 3 7 12 4 19 -3 8 0 17 7 22 8 4 10 3 5 -4 -4 -7 -2 -12
3 -12 6 0 11 7 11 16 0 18 78 110 91 107 9 -3 79 76 79 89 0 4 4 8 10 8 5 0 7
-8 4 -17 -3 -10 10 6 29 36 54 84 59 90 75 83 11 -4 14 -1 9 11 -3 9 -2 17 3
17 13 0 13 -23 1 -36 -9 -9 -15 -43 -12 -74 1 -13 2 -13 12 0 8 11 9 7 6 -20
-3 -19 -3 -30 -1 -23 3 7 12 9 21 6 13 -5 14 2 8 54 -5 44 -3 62 7 70 11 9 13
-5 15 -80 1 -51 2 -116 3 -146 2 -79 13 -93 39 -50 12 19 28 58 37 86 8 29 19
55 23 58 5 2 7 16 6 30 -2 16 2 25 11 25 8 0 14 6 14 14 0 8 5 18 11 22 16 9
1 -36 -19 -58 -10 -12 -11 -18 -3 -18 7 0 9 -6 6 -13 -4 -6 0 -4 8 6 8 9 18
17 22 17 4 0 2 -6 -4 -14 -6 -7 -9 -20 -5 -29 3 -8 1 -24 -5 -35 -8 -16 -7
-21 5 -26 8 -3 12 -2 9 3 -3 5 -1 12 5 16 19 11 10 -20 -10 -38 -11 -9 -20
-25 -19 -34 0 -15 2 -14 9 3 8 21 40 41 40 25 0 -5 -7 -11 -15 -15 -8 -3 -15
-10 -15 -15 0 -6 7 -8 15 -5 13 5 14 2 5 -21 -9 -24 -8 -26 7 -21 16 6 16 6 0
-12 -21 -23 -12 -34 22 -25 l26 6 -28 -30 c-15 -16 -24 -33 -20 -37 4 -4 1
-12 -7 -17 -12 -8 -10 -10 8 -6 29 7 28 2 -10 -33 -27 -24 -30 -29 -14 -30 16
0 16 -2 -5 -20 -21 -17 -21 -19 -4 -13 18 6 18 5 6 -10 -7 -9 -11 -17 -7 -17
4 0 -2 -12 -11 -27 l-18 -28 27 18 c38 24 46 21 20 -6 -12 -13 -19 -26 -16
-30 4 -4 1 -13 -6 -22 -10 -12 -9 -16 3 -21 9 -3 21 -3 28 1 6 4 3 -4 -6 -19
-10 -14 -21 -26 -25 -26 -4 0 -15 -12 -25 -26 -14 -22 -15 -28 -4 -35 16 -10
19 -29 6 -46 -5 -7 -6 -17 -2 -23 4 -6 0 -21 -8 -33 -12 -18 -12 -24 -1 -34
14 -13 1 -74 -21 -103 -7 -8 -15 -23 -18 -33 -6 -16 -5 -16 21 0 24 15 23 14
-6 -14 -25 -24 -32 -38 -28 -58 3 -15 0 -39 -6 -53 -17 -39 -17 -61 -2 -55 9
3 11 -5 8 -34 -3 -21 -6 -47 -8 -59 -1 -11 -10 -31 -19 -44 -26 -37 -22 -53
11 -46 22 5 24 4 10 -4 -10 -6 -22 -20 -28 -30 -9 -17 -8 -19 7 -13 16 6 16 5
5 -10 -16 -19 -6 -41 14 -33 9 3 14 -1 14 -11 0 -13 3 -14 12 -5 16 16 33 16
21 0 -20 -26 -21 -44 -3 -44 10 0 16 5 13 11 -4 5 3 2 15 -8 12 -11 18 -26 15
-35 -4 -13 -1 -12 11 3 13 17 15 17 10 2 -5 -13 -2 -16 12 -10 13 5 15 3 9 -8
-6 -11 -5 -12 5 -2 10 10 19 9 39 -2 14 -7 34 -16 43 -19 11 -3 15 -11 12 -20
-4 -11 0 -13 16 -9 19 5 20 4 9 -21 -7 -14 -23 -33 -36 -42 -31 -20 -24 -28
12 -14 25 9 26 9 15 -5 -8 -10 -9 -15 -1 -15 6 0 3 -9 -7 -20 -9 -12 -16 -24
-15 -28 1 -4 -4 -13 -10 -21 -9 -11 -9 -15 0 -18 9 -3 5 -15 -13 -39 l-26 -34
22 0 c23 0 23 0 5 -20 -18 -20 -18 -21 -1 -14 16 6 17 4 7 -14 -7 -12 -17 -22
-24 -22 -7 0 -6 -4 3 -10 10 -6 11 -10 3 -10 -7 0 -13 -6 -13 -14 0 -7 -7 -19
-15 -26 -8 -7 -12 -16 -9 -21 3 -5 -11 -19 -31 -30 -20 -12 -33 -24 -30 -27 3
-3 11 0 17 6 7 7 18 12 24 12 17 0 12 -83 -6 -105 -18 -21 -22 -45 -8 -45 6 0
5 -6 -2 -15 -10 -12 -10 -15 0 -15 7 0 10 -7 6 -15 -3 -10 1 -15 11 -15 13 0
12 -5 -8 -26 -23 -25 -23 -26 -2 -15 29 15 38 14 23 -4 -6 -8 -9 -18 -6 -24 3
-5 2 -21 -4 -36 -7 -17 -7 -24 0 -20 29 18 61 -75 40 -114 l-11 -22 38 21 c40
21 52 15 53 -25 1 -19 1 -19 14 -2 15 20 46 13 46 -10 0 -8 5 -11 10 -8 16 10
69 -5 66 -18 -1 -7 -1 -9 1 -4 9 15 43 7 43 -10 1 -16 2 -16 17 2 12 16 14 16
10 3 -9 -26 9 -31 26 -8 7 11 17 17 21 12 4 -4 13 -7 19 -7 7 0 13 -15 15 -32
4 -43 18 -42 26 2 8 42 26 47 27 8 l1 -28 7 25 c8 30 41 40 41 13 1 -16 2 -16
10 -2 8 14 27 17 62 10 4 0 9 -11 11 -23 l4 -23 8 23 c7 22 25 31 25 12 0 -6
9 -5 21 2 14 8 23 9 25 3 2 -6 35 -9 80 -7 56 3 79 0 85 -10 7 -10 9 -10 10 2
0 10 3 8 9 -5 7 -17 9 -17 9 -2 1 12 10 17 34 18 17 1 43 3 57 5 14 3 51 5 82
7 32 1 58 5 58 8 0 9 34 7 47 -3 6 -5 10 -17 7 -26 -3 -9 3 -2 12 15 20 37 40
42 61 16 13 -17 13 -16 7 6 -4 17 -2 22 7 19 8 -3 15 -14 17 -26 2 -12 7 -22
12 -22 9 0 24 31 21 43 -1 5 3 6 9 2 5 -3 10 -16 10 -28 0 -18 2 -19 10 -7 5
8 10 11 10 6 0 -5 9 -1 19 8 15 13 20 14 24 4 3 -7 6 1 6 18 1 33 31 59 31 27
0 -14 2 -14 20 2 11 10 20 15 20 11 0 -4 7 -1 15 8 8 8 15 22 15 31 0 12 6 16
20 12 11 -3 20 -1 20 3 0 5 -6 10 -13 12 -9 2 -10 16 -4 56 7 42 12 52 24 48
13 -5 14 -4 3 9 -7 9 -15 35 -17 60 -3 39 -1 44 16 40 11 -2 30 -9 43 -15 22
-11 22 -11 3 5 -11 9 -32 19 -46 22 -14 2 -26 11 -26 18 0 10 6 11 26 4 25
-10 25 -10 6 11 l-19 21 29 -5 c23 -5 21 -3 -9 9 -38 15 -68 34 -34 22 18 -6
60 21 42 29 -6 3 -20 12 -30 20 -16 13 -16 15 -2 10 10 -3 20 -1 23 4 4 6 -10
10 -32 11 l-38 1 33 9 c18 5 30 14 27 19 -3 4 1 11 7 13 7 3 -5 6 -27 7 -22 1
-32 4 -22 7 9 2 17 11 17 19 0 8 -4 13 -9 10 -5 -4 -20 -2 -33 3 -12 6 -17 10
-9 10 9 1 6 8 -10 22 l-24 21 35 -6 35 -6 -29 14 c-19 9 -24 15 -15 18 12 4
11 8 -2 24 -9 10 -19 27 -22 36 -3 10 -18 20 -32 24 -34 9 -31 20 7 28 l33 6
-33 20 c-18 11 -37 20 -42 20 -5 0 -7 6 -4 14 3 8 15 12 27 10 l22 -5 -21 10
c-12 5 -25 14 -29 20 -8 13 -8 13 34 1 32 -9 33 -9 17 9 -10 11 -29 22 -43 26
-14 3 -23 9 -20 12 3 3 20 1 36 -5 l31 -11 -33 34 c-18 19 -44 39 -58 44 -23
9 -23 10 -2 10 12 1 25 6 29 13 4 6 3 8 -3 5 -6 -4 -13 0 -17 8 -7 19 4 19 31
0 19 -14 21 -13 16 5 -3 11 -11 25 -19 31 -8 6 -14 17 -14 24 0 8 -12 23 -26
34 l-27 21 32 6 32 7 -31 32 c-30 31 -31 45 0 45 22 0 20 54 -4 82 -15 17 -16
20 -2 15 9 -4 23 -10 31 -13 11 -5 13 -2 9 10 -3 9 -10 16 -14 16 -4 0 -10 8
-13 19 -3 15 0 17 16 13 22 -6 19 5 -12 42 -15 18 -15 19 2 13 16 -6 16 -5 1
18 -11 16 -12 25 -5 25 9 0 9 6 0 23 -12 22 -12 22 10 3 11 -11 21 -14 21 -8
0 6 -4 14 -10 17 -5 3 -10 14 -10 23 0 9 -7 30 -15 46 -14 25 -14 27 0 16 9
-8 15 -9 15 -2 0 6 9 9 19 7 15 -3 18 1 14 13 -3 9 -10 22 -14 28 -5 6 -6 14
-3 17 4 3 -3 18 -15 33 -23 29 -28 50 -10 38 7 -4 7 1 -1 16 -10 20 -10 22 3
17 13 -5 13 -2 1 21 -18 35 -9 41 15 11 l19 -24 -5 30 c-4 16 -14 38 -25 49
-28 31 -21 40 13 15 l31 -22 -11 21 c-7 12 -16 22 -20 22 -5 0 -12 7 -15 16
-6 15 -3 15 20 -1 26 -17 27 -17 20 1 -24 61 -3 153 31 139 12 -4 13 -2 6 7
-6 7 -10 20 -10 28 0 19 -32 90 -51 113 -22 25 -6 21 44 -13 36 -24 43 -26 34
-10 -8 14 -8 20 0 20 6 0 8 5 4 13 -5 6 10 -1 32 -18 l39 -29 -33 37 c-18 21
-30 43 -26 48 3 5 -2 22 -12 37 -21 32 -27 95 -8 88 9 -3 11 8 7 41 -4 39 -2
45 11 40 10 -4 16 -1 16 8 0 8 -6 15 -14 15 -8 0 -17 8 -21 17 -5 15 -4 16 6
6 16 -16 49 -17 49 -1 0 6 14 -4 31 -23 l31 -34 -6 40 c-4 22 -9 47 -12 56 -6
21 34 58 40 38 14 -43 16 -34 13 63 -2 59 0 111 5 116 4 4 4 29 0 54 -7 37 -6
45 4 41 8 -3 14 -11 14 -18 0 -8 4 -16 9 -19 4 -3 6 6 3 19 -2 14 -8 28 -13
31 -12 7 -11 24 1 24 6 0 9 -6 8 -13 -2 -6 2 -11 8 -10 14 3 25 -55 12 -63 -4
-3 -8 -10 -8 -15 0 -6 5 -7 10 -4 6 3 10 4 10 2 0 -2 11 -55 25 -117 31 -140
31 -144 0 -209 -15 -31 -25 -66 -23 -87 l2 -34 36 35 c20 19 41 35 47 35 20 0
24 74 9 150 -27 139 -27 155 -7 203 24 56 57 78 69 47 7 -20 9 -20 21 -6 8 9
18 16 24 16 8 0 8 -3 0 -11 -6 -6 -9 -17 -6 -25 2 -7 -2 -23 -11 -36 -20 -28
-20 -39 -2 -32 11 4 13 -9 11 -65 -2 -38 -6 -74 -9 -80 -4 -7 -1 -9 8 -5 11 4
13 0 9 -17 -4 -14 -2 -20 5 -15 6 3 13 -2 15 -11 4 -17 5 -17 6 0 1 11 6 15
13 11 6 -4 8 -3 4 4 -9 15 10 24 21 9 10 -13 10 -19 -2 -60 -12 -43 8 -57 40
-27 27 25 33 13 13 -23 -16 -28 -38 -90 -34 -94 2 -2 11 0 20 3 12 5 14 9 6
14 -8 5 -7 10 2 18 38 31 -2 -78 -45 -126 -11 -12 -16 -22 -10 -22 6 0 16 7
23 15 7 9 19 14 27 11 8 -3 12 -2 9 2 -3 4 10 8 28 8 29 0 32 -2 23 -17 -6
-10 -16 -15 -22 -12 -5 4 -7 2 -2 -2 4 -5 0 -17 -10 -27 -9 -10 -13 -18 -9
-18 4 0 2 -9 -4 -19 -11 -21 0 -22 45 -5 17 7 18 5 8 -8 -7 -8 -9 -19 -5 -23
4 -5 2 -6 -3 -2 -6 3 -16 -3 -23 -14 -14 -22 -2 -25 31 -8 22 12 22 12 3 -9
-10 -12 -23 -19 -27 -16 -5 3 -9 -2 -9 -10 0 -8 -9 -18 -20 -21 -26 -8 -26
-29 0 -22 16 4 18 2 10 -13 -14 -26 -12 -40 4 -34 18 7 59 -14 51 -25 -2 -5
-22 -12 -42 -16 -29 -6 -34 -9 -19 -14 10 -4 31 -6 47 -5 39 3 37 -9 -6 -31
-19 -11 -32 -21 -30 -24 3 -2 0 -10 -6 -17 -9 -10 -7 -15 4 -20 9 -3 13 -12
11 -19 -9 -22 14 -27 43 -8 29 19 27 8 -5 -30 -8 -9 -12 -20 -9 -24 4 -3 0
-17 -8 -30 -15 -23 -15 -23 5 -11 11 7 20 19 20 27 0 10 3 11 13 2 10 -8 17
-7 28 2 7 6 3 0 -9 -14 -14 -16 -19 -29 -13 -33 6 -4 5 -23 -4 -54 -8 -26 -15
-49 -15 -52 0 -2 19 14 42 35 23 22 35 30 25 19 -10 -12 -26 -38 -37 -59 -19
-37 -19 -37 1 -20 19 18 28 8 10 -11 -12 -11 -62 -206 -56 -212 3 -3 12 1 20
8 14 11 14 10 5 -14 -12 -33 -13 -39 -1 -32 5 4 7 -2 4 -12 -4 -15 1 -18 24
-17 17 1 19 1 6 -2 -13 -2 -31 -16 -41 -31 -25 -36 -37 -62 -19 -39 18 22 28
22 20 0 -5 -12 -3 -14 8 -8 11 6 12 5 2 -6 -17 -17 -17 -34 0 -21 8 7 24 8 43
3 l29 -8 -27 -8 c-16 -4 -28 -11 -28 -17 0 -5 -12 -20 -27 -34 -23 -21 -24
-24 -8 -20 11 3 27 1 35 -4 10 -6 11 -10 3 -10 -7 0 -13 -4 -13 -10 0 -5 7
-10 15 -10 8 0 15 -4 15 -10 0 -5 -5 -10 -11 -10 -8 0 -8 -4 0 -14 8 -10 8
-20 -3 -42 -11 -20 -12 -32 -4 -41 7 -9 6 -20 -7 -39 -17 -26 -17 -27 4 -21
11 3 24 1 27 -4 3 -5 -1 -9 -9 -9 -8 0 -22 -12 -32 -26 -16 -25 -16 -25 4 -15
37 20 45 11 16 -19 -25 -26 -27 -32 -15 -40 11 -7 11 -10 2 -10 -7 0 -10 -5
-7 -10 4 -6 -4 -19 -17 -30 l-23 -19 25 6 c25 6 25 6 6 -15 -11 -12 -15 -22
-10 -22 11 0 11 -46 1 -57 -4 -3 -2 -12 4 -19 6 -8 8 -21 5 -30 -4 -12 -2 -15
9 -10 13 5 14 2 4 -15 -10 -19 -9 -20 11 -9 21 11 21 11 5 -19 -8 -17 -11 -31
-6 -31 7 0 7 -9 0 -27 -10 -27 -10 -27 10 -8 18 16 21 16 21 2 0 -9 6 -20 13
-24 16 -10 39 -62 32 -73 -3 -4 3 -11 12 -14 11 -5 24 1 36 16 12 14 17 17 14
7 -3 -10 6 -28 24 -45 l29 -28 0 25 c1 23 2 22 14 -6 12 -29 13 -29 20 -8 6
19 10 21 32 11 13 -6 24 -15 24 -20 0 -5 5 -6 10 -3 6 3 15 -6 21 -22 l11 -28
13 30 c11 24 14 26 15 10 1 -11 2 -24 1 -28 -1 -5 3 -6 9 -2 5 3 10 13 10 21
0 8 4 14 9 14 5 0 7 -10 4 -22 -5 -23 -5 -23 10 -3 9 11 17 15 17 8 0 -6 9 -9
20 -6 15 4 20 0 20 -15 0 -12 4 -24 10 -27 6 -3 10 1 10 9 0 9 7 16 15 16 9 0
18 7 22 16 5 13 7 13 14 2 7 -11 11 -10 20 2 9 12 10 11 6 -7 -6 -28 9 -30 18
-3 5 15 15 20 39 20 26 0 34 -5 43 -27 l11 -28 1 30 2 30 15 -25 c14 -23 14
-23 9 -2 -5 16 -2 22 9 22 11 0 16 -10 17 -32 l1 -33 10 33 c12 37 28 42 28
10 1 -21 2 -21 11 -5 6 9 14 15 20 12 5 -4 9 -1 9 4 0 23 19 9 23 -16 l4 -28
2 28 c1 33 7 34 32 5 l18 -23 2 25 c1 17 3 20 6 8 5 -19 23 -25 23 -7 0 5 5 7
10 4 6 -3 13 1 17 11 6 16 7 15 20 -2 10 -14 13 -14 13 -3 0 10 12 16 38 17
20 2 51 4 67 6 17 2 36 -1 43 -6 8 -7 12 -7 12 2 0 8 9 11 25 8 14 -3 25 -2
25 2 0 4 11 8 25 8 14 0 25 -6 25 -12 0 -6 4 -5 9 3 5 8 19 16 30 18 17 2 21
-3 22 -25 l1 -27 8 30 c6 26 8 28 15 11 8 -19 9 -19 16 0 7 17 8 17 8 2 1 -22
17 -24 25 -3 3 8 10 15 15 15 6 0 7 -8 4 -17 -6 -16 -4 -16 9 -5 9 7 15 22 13
34 -3 14 0 18 11 14 12 -4 12 -2 4 14 -14 26 6 36 22 10 17 -27 27 -26 21 2
-5 23 -5 23 11 3 10 -11 15 -14 11 -8 -3 7 -2 13 4 13 5 0 12 -6 15 -12 3 -7
3 -2 -1 12 -5 22 -4 23 11 11 15 -12 15 -11 2 21 -13 30 -13 35 -1 35 8 0 12
-3 10 -7 -2 -4 2 -7 10 -7 17 0 14 31 -6 69 l-12 23 22 -19 22 -20 -13 26 c-8
14 -21 33 -31 42 -18 19 -24 41 -7 31 6 -3 7 1 4 9 -3 9 -9 16 -13 16 -7 0
-34 56 -37 78 -1 6 2 12 7 12 5 0 9 -3 9 -8 0 -4 10 -13 21 -21 20 -12 21 -11
14 6 -4 10 -8 24 -8 31 0 8 -18 25 -39 39 -21 14 -38 28 -38 30 0 3 11 -2 25
-11 30 -20 55 -22 37 -4 -7 7 -12 19 -12 27 0 8 -17 32 -37 53 -20 21 -32 38
-26 38 19 0 -12 50 -44 71 -30 20 -25 26 8 9 34 -19 21 7 -21 41 -22 18 -38
35 -35 37 9 9 -17 32 -39 33 -16 1 -17 2 -4 6 14 4 9 14 -30 53 -27 28 -48 59
-50 75 -2 19 1 25 9 20 23 -15 -6 22 -43 54 -41 36 -52 62 -16 37 37 -26 44
-18 13 14 -16 16 -25 33 -22 37 4 3 0 17 -8 30 -9 13 -11 23 -6 23 12 0 0 48
-25 95 -3 6 -13 26 -23 45 -13 24 -15 37 -8 42 7 4 6 12 -3 23 -8 9 -15 22
-16 29 -1 6 -5 20 -9 31 -6 17 -4 17 14 -4 l22 -24 -6 42 c-4 32 -2 40 8 35 9
-6 9 -4 0 7 -15 16 -17 33 -3 24 6 -3 10 1 10 9 0 8 -4 18 -10 21 -5 3 -10 11
-10 17 0 6 12 1 27 -13 l26 -24 -16 25 c-25 36 -21 47 8 20 14 -13 25 -29 25
-37 0 -7 5 -13 10 -13 17 0 11 16 -24 61 -19 23 -33 46 -31 50 3 3 -9 27 -25
53 -39 61 -38 67 6 25 l37 -34 -7 30 c-4 17 -18 51 -32 77 -24 47 -33 77 -14
48 15 -23 13 6 -2 33 -7 12 -13 28 -14 36 -2 7 -13 25 -26 39 l-23 25 27 -17
c26 -17 47 -8 33 14 -3 5 0 18 7 29 9 15 9 23 -2 36 -21 25 3 44 28 22 21 -20
32 -22 32 -6 0 5 -6 7 -12 3 -10 -6 -10 -5 0 8 7 9 10 28 6 49 -10 54 9 24 45
-71 128 -333 288 -549 478 -648 166 -86 408 -86 615 -1 75 31 222 112 302 166
51 35 67 35 61 2 -6 -30 4 -49 22 -42 11 4 14 2 9 -5 -4 -7 -3 -12 3 -12 5 0
10 -8 10 -18 2 -51 11 -66 26 -42 3 6 13 10 22 10 12 0 13 -3 4 -13 -6 -8 -8
-17 -4 -20 3 -4 -2 -17 -13 -28 l-19 -22 34 6 c30 6 32 5 20 -10 -12 -15 -12
-16 5 -10 16 6 17 5 6 -8 -9 -10 -9 -15 -1 -15 7 0 9 -9 5 -26 -5 -21 -4 -25
6 -19 10 6 12 4 7 -9 -5 -11 -3 -15 5 -10 7 5 9 2 5 -9 -4 -11 -2 -14 9 -10
13 5 15 0 11 -27 -5 -30 -4 -32 19 -27 18 3 22 1 15 -6 -6 -6 -11 -18 -11 -26
0 -12 3 -12 12 -3 17 17 33 15 18 -3 -7 -9 -8 -15 -2 -15 5 0 13 -7 16 -16 3
-8 2 -13 -3 -10 -5 3 -8 -12 -7 -34 0 -30 3 -36 13 -28 10 8 13 3 13 -25 0
-19 7 -40 16 -48 10 -8 13 -21 9 -38 -5 -25 -5 -26 11 -6 15 19 16 17 9 -29
-6 -44 -5 -48 8 -37 13 10 15 9 10 -9 -5 -19 -3 -20 22 -10 25 9 27 9 15 -5
-10 -12 -10 -19 -2 -27 7 -7 12 -21 12 -31 0 -16 3 -17 15 -7 12 10 15 9 15
-4 0 -11 5 -14 12 -10 7 4 8 3 4 -5 -4 -6 -12 -9 -17 -6 -5 4 -9 1 -9 -4 0 -6
5 -11 10 -11 6 0 8 -12 4 -28 -4 -21 -3 -24 5 -12 9 13 11 13 11 -2 0 -25 17
-22 25 3 4 11 9 18 12 16 2 -3 -3 -19 -12 -37 -16 -31 -16 -32 5 -25 19 6 21
5 11 -13 -15 -28 -14 -39 3 -39 8 0 14 5 13 10 -1 5 4 12 11 14 11 4 10 -2 -2
-25 -8 -16 -13 -32 -10 -35 3 -3 0 -16 -7 -29 -12 -23 -12 -23 10 -4 12 11 21
14 21 7 0 -9 5 -9 21 0 21 11 22 10 16 -19 -4 -18 -2 -34 4 -38 6 -3 9 -20 7
-36 l-5 -30 18 23 c21 27 25 19 7 -14 -10 -19 -9 -20 4 -10 20 17 30 5 17 -18
-11 -21 -2 -89 12 -89 5 0 9 4 9 8 0 5 7 17 15 28 13 17 14 14 10 -34 -3 -30
-7 -57 -10 -62 -8 -12 21 -20 33 -8 7 7 10 6 9 -3 -1 -35 4 -49 18 -49 12 0
13 -5 7 -18 -5 -9 -10 -38 -11 -65 -1 -45 0 -47 22 -43 21 4 23 1 19 -20 -4
-20 -1 -23 14 -17 14 5 16 3 10 -13 -9 -22 -9 -23 -7 -47 0 -10 5 -16 10 -13
4 3 13 -5 19 -18 8 -18 7 -28 -3 -44 -8 -10 -12 -22 -8 -25 3 -3 -2 -13 -11
-22 -24 -24 -19 -39 6 -21 35 25 44 19 16 -12 -30 -32 -41 -59 -28 -67 6 -4
10 -2 10 4 0 6 10 15 21 22 21 11 21 10 5 -12 -23 -34 -21 -59 7 -59 l22 -1
-22 -18 c-13 -11 -23 -22 -23 -26 0 -4 7 -2 15 5 9 7 18 10 22 6 3 -3 1 -6 -5
-6 -7 0 -12 -7 -12 -16 0 -8 5 -12 10 -9 5 3 10 2 10 -3 0 -5 -9 -12 -20 -15
-18 -5 -19 -9 -9 -33 7 -20 7 -30 0 -32 -7 -2 -5 -10 5 -19 13 -13 13 -17 2
-24 -7 -5 -8 -9 -3 -9 6 0 3 -5 -5 -10 -13 -9 -13 -11 0 -20 13 -8 13 -10 -2
-10 -11 0 -16 -6 -13 -20 3 -15 -3 -22 -22 -26 l-26 -7 29 -12 29 -12 -24 -7
c-18 -6 -21 -10 -10 -17 11 -7 11 -9 -2 -9 -9 0 -20 -7 -23 -16 -9 -22 -8 -24
9 -24 8 0 15 -3 16 -7 3 -33 11 -59 19 -61 5 -2 6 -10 3 -18 -3 -10 0 -12 10
-9 11 5 16 -4 21 -35 6 -36 9 -40 21 -30 13 11 15 7 16 -21 1 -24 3 -27 6 -11
2 12 9 22 14 22 6 0 7 -10 4 -22 -6 -19 -5 -21 6 -10 19 18 28 15 21 -10 -3
-14 -2 -19 6 -14 7 4 12 3 12 -3 0 -6 7 -8 15 -5 10 4 15 0 15 -14 0 -17 5
-20 25 -16 14 2 25 1 24 -3 -1 -5 -1 -21 0 -37 1 -24 3 -27 16 -16 20 17 38 1
38 -34 0 -14 3 -23 8 -20 5 3 9 1 9 -5 0 -5 -6 -12 -12 -14 -10 -4 -10 -6 -1
-6 7 -1 10 -8 7 -16 -4 -8 -2 -15 4 -15 6 0 13 6 15 13 3 6 6 3 6 -9 1 -11 8
-29 16 -40 13 -17 16 -17 26 -4 9 13 10 13 6 -1 -3 -9 -1 -22 4 -30 7 -11 10
-9 15 8 4 13 10 21 14 18 5 -3 11 -1 15 4 3 6 12 8 20 4 9 -3 15 1 15 10 0 8
7 18 16 21 9 3 12 11 8 18 -5 8 0 7 11 -2 17 -13 18 -13 13 0 -3 8 -1 26 3 39
8 20 11 22 26 10 15 -13 15 -12 3 10 -11 21 -10 23 4 18 9 -4 16 -2 16 4 0 6
5 7 10 4 6 -4 13 8 16 25 5 21 11 29 20 26 9 -3 14 2 14 13 0 25 26 47 34 29
3 -7 4 -3 2 9 -3 16 0 20 12 16 12 -5 14 -1 10 15 -4 14 -2 20 4 15 8 -4 9 5
4 27 l-6 33 22 -19 c21 -19 21 -19 13 1 -15 38 -18 68 -7 61 6 -3 13 -2 17 4
4 6 9 8 13 6 4 -2 6 17 6 43 -1 44 0 47 20 44 16 -4 22 0 22 16 0 11 -4 17 -9
14 -5 -3 -7 0 -5 8 3 8 11 13 17 11 6 -1 11 5 11 14 0 14 3 14 15 4 12 -10 15
-10 15 0 0 6 -9 14 -20 17 -11 3 -20 10 -20 15 0 5 6 6 13 2 8 -5 8 -2 -2 9
-11 15 -11 17 2 17 16 0 17 16 4 38 -12 18 13 15 36 -6 19 -17 20 -17 3 15
-18 37 -20 47 -6 38 18 -11 31 5 20 26 -6 10 -7 19 -2 19 5 0 7 11 4 25 -5 28
12 34 22 9 12 -31 16 -8 5 27 -6 19 -12 43 -14 54 -2 11 -4 20 -5 20 -1 0 -4
12 -6 28 -6 33 -1 34 25 6 l19 -21 -2 34 c-5 57 -6 59 -16 53 -6 -3 -7 1 -4 9
4 10 1 16 -7 16 -11 0 -11 2 1 10 10 6 22 4 39 -6 25 -17 22 -6 -8 30 -9 10
-15 20 -13 22 1 2 2 5 1 7 0 1 -2 11 -4 21 -2 10 -10 23 -17 27 -9 6 -7 9 9 9
l22 0 -24 46 c-30 57 -30 57 -2 49 20 -5 19 -3 -7 18 l-28 25 26 -5 c35 -7 34
14 -1 28 -23 9 -25 12 -11 18 15 5 15 8 -3 31 -12 14 -17 19 -13 11 5 -10 3
-12 -5 -7 -7 5 -10 11 -7 14 3 3 1 11 -4 17 -13 16 -2 45 15 39 7 -3 16 -1 20
5 4 7 -5 11 -22 12 -25 0 -26 1 -8 9 11 5 14 9 7 9 -6 1 -11 6 -10 13 2 7 -7
17 -19 23 -31 14 -29 29 3 21 17 -5 23 -3 19 4 -3 5 -12 10 -20 10 -8 0 -17 5
-21 12 -5 8 -2 9 10 5 13 -5 17 -3 13 7 -4 10 -1 13 9 9 7 -3 14 -1 14 3 0 5
-21 18 -46 29 -45 20 -45 20 -17 26 l28 6 -28 8 c-26 7 -26 8 -10 21 15 11 16
13 2 14 -17 0 -69 50 -53 50 6 0 16 -6 23 -13 11 -9 13 -9 7 1 -4 6 -2 12 3
12 20 0 11 18 -11 24 -19 5 -21 8 -8 16 8 5 11 10 5 10 -5 0 -21 9 -35 20
l-25 21 30 -6 30 -6 -27 16 c-34 19 -37 40 -5 32 20 -6 20 -4 -5 18 -34 29
-35 35 -5 28 22 -5 22 -5 2 10 -11 9 -30 17 -42 17 -13 0 -23 4 -23 10 0 5 7
7 15 4 8 -4 15 -2 15 4 0 5 -9 12 -20 15 -11 3 -20 11 -20 17 0 7 7 10 15 6
13 -5 12 -1 -2 19 -10 13 -21 25 -25 25 -15 0 -8 20 6 20 8 0 17 4 20 9 3 5 0
9 -7 8 -31 -1 -47 4 -47 14 0 6 7 9 15 5 8 -3 15 -3 15 0 0 2 -10 9 -22 14
l-23 9 24 0 c14 1 34 -7 45 -16 19 -17 20 -17 7 -1 -15 20 -67 48 -88 48 -7 0
-13 4 -13 9 0 5 19 7 43 5 36 -4 39 -2 22 8 -11 6 -26 20 -33 30 -7 10 -20 18
-28 18 -8 0 -14 8 -14 17 0 13 3 14 12 5 17 -17 33 -15 19 2 -9 11 -9 15 1 19
7 3 3 6 -10 6 -20 1 -22 5 -16 24 4 12 11 25 17 29 6 3 -7 10 -29 14 -36 7
-37 8 -14 15 21 6 22 7 5 9 l-20 1 20 9 20 9 -20 1 c-11 2 -26 2 -34 1 -7 -2
-10 2 -7 8 3 5 -2 11 -11 13 -15 3 -14 5 4 10 12 3 34 0 50 -8 19 -10 12 1
-26 36 -47 43 -52 50 -32 50 16 0 21 4 17 15 -3 8 0 15 7 16 7 0 -1 7 -18 14
-16 8 -23 14 -15 15 11 0 8 7 -10 21 l-25 21 33 -5 c18 -3 30 -1 26 4 -3 5
-13 9 -22 9 -9 0 -24 5 -32 11 -11 8 -6 9 21 7 24 -2 36 1 36 9 0 7 -5 13 -11
13 -6 1 -24 8 -41 16 -16 8 -21 12 -10 9 14 -4 9 4 -15 24 -30 26 -32 30 -13
28 12 0 19 -5 17 -9 -3 -4 2 -5 11 -2 25 10 0 31 -46 39 -51 9 -65 29 -16 23
31 -3 34 -2 26 14 -5 9 -26 20 -47 24 -45 8 -76 23 -52 25 8 1 24 1 35 0 17
-2 17 0 5 8 -11 8 -4 9 25 5 l40 -6 -30 26 -30 27 25 -2 c47 -2 55 0 42 13 -6
6 -31 15 -54 19 l-43 6 45 3 c25 1 38 4 30 7 -8 3 -26 10 -40 16 -14 5 -33 11
-42 12 -10 1 -21 4 -24 8 -4 3 15 4 42 1 l48 -4 -29 30 c-16 17 -46 35 -67 41
-21 5 -38 12 -38 15 0 4 8 3 17 0 16 -6 16 -6 0 12 -22 24 -21 28 6 37 22 8
22 8 -3 12 -33 6 -50 23 -25 24 19 0 19 1 0 9 -11 5 -14 9 -7 9 7 1 10 5 7 11
-3 5 -1 10 4 10 6 0 11 4 11 9 0 12 -48 27 -82 26 -16 -1 -28 3 -28 8 0 5 12
6 26 3 17 -5 23 -3 19 4 -8 13 6 13 40 0 37 -14 22 7 -18 25 l-32 15 40 -5
c58 -8 24 11 -45 26 -43 9 -51 13 -35 20 11 4 36 8 55 8 28 1 32 4 20 12 -11
8 -7 9 18 5 20 -3 31 -2 27 4 -5 9 -101 27 -118 22 -4 -1 -3 7 3 18 6 11 16
17 22 14 7 -5 9 -2 5 9 -3 9 -1 18 6 20 7 2 -6 13 -28 25 -28 15 -34 21 -20
22 17 0 18 2 5 11 -12 8 -9 9 13 5 28 -7 39 10 13 20 -8 3 -17 17 -21 31 -3
15 -11 23 -19 20 -7 -3 -19 -1 -27 4 -11 7 -10 9 5 9 11 0 16 5 13 14 -3 7 0
19 6 26 10 10 8 12 -6 7 -10 -4 -15 -3 -12 2 3 5 1 12 -5 16 -16 10 -12 25 8
25 15 1 15 2 -2 15 -11 8 -14 15 -8 15 7 0 21 -9 32 -20 28 -28 34 -25 14 9
-12 20 -23 27 -38 24 -19 -3 -19 -3 -2 5 17 7 14 11 -20 32 -36 22 -37 24 -16
28 19 3 21 6 11 18 -6 8 -9 17 -6 20 3 3 18 -14 33 -38 336 -531 551 -755 860
-899 284 -132 642 -119 1039 38 264 105 446 220 641 406 187 178 284 327 357
547 69 209 96 377 78 505 -9 65 -16 84 -37 103 -30 26 -75 29 -96 5 -9 -10
-52 -97 -98 -193 -202 -431 -315 -569 -616 -750 -212 -129 -354 -169 -624
-177 -322 -10 -446 35 -624 228 -128 138 -187 226 -346 513 -94 170 -152 297
-307 681 -106 259 -146 377 -228 667 -50 176 -64 240 -62 283 2 56 16 68 28
24 7 -23 7 -22 8 6 1 23 3 27 11 15 8 -13 10 -12 10 4 0 12 5 16 16 12 12 -4
14 -1 9 14 -4 11 -2 20 3 20 6 0 8 10 5 23 -4 21 -4 22 11 3 9 -11 16 -15 16
-9 0 6 -7 16 -15 23 -13 11 -13 14 2 27 10 8 12 12 6 8 -9 -4 -13 2 -13 19 0
17 -12 33 -42 55 -22 17 -45 32 -50 33 -6 2 -11 26 -12 53 -1 28 -5 55 -9 62
-4 6 -4 18 -1 27 5 12 2 15 -12 10 -13 -3 -11 -1 4 8 23 14 23 14 4 39 -16 20
-34 99 -37 157 0 15 -44 51 -62 52 -6 0 -15 5 -19 12 -5 8 3 9 29 5 21 -3 37
-2 37 4 0 5 -6 9 -12 9 -9 0 -8 4 2 10 12 8 8 10 -15 11 -25 1 -26 3 -7 6 20
4 21 7 10 21 -11 13 -11 15 4 10 10 -4 19 -1 22 8 3 9 -4 16 -22 20 -47 10
-48 12 -8 13 38 1 39 1 21 21 -10 11 -24 20 -32 20 -8 0 -11 5 -8 10 3 6 1 10
-4 10 -6 0 -11 7 -11 15 0 9 -6 12 -17 9 -10 -3 -8 1 5 8 12 8 19 17 16 21 -4
4 2 7 14 7 25 0 28 12 7 33 -19 20 -6 31 15 12 16 -14 17 -14 12 10 -2 14 -8
28 -13 31 -16 9 -9 26 7 20 14 -5 15 -4 5 8 -7 8 -10 20 -7 25 4 5 2 12 -4 16
-6 4 -8 10 -5 15 3 5 1 11 -5 15 -5 3 -10 13 -10 22 0 15 2 14 18 0 10 -10 22
-17 26 -17 11 0 -23 52 -42 66 -9 7 -13 20 -9 33 3 12 0 21 -6 21 -6 0 -8 2
-5 6 3 3 31 -9 61 -25 37 -20 59 -27 63 -20 4 8 9 7 15 -2 5 -8 9 -9 9 -3 0 6
-7 17 -16 25 -9 7 -29 33 -46 58 -17 25 -40 54 -52 65 -21 18 -21 18 7 1 16
-9 31 -14 34 -12 2 3 18 -9 35 -26 34 -36 27 -22 -21 41 -18 23 -38 39 -43 36
-7 -5 -8 -2 -4 5 5 7 -4 30 -19 52 -27 42 -27 62 0 39 9 -7 15 -8 15 -2 0 6
-6 13 -12 16 -10 5 -10 7 0 12 17 8 15 24 -5 46 -18 20 -4 25 15 6 9 -9 12 -9
12 0 0 7 -3 12 -7 12 -5 0 -35 16 -68 36 -33 19 -50 33 -37 31 12 -3 22 -1 22
4 0 5 -7 9 -17 9 -9 0 -14 3 -10 6 3 3 27 -2 54 -12 26 -10 53 -18 60 -16 6 1
14 -2 18 -8 3 -5 11 -10 17 -10 6 0 -6 13 -25 29 -20 16 -52 51 -71 79 -34 51
-37 73 -7 50 9 -8 8 -3 -3 10 -12 13 -26 20 -35 17 -8 -3 -12 -3 -9 1 4 3 -3
15 -15 26 -12 11 -15 16 -7 13 8 -4 2 4 -15 19 -29 24 -29 25 -7 26 13 0 44
-11 69 -25 50 -26 68 -25 38 3 -10 10 -14 11 -10 3 6 -10 4 -12 -4 -7 -6 4 -9
11 -6 16 3 5 -6 27 -20 49 -26 43 -33 67 -14 55 8 -5 10 4 7 29 -4 33 -2 35
12 22 41 -37 40 37 -1 96 l-30 44 41 -42 c46 -48 60 -55 36 -18 -23 35 -19 55
5 23 24 -32 45 -38 29 -9 -5 11 -10 28 -9 38 0 10 3 13 6 5 2 -6 9 -10 13 -7
10 6 -7 52 -27 73 -20 21 -15 24 12 6 14 -9 25 -20 25 -24 0 -4 6 -10 14 -13
11 -5 11 0 -2 26 -8 18 -22 40 -30 50 -13 15 -13 17 -1 12 8 -3 23 -18 34 -35
25 -38 31 -31 10 12 l-16 33 19 -24 20 -24 0 29 c0 16 -5 35 -10 42 -7 8 -7
12 1 12 7 0 9 5 5 12 -4 6 -3 8 4 4 6 -3 14 -2 17 4 5 8 12 7 23 -2 15 -12 16
-11 3 4 -7 10 -17 16 -21 13 -4 -2 -16 2 -26 10 -10 8 -14 15 -8 15 5 0 15 -5
22 -12 9 -9 12 -9 12 2 0 9 10 4 28 -13 15 -15 31 -27 34 -27 12 0 2 29 -18
51 -10 11 -18 24 -17 28 1 3 -1 8 -4 11 -4 3 -3 -1 1 -7 4 -7 2 -13 -3 -13 -6
0 -11 7 -11 15 0 18 5 18 31 5 11 -6 23 -9 28 -6 9 6 -9 69 -22 82 -13 13 -7
26 8 20 22 -8 18 18 -6 40 -11 10 -25 27 -31 37 -8 17 -7 18 14 12 23 -6 23
-6 -3 17 -18 17 -22 27 -15 34 6 6 18 8 25 6 8 -3 11 0 7 7 -4 6 -1 11 8 11
32 0 14 20 -49 57 -35 21 -65 40 -65 43 0 3 28 6 62 8 35 2 65 5 67 8 7 7 -22
54 -61 99 -21 23 -35 45 -32 48 3 3 -8 8 -25 12 -17 4 -34 11 -37 17 -5 7 2 9
19 4 14 -3 29 -2 32 4 3 6 18 8 33 5 27 -5 27 -5 3 5 -14 6 -30 9 -38 6 -7 -3
-15 -1 -18 4 -3 4 1 11 7 13 7 3 3 6 -8 6 -26 1 -42 31 -17 31 13 0 14 2 2 17
-12 13 -12 17 -1 21 9 2 -2 14 -27 29 -23 13 -41 31 -41 39 0 8 -9 14 -20 14
-11 0 -23 7 -26 15 -4 8 -12 15 -20 15 -8 0 -14 5 -14 10 0 6 -6 10 -12 8 -25
-4 -88 13 -89 25 0 7 -2 20 -4 30 -2 9 2 17 8 18 7 0 -4 6 -23 12 -27 8 -31
11 -15 15 16 4 15 6 -10 17 l-30 13 30 1 c26 1 28 3 12 12 -10 6 -25 8 -32 5
-8 -3 -17 -1 -20 3 -6 11 23 23 38 15 7 -3 3 2 -8 11 -20 17 -20 17 5 10 14
-4 34 -14 45 -21 11 -8 24 -14 30 -14 12 0 -42 38 -73 50 -12 5 -21 15 -20 22
2 8 -9 14 -25 16 -15 2 -25 7 -22 11 2 5 -16 14 -42 22 -36 10 -42 14 -27 19
18 7 17 8 -4 14 -31 10 -75 53 -67 65 3 6 14 11 23 11 15 0 15 2 2 10 -13 8
-12 10 3 10 10 0 15 5 12 10 -3 6 -21 10 -38 10 -23 0 -36 7 -46 23 -12 19
-12 20 0 11 11 -9 17 -9 27 2 7 8 9 14 3 14 -12 0 -23 48 -15 72 6 19 6 19 27
1 18 -15 19 -15 9 -1 -12 15 -16 28 -25 93 -1 11 -13 31 -27 45 -15 15 -19 25
-12 28 7 2 9 9 5 15 -3 6 11 -3 32 -19 22 -16 35 -23 30 -15 -6 11 -4 13 11 7
21 -7 -38 43 -70 59 -21 11 -24 28 -4 33 9 2 8 0 -2 -8 -12 -10 -11 -11 8 -7
12 3 20 1 16 -4 -3 -5 -1 -9 5 -9 5 0 11 5 13 12 3 8 18 1 43 -18 l39 -29 -23
33 c-12 18 -26 30 -29 28 -4 -2 -16 2 -26 9 -17 13 -17 14 5 13 13 -1 32 -8
42 -16 9 -9 20 -13 23 -9 3 3 -12 19 -35 35 -22 16 -37 33 -33 37 4 5 -1 6
-10 2 -9 -3 -19 0 -22 9 -3 9 1 14 14 14 14 0 18 5 13 18 -6 15 -5 15 10 3 10
-8 17 -9 17 -3 0 6 -9 14 -20 17 -18 6 -21 11 -19 32 0 4 -8 10 -18 14 -16 7
-16 8 3 8 12 1 33 -8 47 -19 14 -11 29 -20 33 -20 4 0 -1 9 -11 20 -10 11 -15
20 -10 20 4 0 2 6 -5 14 -6 8 -19 12 -28 9 -14 -4 -14 -3 -3 5 12 9 12 13 2
26 -10 12 -9 17 9 26 12 7 38 10 56 8 38 -4 43 15 5 20 -12 2 -20 9 -18 15 2
7 34 14 78 17 l74 5 -47 9 c-25 4 -55 5 -67 1 -12 -4 -21 -2 -21 4 0 10 39 16
65 11 13 -2 -23 30 -58 53 -18 12 -38 16 -53 13 -14 -4 -24 -2 -24 4 0 5 14
10 30 10 17 0 30 4 30 9 0 6 9 8 20 6 25 -5 26 10 3 24 -15 9 -13 11 12 11
l30 2 -27 10 c-16 5 -28 16 -28 23 0 7 -6 15 -12 18 -7 2 -3 2 9 1 12 -2 25 1
28 6 4 6 11 8 16 5 5 -4 9 -1 9 4 0 6 -6 11 -12 11 -9 0 -8 3 2 9 8 6 18 7 22
5 4 -3 8 0 8 6 0 8 -7 9 -17 5 -10 -4 -40 -9 -68 -12 -72 -6 -38 13 47 27 38
7 65 16 62 21 -3 6 4 8 18 5 12 -3 39 -2 58 3 l35 8 -38 8 c-21 4 -58 5 -82 2
-31 -5 -45 -3 -48 7 -4 9 2 11 21 8 24 -5 25 -3 14 11 -8 9 -21 13 -30 10 -12
-4 -14 -3 -7 5 6 6 28 13 50 15 22 3 -3 4 -55 3 -87 -3 -92 -2 -55 9 l40 12
-39 17 c-21 9 -46 16 -55 17 -9 0 0 6 19 14 19 7 34 18 33 24 -2 6 4 11 13 11
8 0 12 4 9 10 -4 6 -17 4 -35 -5 -17 -9 -52 -14 -82 -14 -29 1 -41 4 -25 6 50
8 30 25 -22 19 -33 -4 -60 -1 -83 9 -26 11 -29 14 -11 15 12 0 33 -4 46 -9 19
-8 27 -6 31 5 3 9 -1 14 -14 14 -42 0 -26 18 23 25 40 5 47 9 32 15 -18 7 -17
8 10 15 26 7 27 9 10 15 -11 4 -22 3 -26 -1 -8 -13 -113 -23 -104 -10 3 6 15
11 25 11 27 0 51 11 45 21 -3 4 -18 6 -33 3 -21 -4 -35 2 -60 27 -30 28 -38
31 -75 26 -38 -5 -39 -5 -12 4 17 6 37 13 45 16 8 3 31 5 50 4 36 -2 97 15 88
25 -3 2 -17 0 -31 -7 -27 -12 -77 -5 -77 11 0 6 10 10 23 10 17 0 19 2 7 10
-12 7 -11 10 5 15 31 10 65 28 62 32 -2 2 -23 -3 -46 -11 -23 -9 -44 -15 -47
-15 -3 0 -8 -2 -11 -5 -4 -3 -1 -6 6 -6 7 0 9 -5 5 -11 -3 -6 -17 -8 -31 -4
-16 4 -32 -1 -50 -15 -34 -26 -62 -28 -42 -2 13 16 13 16 -7 0 -29 -25 -41
-22 -18 4 l19 21 -27 -17 c-15 -10 -32 -15 -38 -11 -6 4 -9 1 -8 -6 2 -6 -3
-14 -11 -17 -8 -3 -11 0 -7 7 5 8 0 8 -19 -1 -16 -7 -21 -14 -14 -18 7 -5 6
-9 -4 -13 -9 -3 -14 0 -13 7 2 18 32 46 47 46 7 0 9 3 6 7 -4 3 1 12 11 20 15
12 14 13 -8 2 -14 -6 -37 -20 -52 -30 -28 -20 -58 -25 -58 -10 0 5 7 12 16 15
8 3 14 15 12 26 -2 13 17 41 57 82 33 34 49 53 35 42 -14 -11 -37 -28 -52 -37
-26 -16 -27 -16 -23 3 4 19 27 57 64 106 9 11 -1 2 -21 -20 -21 -23 -38 -44
-38 -48 0 -5 -8 -8 -17 -8 -14 0 -15 -2 -5 -9 11 -7 11 -11 -2 -23 -8 -9 -12
-19 -8 -23 4 -5 2 -5 -4 -2 -6 4 -19 -2 -29 -13 -10 -11 -21 -17 -26 -15 -4 3
-10 1 -14 -5 -4 -6 -11 -8 -16 -4 -6 3 -1 13 11 21 14 10 20 22 17 34 -3 11
-2 17 2 15 4 -3 13 0 21 6 12 8 12 9 -2 4 -22 -7 -22 -3 -3 34 9 17 13 30 10
30 -2 0 -19 -27 -36 -61 -16 -34 -33 -59 -35 -56 -3 3 -14 -3 -25 -14 -24 -24
-35 -24 -35 0 0 10 5 17 11 15 6 -3 22 8 35 22 14 15 19 24 11 19 -15 -9 -9
20 15 67 8 15 14 31 14 35 -1 4 -18 -26 -39 -67 -21 -41 -43 -73 -47 -71 -5 3
-11 -4 -13 -15 -5 -27 -20 -44 -40 -44 -9 0 -12 3 -6 8 6 4 17 16 25 27 l15
20 -24 -20 c-19 -16 -14 -3 23 69 26 49 45 94 43 100 -2 6 3 16 12 23 10 8 11
12 4 13 -7 0 -10 8 -7 18 3 9 -1 6 -9 -7 -14 -23 -15 -23 -20 -5 -3 15 -6 12
-12 -13 -7 -30 -35 -67 -35 -47 0 10 23 86 36 119 6 16 3 15 -13 -5 -11 -13
-19 -31 -16 -40 4 -12 3 -12 -5 -1 -8 11 -10 11 -14 0 -3 -8 -8 -11 -12 -8 -3
3 2 17 12 30 11 13 22 41 25 62 3 20 13 44 21 53 9 8 16 20 16 27 0 6 -7 2
-15 -9 -14 -19 -14 -19 -15 1 0 11 7 31 16 43 8 12 13 22 10 22 -11 0 -38 -50
-41 -77 -1 -15 -8 -29 -14 -31 -6 -2 -11 -12 -11 -22 0 -10 -4 -21 -9 -24 -4
-3 -7 6 -5 19 1 14 -2 23 -7 19 -5 -3 -9 -16 -9 -30 0 -17 -4 -23 -12 -18 -6
4 -8 3 -5 -3 4 -6 0 -24 -8 -39 -8 -16 -15 -34 -15 -40 0 -6 -6 -17 -14 -23
-12 -11 -15 -5 -19 31 -3 37 -5 40 -12 20 -6 -18 -10 -20 -16 -10 -6 8 -9 1
-9 -22 0 -19 -5 -42 -10 -50 -12 -17 -11 -11 16 118 10 45 21 77 25 71 3 -6
10 15 14 47 4 33 11 67 16 77 11 19 10 20 -7 9z m-217 -114 c-3 -8 -6 -5 -6 6
-1 11 2 17 5 13 3 -3 4 -12 1 -19z m-220 -40 c-3 -7 -5 -2 -5 12 0 14 2 19 5
13 2 -7 2 -19 0 -25z m73 -27 c0 -11 -5 -32 -12 -48 -6 -15 -11 -31 -10 -34 0
-3 -5 -6 -12 -6 -17 0 -13 86 5 98 21 13 29 11 29 -10z m-60 -5 c0 -3 -4 -8
-10 -11 -5 -3 -10 -1 -10 4 0 6 5 11 10 11 6 0 10 -2 10 -4z m212 -62 c-7 -14
-12 -33 -12 -44 0 -10 -4 -21 -9 -24 -12 -8 -11 46 1 62 7 8 7 12 -1 12 -15 0
-14 33 1 48 20 20 34 -21 20 -54z m-386 35 c4 -8 9 -7 15 2 5 8 9 9 9 3 0 -19
-13 -24 -28 -11 -13 10 -15 9 -10 -4 3 -9 2 -22 -3 -30 -6 -10 -9 -4 -9 19 0
32 13 42 26 21z m497 -39 c-3 -12 -8 -19 -11 -16 -5 6 5 36 12 36 2 0 2 -9 -1
-20z m-1129 1 c3 -5 0 -11 -7 -14 -8 -3 -14 1 -14 9 0 16 13 19 21 5z m-159
-11 c3 -5 1 -10 -4 -10 -6 0 -11 5 -11 10 0 6 2 10 4 10 3 0 8 -4 11 -10z
m1359 -58 c-4 -15 -8 -30 -9 -34 -2 -5 -3 -15 -4 -23 0 -8 -5 -15 -11 -15 -11
0 -9 17 10 79 15 46 28 40 14 -7z m-1167 12 c2 -7 11 -10 19 -7 8 3 14 1 14
-5 0 -6 3 -19 6 -29 4 -14 2 -13 -8 3 -7 12 -18 19 -24 17 -5 -2 -21 8 -33 21
l-23 25 22 -6 c12 -3 24 -12 27 -19z m453 6 c0 -5 -2 -10 -4 -10 -3 0 -8 5
-11 10 -3 6 -1 10 4 10 6 0 11 -4 11 -10z m796 -26 c-4 -9 -9 -15 -11 -12 -3
3 -3 13 1 22 4 9 9 15 11 12 3 -3 3 -13 -1 -22z m-1006 1 c7 -9 8 -15 2 -15
-5 0 -12 7 -16 15 -3 8 -4 15 -2 15 2 0 9 -7 16 -15z m-380 -5 c0 -5 -2 -10
-4 -10 -3 0 -8 5 -11 10 -3 6 -1 10 4 10 6 0 11 -4 11 -10z m140 -32 c0 -14
-15 -9 -38 12 -31 29 -27 34 8 13 17 -9 30 -21 30 -25z m460 38 c0 -3 -4 -8
-10 -11 -5 -3 -10 -1 -10 4 0 6 5 11 10 11 6 0 10 -2 10 -4z m810 -16 c0 -11
-4 -20 -9 -20 -5 0 -7 9 -4 20 3 11 7 20 9 20 2 0 4 -9 4 -20z m-810 -21 c0
-15 -18 -19 -23 -6 -3 8 1 14 9 14 8 0 14 -4 14 -8z m-486 -35 c5 -14 4 -15
-9 -4 -17 14 -19 20 -6 20 5 0 12 -7 15 -16z m161 -4 c3 -5 2 -10 -4 -10 -5 0
-13 5 -16 10 -3 6 -2 10 4 10 5 0 13 -4 16 -10z m-485 -30 c0 -5 -2 -10 -4
-10 -3 0 -8 5 -11 10 -3 6 -1 10 4 10 6 0 11 -4 11 -10z m295 0 c3 -6 -1 -7
-9 -4 -18 7 -21 14 -7 14 6 0 13 -4 16 -10z m485 -16 c0 -8 -4 -12 -10 -9 -5
3 -10 10 -10 16 0 5 5 9 10 9 6 0 10 -7 10 -16z m-757 -22 c9 -8 17 -22 17
-31 -1 -15 -2 -15 -13 0 -7 9 -30 22 -52 29 -33 11 -36 14 -20 20 23 8 43 3
68 -18z m497 -3 c0 -6 -4 -7 -10 -4 -5 3 -10 11 -10 16 0 6 5 7 10 4 6 -3 10
-11 10 -16z m-531 -23 c18 -10 30 -20 27 -23 -3 -3 -11 -1 -18 4 -7 6 -33 13
-57 17 -53 8 -68 16 -51 26 15 9 52 0 99 -24z m411 3 c0 -6 -4 -7 -10 -4 -5 3
-10 11 -10 16 0 6 5 7 10 4 6 -3 10 -11 10 -16z m1440 7 c0 -2 -8 -10 -17 -17
-16 -13 -17 -12 -4 4 13 16 21 21 21 13z m-190 -37 c0 -15 -18 -19 -23 -6 -3
8 1 14 9 14 8 0 14 -4 14 -8z m183 -9 c-10 -11 -24 -20 -31 -20 -9 0 -5 8 9
20 31 25 43 25 22 0z m-1869 -15 c-4 -8 -11 -15 -16 -15 -6 0 -5 6 2 15 7 8
14 15 16 15 2 0 1 -7 -2 -15z m1647 -8 c-10 -9 -11 -8 -5 6 3 10 9 15 12 12 3
-3 0 -11 -7 -18z m383 -18 c-3 -5 -10 -7 -15 -3 -5 3 -7 10 -3 15 3 5 10 7 15
3 5 -3 7 -10 3 -15z m179 -52 c9 -3 17 -13 17 -21 0 -17 -33 -27 -51 -15 -8 4
-17 2 -23 -7 -8 -9 -16 -11 -26 -4 -13 8 -12 10 3 10 10 0 15 5 12 10 -4 6
-11 8 -16 5 -16 -11 -10 7 9 22 16 14 16 14 0 9 -10 -3 -18 -1 -18 4 0 13 27
13 35 0 9 -14 27 -2 19 13 -3 7 0 5 8 -4 7 -8 21 -18 31 -22z m-2329 -36 c3
-5 -12 -11 -34 -13 -39 -3 -43 6 -5 15 32 8 34 7 39 -2z m2216 -16 c0 -5 -68
-35 -79 -35 -3 0 5 9 19 20 23 18 60 27 60 15z m-2415 -35 c-11 -4 -30 -10
-42 -15 -13 -4 -21 -11 -18 -15 3 -5 -3 -7 -12 -5 -10 2 -20 4 -23 4 -19 3 61
41 85 40 25 -1 27 -2 10 -9z m2432 -6 c-3 -3 -12 -4 -19 -1 -8 3 -5 6 6 6 11
1 17 -2 13 -5z m-2409 -25 c-12 -7 -24 -7 -35 0 -15 9 -12 10 17 10 29 0 32
-1 18 -10z m-113 -19 c3 -6 -4 -10 -17 -10 -18 0 -20 2 -8 10 19 12 18 12 25
0z m60 -10 c-3 -5 -10 -10 -16 -10 -5 0 -9 5 -9 10 0 6 7 10 16 10 8 0 12 -4
9 -10z m-138 -36 c-3 -3 -12 -4 -19 -1 -8 3 -5 6 6 6 11 1 17 -2 13 -5z m43
-14 c0 -5 -7 -10 -16 -10 -8 0 -12 5 -9 10 3 6 10 10 16 10 5 0 9 -4 9 -10z
m2667 -26 c-3 -3 -12 -4 -19 -1 -8 3 -5 6 6 6 11 1 17 -2 13 -5z m168 -6 c3
-3 -14 -8 -38 -11 -23 -3 -52 -9 -62 -13 -18 -7 -18 -6 -5 7 9 9 21 18 28 20
16 5 71 3 77 -3z m120 -97 c-3 -5 -19 -12 -35 -16 -17 -4 -28 -10 -26 -13 3
-6 -37 -8 -61 -3 -19 3 25 21 52 21 17 0 37 5 45 10 19 12 33 13 25 1z m-3100
-59 c-16 -2 -34 -7 -38 -11 -4 -5 -20 -6 -35 -3 -24 5 -23 6 18 17 25 6 54 8
65 5 16 -4 13 -6 -10 -8z m2942 12 c-3 -3 -12 -4 -19 -1 -8 3 -5 6 6 6 11 1
17 -2 13 -5z m-2927 -204 c0 -5 -7 -7 -15 -4 -8 4 -15 8 -15 10 0 2 7 4 15 4
8 0 15 -4 15 -10z m3079 -9 c9 -6 10 -11 2 -15 -6 -4 -15 -4 -21 -1 -5 3 -20
8 -31 10 -36 7 -35 15 2 15 19 0 40 -4 48 -9z m-3295 -47 c3 -8 2 -12 -4 -9
-6 3 -10 10 -10 16 0 14 7 11 14 -7z m3193 0 c-3 -3 -12 -4 -19 -1 -8 3 -5 6
6 6 11 1 17 -2 13 -5z m40 0 c-3 -3 -12 -4 -19 -1 -8 3 -5 6 6 6 11 1 17 -2
13 -5z m-3803 -28 c40 -17 52 -32 30 -40 -9 -3 -12 -2 -9 5 4 6 -3 7 -19 3
-35 -8 -96 -11 -96 -3 0 14 14 17 36 9 18 -7 22 -6 17 5 -3 8 -10 12 -17 8 -6
-4 -5 1 3 10 16 20 14 20 55 3z m-199 -136 c-27 -12 -43 -12 -25 0 8 5 22 9
30 9 10 0 8 -3 -5 -9z m65 -10 c13 -8 13 -10 -2 -10 -9 0 -20 5 -23 10 -8 13
5 13 25 0z m-178 -61 c-14 -5 -30 -5 -40 0 -12 7 -5 9 24 9 33 0 36 -2 16 -9z
m53 -19 c3 -6 -1 -7 -9 -4 -18 7 -21 14 -7 14 6 0 13 -4 16 -10z m-455 -164
c0 -2 -11 -6 -25 -8 -13 -3 -22 -1 -19 3 5 9 44 13 44 5z m-170 -250 c0 -2 -7
-7 -16 -10 -8 -3 -12 -2 -9 4 6 10 25 14 25 6z m-223 -130 c0 -8 -6 -12 -15
-9 -11 5 -11 7 0 14 7 5 13 9 14 9 0 0 1 -6 1 -14z m53 -32 c0 -14 -3 -14 -15
-4 -8 7 -15 14 -15 16 0 2 7 4 15 4 8 0 15 -7 15 -16z m-274 -39 c-8 -8 -18
-15 -22 -15 -3 0 -1 7 6 15 7 8 17 15 22 15 5 0 3 -7 -6 -15z m97 -2 c-7 -2
-19 -2 -25 0 -7 3 -2 5 12 5 14 0 19 -2 13 -5z m-413 -147 c0 -3 -4 -8 -10
-11 -5 -3 -10 -1 -10 4 0 6 5 11 10 11 6 0 10 -2 10 -4z m-23 -152 c-3 -3 -12
-4 -19 -1 -8 3 -5 6 6 6 11 1 17 -2 13 -5z m5916 -81 c-7 -2 -19 -2 -25 0 -7
3 -2 5 12 5 14 0 19 -2 13 -5z m112 -223 c3 -6 -1 -7 -9 -4 -18 7 -21 14 -7
14 6 0 13 -4 16 -10z m-6649 -205 c-11 -8 -25 -15 -30 -15 -6 0 -2 7 8 15 11
8 25 15 30 15 6 0 2 -7 -8 -15z m-129 -75 c-27 -21 -37 -25 -37 -12 0 4 10 12
23 18 36 18 42 16 14 -6z m-37 -110 c0 -5 -8 -10 -17 -10 -15 0 -16 2 -3 10
19 12 20 12 20 0z m-69 -23 c-6 -8 -8 -16 -5 -19 3 -3 1 -9 -4 -12 -6 -3 -9 0
-8 6 2 16 15 38 23 38 3 0 0 -6 -6 -13z m6944 -97 c3 -5 2 -10 -4 -10 -5 0
-13 5 -16 10 -3 6 -2 10 4 10 5 0 13 -4 16 -10z m-7125 -174 c0 -2 -8 -10 -17
-17 -16 -13 -17 -12 -4 4 13 16 21 21 21 13z m80 -51 c9 6 11 4 6 -4 -5 -7
-14 -10 -21 -7 -7 2 -23 -6 -36 -20 -12 -13 -27 -24 -33 -24 -6 0 5 15 24 33
19 18 38 28 41 23 4 -5 12 -5 19 -1z m6800 -137 c0 -14 -19 1 -31 25 -12 22
-12 22 10 3 11 -11 21 -23 21 -28z m-6810 17 c-7 -9 -15 -13 -19 -10 -3 3 1
10 9 15 21 14 24 12 10 -5z m6756 -120 c17 -13 16 -14 -13 -4 -34 11 -42 19
-20 19 7 0 22 -7 33 -15z m59 -23 c-3 -3 -11 0 -18 7 -9 10 -8 11 6 5 10 -3
15 -9 12 -12z m-60 -50 c-3 -3 -11 0 -18 7 -9 10 -8 11 6 5 10 -3 15 -9 12
-12z m-6915 -46 c0 -2 -7 -7 -16 -10 -8 -3 -12 -2 -9 4 6 10 25 14 25 6z m-30
-31 c0 -2 -10 -9 -22 -15 -22 -11 -22 -10 -4 4 21 17 26 19 26 11z m-140 -204
c-12 -24 -71 -56 -63 -35 3 8 11 14 19 14 8 0 22 9 31 20 22 25 27 25 13 1z
m7220 -131 c0 -5 -2 -10 -4 -10 -3 0 -8 5 -11 10 -3 6 -1 10 4 10 6 0 11 -4
11 -10z m51 -67 c13 -17 13 -17 -6 -3 -11 8 -22 16 -24 17 -2 2 0 3 6 3 6 0
17 -8 24 -17z m-14 -50 c10 -16 23 -34 30 -41 23 -24 13 -26 -12 -2 -14 13
-25 28 -25 33 0 5 -8 16 -17 23 -11 8 -13 13 -6 14 7 0 20 -12 30 -27z m-7507
-188 c0 -8 -4 -15 -10 -15 -5 0 -7 7 -4 15 4 8 8 15 10 15 2 0 4 -7 4 -15z
m-10 -395 c-6 -11 -13 -20 -16 -20 -2 0 0 9 6 20 6 11 13 20 16 20 2 0 0 -9
-6 -20z m-63 -942 c-3 -8 -6 -5 -6 6 -1 11 2 17 5 13 3 -3 4 -12 1 -19z m5887
-409 c-3 -5 0 -9 7 -9 11 0 9 -15 -7 -54 -5 -14 -4 -17 4 -12 12 7 16 -11 13
-59 -1 -19 0 -19 8 1 13 31 31 39 31 15 0 -12 5 -19 13 -16 19 6 94 14 80 9
-9 -4 -10 -11 -3 -24 7 -13 6 -20 -3 -23 -9 -4 -8 -8 3 -16 12 -8 8 -11 -20
-12 -26 -1 -29 -3 -11 -6 19 -4 21 -7 10 -14 -10 -6 -8 -9 11 -10 l25 -1 -25
-8 -25 -8 24 -1 c22 -1 23 -4 17 -41 -6 -36 -4 -40 15 -40 15 0 19 -5 15 -15
-6 -17 11 -19 48 -5 14 5 26 7 26 4 0 -3 -13 -10 -30 -15 -40 -15 -38 -24 7
-24 20 0 38 -6 40 -12 3 -7 -3 -13 -14 -13 -13 0 -10 -4 11 -15 15 -8 33 -12
39 -8 6 4 7 1 3 -6 -5 -7 -13 -10 -20 -8 -12 5 -38 -18 -29 -26 3 -3 17 -1 32
4 l26 9 -23 -19 c-12 -11 -28 -22 -35 -24 -24 -10 17 -28 56 -25 22 2 36 -1
34 -7 -2 -5 -21 -9 -43 -7 l-39 2 30 -14 c19 -9 24 -15 13 -15 -9 -1 -20 -5
-23 -11 -3 -5 0 -7 8 -4 8 3 18 0 22 -5 3 -6 11 -8 17 -5 7 4 8 2 4 -4 -4 -7
-1 -12 6 -12 9 0 9 -3 -2 -10 -13 -8 -13 -10 2 -10 15 0 16 -4 8 -26 -16 -41
-13 -57 10 -51 22 6 25 -5 9 -35 -6 -11 -7 -18 -2 -15 5 3 15 2 22 -2 10 -7
11 -13 1 -31 -7 -12 -8 -20 -2 -16 15 9 22 -33 11 -62 -10 -26 -10 -26 10 -8
20 18 20 18 0 -20 -24 -47 -25 -80 -2 -46 14 21 41 33 28 13 -3 -5 1 -16 9
-24 13 -13 13 -17 1 -33 -17 -22 -19 -54 -5 -54 6 0 13 6 16 14 3 8 13 17 21
20 13 5 14 4 3 -9 -15 -18 0 -20 20 -2 12 10 12 9 1 -6 -8 -10 -14 -37 -15
-62 -1 -42 0 -43 18 -27 18 16 19 16 13 -17 -6 -29 -5 -32 8 -21 13 11 14 8 9
-20 -7 -31 -6 -32 15 -21 24 13 26 9 9 -22 -10 -19 -9 -21 4 -9 12 10 18 10
24 1 4 -6 0 -15 -8 -20 -10 -6 -14 -18 -10 -35 3 -17 7 -22 12 -14 4 7 13 11
20 8 9 -3 8 -8 -4 -20 -19 -20 -21 -32 -3 -22 7 4 9 3 4 -2 -5 -5 -14 -9 -20
-9 -6 0 -14 -12 -18 -27 -8 -32 -2 -36 18 -10 13 16 14 15 9 -8 -2 -14 -7 -36
-11 -50 l-7 -25 22 25 c14 16 20 19 17 8 -17 -52 -18 -85 -4 -91 9 -3 18 1 21
10 4 9 9 13 12 10 4 -3 -3 -19 -15 -35 -23 -32 -27 -47 -11 -37 6 3 10 2 10
-4 0 -13 33 -7 38 7 2 7 8 12 12 12 5 0 3 -19 -5 -41 -18 -50 -19 -86 -2 -49
12 26 37 39 37 19 0 -5 5 -7 11 -3 7 4 9 0 6 -12 -13 -47 -16 -91 -8 -119 l8
-30 7 32 c4 18 12 36 18 39 8 5 8 -2 3 -22 -5 -16 -7 -50 -6 -75 2 -54 -9 -67
-91 -103 -96 -42 -205 -60 -304 -48 -58 7 -91 16 -105 28 -46 41 -108 195
-153 379 -78 311 -108 509 -151 985 -28 307 -30 363 -10 412 9 24 17 58 17 76
0 18 6 38 12 45 7 7 12 20 10 30 -1 9 2 19 7 23 5 3 7 11 3 17 -3 7 1 3 10 -7
8 -10 13 -23 10 -27z m146 -64 c0 -2 -6 -5 -13 -8 -8 -3 -14 1 -14 8 0 7 6 11
14 8 7 -3 13 -6 13 -8z m-113 -27 c-3 -8 -6 -5 -6 6 -1 11 2 17 5 13 3 -3 4
-12 1 -19z m81 -10 c34 6 26 -3 -10 -12 -23 -5 -28 -3 -27 11 0 10 3 13 5 7 3
-6 17 -9 32 -6z m-5921 -100 c-3 -8 -6 -5 -6 6 -1 11 2 17 5 13 3 -3 4 -12 1
-19z m6007 -50 c-5 -7 -9 -17 -9 -22 0 -5 -6 -11 -12 -13 -20 -7 -15 35 4 46
21 11 28 7 17 -11z m6 -59 c0 -5 5 -7 12 -3 6 4 8 3 5 -3 -4 -6 -18 -8 -32 -6
-13 3 -22 9 -19 14 7 13 34 11 34 -2z m80 6 c0 -2 -10 -9 -22 -15 -22 -11 -22
-10 -4 4 21 17 26 19 26 11z m-6102 -187 c-14 -42 -14 -43 -21 -18 -3 11 -2
18 3 15 4 -3 10 4 13 15 3 11 8 20 11 20 3 0 0 -15 -6 -32z m3938 -743 c-3 -9
-11 -13 -16 -10 -8 5 -7 11 1 21 14 18 24 11 15 -11z m3662 -20 c-7 -8 -38 23
-38 38 0 6 10 2 22 -10 12 -13 19 -25 16 -28z m-3674 -45 c-20 -39 -37 -49
-23 -13 8 22 25 42 36 43 1 0 -5 -13 -13 -30z m-219 -47 c-5 -23 -4 -25 9 -14
14 12 16 10 17 -15 0 -16 2 -39 5 -51 2 -14 -1 -23 -8 -23 -9 0 -9 -3 0 -12 7
-7 12 -18 12 -26 0 -21 -41 -75 -50 -65 -13 14 -22 65 -10 58 5 -3 10 0 10 7
1 8 6 6 15 -6 8 -11 15 -15 15 -9 0 7 -5 15 -11 19 -6 3 -8 17 -5 29 3 13 1
27 -4 30 -6 4 -8 16 -5 26 4 11 1 26 -5 34 -10 12 -10 15 0 15 7 0 10 7 6 15
-3 8 -1 15 5 15 7 0 9 -10 4 -27z m345 -63 c-11 -22 -23 -40 -25 -40 -3 0 4
18 15 40 11 22 23 40 25 40 3 0 -4 -18 -15 -40z m-2152 -41 c1 -8 -9 -32 -24
-54 -14 -22 -22 -31 -19 -20 4 11 9 37 12 58 6 36 25 47 31 16z m1742 -84 c11
-13 10 -14 -4 -9 -9 3 -16 10 -16 15 0 13 6 11 20 -6z m430 -20 c-13 -14 -26
-23 -28 -20 -3 3 5 16 18 30 13 14 26 23 28 20 3 -3 -5 -16 -18 -30z m-2350
-14 c5 7 11 11 14 8 11 -10 -52 -72 -65 -64 -9 6 -10 3 -5 -11 5 -14 4 -16 -4
-8 -16 16 8 68 26 53 8 -7 14 -7 19 1 3 5 2 10 -4 10 -6 0 -7 8 -3 18 6 16 7
16 10 -2 3 -15 6 -16 12 -5z m130 9 c0 -5 -4 -10 -10 -10 -5 0 -10 5 -10 10 0
6 5 10 10 10 6 0 10 -4 10 -10z m1801 -22 c8 -15 8 -18 0 -14 -6 4 -16 16 -22
28 -8 15 -8 18 0 14 6 -4 16 -16 22 -28z m-3384 -28 c1 -11 -3 -20 -8 -20 -6
0 -7 5 -4 10 3 6 0 10 -7 10 -9 0 -9 3 2 10 8 5 15 10 15 10 1 0 1 -9 2 -20z
m1523 -10 c-22 -31 -40 -46 -40 -34 0 8 51 64 58 64 2 0 -6 -13 -18 -30z m440
-129 c0 -5 -10 -11 -22 -14 -22 -6 -22 -6 -4 8 23 17 26 18 26 6z m1382 -116
c3 3 5 -2 5 -10 0 -21 -11 -19 -33 6 -19 22 -19 22 2 11 12 -6 23 -9 26 -7z
m1676 -30 c-3 -3 -9 2 -12 12 -6 14 -5 15 5 6 7 -7 10 -15 7 -18z m-1698 -10
c7 -8 8 -15 2 -15 -5 0 -15 7 -22 15 -7 8 -8 15 -2 15 5 0 15 -7 22 -15z m660
6 c0 -5 -12 -17 -27 -26 l-28 -18 24 27 c26 28 31 31 31 17z m-2040 -41 c-8
-5 -19 -10 -25 -10 -5 0 -3 5 5 10 8 5 20 10 25 10 6 0 3 -5 -5 -10z m1960 -4
c0 -3 -4 -8 -10 -11 -5 -3 -10 -1 -10 4 0 6 5 11 10 11 6 0 10 -2 10 -4z
m3647 -132 c-3 -3 -12 -4 -19 -1 -8 3 -5 6 6 6 11 1 17 -2 13 -5z m32 -7 c8
-10 7 -14 -2 -14 -8 0 -14 6 -14 14 0 7 1 13 2 13 2 0 8 -6 14 -13z m-5664 -7
c-3 -5 -12 -10 -18 -10 -7 0 -6 4 3 10 19 12 23 12 15 0z m1326 -57 c13 -16
12 -17 -3 -4 -17 13 -22 21 -14 21 2 0 10 -8 17 -17z m4417 -170 c-10 -2 -28
-2 -40 0 -13 2 -5 4 17 4 22 1 32 -1 23 -4z m-1043 -43 c-3 -5 -11 -10 -16
-10 -6 0 -7 5 -4 10 3 6 11 10 16 10 6 0 7 -4 4 -10z m-2600 -428 c-3 -3 -11
0 -18 7 -9 10 -8 11 6 5 10 -3 15 -9 12 -12z m3815 -12 c0 -5 -7 -7 -15 -4 -8
4 -15 8 -15 10 0 2 7 4 15 4 8 0 15 -4 15 -10z m-980 -14 c0 -2 -7 -7 -16 -10
-8 -3 -12 -2 -9 4 6 10 25 14 25 6z m30 -59 c0 -2 -10 -12 -22 -23 l-23 -19
19 23 c18 21 26 27 26 19z m-1730 -22 c7 -8 8 -15 2 -15 -5 0 -15 7 -22 15 -7
8 -8 15 -2 15 5 0 15 -7 22 -15z m-1140 -109 c0 -2 -7 -7 -16 -10 -8 -3 -12
-2 -9 4 6 10 25 14 25 6z m-1910 -125 c0 -5 -10 -11 -22 -14 -22 -6 -22 -6 -4
8 23 17 26 18 26 6z m6025 -481 c-3 -5 -10 -10 -16 -10 -5 0 -9 5 -9 10 0 6 7
10 16 10 8 0 12 -4 9 -10z m-245 -1290 c0 -5 -2 -10 -4 -10 -3 0 -8 5 -11 10
-3 6 -1 10 4 10 6 0 11 -4 11 -10z"/>
<path d="M8315 11190 c-3 -5 1 -10 10 -10 9 0 13 5 10 10 -3 6 -8 10 -10 10
-2 0 -7 -4 -10 -10z"/>
<path d="M7281 11794 c0 -11 3 -14 6 -6 3 7 2 16 -1 19 -3 4 -6 -2 -5 -13z"/>
<path d="M7431 11724 c0 -11 3 -14 6 -6 3 7 2 16 -1 19 -3 4 -6 -2 -5 -13z"/>
<path d="M7126 11711 c-4 -5 -2 -20 3 -33 9 -21 9 -20 8 9 -2 36 -3 38 -11 24z"/>
<path d="M7751 11694 c0 -11 3 -14 6 -6 3 7 2 16 -1 19 -3 4 -6 -2 -5 -13z"/>
<path d="M7985 11679 c-4 -6 -5 -12 -2 -15 2 -3 7 2 10 11 7 17 1 20 -8 4z"/>
<path d="M6696 11655 c9 -14 20 -23 24 -20 5 3 11 0 13 -5 4 -7 5 -6 4 1 -2 6
-7 10 -12 9 -5 -1 -12 8 -17 19 -4 12 -12 21 -18 21 -6 0 -3 -11 6 -25z"/>
<path d="M6420 11656 c0 -3 9 -10 20 -16 11 -6 20 -8 20 -6 0 3 -9 10 -20 16
-11 6 -20 8 -20 6z"/>
<path d="M8269 11623 l-34 -38 38 34 c34 33 42 41 34 41 -2 0 -19 -17 -38 -37z"/>
<path d="M6802 11619 c10 -5 22 -17 27 -27 6 -9 11 -12 11 -5 0 15 -28 43 -43
43 -7 0 -4 -5 5 -11z"/>
<path d="M6566 11596 c17 -8 39 -24 48 -37 9 -13 16 -18 16 -12 0 16 -58 63
-78 63 -9 -1 -3 -7 14 -14z"/>
<path d="M7011 11594 c0 -11 3 -14 6 -6 3 7 2 16 -1 19 -3 4 -6 -2 -5 -13z"/>
<path d="M6680 11596 c0 -2 8 -10 18 -17 15 -13 16 -12 3 4 -13 16 -21 21 -21
13z"/>
<path d="M8162 11491 c-33 -44 -54 -77 -47 -75 14 6 65 67 65 79 0 3 12 22 26
41 15 19 24 34 22 34 -3 0 -32 -36 -66 -79z"/>
<path d="M5984 11460 c22 -11 44 -20 50 -20 15 1 -33 26 -64 34 -15 4 -9 -2
14 -14z"/>
<path d="M6350 11455 c7 -9 15 -13 17 -11 7 7 -7 26 -19 26 -6 0 -6 -6 2 -15z"/>
<path d="M8049 11453 c-13 -16 -12 -17 4 -4 16 13 21 21 13 21 -2 0 -10 -8
-17 -17z"/>
<path d="M6330 11426 c14 -8 27 -12 29 -10 6 6 -1 11 -29 18 l-25 7 25 -15z"/>
<path d="M6044 11417 c-4 -7 -4 -9 1 -5 4 4 20 1 36 -7 35 -19 50 -19 24 -2
-32 22 -54 27 -61 14z"/>
<path d="M5968 11343 c7 -3 16 -2 19 1 4 3 -2 6 -13 5 -11 0 -14 -3 -6 -6z"/>
<path d="M8468 11333 c6 -2 18 -2 25 0 6 3 1 5 -13 5 -14 0 -19 -2 -12 -5z"/>
<path d="M5963 11303 c9 -2 25 -2 35 0 9 3 1 5 -18 5 -19 0 -27 -2 -17 -5z"/>
<path d="M6020 11300 c0 -5 5 -10 10 -10 6 0 10 5 10 10 0 6 -4 10 -10 10 -5
0 -10 -4 -10 -10z"/>
<path d="M5818 11183 c7 -3 16 -2 19 1 4 3 -2 6 -13 5 -11 0 -14 -3 -6 -6z"/>
<path d="M8498 11098 c7 -7 16 -7 28 0 14 8 13 10 -10 10 -18 0 -24 -4 -18
-10z"/>
<path d="M5553 11013 c9 -2 23 -2 30 0 6 3 -1 5 -18 5 -16 0 -22 -2 -12 -5z"/>
<path d="M5590 10991 c0 -5 9 -7 20 -4 11 3 20 7 20 9 0 2 -9 4 -20 4 -11 0
-20 -4 -20 -9z"/>
<path d="M8695 10971 c-16 -7 -13 -9 18 -13 38 -4 50 5 21 16 -9 3 -16 6 -17
5 -1 0 -11 -4 -22 -8z"/>
<path d="M8797 10939 c7 -7 15 -10 18 -7 3 3 -2 9 -12 12 -14 6 -15 5 -6 -5z"/>
<path d="M8860 10880 c8 -5 22 -9 30 -9 10 0 8 3 -5 9 -27 12 -43 12 -25 0z"/>
<path d="M8915 10880 c3 -5 12 -7 20 -3 21 7 19 13 -6 13 -11 0 -18 -4 -14
-10z"/>
<path d="M8800 10830 c0 -5 5 -10 11 -10 5 0 7 5 4 10 -3 6 -8 10 -11 10 -2 0
-4 -4 -4 -10z"/>
<path d="M8733 10792 c-8 -5 1 -8 22 -9 19 -1 32 3 29 8 -6 11 -35 11 -51 1z"/>
<path d="M8713 10743 c9 -2 23 -2 30 0 6 3 -1 5 -18 5 -16 0 -22 -2 -12 -5z"/>
<path d="M4538 10503 c7 -3 16 -2 19 1 4 3 -2 6 -13 5 -11 0 -14 -3 -6 -6z"/>
<path d="M4575 10460 c-3 -6 1 -7 9 -4 18 7 21 14 7 14 -6 0 -13 -4 -16 -10z"/>
<path d="M4133 10263 c9 -2 25 -2 35 0 9 3 1 5 -18 5 -19 0 -27 -2 -17 -5z"/>
<path d="M3918 10183 c6 -2 18 -2 25 0 6 3 1 5 -13 5 -14 0 -19 -2 -12 -5z"/>
<path d="M3865 10120 c-14 -5 -6 -7 27 -6 27 0 48 4 48 9 0 9 -49 8 -75 -3z"/>
<path d="M3656 9870 c10 -4 34 -11 53 -15 26 -5 32 -4 26 6 -6 9 -3 10 11 5
10 -4 15 -4 11 0 -4 4 -32 8 -63 9 -31 1 -48 -2 -38 -5z"/>
<path d="M3381 9666 c-7 -8 -32 -24 -57 -35 -24 -12 -44 -23 -44 -26 0 -9 74
25 95 44 11 10 27 21 35 24 13 5 12 6 -1 6 -9 1 -22 -5 -28 -13z"/>
<path d="M2728 9254 c-39 -21 -35 -28 5 -8 37 19 44 24 31 24 -5 -1 -21 -8
-36 -16z"/>
<path d="M2120 8535 c-11 -13 -10 -14 4 -9 9 3 16 10 16 15 0 13 -6 11 -20 -6z"/>
<path d="M2122 8470 c-8 -13 -8 -20 -2 -20 6 0 13 7 17 15 9 24 -1 27 -15 5z"/>
<path d="M2069 8429 l-24 -20 28 17 c15 9 27 18 27 20 0 8 -8 4 -31 -17z"/>
<path d="M1900 7935 c0 -8 8 -15 18 -14 10 0 12 3 4 6 -6 2 -10 9 -6 14 3 5 0
9 -5 9 -6 0 -11 -7 -11 -15z"/>
<path d="M1525 7309 c-11 -17 1 -21 15 -4 8 9 8 15 2 15 -6 0 -14 -5 -17 -11z"/>
<path d="M1435 6219 c-4 -6 -5 -12 -2 -15 2 -3 7 2 10 11 7 17 1 20 -8 4z"/>
<path d="M1456 6155 c-9 -26 -7 -32 5 -12 6 10 9 21 6 23 -2 3 -7 -2 -11 -11z"/>
<path d="M1484 5928 l-19 -23 23 19 c21 18 27 26 19 26 -2 0 -12 -10 -23 -22z"/>
<path d="M1571 5364 c0 -11 3 -14 6 -6 3 7 2 16 -1 19 -3 4 -6 -2 -5 -13z"/>
<path d="M5555 4269 c-4 -6 -5 -12 -2 -15 2 -3 7 2 10 11 7 17 1 20 -8 4z"/>
<path d="M3114 4028 c3 -10 1 -20 -4 -23 -6 -4 -9 -25 -9 -48 l2 -42 6 40 c4
22 10 45 13 50 4 6 2 17 -4 25 -8 12 -9 12 -4 -2z"/>
<path d="M3730 3935 c-6 -15 -13 -32 -16 -36 -3 -5 -3 -9 0 -9 9 0 38 61 32
67 -3 3 -10 -7 -16 -22z"/>
<path d="M1860 3839 c0 -5 5 -7 10 -4 6 3 10 8 10 11 0 2 -4 4 -10 4 -5 0 -10
-5 -10 -11z"/>
<path d="M2905 3790 c3 -5 8 -10 11 -10 2 0 4 5 4 10 0 6 -5 10 -11 10 -5 0
-7 -4 -4 -10z"/>
<path d="M1835 3480 c-3 -5 -2 -10 4 -10 5 0 13 5 16 10 3 6 2 10 -4 10 -5 0
-13 -4 -16 -10z"/>
<path d="M5778 3423 c7 -3 16 -2 19 1 4 3 -2 6 -13 5 -11 0 -14 -3 -6 -6z"/>
<path d="M6900 3075 c7 -9 27 -25 44 -37 l31 -21 -34 36 c-34 36 -67 53 -41
22z"/>
<path d="M5795 2720 c-3 -6 1 -7 9 -4 18 7 21 14 7 14 -6 0 -13 -4 -16 -10z"/>
</g>
</svg>
