<?xml version="1.0" standalone="no"?>
<!DOCTYPE svg PUBLIC "-//W3C//DTD SVG 20010904//EN"
 "http://www.w3.org/TR/2001/REC-SVG-20010904/DTD/svg10.dtd">
<svg version="1.0" xmlns="http://www.w3.org/2000/svg"
 width="1280.000000pt" height="1203.000000pt" viewBox="0 0 1280.000000 1203.000000"
 preserveAspectRatio="xMidYMid meet">
<metadata>
Created by potrace 1.15, written by Peter Selinger 2001-2017
</metadata>
<g transform="translate(0.000000,1203.000000) scale(0.100000,-0.100000)"
fill="#000000" stroke="none">
<path d="M12704 11928 c-322 -375 -860 -839 -1379 -1190 -317 -215 -540 -340
-825 -461 -96 -42 -214 -93 -262 -116 -286 -132 -582 -332 -840 -568 -78 -72
-95 -83 -180 -113 -330 -116 -630 -272 -1033 -538 l-160 -105 -125 17 c-69 9
-174 21 -235 26 -236 22 -380 55 -593 135 -336 129 -386 142 -412 111 -19 -23
15 -82 95 -162 153 -155 340 -258 630 -350 l117 -36 -89 -47 c-171 -91 -342
-209 -412 -285 -15 -15 -55 -36 -105 -52 -431 -142 -858 -394 -1249 -736 -68
-60 -82 -68 -117 -68 -54 0 -169 -24 -286 -60 -69 -21 -117 -30 -168 -30 -41
0 -100 -8 -140 -20 l-70 -20 -58 22 c-48 17 -69 19 -121 13 -34 -4 -92 -8
-129 -9 l-66 -1 -66 -69 c-83 -86 -97 -144 -50 -210 14 -20 14 -20 14 7 0 30
30 96 52 114 10 9 13 2 13 -35 1 -46 29 -122 46 -122 4 0 8 18 7 40 0 39 27
100 48 107 15 5 26 -21 33 -82 l7 -50 22 35 c12 19 25 51 28 70 10 55 19 60
99 60 62 0 82 -5 130 -30 77 -40 102 -39 161 10 98 81 250 86 230 7 -10 -41
-208 -205 -349 -291 -53 -31 -61 -33 -126 -28 -62 4 -76 1 -134 -26 -69 -32
-124 -70 -247 -171 -82 -67 -113 -75 -118 -29 -2 18 7 37 28 62 l32 36 -41 0
c-51 0 -97 -22 -106 -51 -5 -14 -10 -18 -17 -11 -18 18 1 83 33 114 35 36 36
38 4 38 -59 0 -125 -63 -125 -118 0 -15 -4 -21 -11 -16 -7 4 -9 23 -5 50 7 55
-6 56 -40 5 -51 -78 -34 -175 33 -194 17 -5 38 -22 47 -39 42 -70 134 -87 238
-44 31 13 105 52 165 88 162 98 209 120 251 116 34 -3 39 -8 67 -63 28 -57 30
-66 29 -175 -1 -131 -25 -227 -95 -385 -80 -181 -145 -283 -485 -757 -449
-624 -684 -1017 -1046 -1748 -253 -510 -297 -594 -411 -780 -272 -444 -614
-868 -1057 -1310 -342 -342 -628 -590 -1010 -876 -241 -181 -450 -324 -728
-498 -24 -15 -42 -30 -39 -32 10 -10 338 79 539 146 840 280 1649 754 2431
1422 194 167 595 571 747 753 69 83 202 251 295 375 369 491 606 759 954 1076
l54 49 -5 -65 c-7 -87 -46 -168 -114 -236 -58 -57 -54 -64 23 -38 69 23 114
63 169 149 27 41 52 75 57 75 14 0 -2 -89 -23 -131 -11 -20 -31 -50 -45 -68
-23 -26 -24 -31 -9 -31 43 0 106 43 146 101 29 40 44 55 50 46 14 -21 9 -71
-11 -110 -22 -43 -17 -45 30 -14 65 43 96 146 68 225 -8 25 -7 42 10 89 12 35
24 106 30 178 9 112 13 130 65 260 74 184 206 452 290 590 193 315 370 508
696 760 159 123 185 149 221 210 25 43 29 61 29 125 0 206 72 401 215 586 43
55 54 64 75 59 14 -3 62 -10 108 -17 229 -33 526 73 724 259 18 17 75 73 126
126 101 104 141 128 217 134 28 3 66 10 85 18 51 20 108 29 165 26 29 -1 70 5
95 14 25 10 68 16 97 16 30 -1 64 4 82 13 24 13 40 14 84 5 118 -21 385 45
579 144 l100 50 166 -27 c330 -53 623 -96 942 -138 268 -34 355 -42 500 -42
190 -1 242 8 356 60 l59 27 -80 14 c-315 55 -598 128 -802 208 -64 25 -120 49
-123 52 -7 7 49 -2 300 -48 680 -127 875 -157 925 -145 35 9 30 34 -13 63 -18
12 -185 72 -370 134 -185 61 -494 168 -687 236 -440 157 -543 192 -840 288
-348 111 -468 166 -572 259 -27 25 -96 68 -151 96 -56 28 -102 55 -102 59 0 4
73 36 163 71 265 103 300 124 382 236 64 87 163 168 265 219 41 21 122 66 180
100 79 47 135 72 225 99 153 47 189 51 244 32 93 -34 209 -13 278 50 24 23 31
33 18 29 -11 -4 -47 -9 -80 -11 l-60 -5 70 31 c77 34 129 78 144 122 12 34 11
34 -35 3 -20 -14 -47 -25 -59 -25 -20 0 -14 9 40 63 58 58 117 147 97 147 -5
0 -21 -9 -35 -20 -31 -25 -131 -70 -154 -70 -46 0 626 588 1406 1229 167 138
275 249 380 391 157 212 278 466 339 715 24 95 35 155 28 155 -2 0 -44 -46
-92 -102z m-4334 -3885 c11 -30 20 -75 20 -102 0 -45 -3 -49 -42 -78 -113 -80
-388 -176 -388 -135 0 20 179 228 267 311 110 104 106 104 143 4z"/>
</g>
</svg>
