<?xml version="1.0" standalone="no"?>
<!DOCTYPE svg PUBLIC "-//W3C//DTD SVG 20010904//EN"
 "http://www.w3.org/TR/2001/REC-SVG-20010904/DTD/svg10.dtd">
<svg version="1.0" xmlns="http://www.w3.org/2000/svg"
 width="1280.000000pt" height="865.000000pt" viewBox="0 0 1280.000000 865.000000"
 preserveAspectRatio="xMidYMid meet">
<metadata>
Created by potrace 1.15, written by Peter Selinger 2001-2017
</metadata>
<g transform="translate(0.000000,865.000000) scale(0.100000,-0.100000)"
fill="#000000" stroke="none">
<path d="M11995 8629 c-49 -11 -234 -46 -410 -79 -243 -46 -336 -68 -385 -90
-36 -16 -168 -65 -295 -109 -214 -73 -412 -145 -612 -219 -45 -17 -149 -48
-230 -68 -237 -58 -344 -102 -483 -198 -41 -29 -169 -106 -285 -171 -198 -112
-566 -330 -755 -446 -47 -29 -132 -81 -190 -116 -65 -38 -130 -88 -171 -129
-65 -65 -67 -66 -87 -48 -19 16 -19 20 -7 44 24 46 48 153 47 205 -2 60 13
102 39 110 20 7 39 -1 39 -15 0 -5 -11 -22 -25 -38 -31 -37 -31 -49 -3 -79
l22 -23 -26 -28 c-31 -32 -68 -92 -68 -109 0 -22 18 -14 26 10 3 12 26 43 50
69 46 50 52 66 32 98 -18 28 2 46 31 30 17 -9 22 -8 27 5 15 37 -28 107 -74
120 -17 5 -29 -1 -51 -24 -33 -36 -39 -37 -56 -14 -11 15 -17 15 -39 5 -32
-14 -66 -68 -66 -104 0 -17 -15 -44 -40 -74 -39 -44 -40 -47 -25 -68 48 -66
47 -51 11 -191 -59 -226 -85 -274 -267 -497 -42 -51 -140 -183 -219 -293 -171
-239 -250 -342 -350 -455 -41 -47 -101 -117 -132 -155 -84 -104 -272 -269
-413 -361 -227 -149 -462 -257 -681 -314 -65 -17 -140 -41 -168 -52 -117 -49
-212 -128 -256 -211 -14 -25 -38 -51 -59 -63 -20 -11 -74 -42 -119 -69 -110
-64 -242 -88 -362 -65 -79 15 -124 6 -76 -15 l30 -12 -41 -26 c-36 -23 -62
-47 -50 -47 2 0 35 16 74 35 39 19 74 35 77 35 3 0 3 -13 -1 -30 -8 -41 12
-39 38 5 21 34 21 35 51 19 22 -11 37 -13 52 -7 11 6 50 19 86 31 36 12 115
48 175 81 61 34 115 61 121 61 13 0 24 -22 24 -47 0 -8 -23 -41 -52 -72 -60
-65 -128 -167 -128 -190 1 -18 19 2 80 86 56 76 180 202 227 230 24 14 40 29
37 34 -10 16 -28 9 -73 -26 -24 -19 -48 -35 -52 -35 -19 0 -7 37 23 74 l31 38
-31 -7 c-49 -10 -40 8 34 69 150 124 317 172 437 127 l28 -11 -21 -30 c-11
-16 -41 -44 -65 -61 -46 -33 -54 -50 -14 -28 13 6 52 36 88 65 36 30 70 54 76
54 7 0 17 -12 24 -26 l12 -26 21 27 c17 22 27 26 59 23 24 -2 39 1 39 8 0 32
64 56 87 33 7 -7 17 -2 32 20 25 34 50 39 85 15 23 -14 25 -14 31 5 11 37 41
45 74 20 26 -19 36 -20 101 -14 55 6 70 10 66 21 -9 24 13 16 30 -11 9 -14 23
-25 31 -25 7 0 22 -13 31 -30 9 -16 25 -30 35 -30 10 0 17 3 15 8 -2 4 -10 19
-17 35 -15 29 -8 48 11 29 26 -26 38 -14 22 23 -18 45 -18 128 2 194 40 136
116 304 188 420 62 99 74 125 66 140 -10 21 -1 35 141 213 37 46 117 155 179
243 122 175 135 190 415 535 105 129 211 264 236 300 24 36 60 74 80 85 20 11
34 25 32 32 -2 6 44 36 104 67 59 31 137 80 173 109 36 29 90 65 120 81 50 26
174 99 335 200 33 20 133 73 223 116 89 44 251 133 360 198 252 153 294 174
438 216 142 42 287 91 529 181 629 234 776 279 1153 351 143 27 196 34 204 26
7 -7 10 -14 7 -16 -2 -2 -74 -18 -159 -36 -172 -34 -285 -63 -345 -86 -22 -9
-67 -20 -100 -25 -37 -7 -99 -30 -168 -64 -59 -30 -136 -62 -170 -70 -34 -9
-87 -27 -118 -40 -31 -14 -65 -25 -76 -25 -31 0 -117 -32 -251 -94 -68 -31
-168 -70 -223 -86 -54 -16 -164 -52 -245 -80 -150 -51 -192 -61 -139 -33 18
10 25 18 17 21 -27 9 -453 -232 -690 -390 -40 -27 -102 -62 -138 -79 -86 -41
-129 -77 -113 -95 7 -8 10 -16 8 -18 -19 -14 -176 -106 -269 -156 -63 -34
-144 -83 -180 -108 -168 -118 -164 -116 -170 -92 l-5 22 -21 -24 c-11 -13 -31
-39 -44 -58 -29 -44 -81 -100 -93 -100 -5 0 -6 12 -3 28 6 26 5 26 -9 7 -9
-11 -66 -96 -128 -190 -119 -181 -255 -365 -270 -365 -4 0 6 20 24 45 18 25
30 47 27 50 -6 7 -66 -74 -204 -275 -61 -89 -132 -179 -186 -233 -83 -83 -198
-232 -198 -256 0 -6 18 -11 43 -11 42 0 43 1 59 48 11 29 44 79 85 126 38 43
94 115 126 160 86 122 236 313 269 344 16 15 60 72 98 128 38 55 84 113 102
130 31 29 31 28 -16 -61 -110 -207 -427 -646 -500 -693 -46 -28 -102 -113
-117 -177 -7 -27 -32 -108 -55 -180 -24 -71 -62 -202 -84 -290 -45 -174 -92
-315 -118 -355 -9 -14 -15 -31 -14 -38 2 -7 -8 -34 -22 -60 -13 -26 -29 -58
-34 -72 -12 -33 -147 -92 -212 -94 -29 -1 -56 -9 -77 -24 -82 -59 -219 -102
-321 -102 -75 0 -74 12 4 35 87 25 59 26 -37 1 -57 -14 -84 -26 -81 -34 7 -23
-20 -42 -59 -42 -46 0 -50 13 -11 35 l27 16 -35 -5 -35 -6 25 20 c42 34 71 47
185 80 109 32 178 61 190 80 10 16 -9 12 -67 -15 -29 -14 -62 -25 -73 -25 -37
1 30 45 119 78 49 19 93 44 111 62 42 44 24 47 -30 6 -25 -20 -57 -36 -70 -36
-14 0 -59 -21 -102 -47 -143 -87 -269 -117 -308 -73 -23 26 -39 12 -26 -22 13
-34 -1 -50 -61 -72 -27 -10 -48 -22 -48 -26 0 -13 -72 -60 -92 -60 -12 0 -16
5 -11 18 3 10 -9 3 -31 -17 -27 -27 -39 -32 -48 -23 -9 9 -7 16 7 32 10 11 16
23 13 26 -3 3 -20 -12 -38 -34 -24 -31 -41 -41 -73 -46 -31 -5 -52 -18 -84
-52 -24 -24 -43 -49 -43 -54 0 -15 21 -12 42 7 16 14 18 14 18 0 0 -8 -13 -25
-30 -37 -16 -12 -30 -26 -30 -33 0 -6 13 1 28 16 26 25 62 37 62 20 0 -20 -55
-95 -94 -127 -42 -34 -75 -76 -61 -76 3 0 49 41 101 90 51 50 99 90 104 90 23
0 7 -43 -35 -94 -25 -31 -45 -58 -45 -61 0 -3 18 9 40 27 49 38 80 86 80 120
0 28 45 83 59 73 9 -5 -11 -94 -26 -118 -3 -5 3 -7 13 -5 13 2 22 17 29 48 20
88 89 191 117 174 14 -9 -2 -46 -43 -95 -22 -25 -39 -56 -39 -68 0 -13 -18
-46 -40 -73 -42 -54 -54 -83 -20 -53 29 26 32 15 9 -33 -25 -49 -79 -99 -117
-108 -49 -11 -112 -36 -123 -51 -22 -26 -1 -25 45 2 25 15 46 22 46 17 0 -24
-171 -114 -187 -99 -3 4 0 14 7 22 12 14 10 15 -16 9 -83 -19 -193 -101 -275
-204 -32 -39 -38 -43 -52 -31 -14 11 -15 16 -3 40 19 36 70 86 136 134 30 22
57 42 60 44 3 3 -3 9 -13 14 -9 6 -15 14 -12 20 10 15 -29 10 -51 -6 -16 -12
-17 -16 -4 -24 11 -8 -3 -27 -68 -95 -54 -57 -82 -93 -82 -109 0 -37 -28 -69
-58 -65 -24 3 -27 7 -24 37 3 37 31 81 96 149 22 23 35 42 29 42 -20 0 -121
-119 -147 -174 -29 -61 -37 -69 -60 -60 -38 15 -3 118 58 172 21 18 62 47 92
64 30 17 53 32 51 34 -2 2 -20 -1 -41 -7 -21 -6 -40 -8 -42 -6 -8 8 66 67 93
73 20 5 30 2 44 -17 l18 -24 25 24 c30 28 32 43 11 61 -12 10 -24 8 -62 -12
-75 -39 -113 -49 -162 -40 l-44 7 52 35 c69 47 93 83 99 144 5 47 4 50 -11 37
-10 -7 -17 -25 -17 -40 0 -34 -5 -41 -65 -90 -50 -41 -95 -54 -95 -27 0 8 13
23 30 32 27 17 46 42 37 51 -3 2 -23 -12 -47 -32 -23 -19 -50 -35 -61 -35 -22
0 -23 4 -7 30 20 31 0 36 -30 7 -60 -57 -177 -83 -262 -58 -16 5 -31 3 -42 -6
-14 -13 -21 -12 -49 3 -31 16 -38 16 -104 0 -39 -9 -84 -23 -100 -32 -19 -10
-32 -11 -39 -4 -19 19 -55 10 -92 -22 -29 -26 -35 -28 -26 -11 15 28 15 33 -1
33 -7 0 -28 -16 -47 -35 -39 -40 -68 -48 -49 -14 19 36 -5 42 -36 9 -31 -32
-55 -39 -55 -15 0 19 0 19 -53 -11 -35 -19 -57 -24 -94 -22 l-48 3 78 39 c63
32 82 47 97 77 21 41 74 100 105 117 11 6 17 14 12 18 -4 4 -54 -39 -112 -95
-71 -70 -122 -110 -159 -127 -30 -13 -60 -31 -66 -39 -13 -16 -40 -19 -77 -9
-34 9 -28 22 17 35 42 13 75 39 49 39 -8 -1 -25 -7 -39 -15 -28 -16 -70 -20
-70 -6 0 13 124 61 198 76 69 15 112 38 112 60 0 21 -16 27 -31 9 -22 -27 -63
-42 -150 -58 -111 -19 -216 -49 -275 -78 -48 -23 -54 -23 -429 -26 -377 -3
-437 0 -418 19 16 16 172 38 689 94 l502 54 121 57 c66 31 121 61 121 65 0 5
-19 9 -42 9 -32 0 -58 -10 -114 -45 -87 -55 -112 -60 -386 -80 -117 -8 -222
-17 -233 -20 -11 -2 -69 -9 -130 -15 -60 -6 -213 -27 -340 -46 -336 -53 -405
-62 -399 -53 6 11 244 104 399 156 72 24 287 91 479 149 313 95 357 111 430
156 147 91 219 151 441 368 286 279 332 310 562 371 65 17 177 56 248 86 180
77 255 101 355 115 96 12 145 0 145 -37 0 -28 -48 -52 -163 -80 -122 -30 -120
-30 -97 -5 25 27 0 27 -40 -1 -42 -28 -175 -95 -270 -136 -81 -35 -103 -48
-93 -58 2 -3 44 13 91 35 48 22 106 47 129 56 l43 15 -35 -36 c-38 -40 -199
-125 -235 -125 -58 0 -84 -21 -187 -153 -57 -72 -140 -177 -186 -235 -45 -57
-79 -102 -75 -100 4 2 32 16 61 31 30 16 57 26 60 23 10 -10 -41 -57 -89 -81
-25 -13 -51 -31 -58 -39 -25 -29 9 -18 75 25 48 31 70 40 96 37 42 -4 50 -39
17 -74 -35 -38 -18 -36 29 2 23 20 42 44 42 54 0 11 -21 39 -47 64 l-48 44 39
56 c21 31 86 105 144 167 101 106 110 113 221 166 64 31 161 84 216 118 131
81 127 79 263 126 64 23 123 45 130 51 21 18 14 67 -14 95 -25 25 -29 26 -113
20 -117 -9 -261 -47 -357 -95 -43 -22 -124 -53 -179 -70 -55 -17 -152 -47
-215 -66 -83 -25 -134 -48 -185 -82 -92 -61 -107 -74 -334 -296 -211 -205
-327 -299 -436 -352 -83 -41 -83 -41 -462 -156 -163 -50 -374 -120 -468 -154
-93 -35 -228 -83 -300 -106 -186 -61 -235 -80 -235 -91 0 -6 20 -19 46 -30 41
-19 64 -20 257 -19 467 4 927 -1 1012 -10 335 -34 400 -33 600 10 240 52 355
73 361 68 24 -24 -95 -158 -216 -242 -249 -175 -636 -363 -906 -441 -92 -27
-133 -47 -276 -136 -147 -91 -369 -212 -447 -242 -101 -39 -183 -56 -326 -66
-167 -13 -225 -37 -333 -139 -80 -75 -82 -78 -82 -124 0 -37 4 -50 20 -58 25
-13 40 -5 40 21 0 14 7 19 26 19 14 0 46 14 70 32 24 17 46 29 49 26 9 -9 -93
-116 -159 -166 -34 -26 -101 -83 -151 -127 -225 -201 -390 -334 -555 -449 -59
-41 -103 -82 -145 -135 -140 -177 -391 -443 -546 -576 -25 -22 -137 -149 -248
-283 -196 -235 -204 -246 -250 -355 -49 -113 -121 -324 -121 -352 0 -8 5 -15
11 -15 10 0 222 154 671 488 883 656 1211 865 1953 1243 402 205 955 429 1525
619 295 99 447 141 950 264 974 239 1243 271 2080 247 401 -11 482 -21 635
-74 105 -37 104 -37 125 -76 34 -68 134 -141 193 -141 19 0 20 2 7 15 -8 8
-40 27 -70 42 -42 21 -65 42 -97 89 -40 57 -48 64 -153 112 -60 29 -138 59
-173 67 -35 8 -123 40 -197 71 -73 30 -173 69 -222 85 -65 21 -115 47 -191 99
-138 94 -130 85 -125 141 8 81 84 159 156 159 39 0 39 -2 -11 -112 -27 -61
-33 -68 -58 -68 -16 0 -29 -4 -29 -8 0 -14 340 -174 609 -287 212 -89 262
-107 305 -107 53 1 95 -18 132 -59 19 -22 19 -22 -3 -15 -18 6 -23 3 -28 -16
-3 -13 -2 -35 4 -49 13 -36 113 -100 164 -106 52 -7 44 3 -35 42 -87 42 -88
62 -3 30 96 -36 129 -33 83 6 l-23 18 45 1 c40 1 43 2 27 14 -9 7 -40 16 -67
20 -41 5 -60 16 -107 57 -32 28 -105 86 -162 128 -247 182 -299 222 -359 276
-77 70 -113 137 -120 220 -5 71 9 107 59 149 65 55 103 67 184 60 77 -7 85 -3
60 30 -21 28 -19 82 4 105 24 24 182 75 298 97 70 13 147 16 368 15 518 -3
653 -28 848 -160 42 -28 78 -51 81 -51 2 0 2 8 -1 19 -8 30 -66 80 -130 112
l-58 30 45 -6 c58 -8 124 -37 166 -75 37 -32 49 -36 59 -20 14 23 -57 70 -147
97 -49 16 -88 33 -86 38 6 19 92 9 151 -18 55 -25 92 -27 84 -3 -6 18 -146 57
-230 63 -77 6 -79 6 -73 -15 7 -21 7 -21 -31 -2 -21 10 -85 28 -143 40 -58 12
-132 32 -165 44 -123 45 -282 99 -360 122 -44 13 -136 44 -204 69 -68 26 -147
49 -175 52 -48 6 -49 7 -28 21 12 8 22 18 22 23 0 14 -22 10 -41 -7 -10 -9
-26 -14 -35 -10 -15 6 -15 8 1 26 10 11 16 22 14 24 -2 3 -106 -67 -229 -156
-181 -129 -224 -164 -222 -181 1 -11 -9 -33 -24 -48 -31 -32 -29 -65 4 -61 18
3 22 -2 22 -21 0 -18 -10 -31 -35 -45 -34 -21 -70 -79 -94 -152 -10 -33 -15
-36 -84 -52 -40 -10 -82 -18 -93 -18 -10 0 -43 -11 -72 -25 -28 -13 -69 -27
-90 -31 -20 -3 -80 -25 -132 -47 -105 -44 -241 -89 -249 -82 -7 8 -2 11 110
54 110 43 230 109 237 131 2 6 -38 -11 -89 -38 -115 -62 -235 -103 -398 -136
-132 -27 -172 -42 -80 -31 35 4 59 3 63 -3 9 -15 -12 -20 -135 -27 -81 -4
-110 -3 -99 4 8 6 27 11 42 11 15 0 29 3 31 8 3 4 -27 7 -67 8 -39 0 -96 8
-126 17 -30 8 -75 21 -100 27 -43 12 -44 13 -20 22 l25 10 -28 10 c-22 8 -34
6 -59 -10 l-31 -20 24 -15 c13 -8 56 -18 94 -22 39 -4 83 -14 100 -23 29 -15
29 -15 8 -25 -25 -11 -139 10 -225 42 -54 21 -56 23 -55 59 0 20 7 45 15 55 8
9 12 20 8 24 -4 4 -25 -12 -47 -35 -23 -24 -50 -42 -62 -42 -20 0 -20 -2 8
-25 25 -21 28 -26 15 -35 -21 -14 -57 -13 -62 2 -3 8 -20 11 -48 9 l-43 -3 22
28 c27 35 20 42 -15 15 -22 -18 -40 -21 -110 -21 -86 0 -106 11 -60 31 13 6
35 31 48 55 13 23 39 54 58 66 19 13 45 42 57 64 14 26 47 57 92 87 63 44 94
77 72 77 -5 0 -32 -19 -61 -42 -159 -132 -161 -115 -4 45 72 72 152 162 178
200 46 65 86 97 123 97 10 0 24 4 32 9 12 8 13 12 2 25 -9 11 -18 13 -25 7
-15 -13 -65 24 -51 38 16 15 71 17 89 2 20 -17 21 -70 1 -135 -17 -55 -23 -61
-77 -76 -22 -6 -38 -17 -38 -26 0 -12 5 -12 37 1 48 20 71 41 94 87 25 49 33
107 21 151 -8 29 -7 39 5 48 8 7 21 26 29 42 14 25 14 31 0 52 -15 23 -15 25
4 35 20 11 22 9 24 -24 1 -11 18 -32 39 -46 53 -36 99 -110 105 -169 6 -65
-20 -149 -63 -205 -42 -56 -26 -61 24 -8 41 43 63 101 67 182 2 51 4 55 29 58
43 5 72 -6 78 -30 8 -29 -9 -48 -44 -48 -16 0 -29 -4 -29 -10 0 -5 14 -10 31
-10 30 0 31 -1 24 -40 -6 -33 -4 -39 8 -34 15 6 32 38 42 84 3 14 -3 61 -15
104 -24 94 -24 96 -5 96 8 0 27 -19 44 -43 16 -24 36 -49 45 -56 21 -18 20
-50 -4 -106 -11 -26 -20 -53 -20 -61 0 -24 19 -15 40 19 33 53 39 91 28 168
-5 42 -6 75 0 81 12 12 62 -29 62 -52 0 -10 5 -22 11 -26 6 -3 8 -15 6 -26 -4
-14 1 -22 19 -28 13 -5 24 -14 24 -20 0 -5 3 -10 8 -10 4 0 6 18 4 41 -3 22 1
46 7 52 7 7 42 10 94 9 73 -3 88 -7 137 -36 75 -46 161 -88 167 -83 5 6 -34
36 -76 59 -44 24 -40 42 8 35 23 -3 65 -22 100 -47 67 -45 120 -70 148 -70 10
0 54 26 98 58 45 31 140 90 213 131 72 41 130 76 128 78 -1 2 -17 -2 -35 -8
-48 -17 -159 -5 -232 25 -59 24 -61 24 -42 4 12 -12 52 -31 90 -44 70 -24 88
-47 41 -52 -16 -2 -64 16 -128 48 -56 28 -100 45 -98 38 2 -7 43 -32 91 -56
97 -48 113 -72 46 -72 -36 0 -41 -2 -36 -20 7 -27 -20 -26 -108 1 -37 11 -69
18 -72 15 -12 -11 11 -27 63 -42 29 -8 54 -19 54 -24 0 -17 -53 -50 -79 -50
-15 0 -45 13 -67 29 -21 15 -90 56 -153 91 -63 34 -134 75 -157 91 -32 21 -54
29 -88 29 -55 0 -96 15 -96 35 0 41 127 10 343 -86 61 -27 116 -49 122 -49 19
1 -29 32 -101 65 -40 19 -75 38 -79 44 -15 25 60 9 135 -29 46 -23 107 -45
143 -51 34 -5 78 -13 97 -16 19 -3 32 -2 27 3 -17 18 -196 87 -243 93 -57 7
-264 103 -264 122 0 7 7 8 18 4 9 -4 85 -24 167 -45 83 -21 158 -41 168 -45 9
-4 17 -4 17 -1 0 4 -24 18 -52 32 l-53 25 40 -5 c22 -3 58 -8 80 -12 52 -9 35
8 -25 25 -116 33 -187 81 -99 67 30 -5 48 -2 65 9 22 14 25 14 30 0 4 -9 19
-15 40 -15 26 0 32 3 28 15 -9 22 34 19 96 -5 50 -20 64 -18 33 5 -9 7 -12 15
-7 18 5 3 79 -24 163 -59 85 -35 156 -63 158 -60 2 2 -12 14 -31 26 -58 35
-46 43 55 35 65 -5 89 -4 85 4 -4 6 -33 11 -64 11 -110 0 -226 19 -243 40 -9
11 -36 22 -60 26 -24 4 -52 11 -61 16 -12 6 -26 3 -42 -8 -21 -13 -29 -14 -52
-2 -34 16 -41 33 -17 42 10 4 99 7 197 7 99 -1 177 1 175 4 -3 2 -61 8 -130
13 -136 10 -193 28 -165 51 10 8 28 11 45 8 20 -4 31 -2 35 8 7 20 -31 19
-149 0 -190 -32 -226 14 -45 57 l75 18 -58 -4 c-48 -4 -56 -2 -47 9 26 31 101
45 254 46 203 1 239 14 61 21 -145 6 -245 -5 -335 -36 -50 -17 -100 -21 -84
-7 12 12 252 84 384 115 58 14 158 33 223 42 64 10 117 21 117 24 0 19 -304
28 -315 10 -4 -6 21 -10 66 -10 98 0 79 -15 -44 -35 -54 -8 -112 -22 -128 -30
-16 -9 -77 -22 -135 -30 -59 -9 -110 -18 -114 -20 -9 -6 -40 22 -40 35 0 11
85 36 153 46 31 4 51 13 57 25 6 10 29 23 53 29 23 6 56 17 72 24 17 8 143 29
280 46 138 18 257 37 265 42 21 12 -84 2 -335 -32 -271 -38 -314 -46 -336 -66
-19 -17 -60 -16 -66 2 -4 12 98 60 187 89 66 21 89 38 40 29 -72 -12 -223 -45
-231 -50 -4 -2 -10 0 -14 5 -10 17 40 42 137 67 88 23 142 34 319 69 41 8 143
20 225 25 83 5 161 14 175 19 33 13 18 13 -171 -4 -284 -25 -509 -62 -582 -95
-57 -26 -119 -26 -142 -1 -10 11 -15 25 -11 30 9 15 41 14 57 -3 10 -10 19
-11 32 -4 16 9 152 37 184 38 6 0 12 4 12 8 0 5 -26 5 -57 1 -35 -5 -62 -4
-67 2 -20 19 12 29 100 33 49 2 107 9 129 14 22 6 79 16 128 22 48 7 90 16 93
22 5 8 -39 4 -86 -8 -8 -2 -21 0 -29 5 -18 12 32 26 143 42 80 11 134 28 91
28 -40 1 -163 -20 -320 -54 -88 -19 -196 -37 -240 -41 -74 -6 -79 -5 -64 10
21 22 146 56 410 111 227 48 321 72 281 74 -12 1 -102 -17 -200 -40 -188 -43
-355 -63 -297 -35 17 9 38 15 48 16 10 0 28 5 40 12 22 12 21 12 -8 18 -60 11
-34 33 69 62 125 34 148 53 54 43 -37 -3 -91 -13 -120 -21 -70 -18 -74 -18
-52 7 34 37 73 50 184 59 60 5 118 14 130 20 44 23 28 22 -173 -12 -65 -11
-121 -17 -124 -14 -4 3 2 13 13 21 13 10 16 17 7 22 -11 8 -17 27 -14 49 1 12
29 24 99 44 61 16 48 22 -24 10 -73 -12 -144 -13 -144 -2 0 12 160 65 290 97
57 15 111 31 120 36 13 9 13 10 -1 6 -9 -3 -38 -9 -65 -13 -44 -6 -48 -5 -36
9 8 9 35 19 60 24 l47 7 -55 8 c-30 5 -80 9 -110 8 -43 0 -51 2 -37 10 9 6 17
17 17 23 0 8 32 19 83 30 45 9 124 27 175 41 51 14 146 29 210 35 64 5 128 14
142 20 75 30 -251 -9 -364 -44 -27 -8 -74 -15 -104 -15 -46 0 -53 2 -43 14 22
27 154 73 316 112 109 27 150 40 128 42 -18 2 -83 -11 -146 -27 -127 -34 -169
-39 -161 -17 11 29 -19 27 -81 -4 -60 -31 -98 -36 -99 -15 -2 18 149 84 255
112 113 30 112 44 -1 19 -66 -15 -120 -13 -120 4 0 11 63 47 134 76 34 13 137
43 231 66 93 23 165 43 158 45 -18 6 -309 -55 -371 -78 -31 -12 -96 -35 -145
-51 -70 -24 -85 -33 -76 -44 8 -10 3 -18 -23 -34 -50 -30 -82 -22 -42 11 9 7
20 23 24 35 22 56 184 129 345 157 50 9 108 24 130 33 22 10 105 35 185 55 80
21 133 38 118 38 -27 1 -183 -38 -337 -84 -46 -14 -106 -25 -133 -25 -36 0
-73 -10 -130 -36 -93 -42 -120 -40 -59 4 59 43 133 69 286 102 88 19 117 28
90 29 -56 1 -164 -23 -272 -61 -51 -18 -95 -29 -99 -26 -13 14 38 66 84 86 27
12 91 26 143 33 118 14 132 24 20 15 -67 -6 -82 -5 -79 6 3 7 19 18 36 23 17
6 42 21 56 34 32 30 200 60 351 62 158 2 199 16 50 17 -88 1 -163 -6 -283 -27
-160 -27 -212 -25 -134 6 27 10 39 20 35 29 -4 10 3 14 23 14 32 0 62 15 52
25 -4 4 -43 -5 -88 -20 -45 -15 -83 -25 -86 -23 -8 8 46 56 83 73 20 10 88 28
150 40 109 22 171 44 88 32 l-40 -6 22 19 23 18 -31 11 c-17 6 -29 16 -27 23
2 7 43 26 91 43 87 30 111 45 60 39 -25 -4 -24 -2 9 14 52 26 59 36 20 29 -20
-4 -31 -3 -27 3 15 24 101 62 240 105 83 26 155 51 160 57 13 13 -30 3 -123
-29 -41 -13 -83 -23 -95 -21 -51 8 189 108 373 154 103 27 162 53 90 40 -105
-18 -113 -19 -106 -8 3 6 35 20 71 32 36 12 67 26 70 31 8 12 6 12 -48 -7 -75
-26 -85 -14 -25 31 42 31 63 40 99 41 26 2 64 11 85 22 142 72 364 125 653
156 146 16 193 31 66 21 -245 -19 -422 -53 -620 -119 -71 -24 -131 -43 -133
-41 -8 7 283 193 353 226 110 51 327 107 583 150 78 13 142 27 142 31 0 12
-37 9 -105 -7 -71 -17 -158 -20 -135 -5 38 25 192 64 375 95 199 34 301 57
314 71 9 10 -95 -5 -179 -26 -42 -11 -102 -22 -135 -25 l-60 -6 57 30 c31 17
100 42 153 56 52 13 125 34 163 45 75 22 244 50 310 50 23 0 42 5 42 10 0 6
-17 10 -38 10 -21 0 -47 6 -57 14 -18 13 -18 14 1 23 39 21 154 43 309 59 187
19 239 37 85 28 -190 -10 -74 20 255 66 183 26 183 26 187 53 2 17 9 21 30 19
15 -2 62 2 105 8 161 22 261 28 377 22 66 -4 121 -11 123 -17 1 -5 -39 -23
-90 -38 -50 -16 -151 -57 -224 -92 -133 -64 -542 -288 -643 -353 -30 -20 -143
-82 -251 -138 -108 -56 -215 -114 -239 -129 -23 -15 -59 -33 -79 -40 -113 -39
-236 -116 -471 -293 -74 -56 -173 -123 -220 -149 -218 -123 -665 -486 -862
-701 -286 -311 -695 -907 -881 -1285 -65 -133 -94 -477 -53 -655 52 -232 163
-445 318 -608 82 -86 74 -94 -42 -38 -41 20 -128 56 -193 80 -65 24 -175 69
-244 100 -165 73 -279 109 -400 128 -54 9 -116 21 -139 28 -23 6 -50 8 -60 4
-14 -6 7 -14 72 -27 129 -27 261 -75 517 -189 123 -54 286 -121 363 -147 138
-48 140 -48 299 -53 126 -4 167 -9 194 -23 27 -13 36 -14 42 -5 21 33 -49 58
-162 58 -67 0 -81 3 -125 31 -27 17 -85 69 -130 115 -64 67 -93 107 -137 192
-127 244 -172 418 -164 623 3 80 13 156 27 210 12 46 26 100 30 119 5 19 37
82 70 140 33 58 65 120 71 139 12 36 164 278 287 456 117 169 324 439 425 554
209 236 594 552 925 760 83 52 209 138 281 191 98 74 176 121 323 195 106 54
220 115 253 135 33 20 112 61 175 91 63 31 156 83 205 115 50 33 106 66 125
74 19 7 91 47 160 89 221 132 449 234 664 295 107 31 120 40 89 65 -27 22
-122 37 -321 51 -81 6 -180 15 -220 20 -99 13 -141 11 -247 -11z m229 -25 c30
-12 18 -34 -18 -34 -40 0 -54 14 -29 29 21 12 26 13 47 5z m-269 -109 c-51
-16 -241 -30 -207 -15 30 13 134 27 197 28 l50 0 -40 -13z m-2305 -719 c0 -14
-166 -122 -350 -226 -118 -67 -230 -134 -248 -147 -18 -14 -35 -23 -38 -20
-12 12 12 35 69 66 34 19 121 70 192 115 152 94 357 214 368 215 4 1 7 -1 7
-3z m-480 -390 c0 -15 -37 -29 -52 -20 -13 9 12 34 33 34 11 0 19 -6 19 -14z
m-1087 -103 c4 -3 0 -17 -8 -30 -14 -21 -14 -25 7 -53 18 -25 20 -35 12 -67
-11 -46 -34 -56 -34 -15 0 16 -9 41 -20 55 -24 30 -25 48 -5 87 15 29 34 38
48 23z m-67 -237 c6 -26 -13 -99 -24 -92 -10 6 -2 116 9 116 5 0 11 -11 15
-24z m494 -105 c0 -9 -58 -35 -127 -57 -35 -11 -43 -11 -43 0 0 16 32 33 95
51 61 16 75 18 75 6z m-642 -793 c-5 -14 -66 -58 -80 -58 -18 0 -1 25 32 48
37 25 54 28 48 10z m62 -93 c0 -29 -19 -39 -96 -51 -46 -7 -48 -6 -35 10 16
19 99 65 119 66 6 0 12 -11 12 -25z m-198 -110 c15 -33 -2 -55 -27 -35 -23 19
-18 60 7 60 5 0 14 -11 20 -25z m82 -51 c9 -3 16 -12 16 -19 0 -17 -23 -25
-69 -25 -23 0 -68 -15 -117 -39 -44 -21 -91 -42 -105 -46 l-24 -7 23 24 c12
14 42 31 65 37 23 7 58 22 77 33 19 12 53 27 75 34 22 7 41 13 42 13 1 1 8 -2
17 -5z m-408 -83 c-16 -30 -75 -85 -83 -77 -8 8 27 64 53 85 37 29 47 26 30
-8z m198 -104 c15 -23 -14 -52 -43 -42 -26 8 -29 51 -3 58 24 6 34 3 46 -16z
m14 -96 c2 -13 0 -27 -5 -32 -12 -12 -73 9 -73 25 0 41 73 48 78 7z m-108 -31
c0 -32 -1 -33 -24 -24 -16 6 -22 35 -9 47 16 17 33 5 33 -23z m-440 -62 c-18
-29 -48 -78 -66 -109 -34 -58 -54 -73 -83 -64 -10 3 -24 -8 -40 -31 -37 -54
-144 -148 -248 -217 -51 -34 -92 -68 -93 -74 0 -12 35 7 130 73 25 17 56 37
70 44 l25 13 -25 -27 c-13 -15 -55 -48 -92 -73 -37 -26 -66 -48 -64 -51 10 -9
110 55 193 124 48 40 93 72 98 70 6 -1 11 -12 13 -24 2 -16 -4 -25 -20 -31
-40 -15 -217 -161 -195 -161 3 0 45 32 93 70 90 71 104 79 104 59 0 -26 -26
-53 -88 -93 -37 -24 -76 -53 -87 -66 -29 -33 -57 -41 -77 -23 -16 14 -25 12
-103 -25 -47 -23 -102 -44 -123 -48 -34 -7 -36 -6 -23 10 8 10 40 30 70 46 60
30 102 59 87 60 -5 0 -50 -22 -101 -50 -51 -27 -98 -50 -105 -50 -22 0 10 30
59 55 51 25 102 72 65 59 -10 -4 -60 -31 -109 -60 -64 -38 -105 -56 -140 -60
-28 -3 -69 -13 -92 -21 -49 -18 -80 -13 -43 7 13 7 70 30 126 50 128 46 331
161 508 288 91 65 289 252 356 335 24 31 46 54 49 52 2 -3 -11 -28 -29 -57z
m535 -15 c16 -16 16 -18 -1 -30 -25 -18 -60 -27 -79 -19 -15 5 -21 47 -8 59
13 13 72 7 88 -10z m-156 -22 c20 -13 6 -61 -18 -61 -25 0 -51 26 -51 51 0 14
7 19 28 19 15 0 33 -4 41 -9z m75 -77 c28 -11 17 -23 -36 -39 -63 -18 -88 -19
-88 -2 0 28 86 56 124 41z m-157 -350 c7 -19 -20 -49 -36 -40 -6 4 -11 18 -11
32 0 17 5 24 20 24 11 0 23 -7 27 -16z m-557 -74 c0 -24 -54 -60 -89 -60 -24
0 -24 0 -5 21 20 23 73 59 87 59 4 0 7 -9 7 -20z m400 -319 c0 -5 -9 -12 -20
-15 -11 -3 -29 -9 -40 -12 -11 -3 -20 -1 -20 5 0 6 15 15 33 20 43 12 47 13
47 2z m244 -17 c9 -3 16 -10 16 -14 0 -12 -93 -30 -118 -23 -21 5 -29 23 -15
36 8 9 96 9 117 1z m-149 -59 c0 -28 -29 -25 -33 3 -3 19 0 23 15 20 10 -2 18
-12 18 -23z m-81 -16 c64 -30 27 -55 -62 -44 -56 7 -57 7 -29 21 15 8 27 19
27 24 0 13 33 13 64 -1z m147 0 c24 -13 16 -29 -16 -29 -29 0 -43 19 -24 31
18 11 17 11 40 -2z m-269 -59 c20 -6 47 -20 60 -31 l23 -20 -45 6 c-25 3 -77
9 -117 13 -39 4 -75 11 -80 15 -24 25 88 36 159 17z m-277 -101 c-10 -15 -128
-12 -123 4 3 6 24 14 49 17 46 6 84 -4 74 -21z m-310 -68 c3 -5 0 -13 -6 -16
-15 -10 -101 4 -94 16 8 12 92 12 100 0z m230 -27 c50 -5 125 -39 132 -60 4
-13 -58 -5 -152 20 -32 9 -76 16 -96 16 -34 0 -66 20 -53 33 5 5 55 3 169 -9z
m-885 -35 c0 -21 -44 -89 -54 -86 -18 6 -18 44 0 71 16 26 54 36 54 15z m570
-4 c10 -12 10 -19 2 -27 -13 -13 -42 6 -42 28 0 19 24 18 40 -1z m587 -28 c65
-36 73 -47 33 -47 -38 0 -135 63 -124 81 6 10 25 3 91 -34z m-523 -43 c9 -8
16 -19 16 -24 0 -23 -91 -28 -110 -5 -30 37 59 64 94 29z m-474 -92 c0 -11 -9
-27 -20 -37 -19 -18 -20 -17 -20 6 0 25 16 49 32 49 4 0 8 -8 8 -18z m2018 6
c-8 -24 -118 -22 -118 2 0 6 27 10 61 10 44 0 60 -3 57 -12z m352 -49 c47 -13
96 -31 110 -40 14 -10 54 -25 90 -35 87 -23 96 -34 30 -35 l-55 -2 55 -7 c160
-22 170 -23 185 -10 19 16 285 -47 285 -69 0 -10 -8 -12 -27 -8 -16 4 -59 13
-98 22 -101 21 -432 38 -673 33 -178 -4 -223 -9 -326 -32 -167 -38 -246 -72
-268 -116 -20 -39 -43 -51 -75 -39 -23 9 -23 24 2 62 22 32 179 127 261 156
45 17 131 40 191 51 59 12 122 25 138 30 29 8 29 8 -10 9 -22 0 -111 -17 -197
-38 -128 -32 -174 -48 -245 -87 -100 -56 -183 -129 -183 -162 0 -19 -6 -22
-40 -22 -27 0 -43 5 -46 15 -8 19 13 45 35 45 11 0 23 18 35 51 19 55 59 104
76 94 6 -4 -2 -22 -21 -43 -37 -42 -22 -58 19 -20 48 44 95 72 177 105 95 39
86 43 -22 8 -42 -13 -79 -22 -82 -20 -9 10 45 58 84 76 22 9 92 25 155 34 63
9 117 19 120 22 13 14 240 -6 320 -28z m-3548 -250 c9 -10 23 -19 32 -19 20 0
21 -24 1 -40 -8 -7 -12 -17 -9 -22 3 -5 16 0 28 11 23 22 46 28 46 12 0 -5
-17 -23 -37 -40 -20 -17 -35 -33 -32 -35 2 -3 28 15 58 40 51 42 71 51 84 38
3 -4 -19 -35 -51 -69 -71 -78 -112 -149 -95 -166 10 -10 14 -8 18 7 27 85 108
189 158 200 17 3 42 13 55 22 41 27 37 2 -6 -36 -58 -52 -108 -132 -123 -198
l-13 -56 -63 4 c-55 3 -67 8 -98 38 -29 28 -35 31 -41 17 -3 -10 -4 -24 0 -32
3 -9 0 -15 -10 -15 -8 0 -29 23 -46 50 -33 53 -38 56 -55 39 -19 -19 -46 46
-40 94 l5 39 -22 -21 c-33 -31 -39 -26 -34 23 7 57 40 103 92 127 54 25 172
18 198 -12z m738 -90 c0 -16 -49 -29 -107 -29 l-56 0 21 23 c18 19 29 22 81
19 34 -2 61 -8 61 -13z m110 11 c0 -15 -48 -43 -60 -35 -8 5 -6 13 6 26 18 20
54 26 54 9z m1915 -36 c19 -19 4 -44 -27 -44 -27 0 -35 30 -13 46 23 17 20 17
40 -2z m-2211 -30 c24 -9 19 -30 -10 -53 -54 -43 -93 -18 -45 29 32 33 32 33
55 24z m146 -15 c0 -5 -26 -22 -57 -36 -181 -80 -185 -82 -178 -102 4 -13 0
-21 -12 -25 -191 -57 -309 -62 -290 -12 5 12 20 16 64 15 91 -2 329 88 387
146 25 25 86 36 86 14z m-1030 -17 c0 -15 -272 -242 -364 -304 -98 -65 -197
-118 -221 -118 -31 0 -13 21 43 49 31 16 66 39 77 51 14 17 -10 7 -85 -32
-104 -56 -244 -112 -263 -105 -5 1 42 27 104 56 63 30 156 74 207 98 50 24
127 67 170 96 42 29 101 66 130 82 28 15 80 52 115 81 59 50 87 65 87 46z
m1095 -32 c0 -16 -8 -28 -22 -35 -12 -5 -24 -17 -26 -27 -4 -13 -15 -18 -40
-18 -41 0 -67 -8 -67 -21 0 -5 18 -6 40 -3 35 6 40 4 40 -13 0 -31 -28 -48
-74 -46 -57 2 -116 14 -116 23 0 14 93 70 117 70 13 0 23 4 23 8 0 5 18 28 39
51 46 50 86 55 86 11z m-1040 -29 c3 -5 -7 -19 -22 -31 -32 -25 -45 -10 -17
21 19 21 30 24 39 10z m2761 -54 c2 -7 -2 -33 -11 -57 -13 -37 -13 -45 -1 -59
8 -9 21 -44 30 -79 17 -69 39 -107 68 -123 31 -17 32 -4 3 39 -35 54 -57 128
-49 170 6 32 5 34 -15 27 -11 -3 -21 -4 -21 0 0 14 30 75 37 75 18 0 53 -68
53 -102 0 -44 47 -139 100 -200 22 -26 102 -94 178 -152 203 -155 201 -153
178 -162 -12 -4 -50 6 -110 31 -50 21 -167 69 -261 107 -177 72 -209 93 -251
165 -23 39 -25 48 -19 130 9 129 13 148 40 177 26 29 43 33 51 13z m-2837
-117 c12 0 21 26 21 59 0 46 45 72 52 29 2 -12 9 -23 17 -26 8 -3 11 0 7 6
-11 17 5 42 27 42 12 0 33 -12 48 -26 26 -25 26 -27 10 -43 -12 -12 -20 -41
-24 -87 -7 -75 -8 -76 -131 -179 -35 -30 -46 -44 -41 -57 10 -24 23 -22 27 3
3 22 32 48 43 38 3 -3 -2 -23 -11 -44 -10 -24 -12 -41 -6 -47 6 -6 20 17 38
63 16 40 43 88 61 107 18 19 40 50 50 70 10 19 23 33 28 31 6 -2 8 -8 6 -14
-2 -5 -5 -19 -8 -30 -4 -16 0 -14 17 8 33 42 44 21 15 -28 -14 -24 -25 -52
-25 -63 0 -29 -50 -132 -63 -132 -7 0 -41 -19 -77 -43 -36 -24 -80 -49 -99
-55 -36 -13 -169 -17 -158 -5 4 3 2 12 -4 20 -14 16 -68 17 -89 2 -11 -8 -6
-9 20 -5 l35 6 -27 -24 c-37 -33 -216 -75 -355 -83 -126 -7 -177 6 -101 25 25
6 108 19 184 28 76 8 141 18 143 20 2 2 -27 4 -65 4 -77 -1 -322 -41 -370 -61
-28 -11 -34 -10 -49 4 -22 23 -42 21 -55 -3 -13 -24 -37 -26 -60 -5 -14 13
-24 12 -83 -6 -36 -11 -69 -24 -72 -29 -8 -13 11 -13 35 0 12 6 21 7 25 1 7
-12 -26 -31 -51 -31 -9 0 -103 -42 -208 -94 -185 -91 -368 -172 -661 -291
-100 -40 -147 -65 -165 -86 -14 -16 -31 -29 -39 -29 -11 0 -11 3 -1 15 7 8 9
15 4 15 -16 0 -61 -35 -140 -108 -81 -75 -449 -369 -657 -526 -110 -83 -147
-118 -147 -139 0 -5 26 13 57 40 75 64 92 74 66 37 -46 -64 -135 -135 -196
-156 -46 -17 -219 -179 -628 -590 -180 -180 -330 -328 -333 -328 -14 0 20 48
83 120 37 41 83 96 102 121 19 26 142 151 272 279 140 137 270 274 316 334 98
127 202 226 274 260 68 32 163 108 323 259 67 62 164 149 215 193 52 43 160
138 241 210 134 119 159 136 260 185 304 143 574 286 817 432 130 79 136 81
270 110 75 15 147 31 160 34 15 4 22 2 18 -5 -4 -5 -31 -16 -59 -22 -75 -18
-158 -50 -158 -61 0 -14 10 -12 109 21 110 36 250 56 481 70 96 6 192 13 212
17 33 5 39 3 47 -19 12 -32 38 -58 58 -58 12 0 14 7 10 33 -7 45 3 60 36 51
35 -8 34 -1 -4 48 -29 36 -31 44 -26 97 5 65 36 143 70 179 l22 24 3 -56 c2
-31 7 -56 11 -56z m-109 16 c0 -14 -12 -39 -26 -56 -20 -23 -24 -34 -15 -43
19 -19 12 -41 -24 -70 -70 -56 -157 -81 -194 -58 -12 8 -11 13 10 31 27 24 33
25 -75 -11 -33 -11 -69 -27 -80 -35 -22 -15 -56 -19 -56 -6 0 8 23 22 165 99
55 30 134 81 175 114 82 64 120 75 120 35z m402 -18 c-28 -28 -40 -16 -17 18
12 19 20 23 28 15 8 -8 5 -17 -11 -33z m383 3 c7 -12 -34 -41 -57 -41 -27 0
-22 17 10 34 32 18 39 19 47 7z m145 -14 c0 -7 -19 -24 -41 -36 -59 -34 -179
-149 -176 -170 2 -18 -170 -188 -180 -178 -10 10 82 133 161 215 72 76 205
182 228 182 4 0 8 -6 8 -13z m1885 -64 c-3 -18 -10 -31 -16 -28 -13 8 -11 48
3 82 11 28 12 28 16 4 2 -13 1 -39 -3 -58z m-2185 37 c-12 -22 -40 -27 -40 -7
0 19 10 27 32 27 16 0 17 -3 8 -20z m430 11 c0 -6 -26 -30 -57 -54 -32 -25
-78 -66 -103 -91 -41 -43 -43 -46 -20 -46 19 0 21 -3 12 -12 -7 -7 -23 -13
-35 -13 -32 -2 -47 -13 -47 -36 0 -20 0 -20 28 1 27 22 27 22 30 2 2 -12 -2
-31 -8 -42 -23 -43 -1 -29 56 36 33 36 76 85 96 107 20 23 40 38 44 34 4 -4
-10 -26 -33 -50 -40 -42 -133 -163 -133 -172 0 -19 73 54 130 130 37 50 78
100 91 112 27 24 98 57 107 49 10 -10 -48 -85 -114 -148 -73 -69 -124 -140
-124 -172 0 -12 -16 -41 -35 -65 -19 -24 -35 -46 -35 -50 0 -8 185 176 232
232 22 26 38 50 35 53 -3 3 -36 -23 -73 -58 -45 -41 -60 -52 -46 -31 27 39
176 179 217 204 28 17 85 26 85 13 0 -3 -38 -49 -85 -102 -82 -92 -185 -231
-185 -248 0 -15 110 99 207 215 94 111 144 154 172 149 33 -6 17 -34 -82 -136
-78 -81 -108 -120 -120 -155 -8 -25 -27 -61 -40 -79 -31 -41 -72 -122 -58
-113 6 3 28 32 48 63 20 31 51 75 69 97 18 22 36 53 40 69 4 17 46 71 101 127
51 54 93 102 93 107 0 15 32 24 44 12 7 -7 -14 -33 -66 -84 -67 -66 -129 -158
-115 -172 3 -3 20 16 38 43 46 67 189 213 210 213 9 0 22 -6 28 -13 8 -10 2
-21 -25 -48 -52 -49 -126 -156 -122 -175 2 -12 18 4 48 47 56 81 138 169 157
169 10 0 3 -16 -21 -47 -55 -73 -98 -151 -94 -170 3 -15 7 -12 23 12 60 96
112 169 130 181 22 16 65 19 65 5 0 -5 -22 -36 -50 -68 -49 -58 -76 -108 -61
-117 4 -3 25 22 46 55 36 56 83 105 92 95 3 -2 -14 -35 -36 -72 -23 -37 -41
-79 -41 -92 0 -38 23 -20 43 34 21 56 93 154 113 154 22 0 17 -16 -31 -86 -25
-36 -48 -82 -51 -103 -4 -25 -20 -53 -45 -80 -43 -48 -56 -78 -40 -94 8 -8 11
-8 11 0 0 6 22 44 49 85 27 41 52 86 56 99 12 38 70 124 100 147 24 19 55 29
55 19 0 -17 -87 -199 -115 -240 -33 -49 -46 -97 -26 -97 5 0 12 14 16 30 4 17
23 54 42 83 20 28 51 82 69 118 41 82 134 171 134 127 0 -6 -18 -40 -41 -74
-25 -39 -43 -80 -46 -106 -3 -24 -12 -55 -19 -70 -16 -30 -19 -72 -5 -64 5 3
26 54 47 113 21 59 52 127 68 152 30 44 116 105 116 81 0 -6 -18 -44 -40 -84
-30 -54 -40 -84 -40 -117 0 -26 -8 -57 -20 -77 -21 -34 -25 -52 -12 -52 4 0
14 15 20 34 7 19 23 50 37 69 13 21 21 44 18 55 -7 29 29 103 71 145 20 21 41
37 46 37 17 0 11 -26 -11 -54 -12 -15 -25 -46 -30 -69 -5 -23 -23 -79 -41
-125 -17 -45 -28 -85 -24 -89 8 -8 5 -12 51 82 22 44 40 94 40 111 1 17 16 55
33 83 18 28 32 55 32 60 0 16 60 61 81 61 26 0 24 -12 -15 -72 -63 -100 -78
-138 -81 -209 -2 -37 -9 -77 -14 -88 -16 -30 -13 -38 5 -13 8 12 26 65 39 117
23 96 50 155 72 162 14 5 4 -36 -21 -85 -18 -34 -22 -92 -6 -92 5 0 13 18 16
41 4 22 15 50 24 62 16 19 20 20 35 7 14 -11 16 -24 10 -66 -4 -33 -2 -54 4
-59 11 -6 15 0 25 48 9 38 34 35 38 -5 3 -28 7 -32 37 -36 41 -4 111 -38 111
-53 0 -7 -12 -8 -31 -4 -20 5 -29 3 -25 -3 6 -11 28 -16 184 -43 62 -10 125
-26 140 -34 l27 -14 -30 -1 c-17 0 -69 11 -115 24 -107 31 -179 43 -164 27 5
-6 71 -25 145 -41 74 -17 143 -34 154 -37 49 -17 -93 -21 -465 -16 -422 6
-499 2 -825 -43 -347 -48 -697 -125 -1345 -295 -571 -150 -735 -204 -1360
-451 -504 -198 -586 -235 -1015 -460 -581 -303 -856 -483 -1770 -1154 -571
-419 -529 -390 -521 -361 3 15 32 88 64 164 57 136 59 140 186 288 71 83 179
198 240 257 61 59 119 115 129 125 10 10 56 59 102 108 45 50 86 87 90 83 4
-4 2 -14 -5 -23 -14 -17 -5 -35 9 -19 4 5 52 61 106 124 148 174 185 210 185
181 0 -5 -27 -40 -59 -80 -57 -67 -199 -252 -215 -278 -19 -33 10 -2 119 122
116 133 278 295 295 295 5 0 4 -14 -2 -31 -14 -40 -4 -48 18 -12 38 60 122
136 94 84 -17 -33 -12 -46 10 -26 33 30 66 88 52 93 -19 6 -14 24 15 54 31 33
48 37 33 8 -20 -37 -2 -20 79 75 83 96 126 133 115 98 -3 -10 41 32 98 92 142
152 287 295 299 295 22 0 -41 -88 -151 -210 -63 -71 -123 -144 -133 -162 -17
-30 -15 -29 25 13 23 25 60 66 81 92 21 26 69 72 108 103 39 31 68 61 66 67
-9 24 100 151 161 189 62 38 44 9 -49 -82 -111 -108 -92 -104 38 7 106 91 187
151 182 135 -2 -6 -87 -97 -188 -202 -101 -105 -180 -194 -177 -198 4 -3 51
40 104 96 53 56 103 102 111 102 22 0 291 241 291 262 0 13 -23 9 -65 -12 -21
-11 -40 -18 -42 -16 -6 6 76 76 89 76 6 0 19 -7 29 -16 16 -15 20 -14 46 1 15
10 47 41 70 70 23 29 56 57 73 63 45 16 39 -5 -16 -58 -25 -25 -52 -57 -60
-72 -8 -15 -40 -48 -71 -74 -56 -45 -89 -81 -81 -89 2 -2 51 39 108 91 58 52
130 114 161 137 31 23 69 59 85 80 30 40 110 95 121 83 4 -4 -43 -55 -103
-114 -121 -118 -143 -142 -125 -142 6 0 43 32 82 70 66 64 89 81 89 63 0 -3
-42 -46 -92 -94 -51 -48 -89 -88 -85 -89 4 0 52 42 106 93 106 99 161 138 161
114 0 -8 -9 -22 -21 -33 -11 -10 -25 -27 -30 -36 -19 -35 19 -7 71 53 28 32
58 59 66 59 30 0 79 34 162 112 88 83 159 126 177 107 10 -11 -13 -33 -104
-101 -24 -18 -60 -59 -80 -90 -20 -31 -65 -94 -100 -140 -69 -89 -120 -183
-107 -195 5 -4 10 -3 13 3 13 36 90 151 159 239 45 56 85 112 88 123 8 25 62
72 82 72 16 0 16 -2 5 -52 -12 -50 -3 -45 108 65 66 65 95 87 115 87 14 0 26
-4 26 -8 0 -4 -38 -43 -85 -86 -47 -42 -85 -84 -85 -93 0 -9 32 15 76 56 91
85 127 96 62 19 -52 -61 -68 -89 -68 -116 0 -11 -23 -48 -51 -83 -58 -71 -109
-148 -109 -163 0 -19 44 31 101 116 32 47 77 101 100 120 23 18 84 72 136 121
99 91 133 116 133 97 0 -6 -38 -48 -84 -94 -66 -64 -84 -87 -80 -103 4 -15
-11 -42 -55 -97 -64 -80 -117 -164 -109 -171 9 -10 91 71 196 193 61 70 120
137 133 148 13 12 36 38 52 57 15 20 36 41 46 47 16 8 18 7 14 -10 -3 -11 -4
-20 -1 -20 2 0 30 20 63 45 59 44 150 83 163 70 9 -9 -129 -140 -263 -250
-146 -120 -265 -264 -251 -302 4 -10 35 23 95 104 96 129 192 224 280 278 31
19 75 57 99 85 42 49 105 90 137 90 27 0 -9 -49 -132 -181 -107 -115 -163
-199 -163 -243 0 -13 23 17 55 71 34 56 72 106 97 125 54 43 128 117 202 202
59 68 170 151 187 140 5 -3 -31 -51 -81 -107 -80 -91 -159 -211 -148 -223 3
-2 31 33 64 78 76 106 147 182 187 202 18 8 57 47 87 85 30 38 61 70 68 70 31
2 -9 -69 -92 -163 -83 -93 -126 -152 -126 -172 0 -15 48 36 137 147 69 85 126
139 148 139 18 0 18 -2 1 -42 -8 -18 -17 -44 -20 -58 -3 -14 -26 -49 -51 -79
-52 -60 -78 -106 -73 -127 2 -8 28 21 60 64 80 107 201 227 223 218 10 -3 15
-12 11 -21 -3 -8 -4 -15 -1 -15 2 0 42 46 89 103 46 56 111 127 143 158 86 83
163 130 163 100z m-386 -47 c12 -31 6 -54 -13 -54 -27 0 -54 39 -39 57 15 18
45 16 52 -3z m-136 -6 c18 -18 15 -43 -8 -63 -18 -16 -22 -17 -35 -4 -14 14
-18 31 -16 62 1 20 40 24 59 5z m-117 -96 c-12 -21 -81 -89 -81 -79 0 18 41
87 57 96 23 13 35 4 24 -17z m2413 -16 c10 -20 15 -40 11 -44 -10 -10 -55 46
-55 69 0 31 22 18 44 -25z m-2200 6 c8 -13 -5 -25 -63 -60 -59 -36 -72 -36
-47 3 28 42 97 78 110 57z m-964 -382 c-6 -11 -14 -20 -18 -20 -4 0 -26 -24
-47 -52 -53 -71 -115 -138 -127 -138 -5 0 0 13 11 29 12 16 21 38 21 48 0 27
134 153 163 153 4 0 3 -9 -3 -20z m-180 -36 c-50 -50 -173 -154 -184 -154 -11
0 52 87 90 125 36 36 98 74 124 75 8 0 -6 -20 -30 -46z m-486 -28 c-7 -18 -54
-50 -61 -42 -6 5 47 55 59 56 4 0 5 -6 2 -14z m-829 -106 c-11 -18 -58 -37
-120 -50 -104 -20 -127 -29 -120 -51 5 -14 -5 -25 -42 -48 -51 -32 -73 -28
-73 14 0 31 11 38 27 15 18 -26 43 -15 43 20 0 15 9 35 20 45 11 10 17 21 15
25 -7 11 32 20 90 21 28 0 59 4 70 9 29 12 98 12 90 0z m-322 -66 c-6 -15 -54
-44 -73 -44 -14 0 -13 35 3 48 29 24 80 21 70 -4z m-533 -753 c0 -12 -55 -58
-92 -77 -47 -24 -31 4 28 48 50 39 64 45 64 29z m-1439 -1336 c-23 -31 -51
-80 -60 -109 -23 -66 -55 -129 -74 -144 -18 -15 67 200 95 243 23 33 70 76 77
70 2 -3 -15 -30 -38 -60z"/>
<path d="M8075 3953 c-93 -19 -174 -39 -180 -45 -7 -7 -1 -8 20 -3 17 4 102
22 189 39 88 18 155 35 150 38 -5 3 -85 -10 -179 -29z"/>
<path d="M7286 3320 c12 -69 36 -129 61 -154 35 -35 54 -33 21 2 -14 15 -36
59 -48 97 -25 79 -44 108 -34 55z"/>
<path d="M7520 3131 c0 -18 43 -61 61 -61 17 0 14 5 -15 35 -36 36 -46 42 -46
26z"/>
<path d="M4407 3363 c-4 -3 -7 -19 -7 -35 0 -21 5 -28 20 -28 26 0 35 22 20
49 -11 22 -22 26 -33 14z"/>
<path d="M4060 3073 c-41 -2 -79 -9 -85 -15 -11 -12 166 -2 213 12 30 9 20 9
-128 3z"/>
<path d="M3800 3053 c-25 -3 -49 -9 -55 -15 -7 -7 2 -9 30 -4 22 3 57 6 78 6
23 0 36 4 32 10 -3 6 -14 9 -23 8 -9 -1 -37 -3 -62 -5z"/>
<path d="M3395 2980 c-24 -25 -62 -49 -104 -65 -36 -13 -184 -90 -331 -169
-146 -80 -302 -162 -347 -182 -46 -20 -83 -41 -83 -46 0 -5 17 0 38 11 20 11
80 39 132 61 52 23 150 70 217 106 67 35 143 71 170 80 26 8 104 47 173 84 71
40 154 77 193 87 37 10 67 23 67 29 0 7 17 15 37 19 55 10 22 25 -57 25 -64 0
-67 -1 -105 -40z"/>
<path d="M4267 3356 c-52 -55 -94 -126 -74 -126 8 0 26 9 41 21 22 18 25 24
14 36 -10 13 -5 22 35 55 26 22 47 44 47 49 0 20 -23 7 -63 -35z"/>
<path d="M5059 2982 c-97 -98 -144 -162 -137 -184 2 -6 33 26 68 73 34 46 88
110 118 141 31 32 54 60 51 63 -3 2 -48 -39 -100 -93z"/>
<path d="M5769 3013 c-53 -69 -82 -113 -77 -118 4 -4 40 40 112 138 16 20 24
37 19 37 -6 0 -30 -26 -54 -57z"/>
<path d="M5167 2957 c-52 -50 -94 -113 -84 -124 3 -2 34 30 69 72 98 120 104
139 15 52z"/>
<path d="M5853 2987 c-29 -31 -45 -66 -37 -78 3 -6 20 13 36 41 32 57 33 72 1
37z"/>
<path d="M4905 2866 c-15 -25 -25 -53 -22 -63 3 -12 13 1 31 40 34 71 28 86
-9 23z"/>
<path d="M5193 2842 c-18 -26 -33 -53 -33 -60 0 -25 20 -11 40 27 11 22 24 42
30 46 12 7 14 35 3 35 -5 0 -23 -21 -40 -48z"/>
<path d="M5340 2838 c-22 -36 -17 -54 7 -23 26 36 34 55 23 55 -6 0 -19 -14
-30 -32z"/>
<path d="M5094 2822 c-14 -9 -47 -72 -41 -79 7 -7 59 65 55 76 -1 6 -8 7 -14
3z"/>
<path d="M4771 2710 c-39 -40 -44 -76 -5 -39 28 26 48 58 41 65 -2 3 -19 -9
-36 -26z"/>
<path d="M4642 2704 c-29 -23 -69 -81 -60 -89 2 -1 29 24 60 56 59 60 59 79 0
33z"/>
<path d="M4523 2705 c-21 -15 -58 -83 -50 -91 3 -3 21 18 42 46 40 54 42 69 8
45z"/>
<path d="M4082 2617 c-50 -59 -110 -162 -100 -172 3 -3 28 32 55 77 28 46 65
96 82 112 30 29 39 47 24 45 -5 0 -32 -28 -61 -62z"/>
<path d="M4274 2616 c-24 -24 -44 -52 -44 -62 1 -14 11 -8 41 26 74 83 76 110
3 36z"/>
<path d="M3183 2518 c-27 -29 -68 -78 -91 -110 -22 -31 -93 -111 -157 -177
-63 -67 -115 -125 -115 -129 0 -4 40 34 88 84 48 50 96 97 108 105 11 8 47 50
79 94 32 44 81 104 109 133 27 28 45 52 40 52 -6 0 -33 -24 -61 -52z"/>
<path d="M3451 2519 c-16 -20 -29 -28 -41 -24 -14 5 -32 -14 -82 -85 -80 -115
-101 -150 -96 -155 2 -3 32 34 67 80 59 79 112 136 63 67 -13 -17 -30 -48 -38
-68 -15 -35 -15 -37 0 -25 9 8 39 51 66 96 27 45 57 88 65 95 20 16 39 50 28
49 -4 0 -19 -14 -32 -30z"/>
<path d="M2949 2368 c-92 -62 -139 -113 -139 -150 0 -14 15 -1 46 41 25 34 71
79 102 101 79 54 98 69 91 70 -4 0 -48 -28 -100 -62z"/>
<path d="M2793 2318 c-32 -36 -53 -71 -53 -88 1 -17 52 39 76 83 18 33 5 36
-23 5z"/>
<path d="M2664 2256 c-44 -40 -77 -76 -74 -79 3 -3 41 28 84 69 44 41 77 76
74 79 -3 3 -41 -28 -84 -69z"/>
<path d="M3622 2299 c-18 -17 -32 -41 -32 -53 1 -18 7 -14 40 24 22 25 40 48
40 53 0 15 -17 6 -48 -24z"/>
<path d="M3457 2252 c-34 -35 -47 -62 -29 -62 4 0 26 23 50 50 50 58 34 68
-21 12z"/>
<path d="M3307 2201 c-26 -31 -35 -61 -19 -61 12 0 54 68 50 81 -2 7 -16 -2
-31 -20z"/>
<path d="M3107 2151 c-26 -28 -47 -59 -47 -71 0 -31 18 -24 40 18 11 20 30 49
42 64 38 49 13 40 -35 -11z"/>
<path d="M2362 2045 c-42 -44 -63 -76 -68 -100 -3 -20 -4 -38 -2 -40 3 -3 42
36 88 87 75 81 80 107 8 40 -44 -41 -32 -12 14 35 23 24 37 43 31 43 -6 0 -38
-29 -71 -65z"/>
<path d="M2549 2063 c-20 -21 -88 -99 -152 -173 -63 -74 -139 -161 -167 -192
-32 -36 -46 -58 -37 -58 9 0 25 13 36 28 11 16 101 114 200 218 100 104 181
195 181 202 0 23 -26 12 -61 -25z"/>
<path d="M2657 2080 c-28 -22 -72 -88 -64 -96 6 -6 97 95 97 107 0 13 -4 11
-33 -11z"/>
<path d="M2893 2044 c-20 -8 -156 -165 -149 -171 4 -4 35 24 69 62 62 69 101
116 95 114 -2 0 -8 -3 -15 -5z"/>
<path d="M2662 1944 c-67 -70 -119 -141 -110 -150 3 -3 27 23 53 58 27 35 69
84 94 111 25 26 41 47 36 47 -5 0 -38 -30 -73 -66z"/>
<path d="M2167 1879 c-58 -59 -102 -112 -115 -141 -39 -85 -23 -83 28 3 32 55
75 107 122 151 39 38 69 71 65 74 -3 3 -48 -36 -100 -87z"/>
<path d="M2498 1893 c-31 -33 -88 -122 -88 -137 0 -6 16 7 35 29 39 45 95 121
95 129 0 13 -18 4 -42 -21z"/>
<path d="M1958 1722 c-50 -53 -86 -109 -54 -82 20 16 110 130 103 130 -2 0
-25 -22 -49 -48z"/>
<path d="M1765 1708 c-55 -50 -225 -242 -268 -302 -40 -57 1 -19 74 66 41 49
116 133 168 188 51 55 91 100 88 100 -3 0 -31 -23 -62 -52z"/>
<path d="M1827 1648 c-106 -119 -282 -331 -290 -351 -13 -34 10 -15 50 41 22
31 90 113 149 182 121 139 178 210 171 210 -3 0 -39 -37 -80 -82z"/>
<path d="M2030 1605 c-23 -31 -40 -61 -38 -66 2 -6 23 17 47 51 55 77 47 91
-9 15z"/>
<path d="M1813 1547 c-51 -55 -183 -251 -183 -272 0 -27 16 -16 40 28 13 23
61 97 106 165 46 67 82 122 80 122 -2 0 -21 -19 -43 -43z"/>
<path d="M1206 1248 c-89 -112 -134 -176 -113 -159 24 19 189 232 184 238 -3
2 -35 -33 -71 -79z"/>
<path d="M1224 1156 c-39 -47 -88 -136 -75 -136 6 0 18 12 27 28 10 15 33 51
52 80 41 60 38 79 -4 28z"/>
<path d="M986 949 c-27 -40 -43 -70 -36 -67 19 6 93 113 89 127 -2 6 -26 -21
-53 -60z"/>
<path d="M760 938 c-42 -50 -175 -239 -214 -305 -38 -66 125 151 263 347 28
40 3 18 -49 -42z"/>
<path d="M863 948 c-42 -47 -108 -138 -98 -138 3 0 20 16 37 36 37 41 111 144
105 144 -3 0 -22 -19 -44 -42z"/>
<path d="M442 585 c-72 -81 -188 -277 -176 -297 4 -5 31 36 62 93 30 57 77
129 103 162 43 51 58 77 45 77 -2 0 -18 -16 -34 -35z"/>
<path d="M11165 8150 c-26 -11 70 -11 105 0 19 6 12 8 -30 8 -30 0 -64 -3 -75
-8z"/>
<path d="M11000 8033 c-65 -7 -140 -24 -140 -33 0 -4 8 -6 18 -4 9 3 62 8 116
12 65 5 101 11 104 20 4 12 -19 13 -98 5z"/>
<path d="M10877 7935 c-59 -6 -110 -15 -114 -19 -4 -4 15 -5 42 -2 28 4 95 11
149 16 102 11 141 21 70 19 -21 -1 -87 -7 -147 -14z"/>
<path d="M10438 7831 c-87 -9 -76 -16 20 -13 104 4 182 21 92 20 -30 -1 -81
-4 -112 -7z"/>
<path d="M10011 7795 c-186 -48 -177 -51 64 -20 105 14 197 25 205 25 13 0 13
1 0 10 -28 18 -171 10 -269 -15z"/>
<path d="M9745 7715 l-30 -15 35 6 c19 4 42 10 50 15 27 15 -22 10 -55 -6z"/>
<path d="M10224 7639 c-5 -8 102 -19 189 -19 45 0 67 4 62 9 -11 11 -245 20
-251 10z"/>
<path d="M9631 7549 c-113 -20 -253 -59 -235 -66 7 -2 56 7 110 21 55 14 137
32 183 40 47 9 87 18 89 21 9 9 -40 3 -147 -16z"/>
<path d="M10016 7509 c-32 -5 -61 -11 -64 -14 -14 -13 13 -15 89 -5 46 5 140
14 209 18 l125 9 -150 0 c-82 0 -177 -3 -209 -8z"/>
<path d="M9770 7388 c-74 -4 -153 -13 -175 -18 -32 -8 -23 -9 45 -5 47 3 149
8 228 12 78 3 142 10 142 15 0 9 -51 9 -240 -4z"/>
<path d="M9505 7275 c-153 -19 -294 -45 -301 -56 -3 -6 4 -8 18 -5 59 14 270
46 338 52 41 4 82 10 90 15 20 11 -8 10 -145 -6z"/>
<path d="M9810 7214 c-14 -2 -69 -6 -123 -10 -54 -3 -96 -8 -93 -11 9 -9 276
9 276 18 0 9 -9 9 -60 3z"/>
<path d="M8466 7101 c-53 -32 -106 -77 -106 -92 0 -16 8 -10 65 41 30 28 61
50 69 50 7 0 19 7 26 15 19 23 0 18 -54 -14z"/>
<path d="M8787 7083 c-27 -8 -46 -17 -44 -20 6 -5 117 25 117 32 0 8 -21 4
-73 -12z"/>
<path d="M9565 7064 c-251 -27 -387 -45 -408 -54 -20 -8 -19 -9 8 -9 17 -1 95
8 174 19 79 11 152 18 163 14 10 -3 24 -1 31 5 7 5 60 13 117 17 58 3 112 10
120 15 21 12 -62 9 -205 -7z"/>
<path d="M9890 7050 c0 -6 27 -10 60 -10 33 0 60 4 60 10 0 6 -27 10 -60 10
-33 0 -60 -4 -60 -10z"/>
<path d="M8975 6950 c-27 -7 -26 -8 15 -8 25 0 54 3 65 8 16 7 13 9 -15 8 -19
0 -48 -4 -65 -8z"/>
<path d="M9755 6930 c3 -5 24 -10 46 -10 24 0 38 4 34 10 -3 6 -24 10 -46 10
-24 0 -38 -4 -34 -10z"/>
<path d="M8683 6922 c-24 -2 -43 -8 -43 -13 0 -10 78 -3 89 7 8 7 -4 9 -46 6z"/>
<path d="M9300 6910 c-125 -17 -225 -37 -190 -39 26 -1 341 46 347 53 8 8 2 7
-157 -14z"/>
<path d="M8907 6835 c-90 -20 -130 -35 -96 -35 31 0 209 44 209 52 0 10 7 11
-113 -17z"/>
<path d="M9170 6743 c-55 -6 -401 -53 -437 -59 -18 -4 -31 -9 -28 -13 2 -4 71
3 152 16 81 12 208 29 281 37 73 8 136 17 139 20 7 6 -45 6 -107 -1z"/>
<path d="M9368 6651 c-59 -5 -89 -15 -77 -24 2 -2 51 1 109 7 65 7 98 14 87
19 -10 4 -26 6 -35 5 -9 0 -47 -4 -84 -7z"/>
<path d="M9078 6483 c-27 -2 -48 -8 -48 -14 0 -10 92 -12 127 -3 28 8 20 25
-10 22 -12 -1 -43 -3 -69 -5z"/>
<path d="M8953 6355 c5 -13 137 -19 150 -6 6 6 -19 11 -72 13 -51 2 -80 -1
-78 -7z"/>
<path d="M8501 6219 c-13 -5 -21 -12 -18 -15 9 -9 75 5 82 16 8 13 -32 12 -64
-1z"/>
<path d="M8660 6133 c0 -13 81 -23 188 -23 48 0 82 4 82 10 0 6 -31 10 -74 10
-40 0 -101 3 -135 6 -38 4 -61 3 -61 -3z"/>
<path d="M8344 5980 c-121 -17 -228 -39 -222 -46 5 -4 359 54 366 60 7 8 -3 7
-144 -14z"/>
<path d="M8631 5962 c-6 -2 -11 -8 -11 -13 0 -11 158 -11 185 1 l20 9 -20 2
c-29 4 -162 5 -174 1z"/>
<path d="M8100 5843 c-89 -13 -210 -56 -197 -69 10 -10 69 4 108 25 20 11 65
25 100 31 35 6 82 15 104 20 72 14 -10 10 -115 -7z"/>
<path d="M8540 5830 c20 -13 107 -13 115 0 4 6 -19 10 -62 10 -48 0 -63 -3
-53 -10z"/>
<path d="M8016 5734 c-38 -7 -74 -18 -80 -24 -5 -5 -7 -10 -4 -10 15 0 188 42
188 46 0 6 -30 3 -104 -12z"/>
<path d="M7761 5694 c-36 -46 -28 -55 31 -38 76 23 98 32 98 43 0 13 -26 21
-70 21 -30 0 -43 -6 -59 -26z"/>
<path d="M8485 5670 c102 -11 235 -11 210 0 -11 5 -78 8 -150 8 -114 -1 -121
-2 -60 -8z"/>
<path d="M8156 5631 c-27 -3 -51 -11 -53 -17 -3 -8 9 -9 39 -3 24 4 66 8 93 9
36 0 46 3 35 10 -16 10 -35 10 -114 1z"/>
<path d="M8175 5539 c-4 -6 -5 -11 -4 -12 2 -2 85 0 184 3 163 4 172 6 101 13
-117 11 -274 9 -281 -4z"/>
<path d="M7225 5457 c-14 -30 -41 -110 -60 -177 -19 -67 -39 -130 -45 -140
-13 -24 -13 -33 0 -28 12 4 142 389 135 397 -3 2 -16 -21 -30 -52z"/>
<path d="M7118 5385 c-14 -27 -46 -115 -72 -195 -25 -80 -55 -163 -66 -184
-24 -49 -20 -58 9 -17 29 41 49 89 81 201 15 52 39 124 54 158 33 79 28 105
-6 37z"/>
<path d="M8385 5240 c-8 -12 91 -12 120 0 14 6 0 9 -47 9 -37 1 -70 -3 -73 -9z"/>
<path d="M7855 5155 c-70 -9 -80 -12 -44 -14 69 -2 169 11 163 20 -3 5 -11 8
-17 8 -7 -1 -52 -7 -102 -14z"/>
<path d="M8413 5119 c12 -7 30 -8 55 -1 37 10 37 10 -18 11 -43 0 -51 -2 -37
-10z"/>
<path d="M7065 4897 c-16 -38 -20 -76 -8 -63 10 10 33 89 28 95 -3 2 -12 -12
-20 -32z"/>
<path d="M8030 4879 c290 -29 325 -31 309 -15 -11 11 -183 26 -284 25 l-110
-2 85 -8z"/>
<path d="M4648 4749 c-61 -73 -134 -147 -195 -198 -58 -47 -71 -73 -23 -44 38
22 280 266 280 281 0 24 -20 11 -62 -39z"/>
<path d="M7523 4750 c26 -20 31 -21 117 -11 64 8 101 8 132 1 24 -6 140 -13
258 -14 253 -4 190 7 -134 23 -116 6 -254 14 -306 17 l-95 6 28 -22z"/>
<path d="M7006 4674 c-24 -33 -81 -57 -119 -50 -20 4 -27 2 -25 -7 15 -44 178
19 178 69 0 21 -13 16 -34 -12z"/>
<path d="M6792 4671 c-92 -32 -79 -44 15 -14 29 9 53 20 53 25 0 11 -6 10 -68
-11z"/>
<path d="M6044 4648 c-60 -45 -104 -88 -91 -88 8 0 22 9 32 20 10 11 26 20 36
20 15 0 17 -5 13 -30 -4 -17 -1 -36 5 -44 9 -11 4 -20 -26 -45 -41 -34 -41
-53 0 -21 14 11 32 20 40 20 18 0 36 22 72 85 l28 50 -36 -34 c-32 -30 -57
-35 -57 -10 0 5 16 26 35 48 19 21 35 41 35 45 0 15 -60 4 -86 -16z"/>
<path d="M7665 4660 c43 -11 175 -11 150 0 -11 5 -56 8 -100 8 -57 0 -71 -3
-50 -8z"/>
<path d="M7980 4660 c0 -5 3 -10 8 -11 76 -6 212 -6 212 0 0 5 -34 11 -77 15
-106 9 -143 8 -143 -4z"/>
<path d="M6382 4622 c-46 -20 -79 -38 -73 -40 12 -4 159 57 167 69 8 14 -4 10
-94 -29z"/>
<path d="M8233 4644 c3 -3 47 -12 99 -19 51 -7 105 -16 121 -20 17 -5 27 -3
27 3 0 12 -19 16 -135 32 -81 11 -121 13 -112 4z"/>
<path d="M8075 4520 c46 -16 195 -24 172 -10 -10 6 -59 13 -110 16 -71 3 -85
2 -62 -6z"/>
<path d="M5609 4468 c-78 -56 -159 -132 -159 -149 0 -8 -13 -28 -30 -42 -27
-24 -39 -47 -25 -47 3 0 28 21 57 48 75 67 115 94 123 82 13 -21 36 -9 51 25
8 20 25 40 39 45 14 5 25 14 25 20 0 14 -6 13 -41 -6 -31 -15 -57 -10 -29 6
36 21 53 37 43 43 -6 4 -30 -8 -54 -25z"/>
<path d="M7420 4462 c0 -18 27 -32 136 -66 113 -35 215 -56 201 -40 -5 5 -32
16 -60 24 -40 12 -53 21 -55 38 -2 12 -9 22 -15 23 -54 3 -175 18 -189 24 -10
4 -18 3 -18 -3z"/>
<path d="M8174 4431 c3 -4 36 -11 73 -14 37 -3 122 -22 188 -42 137 -41 191
-43 70 -2 -133 44 -345 82 -331 58z"/>
<path d="M5663 4380 c-32 -19 -44 -40 -22 -40 17 0 68 32 73 47 8 19 -14 16
-51 -7z"/>
<path d="M7977 4389 c6 -6 45 -13 85 -15 56 -3 65 -2 38 5 -68 17 -135 22
-123 10z"/>
<path d="M5730 4358 c-34 -16 -40 -22 -25 -25 11 -2 43 8 70 22 40 19 45 24
25 24 -14 1 -45 -9 -70 -21z"/>
<path d="M4708 4363 c-24 -6 -23 -23 2 -23 11 0 20 -3 20 -6 0 -18 -25 -45
-65 -68 -41 -25 -58 -46 -36 -46 11 0 123 84 141 105 27 32 -6 53 -62 38z"/>
<path d="M5250 4279 c-6 -11 -9 -30 -7 -42 3 -19 6 -17 20 15 20 43 20 48 7
48 -5 0 -14 -9 -20 -21z"/>
<path d="M3965 4255 c-38 -13 -95 -27 -125 -30 -88 -12 -124 -55 -45 -55 31 0
55 -7 74 -21 41 -30 107 -23 134 14 16 21 18 30 9 39 -19 19 -14 28 23 44 20
8 33 19 30 24 -8 13 -19 12 -100 -15z m5 -80 c-21 -25 -100 -12 -100 15 0 15
26 12 40 -5 19 -22 35 -18 50 13 11 22 14 24 18 9 2 -10 -2 -24 -8 -32z"/>
<path d="M4226 4261 c-17 -19 -17 -22 -1 -65 15 -39 20 -44 36 -35 52 28 51
119 -1 119 -9 0 -25 -9 -34 -19z"/>
<path d="M5136 4207 c-9 -18 -28 -51 -42 -75 -20 -32 -24 -50 -19 -70 7 -25 9
-22 25 31 11 36 28 65 44 78 25 20 34 53 18 63 -5 3 -16 -9 -26 -27z"/>
<path d="M6237 4214 c-3 -20 1 -32 17 -45 19 -16 20 -18 4 -24 -24 -10 -23
-25 2 -25 28 0 25 -17 -7 -33 -26 -14 -26 -15 -5 -21 27 -9 27 -16 2 -49 -11
-14 -20 -33 -20 -42 0 -9 -9 -30 -21 -47 -26 -36 -20 -45 13 -19 69 54 107
237 62 297 -28 38 -41 40 -47 8z"/>
<path d="M8610 4234 c0 -7 58 -30 95 -38 26 -5 27 -5 11 5 -24 15 -106 40
-106 33z"/>
<path d="M4371 4175 c-30 -35 -39 -55 -23 -55 4 0 25 20 45 45 46 54 25 63
-22 10z"/>
<path d="M4445 4180 c-18 -20 -15 -38 4 -25 15 9 33 45 23 45 -5 0 -17 -9 -27
-20z"/>
<path d="M5065 4170 c-16 -16 -25 -33 -21 -37 8 -8 56 41 56 58 0 14 -4 12
-35 -21z"/>
<path d="M5177 4183 c-19 -22 -32 -88 -19 -97 5 -3 16 13 24 37 9 23 19 50 23
60 4 9 3 17 -2 17 -6 0 -17 -8 -26 -17z"/>
<path d="M7280 4179 c0 -10 33 -29 51 -29 9 0 9 3 0 14 -14 17 -51 28 -51 15z"/>
<path d="M4971 4151 c-31 -29 -40 -51 -21 -51 15 0 60 50 60 66 0 19 -4 18
-39 -15z"/>
<path d="M3485 4106 c-76 -21 -125 -43 -125 -57 0 -10 80 6 147 30 34 11 70
21 79 21 19 0 13 24 -7 27 -8 1 -50 -8 -94 -21z"/>
<path d="M4855 4095 c-20 -20 -34 -40 -30 -43 3 -3 22 11 42 31 21 20 34 39
31 42 -3 4 -22 -10 -43 -30z"/>
<path d="M6915 4097 c-9 -22 1 -61 21 -81 20 -21 38 -21 30 0 -3 9 -6 24 -6
34 0 10 -9 28 -19 41 -18 22 -20 22 -26 6z"/>
<path d="M6840 4072 c0 -25 36 -89 46 -80 2 2 -3 26 -9 53 -15 56 -37 73 -37
27z"/>
<path d="M4312 4057 c-18 -18 -32 -39 -32 -46 0 -23 34 -6 57 28 40 59 25 70
-25 18z"/>
<path d="M7010 4061 c0 -26 38 -71 60 -71 17 0 17 4 -7 45 -25 46 -53 60 -53
26z"/>
<path d="M5788 4007 c-33 -51 -57 -74 -105 -102 -72 -42 -92 -63 -39 -41 70
29 121 73 159 137 20 34 35 64 33 67 -3 2 -24 -25 -48 -61z"/>
<path d="M4169 4003 c-50 -48 -73 -83 -54 -83 3 0 37 32 76 70 84 84 65 96
-22 13z"/>
<path d="M6048 4053 c-10 -2 -18 -11 -18 -18 0 -11 7 -12 32 -4 43 12 60 29
28 28 -14 -1 -33 -3 -42 -6z"/>
<path d="M6741 4014 c-13 -25 -20 -48 -17 -52 10 -9 43 30 50 60 10 45 -9 40
-33 -8z"/>
<path d="M7130 4031 c0 -18 48 -66 57 -57 2 2 -3 20 -11 40 -16 38 -46 49 -46
17z"/>
<path d="M4456 3985 c-27 -7 -56 -21 -63 -31 -20 -27 -8 -29 32 -5 20 11 47
21 59 21 13 0 29 7 36 15 16 19 5 19 -64 0z"/>
<path d="M4567 3993 c-14 -13 -6 -33 13 -33 13 0 20 7 20 20 0 19 -20 27 -33
13z"/>
<path d="M5625 3935 c-27 -25 -46 -48 -42 -51 4 -4 14 -1 22 6 19 16 79 90 72
90 -2 0 -26 -20 -52 -45z"/>
<path d="M6587 3932 c-27 -28 -35 -52 -18 -52 11 0 61 58 61 71 0 16 -16 10
-43 -19z"/>
<path d="M5215 3920 c-19 -20 -24 -30 -14 -30 21 0 59 29 59 46 0 22 -13 17
-45 -16z"/>
<path d="M6974 3936 c-10 -8 -16 -18 -12 -22 10 -9 58 12 58 26 0 14 -23 12
-46 -4z"/>
<path d="M6782 3886 c-32 -30 -35 -36 -19 -41 20 -8 87 38 87 61 0 24 -28 16
-68 -20z"/>
<path d="M6402 3865 c-37 -42 -59 -85 -44 -85 4 0 22 9 39 20 22 13 31 24 26
35 -3 10 5 27 23 46 21 22 24 29 12 29 -9 0 -34 -20 -56 -45z"/>
<path d="M7013 3894 c-49 -24 -107 -78 -101 -94 3 -11 10 -9 29 11 13 14 43
38 67 54 23 15 42 32 42 36 0 11 1 11 -37 -7z"/>
<path d="M7107 3885 l-28 -25 30 0 c38 0 40 -17 4 -31 -58 -20 -60 -22 -40
-26 10 -3 38 4 62 14 39 16 43 21 38 43 -6 27 -21 50 -32 50 -3 0 -19 -12 -34
-25z"/>
<path d="M6684 3881 c-30 -19 -64 -57 -64 -73 0 -20 30 -3 75 42 50 51 45 65
-11 31z"/>
<path d="M7206 3874 c-4 -9 3 -37 15 -61 20 -40 20 -45 5 -68 -9 -13 -16 -35
-16 -47 l0 -23 20 25 c11 14 20 30 20 36 0 6 10 23 21 38 12 15 20 28 18 30
-2 2 -14 8 -26 15 -12 6 -23 23 -25 38 -4 31 -23 41 -32 17z"/>
<path d="M6582 3855 c-86 -49 -125 -85 -92 -85 14 0 149 93 150 103 0 12 -13
8 -58 -18z"/>
<path d="M6065 3808 c-33 -17 -105 -89 -150 -150 -24 -32 -57 -70 -74 -84 -40
-33 -54 -59 -46 -84 12 -37 45 -18 45 26 0 17 140 193 186 235 16 14 39 33 52
41 27 18 16 31 -13 16z"/>
<path d="M6250 3779 c-60 -32 -80 -53 -80 -81 0 -28 16 -21 40 16 12 20 40 44
65 56 25 12 43 26 39 31 -6 11 1 14 -64 -22z"/>
<path d="M6100 3733 c-58 -48 -97 -99 -85 -111 4 -4 17 7 31 23 32 40 42 51
88 89 22 18 35 35 30 38 -5 3 -34 -15 -64 -39z"/>
<path d="M5871 3739 c-32 -39 -96 -105 -139 -142 -18 -16 -32 -38 -32 -50 0
-12 -12 -31 -27 -44 -20 -16 -24 -22 -12 -23 27 0 69 39 69 65 0 16 14 35 42
57 60 48 148 144 148 162 0 16 -25 3 -49 -25z"/>
<path d="M7007 3658 c-52 -37 -62 -54 -19 -36 39 17 82 48 82 59 0 15 -14 10
-63 -23z"/>
<path d="M7123 3600 c-30 -18 -44 -40 -25 -40 12 0 78 59 67 60 -5 0 -25 -9
-42 -20z"/>
<path d="M6701 3519 c-67 -13 -64 -22 6 -16 67 5 124 27 68 26 -16 -1 -50 -5
-74 -10z"/>
<path d="M6286 3488 c7 -11 95 -10 113 1 8 5 -12 8 -52 8 -36 0 -64 -4 -61 -9z"/>
<path d="M6240 3432 c0 -20 93 -31 105 -12 4 6 -7 10 -27 10 -18 0 -43 3 -55
6 -13 4 -23 2 -23 -4z"/>
</g>
</svg>
