<?xml version="1.0" standalone="no"?>
<!DOCTYPE svg PUBLIC "-//W3C//DTD SVG 20010904//EN"
 "http://www.w3.org/TR/2001/REC-SVG-20010904/DTD/svg10.dtd">
<svg version="1.0" xmlns="http://www.w3.org/2000/svg"
 width="1280.000000pt" height="640.000000pt" viewBox="0 0 1280.000000 640.000000"
 preserveAspectRatio="xMidYMid meet">
<metadata>
Created by potrace 1.15, written by Peter Selinger 2001-2017
</metadata>
<g transform="translate(0.000000,640.000000) scale(0.100000,-0.100000)"
fill="#000000" stroke="none">
<path d="M10078 4576 c-9 -8 -18 -44 -22 -87 -6 -72 -23 -124 -40 -124 -18 0
-26 60 -20 133 l6 72 -44 0 -45 0 -16 -96 c-9 -53 -18 -99 -21 -101 -3 -3 -12
-3 -21 1 -13 5 -14 20 -9 101 l7 96 -59 -3 -59 -3 -8 -50 c-4 -27 -10 -64 -13
-81 -4 -26 -10 -33 -34 -36 -17 -3 -32 -2 -35 0 -3 3 -5 38 -5 77 0 87 -15
109 -57 85 -20 -12 -30 -30 -42 -80 -13 -54 -20 -66 -38 -68 -21 -3 -23 1 -23
36 0 22 -3 60 -6 86 -7 50 -16 55 -71 36 -28 -10 -31 -16 -37 -71 -12 -123
-46 -129 -46 -8 l0 79 -44 0 c-57 0 -76 -24 -76 -95 0 -104 -37 -100 -42 5
l-3 65 -34 -2 c-42 -2 -51 -15 -51 -78 0 -55 -11 -81 -30 -70 -8 5 -11 31 -8
79 l3 71 -40 0 c-37 0 -41 -3 -52 -35 -7 -19 -12 -54 -12 -76 -1 -49 -24 -76
-39 -47 -6 12 -6 39 1 76 13 74 5 85 -55 66 -42 -14 -43 -15 -58 -81 -17 -76
-31 -96 -49 -75 -11 14 -5 62 15 130 5 15 -2 17 -55 17 -69 0 -75 -5 -86 -88
-5 -36 -13 -55 -25 -62 -27 -14 -33 2 -26 63 9 72 -5 89 -78 95 -37 3 -56 1
-56 -7 0 -6 7 -11 15 -11 18 0 19 -21 5 -72 -11 -38 -46 -72 -63 -61 -5 3 -7
37 -5 77 l3 71 -45 -3 c-25 -2 -48 -7 -52 -11 -4 -3 -14 -37 -21 -74 -16 -73
-30 -97 -58 -97 -16 0 -18 9 -16 88 l2 87 -48 3 c-27 2 -55 -2 -62 -8 -8 -6
-17 -37 -21 -67 -5 -42 -13 -63 -32 -80 -47 -44 -53 -32 -38 75 l13 82 -53 0
c-29 0 -56 -5 -60 -11 -3 -6 -10 -45 -15 -87 -9 -79 -26 -109 -54 -98 -15 5
-16 17 -10 91 l7 85 -34 0 c-39 0 -78 -33 -78 -66 0 -40 -22 -94 -42 -105 -21
-11 -21 -10 -14 64 7 80 3 87 -47 87 -36 0 -47 -13 -70 -81 -22 -64 -49 -87
-68 -57 -6 9 -9 5 -9 -14 0 -24 4 -28 30 -28 38 0 38 -14 0 -64 -17 -22 -30
-48 -30 -58 0 -17 -3 -17 -32 -5 -18 8 -50 17 -70 21 -21 4 -40 11 -43 16 -3
5 15 23 40 40 25 17 45 32 45 34 0 1 5 29 11 62 18 99 58 141 60 62 0 -33 2
-38 9 -23 5 11 9 35 9 53 1 30 -1 32 -33 32 -40 0 -60 -22 -77 -85 -13 -47
-26 -65 -46 -65 -11 0 -13 7 -9 25 4 14 9 45 13 70 l6 45 -39 0 c-68 0 -87
-17 -106 -94 -17 -70 -28 -86 -61 -86 -17 0 -19 7 -15 73 l3 72 -33 -1 c-51
-3 -78 -27 -91 -81 -14 -54 -36 -83 -63 -83 -16 0 -18 9 -18 81 l0 82 -36 -6
c-48 -8 -60 -20 -74 -75 -12 -50 -34 -82 -57 -82 -16 0 -17 28 -3 66 15 39 -4
57 -49 49 -46 -8 -53 -16 -71 -73 -10 -30 -24 -51 -39 -59 -35 -17 -41 -9 -41
53 0 48 -2 54 -20 54 -40 0 -78 -28 -90 -67 -14 -43 -37 -73 -56 -73 -10 0
-13 16 -11 63 2 61 1 62 -25 65 -39 5 -64 -13 -72 -50 -9 -45 -33 -78 -57 -78
-19 0 -20 4 -14 51 8 57 0 69 -47 69 -36 0 -58 -25 -58 -66 0 -43 -31 -76 -68
-72 -26 3 -27 5 -24 56 3 46 1 52 -16 52 -35 0 -92 -30 -101 -53 -5 -12 -15
-37 -21 -55 -7 -18 -22 -38 -33 -43 -18 -10 -19 -9 -13 22 3 19 9 52 12 73 l7
39 -44 -7 c-57 -9 -85 -28 -94 -63 -9 -37 -23 -53 -46 -53 -21 0 -23 11 -10
57 12 41 3 47 -48 33 -29 -7 -46 -20 -62 -46 -12 -19 -33 -40 -46 -45 -24 -9
-113 -13 -113 -5 0 2 9 25 19 49 11 25 17 48 14 51 -9 9 -96 7 -108 -2 -6 -4
-23 -28 -38 -53 -22 -38 -33 -47 -62 -52 -59 -10 -68 -1 -45 44 34 65 25 79
-51 79 -39 0 -41 -2 -64 -54 -24 -54 -38 -66 -79 -66 -34 0 -37 9 -16 51 33
63 24 79 -44 79 -42 0 -62 -17 -70 -59 -8 -44 -32 -71 -63 -71 -35 0 -38 24
-10 79 14 27 23 51 20 55 -4 3 -32 6 -64 6 l-58 0 -28 -57 c-28 -59 -52 -75
-78 -53 -12 10 -11 19 5 60 24 60 12 83 -40 78 -30 -3 -35 -8 -49 -48 -21 -60
-28 -70 -52 -70 -33 0 -34 30 -3 87 24 46 27 55 14 63 -45 28 -86 4 -130 -77
-15 -26 -31 -43 -42 -43 -24 0 -23 30 3 81 27 53 20 69 -30 69 -45 0 -59 -15
-80 -82 -15 -45 -34 -62 -61 -53 -27 9 -25 28 7 86 33 58 25 75 -31 65 -31 -6
-40 -15 -68 -69 -32 -60 -59 -80 -80 -59 -7 7 -1 31 17 71 16 34 25 64 22 67
-3 3 -22 6 -42 7 -41 1 -63 -17 -98 -83 -18 -34 -29 -45 -48 -45 -29 0 -30 19
-3 87 22 57 14 70 -42 72 -36 1 -39 -1 -44 -34 -11 -59 -37 -100 -65 -100 -31
0 -32 21 -4 85 18 40 19 49 7 61 -19 19 -88 0 -88 -24 -1 -31 -39 -102 -55
-102 -27 0 -29 31 -4 77 24 44 24 45 5 59 -11 8 -32 14 -46 14 -22 0 -29 -6
-38 -37 -24 -77 -68 -124 -87 -93 -3 5 6 32 21 60 31 59 27 80 -16 80 -24 0
-35 -7 -48 -31 -31 -56 -53 -79 -76 -79 -33 0 -36 7 -19 54 20 54 13 76 -25
76 -32 0 -52 -19 -72 -68 -13 -34 -43 -57 -60 -47 -17 10 -11 37 17 77 24 36
25 40 11 55 -28 27 -64 8 -104 -52 -51 -76 -75 -70 -38 9 20 41 13 66 -18 66
-31 0 -42 -9 -57 -47 -14 -35 -48 -70 -57 -60 -4 3 1 25 10 48 20 49 13 60
-35 62 -28 2 -35 -3 -47 -28 -24 -53 -28 -60 -56 -73 -37 -19 -42 -9 -21 37
20 46 14 61 -24 61 -30 0 -50 -17 -75 -67 -16 -32 -44 -47 -33 -19 3 8 9 31
13 51 l6 36 -43 -3 c-40 -3 -46 -7 -63 -41 -18 -38 -61 -75 -73 -63 -4 4 -1
23 6 42 15 43 6 57 -35 52 -22 -2 -30 -11 -42 -46 -7 -23 -23 -47 -34 -53 -19
-10 -20 -9 -13 41 l7 51 -33 -3 c-28 -2 -38 -10 -54 -40 -23 -44 -39 -51 -24
-11 24 63 -43 45 -83 -23 -11 -19 -21 -34 -23 -34 -2 0 -1 16 2 35 7 41 -10
52 -54 38 -20 -7 -29 -18 -34 -41 -8 -38 -26 -62 -46 -62 -14 0 -13 11 4 57 3
7 -2 16 -11 19 -30 12 -62 -5 -81 -43 l-19 -38 -4 28 c-3 22 -8 27 -30 27 -38
0 -54 -13 -66 -52 -8 -23 -18 -34 -34 -36 -21 -3 -22 -1 -13 17 18 33 13 41
-24 41 -44 0 -75 -29 -75 -70 0 -16 -4 -30 -10 -30 -5 0 -10 9 -10 20 0 26
-22 35 -49 21 -13 -7 -21 -24 -23 -49 l-4 -37 -12 28 c-12 29 -31 34 -62 17
-15 -8 -18 -17 -13 -40 7 -37 -14 -41 -23 -5 -3 14 -9 25 -14 25 -13 0 -40
-36 -40 -55 0 -17 -1 -17 -19 -1 -19 17 -20 17 -30 -3 -6 -11 -11 -30 -11 -43
l0 -22 -16 22 c-12 18 -19 20 -35 11 -16 -8 -19 -16 -13 -47 l7 -37 -26 24
c-33 30 -62 22 -53 -14 7 -27 4 -30 -23 -15 -14 7 -26 3 -51 -20 -27 -24 -32
-34 -28 -64 l4 -36 -22 21 c-14 13 -29 19 -42 15 -10 -4 -36 1 -58 10 -63 27
-125 15 -260 -48 -65 -31 -212 -86 -325 -122 -119 -38 -213 -73 -222 -84 -19
-21 -22 -73 -7 -102 32 -60 379 -96 630 -66 171 22 220 41 430 171 30 19 67
37 82 40 15 4 32 12 38 20 9 11 0 17 -47 30 -79 22 -108 42 -92 61 6 8 20 14
30 14 10 0 21 4 24 10 3 5 15 10 25 10 11 0 24 9 30 20 6 11 15 20 20 20 5 0
32 14 59 30 27 17 56 28 64 24 10 -3 20 2 27 16 9 17 17 20 46 14 30 -6 36 -4
41 15 6 25 12 26 40 6 20 -14 23 -14 33 6 10 17 18 20 45 16 23 -4 38 -1 46 9
15 18 49 18 73 -1 37 -28 82 -11 56 20 -10 12 -9 15 9 15 12 0 30 -5 40 -12
22 -13 51 3 51 29 0 17 35 9 61 -13 8 -8 28 -14 43 -14 23 0 27 4 23 20 -7 25
7 34 23 15 17 -21 40 -19 67 7 l24 22 6 -22 c9 -34 46 -28 77 13 32 42 51 44
68 8 20 -42 46 -41 63 1 19 44 30 45 50 6 20 -38 56 -40 87 -5 24 27 39 31 69
14 20 -10 20 -11 2 -24 -17 -13 -16 -14 12 -15 17 0 47 8 67 19 37 18 58 13
58 -15 0 -7 5 -16 11 -19 11 -7 74 19 84 35 12 20 35 10 35 -15 0 -19 10 -29
39 -45 l40 -20 3 32 c4 40 25 48 38 14 10 -28 61 -48 68 -27 2 6 11 19 20 28
16 16 17 14 20 -20 2 -27 11 -42 32 -57 l29 -20 15 22 c9 12 16 30 16 40 0 19
11 22 47 12 17 -5 23 -15 25 -43 3 -34 5 -36 38 -36 31 0 35 3 38 28 3 23 8
27 33 27 33 0 34 -2 17 -31 -11 -17 -10 -22 6 -35 32 -23 71 -18 84 11 16 36
50 33 64 -5 11 -32 42 -46 77 -35 12 3 21 13 21 21 0 8 10 14 23 14 16 0 26
-9 34 -30 13 -34 51 -42 73 -15 20 24 49 18 61 -12 13 -34 26 -43 65 -43 23 0
33 5 37 20 3 14 14 20 31 20 21 0 26 -5 26 -25 0 -20 7 -26 43 -35 23 -6 48
-13 55 -16 8 -2 16 5 19 16 7 28 46 26 58 -2 15 -33 59 -46 83 -25 26 24 36
21 49 -14 11 -30 15 -31 49 -26 20 3 44 13 54 22 26 23 47 18 53 -14 7 -32 27
-41 94 -41 36 0 41 2 36 20 -4 16 0 20 18 20 23 0 64 -19 44 -20 -5 0 -1 -7 9
-15 25 -19 73 -19 106 0 37 21 87 19 99 -4 12 -21 93 -45 122 -36 10 4 19 12
19 20 0 16 22 25 58 25 21 0 31 -8 42 -33 13 -29 20 -32 63 -35 26 -2 47 1 47
6 0 4 6 17 14 27 13 19 15 18 55 -8 47 -31 95 -35 131 -10 15 10 71 25 135 34
129 20 139 17 183 -58 15 -26 35 -55 45 -65 18 -19 20 -19 38 -2 10 9 19 25
19 35 0 25 -46 76 -75 83 -75 19 19 42 128 31 91 -9 110 -19 150 -80 33 -52
63 -68 73 -41 10 26 -3 59 -41 104 l-37 42 29 0 c15 0 43 4 61 9 31 9 36 7
107 -55 73 -64 95 -72 95 -34 0 20 -49 84 -58 75 -3 -2 3 -15 14 -27 19 -22
19 -22 -3 -8 -11 8 -41 31 -65 51 -63 54 -120 80 -198 92 -62 10 -70 14 -70
33 0 44 -10 54 -54 54 l-41 -1 28 -22 c19 -16 27 -32 27 -55 0 -37 -9 -40 -35
-12 -28 31 -62 26 -70 -10 -8 -37 5 -56 46 -65 42 -9 26 -25 -25 -25 l-43 0
-7 46 c-3 26 -6 68 -6 95 0 45 2 49 34 64 30 14 56 50 70 97 5 17 52 36 62 25
3 -3 1 -22 -5 -42 -13 -46 -5 -65 25 -65 14 0 27 -7 30 -15 9 -23 34 -18 44
11 6 14 10 45 10 68 0 48 25 80 57 74 14 -3 17 -12 15 -39 -3 -38 9 -54 43
-61 17 -3 15 -6 -12 -21 -30 -16 -33 -22 -33 -62 l0 -44 -41 14 c-46 17 -99
20 -99 6 0 -4 27 -14 60 -20 41 -8 81 -26 126 -57 l67 -44 77 6 76 7 32 -39
c18 -21 32 -41 32 -45 0 -3 -18 -11 -39 -18 l-39 -11 2 -84 c2 -88 16 -125 56
-146 23 -12 81 -4 121 16 26 13 27 12 33 -24 14 -92 169 -167 434 -212 67 -11
133 -26 147 -32 26 -12 92 -109 165 -241 48 -89 74 -107 150 -107 27 0 50 -2
50 -4 0 -3 -13 -18 -30 -34 -43 -44 -38 -75 23 -139 17 -18 42 -56 56 -85 20
-41 35 -57 68 -73 57 -28 59 -30 37 -70 -18 -35 -18 -35 4 -57 30 -30 90 -30
131 0 l31 23 0 -25 c0 -21 -7 -27 -39 -36 -45 -12 -91 -45 -91 -66 0 -8 11
-20 25 -26 14 -6 25 -20 25 -31 0 -48 104 24 112 77 2 13 12 22 24 24 12 2 32
14 44 27 30 32 21 71 -21 89 l-30 12 28 13 c18 8 29 9 31 2 9 -27 46 -61 66
-61 34 0 59 32 47 62 -13 35 -37 51 -66 44 -14 -4 -25 -2 -25 4 0 5 13 10 29
10 37 0 83 36 80 64 -1 11 1 34 6 49 6 21 3 33 -9 45 -15 15 -16 15 -16 0 0
-14 -5 -15 -32 -7 -50 14 -53 11 -19 -20 17 -16 31 -36 31 -44 0 -9 3 -22 6
-30 8 -22 -32 -42 -52 -26 -8 7 -13 18 -10 25 3 7 -3 23 -13 36 -19 25 -47
111 -56 170 -6 42 -20 55 -39 39 -14 -12 -36 4 -36 25 0 13 -28 39 -35 32 -3
-2 3 -29 13 -59 16 -45 23 -55 45 -57 43 -5 36 -56 -10 -80 -31 -17 -46 -7
-71 44 -27 55 -27 57 -2 44 11 -6 20 -9 20 -6 0 7 -68 110 -87 131 -9 10 -16
31 -15 45 4 31 -51 86 -120 121 -57 29 -168 101 -168 110 0 4 120 6 268 5
l267 -1 95 39 c52 21 127 57 165 80 l70 41 200 1 c277 1 443 24 680 94 147 43
253 99 338 179 110 104 119 142 63 272 l-34 79 32 0 c39 0 58 -18 81 -78 12
-29 23 -42 34 -40 24 5 25 48 2 101 l-20 47 27 0 c19 0 35 -11 55 -36 23 -28
31 -33 43 -23 8 6 14 24 14 40 0 23 4 29 23 29 12 0 28 -4 36 -9 9 -6 22 -4
37 6 18 11 81 17 269 24 136 6 256 9 268 7 19 -3 15 -10 -36 -60 -39 -38 -88
-71 -155 -104 l-97 -49 -100 37 c-124 46 -175 54 -227 39 -60 -18 -88 -54 -88
-110 0 -57 23 -100 75 -141 43 -34 173 -100 197 -100 8 0 78 -16 154 -35 81
-20 179 -38 234 -42 l95 -6 86 -84 c49 -48 101 -109 120 -144 78 -138 87 -149
117 -149 70 0 209 105 253 192 14 28 21 62 22 105 2 58 -1 67 -25 88 -14 12
-47 26 -72 29 -63 10 -135 35 -237 84 -80 39 -279 157 -330 195 l-24 19 45 36
c25 20 84 77 132 126 61 62 92 86 104 82 8 -3 20 -6 24 -6 5 0 36 -35 68 -77
76 -100 95 -117 121 -108 12 3 21 11 21 17 0 19 -110 162 -118 153 -2 -2 12
-25 32 -51 20 -26 36 -51 36 -57 0 -12 -58 60 -84 103 l-17 30 28 0 c22 0 44
-16 97 -70 68 -69 106 -88 106 -52 0 11 -15 38 -32 62 -63 83 -62 84 10 18 63
-59 102 -83 102 -62 0 3 -18 32 -41 64 -23 32 -39 64 -37 71 2 7 32 -13 72
-49 62 -57 106 -78 106 -51 0 5 -16 31 -35 56 -57 74 -41 82 30 14 36 -35 71
-61 78 -59 20 7 19 43 -3 63 -11 10 -20 23 -20 29 0 5 19 -9 43 -32 67 -66
108 -54 57 17 -38 52 -26 53 25 1 42 -43 75 -52 75 -21 0 10 -9 30 -20 44 -33
42 -23 41 26 -2 51 -45 83 -52 91 -21 6 22 18 26 28 10 3 -5 13 -10 22 -10 11
0 14 6 9 27 l-7 26 36 -31 c20 -18 40 -32 46 -32 19 0 22 33 4 64 -15 28 -13
27 24 -11 22 -24 47 -43 55 -43 27 0 28 21 2 58 l-26 37 23 9 c12 5 198 9 412
10 382 0 393 0 541 -27 181 -32 225 -34 247 -9 37 41 11 61 -123 96 -170 45
-259 59 -275 46 -12 -10 -15 -9 -15 4 0 24 -28 19 -36 -6 -7 -22 -8 -21 -14 7
-5 29 -8 30 -60 33 -30 2 -59 7 -64 13 -16 15 -24 11 -40 -18 -9 -17 -15 -22
-16 -12 0 8 -6 24 -14 34 -13 18 -15 17 -29 -18 -20 -47 -29 -47 -25 1 3 31 0
37 -16 37 -13 0 -23 -11 -30 -32 -16 -46 -29 -54 -21 -11 6 31 4 37 -15 43
-26 8 -32 3 -46 -38 l-11 -32 -7 43 -6 43 -82 -3 -81 -3 -11 -32 c-16 -47 -27
-52 -24 -10 3 43 -3 51 -32 42 -13 -4 -23 -18 -27 -36 -3 -16 -10 -32 -16 -36
-7 -4 -8 5 -4 25 8 39 -11 52 -76 52 -45 0 -45 0 -52 -40 -9 -52 -25 -62 -22
-13 2 33 -1 38 -21 41 -18 3 -26 -5 -41 -40 l-20 -43 0 43 c-1 38 -3 42 -26
42 -13 0 -30 -6 -37 -14 -11 -11 -15 -11 -24 2 -9 13 -17 14 -35 6 -18 -8 -31
-7 -49 3 -49 25 -110 8 -110 -32 0 -8 -5 -17 -11 -21 -8 -4 -9 3 -4 25 8 37
-12 50 -51 32 -20 -9 -26 -8 -30 4 -7 18 -48 20 -62 3 -5 -7 -16 -33 -23 -58
-7 -26 -14 -38 -16 -28 -2 9 0 33 6 53 9 33 8 37 -14 47 -38 17 -52 4 -68 -64
l-16 -63 2 64 c2 51 -1 66 -16 75 -21 13 -32 0 -47 -59 -6 -22 -15 -51 -21
-64 -18 -43 -20 -14 -4 49 18 69 14 80 -30 83 -24 2 -29 -3 -41 -38 -7 -22
-15 -57 -19 -77 -3 -21 -11 -38 -17 -38 -7 0 -8 14 -3 43 5 23 9 58 9 77 1 32
-1 35 -29 35 -28 0 -31 -4 -49 -58 -10 -32 -20 -56 -21 -55 -2 2 1 25 6 52 10
53 0 76 -31 76 -26 0 -39 -21 -50 -81 -16 -84 -32 -86 -28 -4 l3 70 -36 3
c-48 4 -57 -9 -70 -104 -13 -97 -22 -116 -38 -85 -9 15 -10 47 -5 102 l7 79
-41 0 c-53 0 -68 -22 -77 -110 -3 -36 -10 -72 -14 -79 -21 -34 -29 38 -18 174
2 28 -1 30 -34 33 -22 2 -42 -3 -51 -12z m56 -53 c4 -16 6 -54 5 -86 -1 -47 2
-62 21 -82 l22 -23 -38 -11 c-22 -6 -50 -11 -63 -11 -19 0 -22 4 -18 22 4 12
14 66 23 120 18 99 36 127 48 71z m-850 1 c3 -9 6 -38 6 -65 0 -28 7 -63 15
-80 21 -39 13 -49 -40 -49 -24 0 -47 -4 -50 -10 -3 -5 -10 -10 -15 -10 -5 0 2
24 15 53 13 28 26 77 30 107 4 30 9 58 12 63 7 12 21 8 27 -9z m168 -54 c3
-38 11 -77 19 -86 18 -22 -3 -34 -64 -34 l-48 0 15 29 c9 16 18 48 21 72 11
79 15 89 34 89 16 0 19 -10 23 -70z m367 -12 c-6 -88 -4 -108 15 -108 6 0 4
-5 -4 -10 -8 -5 -33 -10 -56 -10 l-41 0 13 63 c8 34 14 70 14 79 0 37 19 68
42 68 23 0 23 -1 17 -82z m455 40 c16 -130 15 -158 -4 -168 -32 -17 -43 11
-38 103 2 45 8 88 12 95 14 23 25 12 30 -30z m142 -45 c-8 -94 -12 -107 -28
-97 -18 12 4 184 24 184 7 0 8 -29 4 -87z m214 72 c0 -7 -5 -37 -11 -65 -8
-36 -8 -54 0 -64 13 -16 4 -27 -15 -19 -8 3 -14 15 -14 27 0 39 22 136 31 136
5 0 9 -7 9 -15z m-1011 -88 c1 -37 5 -59 14 -61 6 -3 24 -7 40 -10 29 -7 35
-27 14 -44 -9 -8 -29 -2 -72 21 -54 29 -60 35 -59 62 1 17 12 53 24 80 19 43
23 47 30 30 5 -11 9 -46 9 -78z m351 15 c0 -40 6 -79 15 -96 20 -37 20 -36
-19 -36 -40 0 -54 -14 -29 -29 17 -10 17 -10 -2 -11 -42 0 -49 14 -32 59 9 22
21 70 27 107 6 37 13 71 16 76 14 21 24 -9 24 -70z m554 13 c-5 -48 -3 -69 7
-81 12 -14 11 -16 -6 -13 -16 3 -21 14 -23 55 -3 46 10 104 23 104 3 0 3 -29
-1 -65z m199 -29 c-5 -33 -14 -61 -20 -64 -18 -5 -16 44 4 109 20 63 27 43 16
-45z m-8263 72 c0 -7 -7 -22 -15 -32 -17 -22 -20 -92 -5 -101 14 -9 12 -41 -4
-54 -10 -9 -16 -8 -26 4 -16 19 -44 19 -60 0 -11 -13 -15 -13 -21 -3 -15 24
-9 39 27 71 20 18 47 53 60 80 23 45 44 62 44 35z m109 -36 c-9 -30 -9 -48 0
-73 12 -36 15 -82 4 -92 -3 -4 -14 0 -24 9 -13 11 -28 15 -49 11 -28 -6 -30
-5 -30 23 0 20 9 38 29 56 16 14 35 40 42 57 26 67 48 74 28 9z m166 26 c-15
-49 -24 -133 -14 -142 11 -12 12 -73 1 -80 -5 -3 -15 6 -22 19 -16 29 -23 30
-54 10 -22 -15 -24 -14 -29 7 -7 24 9 55 49 98 12 14 30 44 39 68 18 43 43 60
30 20z m6275 -54 c0 -67 2 -76 20 -81 23 -6 25 -22 7 -47 -11 -15 -19 -16 -47
-8 -22 6 -34 14 -32 23 2 8 7 48 11 90 5 42 11 82 15 88 17 27 26 5 26 -65z
m1801 33 c-13 -13 -15 1 -4 30 7 17 8 17 11 -1 2 -10 -1 -23 -7 -29z m-1671
-29 c0 -39 5 -57 21 -74 l21 -22 -22 -12 c-29 -16 -76 -9 -72 10 2 8 8 42 13
75 12 76 16 88 29 80 5 -3 10 -29 10 -57z m1766 -24 c-7 -28 -26 -32 -26 -6 0
9 6 35 12 57 l12 40 4 -34 c2 -19 1 -44 -2 -57z m104 65 c0 -11 5 -17 10 -14
13 8 13 -5 -2 -38 -13 -26 -32 -35 -42 -19 -7 12 15 92 25 92 5 0 9 -9 9 -21z
m80 -29 c0 -38 -4 -50 -15 -50 -16 0 -19 19 -9 69 10 48 24 37 24 -19z m-8925
-16 c-1 -33 -7 -59 -15 -64 -10 -6 -10 -15 -2 -39 11 -31 2 -48 -18 -36 -5 3
-19 1 -31 -6 -17 -9 -23 -8 -30 2 -9 15 14 75 41 104 10 11 25 37 34 58 8 20
17 37 19 37 2 0 3 -25 2 -56z m125 22 c0 -19 -4 -46 -10 -60 -6 -18 -6 -34 2
-51 6 -14 9 -27 7 -29 -2 -2 -24 -6 -49 -8 -41 -3 -45 -1 -48 21 -3 16 7 32
31 55 23 21 38 45 42 69 9 47 25 48 25 3z m564 -12 c-11 -36 -11 -56 -3 -90 6
-24 8 -55 5 -69 -6 -23 -9 -25 -49 -19 -23 4 -43 8 -45 9 -1 1 1 23 5 50 4 30
16 59 32 79 15 17 33 43 40 59 22 42 31 32 15 -19z m146 41 c0 -4 -6 -18 -14
-33 -17 -35 -30 -142 -16 -142 12 0 13 -40 0 -60 -7 -12 -12 -12 -29 4 -16 15
-23 16 -42 6 -21 -12 -22 -11 -16 25 7 42 60 161 84 187 16 17 33 24 33 13z
m4970 -12 c0 -10 -5 -45 -10 -78 -9 -56 -9 -61 11 -78 17 -13 25 -15 36 -6 20
17 27 4 17 -33 -9 -30 -14 -33 -52 -36 -26 -2 -45 -9 -49 -18 -8 -21 21 -59
56 -74 30 -12 38 -31 25 -64 -5 -13 -17 -7 -58 29 -61 54 -147 97 -184 93 -21
-2 -28 -10 -32 -33 -3 -16 -10 -30 -15 -30 -17 0 -17 75 -1 116 9 22 16 69 16
107 0 70 10 92 42 92 16 0 18 -7 12 -70 -7 -74 2 -100 36 -100 13 0 19 -11 23
-41 12 -93 31 -62 50 83 9 65 21 127 27 138 13 25 50 27 50 3z m560 -58 c5
-64 12 -79 48 -91 3 -1 -19 -64 -23 -64 -2 0 -32 13 -67 30 -34 16 -58 30 -52
30 13 0 29 37 40 90 20 103 47 105 54 5z m335 0 l-7 -75 31 0 c36 0 39 -12 10
-41 -17 -17 -28 -20 -65 -14 -25 3 -52 2 -64 -5 -26 -14 -26 -2 1 26 12 13 27
51 35 90 15 72 27 94 51 94 13 0 14 -12 8 -75z m2303 35 c-1 -26 -6 -40 -15
-40 -16 0 -17 21 -1 55 15 34 18 32 16 -15z m448 14 c-4 -9 -9 -15 -11 -12 -3
3 -3 13 1 22 4 9 9 15 11 12 3 -3 3 -13 -1 -22z m-3451 -69 c0 -78 1 -80 25
-83 44 -5 55 -11 42 -24 -23 -23 -12 -57 36 -112 59 -67 107 -164 134 -268 27
-108 18 -133 -11 -28 -33 119 -57 177 -98 232 -37 51 -101 101 -143 111 -33 9
-56 24 -48 33 4 3 28 -1 53 -9 25 -9 43 -12 40 -7 -9 14 -82 33 -100 26 -10
-3 -15 -15 -13 -28 2 -17 19 -31 61 -50 60 -29 65 -39 48 -96 -6 -22 -11 -18
-74 51 -37 42 -67 82 -67 90 0 7 9 49 20 92 11 43 20 90 20 105 0 34 18 52 50
48 24 -3 25 -5 25 -83z m183 22 c2 -45 8 -60 25 -72 16 -12 19 -17 9 -27 -7
-7 -12 -20 -12 -30 0 -14 -8 -18 -32 -18 -44 0 -60 -12 -56 -40 2 -18 14 -27
53 -39 50 -16 50 -17 48 -56 -2 -21 -6 -42 -11 -47 -8 -8 -104 112 -115 145
-4 9 -2 30 4 45 6 15 17 61 26 102 8 41 20 81 26 88 19 24 32 5 35 -51z m352
-7 c0 -38 3 -70 8 -70 4 0 14 -4 22 -10 12 -7 12 -12 -4 -28 -13 -16 -26 -19
-57 -15 -73 10 -88 -38 -18 -61 30 -10 34 -16 37 -48 2 -21 -1 -38 -6 -38 -10
0 -63 64 -81 98 -11 21 -9 29 13 62 16 24 28 61 32 95 7 53 23 85 45 85 5 0 9
-31 9 -70z m2680 51 c0 -11 -4 -23 -10 -26 -6 -4 -10 5 -10 19 0 14 5 26 10
26 6 0 10 -9 10 -19z m81 -24 c-16 -16 -20 -5 -8 23 9 22 11 23 14 6 3 -10 0
-23 -6 -29z m-8327 -22 c-5 -37 -3 -59 6 -69 10 -13 7 -16 -14 -22 -24 -6 -26
-10 -20 -39 11 -62 -16 -96 -47 -59 -8 10 -21 13 -36 9 -17 -4 -23 -1 -23 10
0 20 25 70 55 110 13 17 32 49 44 73 30 58 43 54 35 -13z m-1190 -12 c-3 -27
-10 -53 -15 -59 -5 -5 -5 -28 -2 -50 5 -33 4 -37 -8 -27 -10 8 -20 9 -29 3
-19 -12 -40 -13 -40 -1 0 5 16 32 36 61 20 29 41 68 46 87 13 48 20 40 12 -14z
m101 10 c-9 -20 -20 -42 -26 -49 -8 -10 -6 -21 7 -43 20 -35 10 -56 -12 -26
-15 20 -15 20 -30 1 -13 -19 -14 -18 -14 11 0 17 7 37 17 44 9 8 25 33 35 57
23 51 44 57 23 5z m5579 28 c3 -5 2 -36 -2 -70 -10 -73 -5 -85 31 -72 34 13
43 -1 16 -25 -16 -15 -19 -25 -13 -57 6 -40 6 -40 -22 -33 -79 18 -100 18
-114 1 -23 -27 5 -66 60 -82 53 -15 73 -33 64 -56 -9 -25 -23 -20 -89 32 -73
58 -79 82 -36 143 23 34 32 61 40 123 7 56 15 83 27 92 21 15 31 16 38 4z
m-4339 -61 c-9 -17 -13 -40 -10 -51 4 -12 1 -21 -9 -25 -20 -8 -21 -30 -1 -38
31 -11 10 -86 -24 -86 -10 0 -26 12 -36 26 -16 24 -17 25 -41 9 -22 -14 -25
-14 -31 1 -11 29 11 68 55 97 24 16 58 53 75 81 34 55 52 44 22 -14z m147 -7
c-8 -27 -20 -59 -25 -73 -6 -14 -10 -44 -8 -67 3 -45 -12 -83 -34 -83 -7 0
-22 -12 -33 -27 -31 -42 -38 -20 -8 24 l26 38 -29 3 c-28 3 -30 5 -24 35 3 18
23 50 43 72 21 22 47 59 59 83 31 61 53 57 33 -5z m133 -9 c-13 -35 -15 -51
-7 -69 8 -18 8 -25 -4 -29 -16 -6 -19 -36 -4 -36 16 0 12 -53 -6 -78 -20 -29
-27 -28 -41 8 -13 34 -46 41 -62 13 -9 -16 -10 -15 -11 7 0 30 32 85 58 99 11
6 25 25 32 43 18 46 51 100 58 94 3 -3 -3 -26 -13 -52z m3738 44 c2 -7 0 -29
-4 -48 -16 -66 -12 -80 21 -80 34 0 40 -15 10 -25 -38 -12 -60 -46 -60 -92 0
-47 10 -56 75 -67 60 -10 94 -26 100 -47 17 -53 -27 -48 -118 14 -55 38 -130
76 -180 91 -15 5 -13 11 18 52 19 25 37 58 40 72 14 66 28 108 43 125 18 20
48 23 55 5z m4405 -11 c5 -23 -36 -43 -44 -22 -7 18 14 47 30 42 6 -2 12 -11
14 -20z m-9898 -62 l0 -75 -25 12 c-19 8 -28 8 -40 -2 -25 -21 -19 12 11 55
14 21 30 49 35 62 14 39 19 26 19 -52z m9016 48 c-8 -8 -36 5 -36 17 0 7 6 7
21 0 11 -7 18 -14 15 -17z m794 8 c0 -23 -16 -36 -25 -21 -9 14 1 40 15 40 5
0 10 -9 10 -19z m160 10 c0 -12 -20 -25 -27 -18 -7 7 6 27 18 27 5 0 9 -4 9
-9z m70 -1 c0 -5 -7 -10 -15 -10 -8 0 -15 5 -15 10 0 6 7 10 15 10 8 0 15 -4
15 -10z m65 0 c3 -5 -1 -10 -9 -10 -9 0 -16 5 -16 10 0 6 4 10 9 10 6 0 13 -4
16 -10z m65 0 c0 -5 -4 -10 -10 -10 -5 0 -10 5 -10 10 0 6 5 10 10 10 6 0 10
-4 10 -10z m70 0 c0 -5 -7 -10 -15 -10 -8 0 -15 5 -15 10 0 6 7 10 15 10 8 0
15 -4 15 -10z m68 -8 c2 -7 -3 -12 -12 -12 -9 0 -16 7 -16 16 0 17 22 14 28
-4z m62 8 c0 -5 -5 -10 -11 -10 -5 0 -7 5 -4 10 3 6 8 10 11 10 2 0 4 -4 4
-10z m-10484 -83 c-7 -71 -8 -74 -32 -69 -17 3 -24 0 -24 -12 0 -15 -20 -24
-20 -8 0 4 -3 16 -6 27 -3 14 4 30 22 50 15 16 33 44 41 63 21 49 26 33 19
-51z m2049 66 c-38 -89 -40 -101 -21 -122 19 -21 19 -21 -2 -21 -29 0 -37 -18
-18 -39 27 -30 -12 -126 -44 -106 -5 3 -10 15 -10 25 0 26 -15 33 -41 20 -28
-15 -31 -10 -23 41 6 33 17 53 45 79 21 19 46 53 55 75 20 50 32 65 51 65 11
0 13 -5 8 -17z m8550 7 c3 -5 1 -10 -4 -10 -6 0 -11 5 -11 10 0 6 2 10 4 10 3
0 8 -4 11 -10z m-10235 -20 c0 -5 -5 -10 -11 -10 -5 0 -7 5 -4 10 3 6 8 10 11
10 2 0 4 -4 4 -10z m5034 -60 l1 -65 33 3 c41 3 38 -9 -8 -40 -38 -26 -45 -43
-36 -93 6 -28 13 -36 44 -45 76 -23 92 -32 92 -52 0 -27 -28 -34 -55 -12 -134
108 -182 141 -191 131 -2 -2 15 -17 38 -32 101 -67 237 -209 293 -306 45 -79
26 -74 -26 7 -29 43 -81 110 -118 147 -75 78 -201 167 -236 167 -13 0 -27 5
-30 10 -4 6 5 10 20 10 16 0 28 7 31 18 3 9 10 25 15 34 12 24 11 28 -6 28 -8
0 -20 -9 -27 -20 -7 -11 -20 -20 -28 -20 -22 0 -40 -20 -40 -46 0 -17 15 -28
74 -54 41 -17 89 -45 107 -60 l34 -29 -47 -1 c-26 0 -49 -4 -52 -9 -6 -9 50
-21 105 -21 32 0 44 -8 90 -57 28 -32 72 -89 97 -126 l45 -68 -34 -29 c-43
-38 -72 -45 -117 -32 -35 11 -37 13 -37 54 0 53 -44 144 -98 202 l-38 41 39
-60 c51 -78 74 -124 69 -138 -2 -6 -33 34 -69 88 -104 158 -197 238 -314 272
-35 10 -64 21 -64 25 0 15 59 8 110 -12 28 -11 48 -15 45 -9 -4 5 -18 14 -30
19 l-24 9 34 34 c25 25 35 45 40 83 8 62 30 114 49 114 12 0 16 -16 18 -67 l3
-68 46 3 c40 2 47 0 52 -19 10 -38 25 -10 32 59 7 68 27 105 53 100 11 -2 15
-20 16 -68z m4057 52 c-12 -22 -41 -48 -41 -36 0 8 40 54 47 54 2 0 -1 -8 -6
-18z m329 9 c0 -19 -22 -23 -38 -7 -15 15 -14 16 11 16 15 0 27 -4 27 -9z m65
-1 c-3 -5 -10 -10 -16 -10 -5 0 -9 5 -9 10 0 6 7 10 16 10 8 0 12 -4 9 -10z
m-657 -12 c-3 -7 -13 -15 -24 -17 -16 -3 -17 -1 -5 13 16 19 34 21 29 4z m169
-5 c-9 -10 -29 -26 -46 -36 -28 -16 -30 -16 -46 0 -16 16 -18 15 -34 -6 -12
-15 -25 -22 -41 -19 -28 4 -40 28 -13 28 10 0 35 9 56 20 31 17 37 17 37 5 0
-20 19 -19 55 4 38 25 53 26 32 4z m333 8 c0 -12 -29 -35 -36 -28 -11 10 5 37
21 37 8 0 15 -4 15 -9z m-9824 -56 c1 -33 8 -64 18 -80 l17 -26 -38 7 c-52 9
-57 17 -40 55 9 19 18 49 22 67 10 49 21 38 21 -23z m2344 50 c0 -2 -10 -25
-22 -49 -21 -44 -21 -46 -3 -66 18 -20 18 -20 -4 -20 -28 0 -36 -23 -21 -60
12 -30 0 -93 -21 -106 -14 -8 -39 15 -39 36 0 10 -7 24 -16 31 -14 11 -19 10
-35 -10 -21 -25 -22 -23 -19 29 1 28 13 47 61 95 32 33 59 66 59 73 0 25 21
52 40 52 11 0 20 -2 20 -5z m6860 -5 c0 -5 -7 -7 -15 -4 -8 4 -15 8 -15 10 0
2 7 4 15 4 8 0 15 -4 15 -10z m540 1 c0 -10 -30 -24 -37 -17 -3 3 -2 9 2 15 8
13 35 15 35 2z m-9460 -11 c0 -5 -5 -10 -11 -10 -5 0 -7 5 -4 10 3 6 8 10 11
10 2 0 4 -4 4 -10z m2210 -30 c-22 -42 -26 -85 -10 -95 17 -11 11 -23 -15 -29
-28 -7 -32 -30 -9 -53 17 -18 13 -53 -12 -91 -21 -32 -38 -23 -42 21 -4 47
-34 51 -57 7 -9 -16 -18 -30 -20 -30 -3 0 -5 23 -5 50 0 46 4 55 43 98 24 26
60 73 80 105 20 31 44 57 52 57 13 0 12 -6 -5 -40z m172 24 c4 -3 -3 -28 -15
-56 -17 -42 -18 -53 -8 -70 7 -11 11 -21 9 -22 -2 -1 -16 -7 -32 -14 -27 -12
-28 -14 -22 -65 5 -35 3 -63 -6 -83 l-12 -29 -4 38 c-3 31 -7 37 -27 37 -13 0
-31 -10 -39 -22 -22 -31 -30 -17 -21 37 5 39 15 55 61 99 30 29 54 61 54 70 0
49 41 102 62 80z m2486 -51 l-3 -58 33 -3 c17 -2 32 -7 32 -12 0 -14 -75 -50
-103 -50 -14 0 -35 -8 -48 -19 l-23 -18 25 -16 c13 -8 49 -24 80 -35 74 -26
112 -45 116 -58 5 -16 -49 -36 -88 -32 -34 3 -35 4 -22 51 3 9 0 17 -6 17 -6
0 -11 -9 -11 -20 0 -11 -7 -20 -15 -20 -8 0 -15 3 -15 8 0 4 -10 14 -22 21
-17 11 -14 3 13 -30 65 -80 109 -140 109 -150 0 -23 -22 -5 -53 44 -61 95
-168 177 -232 177 -17 0 -24 4 -19 11 7 11 71 7 107 -7 14 -5 17 0 17 22 0 16
7 38 15 48 8 10 22 42 31 70 27 85 45 116 65 116 17 0 19 -7 17 -57z m6016 51
c20 -8 11 -24 -15 -24 -19 0 -25 11 -12 23 8 8 8 8 27 1z m-3271 -26 c15 -6
27 -15 27 -20 0 -5 -3 -7 -7 -5 -5 3 -27 10 -50 16 -24 7 -43 16 -43 22 0 11
22 7 73 -13z m778 -4 c10 -13 10 -17 -2 -25 -27 -17 -44 -4 -33 25 8 20 18 20
35 0z m579 -9 c0 -29 -29 -35 -50 -10 -16 19 -4 35 26 35 19 0 24 -5 24 -25z
m-6443 -7 c-3 -13 -11 -38 -18 -56 -13 -31 -12 -35 8 -52 l23 -18 -38 -9 -37
-9 -1 -78 c-2 -100 -26 -131 -36 -46 -4 37 -37 38 -66 4 l-24 -29 6 40 c3 22
6 56 6 75 0 32 5 37 48 60 35 19 55 39 81 83 35 58 57 75 48 35z m2148 -10
c-4 -18 -7 -35 -7 -38 -1 -25 6 -30 38 -30 20 0 34 -3 32 -7 -37 -77 -40 -81
-87 -88 -25 -4 -58 -8 -73 -8 -16 -1 -28 -7 -28 -12 0 -14 53 -45 77 -45 24 0
123 -49 123 -61 0 -12 -30 -11 -67 1 -23 8 -40 7 -71 -3 -41 -14 -41 -14 -74
20 -18 19 -50 43 -70 54 -39 20 -47 34 -25 42 6 2 9 7 5 11 -11 13 -48 -14
-48 -35 0 -13 11 -25 33 -34 43 -18 89 -54 82 -66 -12 -19 -49 -8 -99 29 -50
37 -51 37 -29 7 38 -53 103 -111 103 -92 0 15 45 36 54 26 2 -2 -1 -25 -7 -51
-15 -61 -33 -62 -73 -5 -61 86 -180 167 -246 167 -11 0 -18 5 -15 13 4 13 36
15 82 4 l30 -7 -25 15 c-44 25 -110 13 -110 -21 0 -16 20 -26 102 -49 31 -8
60 -19 63 -24 3 -5 -20 -15 -51 -21 -89 -19 -127 10 -136 101 -5 45 -4 46 28
58 39 14 84 64 84 92 0 32 19 59 41 59 19 0 21 -4 15 -45 -7 -42 -5 -46 18
-55 28 -10 35 -30 12 -30 -21 0 -29 -17 -22 -46 6 -24 46 -36 46 -13 0 6 16
43 35 82 19 39 35 78 35 87 0 20 19 40 38 40 11 0 12 -11 7 -50 -7 -49 -6 -49
27 -63 l33 -15 -28 -11 c-30 -12 -45 -37 -31 -51 5 -5 28 9 55 34 34 31 48 53
53 82 10 52 32 84 57 84 18 0 20 -4 14 -32z m2657 6 c45 -23 40 -32 -10 -16
-26 8 -53 17 -59 18 -7 2 -13 8 -13 14 0 12 42 4 82 -16z m151 4 c27 -14 14
-20 -17 -8 -15 5 -38 10 -52 10 -13 0 -24 5 -24 11 0 13 62 4 93 -13z m259 -4
c45 -23 66 -84 30 -84 -17 0 -102 88 -102 105 0 8 36 -3 72 -21z m1133 1 c0
-13 -8 -21 -22 -23 -17 -3 -23 2 -23 16 0 10 3 22 7 26 13 13 38 1 38 -19z
m-9265 -35 c0 -15 6 -32 12 -38 10 -10 10 -15 -2 -22 -27 -17 -30 -11 -30 53
0 44 3 58 10 47 5 -8 10 -26 10 -40z m1066 3 c-12 -12 -29 15 -21 34 7 17 8
16 18 -5 5 -12 7 -25 3 -29z m7254 37 c0 -5 -8 -10 -17 -10 -15 0 -16 2 -3 10
19 12 20 12 20 0z m60 -6 c0 -2 -7 -4 -15 -4 -8 0 -15 4 -15 10 0 5 7 7 15 4
8 -4 15 -8 15 -10z m620 -36 c-35 -93 -86 -154 -192 -231 -55 -40 -113 -82
-130 -94 -37 -28 -44 -28 -51 -5 -2 9 -8 24 -12 34 -5 13 9 24 67 54 89 47
212 165 226 215 6 25 19 40 48 56 61 35 67 31 44 -29z m175 27 c0 -25 -46 -33
-64 -11 -19 22 -4 38 32 34 24 -2 32 -8 32 -23z m-8264 -16 c-9 -22 -10 -22
-10 -3 -1 11 2 24 6 27 12 12 14 0 4 -24z m6618 21 c9 0 26 -7 37 -15 18 -14
17 -14 -11 -5 -16 6 -39 9 -51 6 -13 -4 -25 -2 -28 3 -8 12 6 22 22 16 7 -3
21 -5 31 -5z m1541 -2 c0 -7 -5 -20 -10 -28 -8 -12 -10 -9 -10 13 0 15 5 27
10 27 6 0 10 -6 10 -12z m810 2 c0 -5 -2 -10 -4 -10 -3 0 -8 5 -11 10 -3 6 -1
10 4 10 6 0 11 -4 11 -10z m-9090 -21 c0 -5 -4 -9 -10 -9 -5 0 -10 7 -10 16 0
8 5 12 10 9 6 -3 10 -10 10 -16z m421 -22 c-8 -8 -11 -5 -11 9 0 27 14 41 18
19 2 -9 -1 -22 -7 -28z m5860 8 c101 -62 170 -158 218 -304 20 -61 28 -111 15
-98 -3 3 -10 24 -15 48 -5 23 -29 80 -52 128 -50 102 -138 197 -210 227 -26
10 -47 22 -47 27 0 16 35 5 91 -28z m348 0 c56 -28 42 -34 -18 -7 -33 15 -60
30 -61 34 0 8 35 -3 79 -27z m906 3 c27 -2 40 -8 40 -18 0 -11 -13 -16 -47
-18 -43 -3 -48 -1 -62 26 -17 34 -10 49 13 28 9 -8 34 -16 56 -18z m300 16
c-16 -12 -17 -17 -7 -23 17 -10 -6 -21 -44 -21 -31 0 -24 14 20 41 37 22 60
25 31 3z m-5560 -21 c-18 -75 -18 -91 4 -98 30 -9 26 -22 -9 -30 l-30 -7 6
-62 c4 -40 2 -70 -5 -84 -18 -33 -31 -26 -31 17 0 21 -6 44 -14 50 -20 17 -64
-3 -78 -36 l-12 -28 -4 40 c-5 56 14 115 37 115 31 0 73 41 97 97 25 56 51 74
39 26z m4194 7 c68 -34 159 -154 200 -263 19 -50 -6 -18 -49 61 -61 112 -101
156 -173 191 -42 21 -55 31 -39 31 12 0 40 -9 61 -20z m726 10 c4 -6 4 -18 1
-27 -5 -12 -9 -13 -21 -3 -8 7 -15 19 -15 26 0 16 26 19 35 4z m895 1 c0 -12
-20 -25 -27 -18 -7 7 6 27 18 27 5 0 9 -4 9 -9z m-8966 -65 c3 -31 1 -54 -4
-51 -12 7 -24 91 -15 105 11 18 15 7 19 -54z m1428 32 c-9 -9 -12 -7 -12 12 0
19 3 21 12 12 9 -9 9 -15 0 -24z m6493 22 c3 -5 -1 -10 -9 -10 -9 0 -16 5 -16
10 0 6 4 10 9 10 6 0 13 -4 16 -10z m-4560 -10 c3 -5 -1 -20 -9 -32 -9 -12
-16 -35 -16 -50 0 -24 5 -30 30 -34 17 -4 30 -11 30 -16 0 -6 -13 -8 -32 -4
-93 20 -115 8 -75 -40 41 -49 47 -124 10 -138 -24 -10 -43 13 -43 50 0 18 -4
36 -10 39 -17 11 -50 -15 -65 -50 -20 -49 -33 -43 -28 13 8 68 27 107 63 128
19 11 42 40 57 69 14 28 30 56 35 63 12 14 44 16 53 2z m3653 -4 c46 -24 122
-114 152 -179 32 -72 63 -193 58 -228 -2 -14 -11 11 -21 61 -22 107 -76 223
-127 272 -22 20 -62 45 -90 55 -27 10 -50 21 -50 25 0 13 49 9 78 -6z m702 -8
c0 -6 -6 -5 -15 2 -8 7 -15 14 -15 16 0 2 7 1 15 -2 8 -4 15 -11 15 -16z m40
12 c0 -5 -4 -10 -10 -10 -5 0 -10 5 -10 10 0 6 5 10 10 10 6 0 10 -4 10 -10z
m1060 0 c0 -5 -4 -10 -10 -10 -5 0 -10 5 -10 10 0 6 5 10 10 10 6 0 10 -4 10
-10z m80 0 c0 -5 -9 -10 -20 -10 -11 0 -20 5 -20 10 0 6 9 10 20 10 11 0 20
-4 20 -10z m-1440 -21 c0 -11 -27 -12 -34 0 -3 4 -3 11 0 14 8 8 34 -3 34 -14z
m160 0 c0 -11 -27 -12 -34 0 -3 4 -3 11 0 14 8 8 34 -3 34 -14z m251 -30 c34
-32 34 -32 11 -42 -30 -14 -69 5 -83 40 -23 62 7 63 72 2z m125 25 c35 -27 37
-44 4 -44 -24 0 -50 26 -50 51 0 25 5 24 46 -7z m143 2 l23 -24 -26 2 c-20 1
-26 6 -26 24 0 28 1 27 29 -2z m461 9 c-7 -14 -99 -10 -113 4 -9 9 4 11 53 9
39 -2 63 -7 60 -13z m-7059 -22 c-8 -15 -10 -15 -11 -2 0 17 10 32 18 25 2 -3
-1 -13 -7 -23z m2013 18 c3 -5 -1 -24 -9 -43 -15 -36 -7 -58 22 -58 7 0 13 -4
13 -9 0 -12 -26 -21 -61 -21 -27 0 -28 -1 -17 -22 7 -13 21 -32 30 -43 25 -29
12 -110 -17 -110 -14 0 -21 8 -23 25 -7 60 -12 71 -35 68 -14 -2 -30 -19 -45
-45 -40 -72 -67 -49 -60 52 3 44 6 49 33 58 43 14 70 42 99 103 18 38 31 54
45 54 11 0 22 -4 25 -9z m211 -1 c3 -5 -4 -28 -16 -51 -24 -49 -17 -58 46 -59
54 -1 27 -16 -45 -24 -51 -6 -105 -25 -72 -26 7 0 29 -12 48 -26 30 -23 34
-32 34 -73 0 -58 -16 -78 -42 -54 -11 10 -18 30 -18 55 0 37 -6 43 -40 38 -21
-2 -40 -29 -40 -56 0 -25 -29 -41 -42 -22 -4 7 -8 36 -8 65 0 28 -3 58 -6 66
-4 11 6 19 33 27 48 16 70 35 95 85 11 22 25 46 30 53 12 14 34 16 43 2z m229
-9 c3 -5 0 -21 -8 -36 -8 -15 -12 -34 -9 -41 7 -18 39 -27 69 -20 26 7 33 -8
8 -18 -9 -3 -37 -6 -62 -7 -97 -2 -124 -26 -50 -45 l43 -11 3 -52 c4 -67 -17
-104 -56 -99 -25 3 -27 6 -24 46 3 36 0 43 -20 51 -34 13 -56 -4 -68 -50 -14
-53 -23 -43 -31 34 -3 34 -9 69 -13 78 -6 13 1 17 34 22 51 7 68 21 93 77 11
25 26 53 35 63 16 18 47 23 56 8z m263 -75 c14 -7 12 -11 -8 -22 -13 -7 -32
-13 -42 -14 -29 0 -32 -28 -4 -50 28 -22 39 -62 30 -114 l-6 -35 -55 49 c-31
28 -64 50 -73 50 -30 0 -40 -58 -14 -80 21 -18 9 -30 -31 -30 l-34 0 0 95 0
95 30 0 c54 0 96 26 141 87 l44 58 3 -40 c2 -23 10 -44 19 -49z m2399 62 c102
-76 162 -163 204 -295 29 -89 40 -157 21 -123 -5 8 -14 40 -21 70 -30 134
-129 280 -224 331 -26 13 -46 27 -46 31 0 16 38 7 66 -14z m848 6 c19 -19 22
-78 4 -72 -20 7 -42 53 -35 71 8 21 12 21 31 1z m184 -4 c25 -21 23 -53 -4
-64 -18 -7 -54 28 -54 52 0 37 23 41 58 12z m-7388 0 c0 -5 -2 -10 -4 -10 -3
0 -8 5 -11 10 -3 6 -1 10 4 10 6 0 11 -4 11 -10z m6857 -14 c21 -19 25 -27 16
-36 -14 -15 -26 -8 -53 30 -17 24 -18 30 -6 30 8 0 28 -11 43 -24z m-5487 -6
c0 -11 -4 -20 -10 -20 -5 0 -10 9 -10 20 0 11 5 20 10 20 6 0 10 -9 10 -20z
m141 -53 c-8 -8 -11 -1 -11 24 0 46 14 60 18 19 2 -18 -1 -37 -7 -43z m4669
43 c93 -48 179 -160 245 -322 36 -86 41 -108 26 -108 -4 0 -19 28 -31 63 -33
92 -83 186 -128 243 -30 38 -61 62 -121 93 -45 23 -79 47 -75 52 7 11 33 4 84
-21z m1300 5 c7 -9 8 -15 2 -15 -5 0 -12 7 -16 15 -3 8 -4 15 -2 15 2 0 9 -7
16 -15z m-7921 -48 c1 -10 -3 -15 -9 -12 -5 3 -10 21 -9 38 0 27 2 29 9 12 5
-11 9 -28 9 -38z m63 38 c0 -5 -5 -11 -11 -13 -6 -2 -11 4 -11 13 0 9 5 15 11
13 6 -2 11 -8 11 -13z m7477 -21 c17 -19 29 -39 26 -45 -4 -5 -24 -9 -46 -9
l-39 0 0 45 c0 56 16 59 59 9z m-1354 -3 c83 -39 176 -111 224 -171 63 -79
154 -255 122 -236 -6 4 -28 42 -51 84 -82 159 -203 267 -348 312 -31 10 -58
23 -60 29 -7 21 52 11 113 -18z m275 -11 c68 -35 71 -35 64 -15 -7 18 6 19 41
3 24 -11 33 -37 18 -51 -3 -4 -13 -1 -22 6 -12 9 -12 7 2 -13 84 -119 156
-263 157 -312 0 -42 -20 -22 -40 39 -36 114 -107 221 -186 284 -19 15 -66 40
-105 54 -38 15 -69 31 -69 37 0 18 77 0 140 -32z m-4210 0 c0 -16 -4 -30 -10
-30 -5 0 -10 14 -10 30 0 17 5 30 10 30 6 0 10 -13 10 -30z m5459 12 c12 -22
-3 -42 -31 -42 -21 0 -21 1 -8 34 11 31 25 33 39 8z m176 9 c3 -5 1 -12 -5
-16 -5 -3 -10 1 -10 9 0 18 6 21 15 7z m-670 -28 c31 -36 31 -53 1 -53 -32 0
-50 24 -42 55 8 31 11 31 41 -2z m159 -4 c34 -40 33 -51 -6 -47 -30 3 -33 6
-36 41 -4 45 8 47 42 6z m-1383 -16 c104 -52 220 -169 278 -281 23 -46 41 -86
38 -88 -3 -3 -19 21 -36 53 -68 128 -219 273 -316 302 -37 12 -61 25 -63 35
-5 24 18 20 99 -21z m3569 22 c7 -9 8 -15 2 -15 -5 0 -12 7 -16 15 -3 8 -4 15
-2 15 2 0 9 -7 16 -15z m-2538 -12 c23 -21 23 -33 -1 -33 -22 0 -45 25 -36 40
9 14 15 13 37 -7z m958 -27 c0 -6 -7 -2 -15 8 -8 11 -15 25 -15 30 0 6 7 2 15
-8 8 -11 15 -25 15 -30z m-1153 0 c-4 -9 -11 -16 -17 -16 -11 0 -14 33 -3 44
11 10 26 -11 20 -28z m-6881 -3 c-7 -7 -26 7 -26 19 0 6 6 6 15 -2 9 -7 13
-15 11 -17z m7895 -88 c43 -109 31 -103 -17 7 -49 115 -50 118 -30 91 9 -12
30 -56 47 -98z m262 83 c37 -50 68 -143 58 -171 -14 -37 -59 -84 -144 -153
-73 -59 -97 -73 -97 -58 0 3 25 35 55 71 31 35 65 82 76 104 22 44 20 58 -20
158 -26 64 -22 81 18 81 22 0 36 -9 54 -32z m-5703 1 c0 -11 -4 -17 -10 -14
-5 3 -10 13 -10 21 0 8 5 14 10 14 6 0 10 -9 10 -21z m146 -35 c-3 -8 -10 -14
-16 -14 -14 0 -13 27 2 53 l13 22 3 -23 c2 -13 1 -30 -2 -38z m4142 7 c2 -6
-4 -11 -13 -11 -28 0 -55 20 -55 41 l0 21 32 -21 c18 -11 34 -25 36 -30z
m1246 24 c27 -29 66 -125 66 -161 0 -41 -24 -74 -117 -166 -84 -83 -155 -138
-176 -138 -5 0 8 19 30 43 84 91 143 197 143 255 0 21 -11 70 -24 109 -13 39
-22 74 -18 77 16 16 74 5 96 -19z m-171 -23 c29 -32 57 -106 57 -152 0 -52
-30 -102 -125 -210 -74 -84 -102 -110 -123 -110 -13 0 -13 3 4 15 12 8 47 47
78 88 55 72 71 102 41 77 -11 -9 -15 -9 -15 -1 0 6 11 17 25 23 44 20 50 74
20 161 -25 74 -31 108 -18 120 12 13 40 7 56 -11z m-7863 4 c0 -9 -40 -13 -46
-5 -3 5 6 9 20 9 14 0 26 -2 26 -4z m2812 -58 c-22 -22 -32 3 -15 35 l18 32 3
-29 c2 -16 -1 -33 -6 -38z m3764 48 c10 -8 16 -17 12 -21 -8 -8 -48 13 -48 25
0 14 13 12 36 -4z m-206 -23 c0 -20 -24 -11 -28 10 -2 12 1 15 12 11 9 -3 16
-13 16 -21z m1375 -47 c50 -108 54 -147 20 -197 -58 -83 -221 -209 -256 -197
-5 2 25 41 66 87 80 89 92 119 82 196 -6 38 -27 106 -52 168 -6 15 -1 17 50
17 l56 0 34 -74z m-4759 42 c-3 -13 -6 -29 -6 -35 0 -7 -7 -13 -15 -13 -17 0
-20 23 -5 51 15 27 34 24 26 -3z m144 -32 c0 -46 -14 -66 -32 -48 -11 11 10
92 24 92 4 0 8 -20 8 -44z m3854 33 c37 -17 96 -159 99 -241 2 -49 -36 -108
-84 -134 -56 -28 -64 -16 -20 31 22 24 41 52 41 60 0 27 -40 135 -76 206 -19
38 -34 73 -34 79 0 13 43 13 74 -1z m186 -2 c27 -14 65 -119 76 -212 6 -51 4
-57 -30 -103 -54 -74 -98 -97 -136 -72 -13 9 -10 15 17 38 18 15 37 40 43 55
13 36 -1 126 -35 227 -14 40 -25 75 -25 77 0 8 68 1 90 -10z m203 -4 c18 -21
42 -101 58 -197 l11 -68 -63 -65 c-96 -97 -190 -156 -221 -136 -6 3 24 40 67
83 92 93 101 117 79 232 -8 42 -21 96 -29 119 -8 23 -15 43 -15 45 0 2 22 4
48 4 34 0 54 -5 65 -17z m178 -25 c13 -24 30 -72 40 -108 15 -58 15 -69 2
-100 -26 -65 -208 -230 -253 -230 -7 0 21 35 62 78 102 105 108 126 79 275
-12 61 -21 115 -21 120 0 4 16 7 35 7 31 0 37 -5 56 -42z m-1406 22 c3 -5 -1
-10 -9 -10 -9 0 -16 5 -16 10 0 6 4 10 9 10 6 0 13 -4 16 -10z m-6477 -9 c26
-5 56 -21 75 -39 18 -16 50 -39 72 -50 l40 -20 -50 -7 c-27 -3 -84 -19 -125
-35 -152 -57 -268 -78 -495 -89 -116 -5 -225 -13 -244 -17 -24 -5 -32 -3 -27
5 13 21 80 48 223 89 78 23 202 68 275 101 170 76 177 77 256 62z m3632 -40
c0 -38 -14 -61 -37 -61 -17 0 -16 15 3 67 19 50 34 47 34 -6z m3545 15 c23
-30 81 -160 100 -225 6 -20 -4 -34 -63 -92 -62 -60 -75 -69 -108 -69 l-37 0
52 54 c33 35 51 64 51 79 0 31 -45 168 -76 229 -25 50 -22 56 28 57 19 1 34
-8 53 -33z m1443 9 c-3 -3 -9 2 -12 12 -6 14 -5 15 5 6 7 -7 10 -15 7 -18z
m-3640 -37 c88 -53 167 -116 157 -126 -3 -3 -15 5 -26 17 -30 32 -125 92 -179
112 -25 9 -46 24 -48 33 -2 9 -1 16 3 16 3 0 45 -24 93 -52z m-1179 -54 c-32
-38 -36 4 -8 71 l13 30 4 -43 c2 -24 -2 -50 -9 -58z m3180 70 c32 -27 91 -139
110 -211 15 -56 7 -70 -76 -126 -62 -42 -86 -51 -120 -48 -21 2 -15 39 8 46
39 13 89 65 89 94 0 34 -77 194 -114 239 l-28 32 50 0 c40 0 57 -6 81 -26z
m2149 -16 c82 -21 122 -35 122 -45 0 -23 -28 -26 -127 -14 -53 6 -97 10 -98 9
-2 -2 -6 -27 -10 -56 -7 -50 -6 -53 27 -84 31 -29 31 -30 8 -24 -36 11 -126
74 -156 109 -20 23 -24 39 -22 71 3 35 7 42 28 45 24 3 24 2 7 -16 -24 -28
-21 -67 9 -103 37 -43 43 -29 9 20 -15 22 -25 46 -22 53 6 15 50 27 101 27
l31 0 -40 21 c-74 39 -72 39 133 -13z m-8920 13 c3 -8 -1 -12 -9 -9 -7 2 -15
10 -17 17 -3 8 1 12 9 9 7 -2 15 -10 17 -17z m3832 -49 c0 -30 -5 -44 -16 -49
-30 -11 -37 12 -18 65 21 58 34 51 34 -16z m216 2 c8 -64 -5 -89 -32 -62 -14
14 -15 22 -5 49 6 17 11 43 11 56 0 44 19 13 26 -43z m898 46 c32 -10 37 -14
24 -21 -31 -18 -122 -15 -151 4 -44 29 -34 40 31 34 31 -3 75 -11 96 -17z
m614 -24 c84 -64 158 -102 242 -125 67 -19 100 -39 100 -62 0 -20 -21 -17 -44
6 -14 14 -35 25 -48 25 -23 0 -23 0 2 -13 30 -15 38 -62 16 -92 -14 -20 -14
-20 -37 0 -12 11 -30 33 -40 49 -19 32 -123 74 -254 105 -82 19 -95 26 -95 52
0 23 66 99 87 99 8 0 40 -20 71 -44z m1013 22 c35 -41 109 -156 128 -202 l20
-44 -64 -61 -63 -61 -66 0 c-36 0 -66 3 -66 6 0 4 20 24 45 46 34 30 45 47 45
68 0 41 -35 125 -81 194 -21 32 -39 60 -39 61 0 6 42 12 83 14 29 1 44 -5 58
-21z m-2066 -18 c4 -6 -2 -7 -16 -1 -13 4 -25 14 -27 20 -3 10 0 10 16 2 12
-6 24 -16 27 -21z m1860 -24 c55 -57 132 -196 120 -215 -4 -7 -29 -30 -57 -51
-50 -41 -88 -49 -146 -34 -20 6 -19 8 19 27 63 31 68 54 29 124 -18 32 -52 86
-76 121 -24 35 -44 65 -44 67 0 5 38 12 75 14 23 1 39 -10 80 -53z m-716 18
c51 -42 40 -59 -19 -29 -48 25 -57 34 -43 48 12 13 31 7 62 -19z m313 -69 c65
-87 124 -183 116 -190 -8 -8 -142 83 -149 102 -9 26 -31 38 -82 47 -30 6 -45
17 -72 54 -55 74 -50 83 43 80 l77 -3 67 -90z m-1722 30 c0 -48 -2 -55 -20
-55 -15 0 -20 7 -20 29 0 37 16 81 30 81 6 0 10 -24 10 -55z m3700 2 c0 -18
-2 -19 -10 -7 -13 20 -13 43 0 35 6 -3 10 -16 10 -28z m1320 2 c0 -6 -4 -7
-10 -4 -5 3 -10 11 -10 16 0 6 5 7 10 4 6 -3 10 -11 10 -16z m-337 -40 c84
-17 71 -39 -23 -39 -48 0 -62 10 -52 38 5 15 5 15 75 1z m419 -85 c179 -122
266 -158 410 -170 62 -6 81 -11 89 -25 5 -11 16 -19 23 -19 35 0 29 -79 -11
-148 -44 -77 -156 -137 -209 -113 -13 5 -30 24 -39 41 -17 33 -10 41 11 13 12
-16 15 -16 24 -3 6 10 10 11 10 3 0 -7 7 -13 15 -13 8 0 15 4 15 10 0 5 7 7
16 3 14 -5 15 -3 4 18 -7 13 -22 37 -33 53 l-20 29 -18 -22 -18 -22 -57 73
c-32 40 -71 86 -88 101 -54 51 -210 164 -261 188 -52 25 -69 56 -45 84 17 21
59 2 182 -81z m-237 55 c0 -17 -6 -25 -22 -27 -19 -3 -23 1 -23 21 0 25 14 38
35 33 6 -2 10 -14 10 -27z m-9095 -16 c9 -9 -60 -63 -87 -69 -16 -3 -65 -24
-111 -46 -79 -39 -87 -41 -220 -49 -250 -15 -512 -9 -512 11 0 5 39 11 88 14
173 12 339 37 457 67 152 40 196 48 268 48 61 1 73 20 14 22 -31 1 -31 1 -7 9
24 8 99 3 110 -7z m5324 11 c11 -4 16 -19 16 -48 0 -28 8 -54 26 -80 26 -37
26 -40 9 -53 -26 -18 -79 -16 -105 5 -30 25 -41 139 -16 165 18 18 43 21 70
11z m166 -34 c30 -6 78 -21 108 -35 54 -25 152 -99 152 -116 0 -15 -84 -31
-141 -26 -65 6 -151 43 -202 89 -45 41 -51 67 -17 85 30 15 34 16 100 3z
m3580 -50 c5 0 10 8 11 18 0 13 3 12 11 -6 9 -18 17 -22 35 -18 16 5 36 -4 70
-30 55 -42 65 -57 31 -50 -12 3 -72 16 -133 30 -94 21 -260 84 -230 87 6 1 39
7 75 13 65 12 65 12 92 -16 15 -15 32 -28 38 -28z m-9790 -20 c0 -5 -4 -10
-10 -10 -5 0 -10 5 -10 10 0 6 5 10 10 10 6 0 10 -4 10 -10z m8110 -4 c0 -3
-4 -8 -10 -11 -5 -3 -10 -1 -10 4 0 6 5 11 10 11 6 0 10 -2 10 -4z m-1428 -17
c11 -6 35 -43 53 -82 67 -147 213 -310 355 -398 54 -33 103 -66 110 -74 28
-34 -58 -99 -146 -110 -45 -6 -53 -4 -82 20 -18 15 -32 36 -32 48 0 20 2 19
20 -8 11 -16 20 -24 20 -16 0 17 -75 147 -90 156 -13 8 -13 -1 1 -27 24 -44
-13 -5 -60 65 -27 40 -80 109 -119 154 -118 136 -142 171 -142 209 0 60 57 92
112 63z m1363 -58 c-3 -6 -11 -11 -17 -11 -6 0 -6 6 2 15 14 17 26 13 15 -4z
m-1179 -32 c38 -12 82 -28 97 -36 18 -9 33 -11 40 -5 7 5 39 4 82 -4 39 -8 87
-17 108 -20 20 -4 37 -10 37 -15 0 -10 120 -37 200 -43 71 -6 41 5 -55 20 -29
4 -42 9 -30 12 11 2 25 8 31 13 6 5 74 15 152 23 77 9 169 22 204 30 95 21
161 28 178 17 19 -13 15 -17 -95 -86 -232 -146 -325 -170 -610 -162 -198 6
-245 14 -289 48 -29 23 -35 42 -9 32 9 -4 -18 28 -60 70 -42 43 -77 84 -77 93
0 20 7 15 115 -76 106 -89 154 -124 161 -117 3 2 -26 28 -63 58 -151 118 -193
153 -193 161 0 11 -2 11 76 -13z m864 11 c0 -5 -5 -10 -11 -10 -5 0 -7 5 -4
10 3 6 8 10 11 10 2 0 4 -4 4 -10z m-1475 -20 c72 -25 112 -25 196 -1 37 10
70 16 75 12 5 -3 16 -22 25 -41 9 -19 45 -66 79 -103 34 -37 60 -71 57 -74 -7
-7 -146 19 -257 48 -179 47 -270 99 -270 153 0 32 16 33 95 6z m1735 0 c0 -5
-5 -10 -11 -10 -5 0 -7 5 -4 10 3 6 8 10 11 10 2 0 4 -4 4 -10z m-725 -570 c8
-16 15 -35 15 -42 -1 -18 -50 39 -50 58 0 24 19 16 35 -16z m-65 -3 c0 -8 9
-22 21 -32 11 -11 38 -46 60 -78 39 -59 49 -100 28 -112 -16 -11 -92 76 -110
125 -10 28 -27 53 -48 67 l-31 21 27 10 c39 15 53 14 53 -1z m-26 -89 c13 -29
40 -77 60 -105 20 -29 36 -57 36 -62 0 -6 8 -14 17 -20 10 -5 15 -13 11 -17
-4 -4 -13 -2 -20 3 -7 6 -26 13 -41 17 -42 10 -114 87 -127 135 -11 43 -30 56
-30 20 0 -12 -5 -19 -12 -16 -20 7 -10 40 23 70 42 39 57 34 83 -25z m298
-130 c22 -36 41 -88 34 -95 -3 -4 -19 6 -34 20 -34 32 -74 35 -102 7 -29 -29
-26 -71 10 -105 35 -33 38 -45 11 -45 -10 0 -26 -11 -35 -25 -19 -29 -51 -32
-78 -9 -17 16 -17 18 3 50 11 19 18 38 14 43 -9 15 40 86 81 118 20 15 44 36
53 45 22 22 26 22 43 -4z m-197 -93 c19 -6 19 -7 2 -17 -28 -15 -66 -2 -60 21
4 15 9 18 22 11 9 -5 25 -11 36 -15z m189 3 c18 -25 21 -64 6 -73 -21 -13 -90
72 -72 89 13 14 52 4 66 -16z m135 -97 c12 -22 5 -31 -26 -31 -18 0 -23 5 -23
25 0 31 34 35 49 6z m-110 -55 c14 -16 5 -43 -19 -56 -35 -18 -57 39 -22 59
23 14 28 13 41 -3z m-94 -96 c33 -36 -9 -78 -45 -45 -20 18 -26 46 -13 58 12
13 40 7 58 -13z"/>
<path d="M6885 4060 c10 -11 20 -20 23 -20 3 0 -3 9 -13 20 -10 11 -20 20 -23
20 -3 0 3 -9 13 -20z"/>
<path d="M6473 4173 c9 -2 23 -2 30 0 6 3 -1 5 -18 5 -16 0 -22 -2 -12 -5z"/>
<path d="M6400 4046 c0 -2 8 -10 18 -17 15 -13 16 -12 3 4 -13 16 -21 21 -21
13z"/>
<path d="M750 3975 c0 -20 43 -47 64 -39 21 8 20 17 -2 37 -23 21 -62 22 -62
2z m50 -9 c0 -11 -19 -15 -25 -6 -3 5 1 10 9 10 9 0 16 -2 16 -4z"/>
<path d="M620 3908 c-45 -31 -57 -52 -41 -72 16 -19 55 -21 100 -5 39 14 51
51 26 79 -23 26 -44 25 -85 -2z m67 -24 c3 -8 -2 -23 -11 -32 -15 -15 -16 -14
-16 11 0 29 -1 30 -24 21 -19 -7 -21 -30 -3 -37 6 -2 8 -8 4 -13 -9 -9 -39 6
-45 24 -4 12 44 41 71 42 10 0 20 -7 24 -16z"/>
<path d="M6450 3894 c0 -8 5 -12 10 -9 6 3 10 10 10 16 0 5 -4 9 -10 9 -5 0
-10 -7 -10 -16z"/>
<path d="M6700 3820 c20 -13 33 -13 25 0 -3 6 -14 10 -23 10 -15 0 -15 -2 -2
-10z"/>
<path d="M10835 3540 c3 -5 13 -10 21 -10 8 0 14 5 14 10 0 6 -9 10 -21 10
-11 0 -17 -4 -14 -10z"/>
<path d="M10812 3508 c-8 -8 -9 -15 -1 -25 15 -18 39 -17 39 2 0 8 5 15 10 15
6 0 10 5 10 10 0 14 -43 13 -58 -2z"/>
<path d="M10755 3464 c-10 -10 -24 -14 -40 -10 -18 5 -25 2 -25 -8 0 -15 47
-76 58 -76 12 0 62 47 62 58 0 6 8 12 18 14 13 3 10 8 -15 21 -39 21 -38 21
-58 1z"/>
<path d="M6290 3692 c0 -13 23 -32 38 -32 7 0 10 4 7 10 -9 14 -45 32 -45 22z"/>
<path d="M7057 3488 c94 -124 282 -318 308 -318 13 0 4 10 -27 33 -55 39 -113
102 -242 265 -54 67 -102 122 -107 122 -5 0 26 -46 68 -102z"/>
<path d="M7330 3556 c0 -2 7 -6 15 -10 8 -3 15 -1 15 4 0 6 -7 10 -15 10 -8 0
-15 -2 -15 -4z"/>
<path d="M7830 3541 c-50 -5 -60 -8 -42 -14 25 -10 179 1 202 14 17 9 -54 9
-160 0z"/>
<path d="M7401 3531 c25 -16 235 -68 299 -75 72 -7 39 4 -140 45 -74 17 -144
33 -155 35 -17 4 -18 4 -4 -5z"/>
<path d="M7315 3520 c14 -23 297 -121 345 -119 14 0 -15 11 -63 25 -49 13
-133 41 -188 63 -54 21 -97 35 -94 31z"/>
<path d="M7370 3465 c0 -7 168 -85 183 -85 21 0 -7 18 -58 38 -27 11 -67 27
-87 36 -21 9 -38 14 -38 11z"/>
<path d="M6710 3564 l-55 -13 57 4 c31 2 65 8 75 14 17 10 17 10 -2 10 -11 -1
-45 -7 -75 -15z"/>
<path d="M6773 3523 c-14 -5 -18 -23 -5 -23 5 0 17 7 28 15 14 11 15 14 4 14
-8 0 -21 -3 -27 -6z"/>
<path d="M7410 2960 c0 -5 5 -10 11 -10 5 0 7 5 4 10 -3 6 -8 10 -11 10 -2 0
-4 -4 -4 -10z"/>
<path d="M10961 3523 c-5 -10 -12 -45 -16 -78 l-6 -61 43 -23 c24 -14 64 -47
90 -75 42 -45 49 -49 70 -39 29 13 98 129 98 164 0 35 -64 92 -128 113 -64 22
-139 21 -151 -1z m134 -23 c14 -5 44 -24 66 -42 45 -36 50 -67 20 -127 -34
-66 -71 -79 -71 -24 0 13 -9 38 -20 53 -16 23 -30 30 -63 32 l-42 3 -3 58 -3
57 45 0 c25 0 56 -4 71 -10z"/>
<path d="M11010 3480 c0 -5 5 -10 11 -10 5 0 7 5 4 10 -3 6 -8 10 -11 10 -2 0
-4 -4 -4 -10z"/>
<path d="M11152 3409 c-14 -36 -24 -89 -18 -89 3 0 15 21 27 46 14 32 17 50
10 57 -7 7 -13 3 -19 -14z"/>
<path d="M11240 3318 c-11 -18 -20 -41 -20 -52 0 -19 64 -89 90 -98 13 -4 13
-7 -1 -24 -9 -10 -20 -30 -24 -44 -11 -36 -23 -48 -70 -69 -32 -14 -44 -26
-48 -46 -7 -40 10 -80 40 -94 23 -11 29 -8 69 32 25 25 44 54 44 66 0 17 5 20
23 16 26 -6 40 2 56 32 17 34 14 63 -8 63 -22 0 -32 -20 -24 -49 7 -26 -8 -27
-37 -3 -32 26 -17 75 26 82 27 5 28 6 9 17 -19 11 -19 12 8 41 42 44 30 88
-37 140 -41 32 -72 29 -96 -10z m102 -39 c41 -43 44 -62 12 -67 -25 -4 -88 38
-92 61 -11 58 28 61 80 6z m-54 -295 c2 -12 -8 -34 -22 -50 -25 -28 -26 -29
-41 -10 -16 21 -20 67 -8 80 4 4 21 6 38 4 22 -2 31 -9 33 -24z"/>
<path d="M10794 3266 c-58 -58 -43 -111 41 -138 30 -10 48 -26 73 -63 19 -28
40 -51 48 -53 8 -2 14 -10 14 -19 0 -20 64 -83 85 -83 12 0 15 -5 10 -17 -8
-21 -8 -22 -6 -45 2 -25 60 -78 86 -78 25 0 65 42 65 67 0 8 -18 33 -40 55
-36 37 -39 44 -34 82 5 35 2 47 -18 71 -33 39 -48 69 -48 94 0 15 -10 23 -42
31 -58 16 -85 36 -114 86 -34 57 -70 60 -120 10z m125 -56 c38 -38 70 -62 90
-66 17 -4 31 -12 31 -19 0 -20 -27 -26 -40 -9 -7 8 -25 14 -41 14 -28 0 -90
49 -101 80 -5 13 -8 12 -20 -4 -16 -20 -38 -15 -38 10 0 16 35 54 50 54 6 0
37 -27 69 -60z m197 -217 c9 -43 -14 -52 -55 -22 -37 27 -38 35 -9 66 21 23
23 23 40 6 10 -10 20 -33 24 -50z m54 -118 c16 -19 6 -45 -18 -45 -23 0 -56
35 -47 49 9 16 51 13 65 -4z"/>
<path d="M11112 3214 c-14 -9 -22 -26 -22 -43 0 -35 37 -91 73 -111 25 -14 30
-13 65 5 48 26 53 60 16 104 -27 32 -72 61 -96 61 -8 0 -24 -7 -36 -16z m84
-19 c12 -8 29 -31 39 -51 17 -35 16 -37 -4 -57 l-21 -21 -36 34 c-52 51 -57
63 -33 89 23 25 28 26 55 6z"/>
<path d="M11448 3213 c-44 -51 -43 -57 28 -129 l66 -68 19 25 c38 49 35 58
-33 126 -60 60 -65 63 -80 46z m60 -72 c55 -69 40 -81 -25 -22 -32 29 -39 41
-31 49 18 18 22 16 56 -27z"/>
<path d="M7630 3101 c0 -6 10 -16 23 -22 12 -6 32 -21 44 -32 35 -31 41 -10 7
22 -31 31 -74 49 -74 32z"/>
<path d="M11432 3037 c-15 -19 -22 -51 -14 -63 15 -25 105 -85 118 -80 34 13
24 86 -12 86 -7 0 -23 13 -35 30 -26 35 -44 43 -57 27z m58 -70 c0 -9 -36 9
-45 23 -3 6 -3 15 1 21 4 8 13 4 25 -12 10 -13 19 -28 19 -32z m50 -31 c0 -3
-4 -8 -10 -11 -5 -3 -10 -1 -10 4 0 6 5 11 10 11 6 0 10 -2 10 -4z"/>
<path d="M11602 3038 c-19 -19 -15 -82 6 -101 10 -10 23 -17 29 -17 6 0 23
-10 38 -22 l28 -22 18 23 c28 35 22 52 -37 104 -59 51 -64 53 -82 35z m53 -76
c-23 -5 -39 13 -31 35 7 16 9 16 28 -7 19 -23 19 -25 3 -28z"/>
<path d="M11352 2927 c-12 -13 -22 -28 -22 -34 0 -5 24 -26 53 -46 28 -20 62
-44 75 -53 18 -13 25 -14 37 -4 17 14 20 50 5 50 -5 0 -10 -4 -10 -10 0 -20
-26 -8 -74 34 -43 38 -47 45 -37 64 15 29 0 28 -27 -1z"/>
<path d="M7695 2910 c3 -5 11 -10 16 -10 6 0 7 5 4 10 -3 6 -11 10 -16 10 -6
0 -7 -4 -4 -10z"/>
<path d="M7812 2904 c1 -9 9 -19 16 -22 9 -3 13 2 10 14 -1 9 -9 19 -16 22 -9
3 -13 -2 -10 -14z"/>
<path d="M11576 2894 c-16 -42 1 -84 33 -84 8 0 23 -7 33 -16 14 -13 21 -14
32 -5 31 26 25 48 -24 85 -52 40 -65 43 -74 20z m52 -33 c3 -8 -1 -12 -9 -9
-7 2 -15 10 -17 17 -3 8 1 12 9 9 7 -2 15 -10 17 -17z"/>
<path d="M11430 2892 c0 -11 22 -32 32 -32 5 0 4 9 -2 20 -11 20 -30 28 -30
12z"/>
<path d="M11747 2893 c-13 -13 -7 -61 11 -81 9 -11 29 -27 43 -36 25 -16 28
-16 43 -1 21 21 20 25 -9 66 -39 52 -70 71 -88 52z m73 -75 c0 -11 -7 -10 -31
2 -28 16 -23 32 6 18 14 -6 25 -15 25 -20z"/>
<path d="M11278 2869 c-33 -19 -21 -53 37 -108 59 -56 96 -65 119 -29 9 14 -1
28 -58 83 -38 36 -71 65 -75 65 -3 0 -14 -5 -23 -11z m132 -120 c0 -4 -5 -11
-12 -15 -14 -9 -98 78 -98 101 0 11 17 1 55 -31 30 -26 55 -51 55 -55z"/>
<path d="M11526 2798 c-24 -34 -19 -54 17 -77 17 -11 43 -28 56 -38 23 -17 24
-16 42 6 27 33 24 57 -10 71 -16 6 -38 22 -50 36 -26 30 -36 30 -55 2z m69
-39 c47 -42 44 -56 -5 -23 -22 15 -40 33 -40 40 0 20 5 18 45 -17z"/>
<path d="M11206 2769 c-14 -11 -26 -26 -26 -32 0 -13 115 -127 128 -127 12 0
27 14 45 40 17 24 16 25 -40 82 -32 32 -63 58 -69 58 -6 0 -23 -9 -38 -21z
m88 -49 c34 -38 45 -60 29 -60 -14 1 -102 87 -96 94 14 14 32 4 67 -34z"/>
<path d="M11701 2772 c-14 -25 9 -57 59 -82 l39 -20 17 24 c19 30 14 39 -37
71 -46 30 -65 31 -78 7z m74 -26 c17 -13 28 -27 25 -30 -8 -7 -70 31 -70 44 0
16 13 12 45 -14z"/>
<path d="M11885 2758 c-4 -13 -16 -33 -27 -45 -27 -29 -16 -59 32 -83 36 -18
40 -18 55 -4 24 24 13 38 -31 44 -26 3 -39 10 -39 20 0 11 9 14 35 11 85 -8
104 -6 108 11 2 11 -12 25 -41 42 -55 32 -83 33 -92 4z"/>
<path d="M7982 2708 c-28 -76 -26 -82 50 -147 l72 -61 20 31 20 32 -38 32
c-21 17 -50 53 -64 80 -31 56 -48 66 -60 33z m44 -63 c4 -14 4 -29 0 -32 -11
-12 -37 23 -30 40 9 25 23 21 30 -8z m69 -75 c3 -5 1 -10 -4 -10 -6 0 -11 5
-11 10 0 6 2 10 4 10 3 0 8 -4 11 -10z"/>
<path d="M11441 2694 c-12 -15 -21 -31 -21 -35 0 -8 36 -34 106 -79 20 -13 25
-12 43 4 27 24 27 63 1 71 -11 3 -32 19 -47 36 -34 36 -55 37 -82 3z m90 -44
c25 -22 38 -39 29 -39 -14 0 -90 63 -90 74 0 13 22 1 61 -35z"/>
<path d="M11666 2694 c-16 -43 -7 -64 40 -87 45 -22 46 -22 60 -2 19 26 15 34
-35 73 -48 36 -56 38 -65 16z m70 -55 c4 -8 1 -8 -14 0 -12 6 -24 16 -28 22
-4 8 -1 8 14 0 12 -6 24 -16 28 -22z"/>
<path d="M12047 2674 c-9 -9 42 -64 60 -64 20 0 35 36 19 49 -17 15 -69 24
-79 15z"/>
<path d="M11370 2618 c-31 -33 -25 -50 29 -86 53 -34 80 -39 99 -20 23 23 12
45 -43 87 -31 22 -58 41 -60 41 -2 0 -13 -10 -25 -22z m51 -24 c7 -9 25 -21
39 -26 14 -6 20 -12 12 -15 -15 -6 -74 27 -80 45 -5 17 13 15 29 -4z"/>
<path d="M11987 2623 c-26 -25 10 -73 54 -73 41 0 39 34 -3 60 -36 22 -41 23
-51 13z"/>
<path d="M12161 2621 c-21 -13 -5 -41 23 -41 30 0 42 16 26 35 -14 17 -29 19
-49 6z"/>
<path d="M11615 2604 c-25 -26 -19 -47 25 -77 18 -13 20 -17 8 -17 -9 0 -20 5
-23 10 -16 25 -95 -8 -95 -40 0 -11 44 -35 82 -44 26 -6 58 13 58 35 0 5 11
15 25 21 42 19 34 58 -20 96 -40 28 -46 30 -60 16z m85 -67 c0 -5 -13 0 -30
10 -16 9 -30 21 -30 25 0 4 13 -1 30 -10 16 -9 30 -21 30 -25z m-63 -53 c2 -7
-6 -10 -22 -6 -35 6 -44 24 -9 20 15 -2 29 -8 31 -14z"/>
<path d="M11790 2600 c0 -23 33 -47 77 -56 53 -10 55 34 2 61 -42 22 -79 20
-79 -5z m57 -6 c-3 -3 -12 -4 -19 -1 -8 3 -5 6 6 6 11 1 17 -2 13 -5z"/>
<path d="M12256 2592 c-2 -4 -1 -14 4 -22 7 -11 12 -12 21 -3 6 6 8 16 5 22
-8 13 -23 14 -30 3z"/>
<path d="M7943 2569 c-16 -16 6 -57 52 -98 40 -35 77 -38 83 -8 4 22 -25 57
-46 57 -12 0 -10 -6 8 -25 13 -14 19 -25 13 -25 -17 0 -53 46 -53 68 0 12 -9
26 -19 32 -24 13 -24 13 -38 -1z"/>
<path d="M12120 2541 c0 -21 38 -35 64 -25 21 8 20 21 -3 34 -32 17 -61 12
-61 -9z"/>
<path d="M12330 2550 c0 -5 7 -10 15 -10 8 0 15 5 15 10 0 6 -7 10 -15 10 -8
0 -15 -4 -15 -10z"/>
<path d="M11946 2538 c-31 -17 -19 -46 24 -58 22 -6 45 -8 50 -5 17 10 11 25
-10 25 -11 0 -20 5 -20 10 0 6 5 10 11 10 16 0 2 17 -19 22 -11 3 -27 1 -36
-4z"/>
<path d="M12245 2536 c-18 -13 -18 -14 4 -25 29 -16 58 3 40 25 -14 17 -20 17
-44 0z"/>
<path d="M12396 2543 c-11 -11 -6 -23 9 -23 8 0 15 4 15 9 0 13 -16 22 -24 14z"/>
<path d="M11757 2534 c-18 -18 -6 -54 23 -69 54 -28 112 -10 96 30 -9 24 -103
55 -119 39z m59 -28 c22 -17 11 -35 -13 -20 -19 12 -29 34 -16 34 5 0 18 -6
29 -14z"/>
<path d="M12451 2516 c-8 -10 -9 -16 -1 -21 6 -3 8 -11 5 -16 -9 -14 -25 -11
-25 6 0 24 -28 18 -46 -10 -23 -35 -34 -31 -34 10 0 46 -17 45 -26 -2 -10 -55
-14 -58 -39 -27 -15 19 -27 25 -39 21 -10 -4 -15 -11 -12 -16 3 -5 -1 -14 -9
-21 -8 -7 -15 -19 -15 -28 0 -13 13 -14 87 -8 48 3 105 11 126 17 45 12 124
80 113 97 -10 17 -71 15 -85 -2z"/>
<path d="M8132 2508 c-19 -19 -15 -31 23 -75 36 -42 47 -65 20 -43 -21 17 -19
1 3 -23 16 -19 16 -20 -4 -9 -29 15 -47 39 -48 64 0 12 -6 23 -13 25 -17 6
-26 -33 -13 -57 13 -24 87 -80 106 -80 20 0 57 68 50 94 -9 35 -75 116 -94
116 -10 0 -23 -5 -30 -12z"/>
<path d="M7874 2496 c-11 -30 87 -136 126 -136 28 0 25 27 -4 34 -29 7 -71 62
-71 91 0 25 -42 34 -51 11z"/>
<path d="M12080 2480 c0 -27 46 -45 77 -31 28 13 30 31 3 31 -11 0 -20 5 -20
10 0 6 -13 10 -30 10 -23 0 -30 -4 -30 -20z"/>
<path d="M7960 2451 c0 -10 30 -24 37 -17 3 2 -5 9 -16 16 -12 6 -21 7 -21 1z"/>
<path d="M11907 2453 c-15 -14 -6 -40 18 -51 35 -16 49 -15 68 6 23 25 22 28
-14 41 -36 13 -63 14 -72 4z"/>
<path d="M7784 2436 c-12 -31 3 -52 66 -94 68 -44 86 -48 104 -20 13 22 1 35
-19 18 -12 -10 -19 -9 -37 3 -44 31 -55 42 -69 71 -16 34 -36 44 -45 22z"/>
<path d="M11678 2429 c-3 -8 -3 -20 0 -28 5 -16 99 -61 129 -61 22 0 53 33 53
56 0 28 -172 59 -182 33z m82 -19 c8 -5 12 -11 9 -14 -3 -3 -14 1 -25 9 -21
16 -8 20 16 5z"/>
<path d="M12044 2415 c-10 -24 6 -35 51 -35 77 0 99 20 44 39 -45 15 -89 14
-95 -4z"/>
<path d="M7885 2390 c3 -5 8 -10 11 -10 2 0 4 5 4 10 0 6 -5 10 -11 10 -5 0
-7 -4 -4 -10z"/>
<path d="M7727 2366 c-20 -11 -37 -27 -37 -34 0 -7 24 -38 54 -68 45 -45 61
-54 90 -54 35 0 66 21 66 44 0 6 -31 39 -68 73 l-68 60 -37 -21z m103 -60 c51
-37 56 -49 22 -54 -17 -3 -36 9 -68 42 -25 25 -43 50 -39 56 7 12 17 7 85 -44z"/>
<path d="M8045 2349 c-13 -21 5 -57 43 -83 44 -30 55 -32 73 -10 11 14 9 20
-19 45 -32 29 -60 39 -46 18 4 -7 1 -10 -7 -7 -8 3 -15 14 -17 26 -4 23 -17
29 -27 11z m103 -78 c3 -8 -1 -12 -9 -9 -7 2 -15 10 -17 17 -3 8 1 12 9 9 7
-2 15 -10 17 -17z"/>
<path d="M8271 2337 c-5 -13 -16 -29 -25 -36 -8 -7 -27 -33 -41 -57 -25 -42
-25 -47 -11 -69 17 -25 72 -43 88 -27 6 6 -1 22 -21 45 -39 43 -39 52 -1 32
43 -22 53 -19 89 25 37 46 35 67 -8 93 -39 23 -60 21 -70 -6z m29 -82 c10 -12
10 -15 -3 -15 -8 0 -20 7 -27 15 -10 12 -10 15 3 15 8 0 20 -7 27 -15z m-44
-83 c-4 -3 -14 2 -24 12 -16 18 -16 18 6 6 13 -6 21 -14 18 -18z"/>
<path d="M7971 2276 c-16 -19 -6 -37 44 -79 50 -42 71 -46 81 -15 5 17 -3 30
-39 65 -48 45 -67 52 -86 29z m99 -61 c20 -25 -5 -18 -39 11 -17 14 -31 30
-31 36 0 10 50 -22 70 -47z"/>
<path d="M8386 2241 c-12 -18 8 -44 48 -62 71 -32 78 14 7 51 -46 23 -48 23
-55 11z"/>
<path d="M7909 2194 c-9 -11 -22 -14 -41 -10 -15 3 -28 1 -28 -3 0 -13 67 -65
117 -90 l42 -21 15 22 c24 34 19 54 -14 68 -17 7 -33 10 -36 7 -3 -3 4 -8 15
-12 12 -3 21 -11 21 -16 0 -15 -26 -10 -51 10 -19 16 -22 22 -11 32 6 7 12 17
12 21 0 14 -27 9 -41 -8z"/>
<path d="M8350 2166 c0 -19 57 -66 81 -66 32 0 23 36 -15 59 -39 24 -66 27
-66 7z"/>
<path d="M8517 2164 c-4 -4 -7 -17 -7 -30 0 -25 28 -36 71 -27 49 9 31 47 -27
59 -16 3 -32 2 -37 -2z"/>
<path d="M8145 2144 c-19 -19 -8 -37 37 -60 23 -12 33 -13 44 -3 22 18 17 36
-20 58 -40 25 -40 25 -61 5z m62 -30 c-3 -3 -12 -4 -19 -1 -8 3 -5 6 6 6 11 1
17 -2 13 -5z"/>
<path d="M8300 2096 c0 -31 64 -71 95 -60 25 10 18 22 -28 49 -50 28 -67 31
-67 11z"/>
<path d="M8630 2100 c0 -13 49 -32 67 -26 7 3 10 12 7 21 -7 17 -74 22 -74 5z"/>
<path d="M8092 2088 c-7 -7 -12 -22 -12 -35 0 -39 65 -58 91 -27 12 14 9 20
-21 45 -39 33 -41 34 -58 17z m53 -38 c3 -5 2 -10 -4 -10 -5 0 -13 5 -16 10
-3 6 -2 10 4 10 5 0 13 -4 16 -10z"/>
<path d="M8480 2081 c0 -21 51 -47 75 -37 25 9 17 33 -16 45 -45 16 -59 14
-59 -8z"/>
<path d="M8613 2044 c-8 -20 6 -32 45 -40 25 -5 32 -3 32 9 0 17 -37 47 -58
47 -7 0 -15 -7 -19 -16z"/>
<path d="M8720 2047 c0 -8 9 -22 20 -32 26 -23 52 -6 34 23 -14 22 -54 29 -54
9z"/>
<path d="M8250 2036 c-9 -12 -3 -19 39 -40 45 -24 81 -33 81 -22 0 23 -15 35
-39 31 -19 -4 -21 -3 -7 3 17 8 17 9 -7 25 -32 21 -51 22 -67 3z"/>
<path d="M8454 2018 c-9 -13 31 -48 55 -48 17 0 41 18 41 30 0 10 -48 30 -70
30 -10 0 -22 -5 -26 -12z"/>
<path d="M8180 1986 c-22 -28 126 -104 152 -78 20 20 0 42 -37 42 -25 0 -44 8
-61 25 -29 29 -37 30 -54 11z"/>
<path d="M8584 1978 c-10 -17 33 -48 67 -48 21 0 29 5 29 18 0 32 -80 57 -96
30z"/>
<path d="M8411 1962 c-13 -25 14 -52 51 -52 33 0 42 23 17 46 -13 12 -19 13
-19 4 0 -9 -6 -8 -19 4 -18 17 -20 17 -30 -2z"/>
<path d="M8719 1966 c16 -19 55 -22 49 -3 -3 6 -17 14 -33 15 -25 3 -27 2 -16
-12z"/>
<path d="M8795 1970 c-9 -15 4 -30 26 -30 23 0 26 25 3 34 -21 8 -22 8 -29 -4z"/>
<path d="M8540 1924 c0 -34 63 -75 84 -54 8 8 3 18 -17 36 -25 21 -67 33 -67
18z"/>
<path d="M8705 1910 c3 -5 15 -10 26 -10 11 0 17 5 14 10 -3 6 -15 10 -26 10
-11 0 -17 -4 -14 -10z"/>
<path d="M8860 1903 c0 -3 7 -14 15 -23 14 -16 13 -18 -15 -24 -18 -3 -41 -1
-52 5 -24 13 -48 5 -48 -15 0 -27 34 -37 91 -26 71 14 88 30 65 64 -15 23 -56
37 -56 19z"/>
<path d="M8667 1873 c-26 -25 31 -55 60 -31 13 10 13 14 -3 25 -19 14 -47 17
-57 6z"/>
</g>
</svg>
