<?xml version="1.0" standalone="no"?>
<!DOCTYPE svg PUBLIC "-//W3C//DTD SVG 20010904//EN"
 "http://www.w3.org/TR/2001/REC-SVG-20010904/DTD/svg10.dtd">
<svg version="1.0" xmlns="http://www.w3.org/2000/svg"
 width="1280.000000pt" height="824.000000pt" viewBox="0 0 1280.000000 824.000000"
 preserveAspectRatio="xMidYMid meet">
<metadata>
Created by potrace 1.15, written by Peter Selinger 2001-2017
</metadata>
<g transform="translate(0.000000,824.000000) scale(0.100000,-0.100000)"
fill="#000000" stroke="none">
<path d="M1265 8233 c-11 -3 -25 -9 -31 -14 -6 -5 -23 -4 -41 3 -25 10 -37 8
-84 -15 -36 -17 -87 -30 -154 -38 -78 -10 -115 -20 -165 -45 -36 -19 -93 -38
-127 -43 -34 -5 -70 -14 -81 -20 -30 -16 -168 -51 -201 -51 -37 0 -140 -38
-167 -62 -11 -10 -30 -18 -42 -18 -37 0 -86 -25 -130 -67 -46 -44 -53 -76 -22
-93 11 -6 20 -7 20 -3 0 4 8 -7 18 -26 35 -70 55 -76 224 -74 92 1 212 11 307
24 143 20 167 21 286 10 96 -9 167 -9 272 -2 78 6 149 8 158 5 9 -4 23 -20 31
-36 8 -16 34 -38 57 -49 24 -12 54 -37 67 -58 14 -20 44 -53 66 -74 23 -20 65
-67 92 -105 45 -60 55 -85 102 -242 28 -96 56 -188 62 -205 5 -16 16 -91 24
-165 12 -118 11 -171 -3 -431 -19 -339 -13 -455 37 -664 15 -66 31 -147 34
-180 8 -91 39 -195 110 -376 91 -232 186 -398 272 -478 46 -42 52 -53 62 -109
14 -77 53 -146 103 -179 22 -14 39 -29 39 -32 0 -15 81 -131 92 -131 28 0 186
-77 210 -102 14 -15 33 -28 41 -28 8 0 48 -15 88 -34 72 -32 172 -56 238 -56
67 0 106 -36 183 -165 72 -121 119 -185 213 -285 28 -30 75 -96 103 -146 45
-79 52 -99 52 -145 0 -64 29 -129 92 -208 34 -42 56 -59 108 -80 46 -19 71
-36 88 -61 12 -18 39 -45 59 -59 32 -24 44 -26 130 -25 67 1 99 6 111 17 9 8
48 17 85 21 l68 7 19 -43 c25 -57 63 -92 127 -117 54 -21 62 -22 293 -18 72 1
115 -3 137 -13 24 -11 37 -11 55 -3 13 6 43 16 67 23 38 10 91 51 91 70 0 4
-19 7 -42 6 -24 0 -52 3 -63 7 -17 7 -14 11 22 27 34 15 63 44 63 63 0 2 -13
2 -30 -1 -47 -7 -80 6 -122 49 -42 42 -62 47 -96 23 -20 -13 -22 -13 -22 0 0
22 -37 39 -70 33 -21 -5 -33 0 -56 24 -25 26 -34 29 -90 29 l-63 0 -12 41
c-13 43 -38 61 -99 73 -22 4 -56 26 -93 60 -57 52 -58 53 -77 144 -12 59 -17
112 -13 146 l5 53 94 -54 c51 -30 100 -65 108 -79 26 -39 246 -221 307 -254
41 -22 91 -36 180 -51 67 -11 158 -34 201 -50 44 -16 90 -29 104 -29 28 0 108
-35 124 -56 23 -26 -68 -152 -145 -200 -16 -11 -72 -56 -125 -102 -112 -98
-159 -130 -316 -218 -65 -36 -136 -78 -159 -93 -22 -16 -58 -31 -80 -35 -55
-9 -154 -63 -184 -99 -39 -46 -48 -70 -56 -139 -20 -194 -40 -244 -131 -338
-48 -50 -69 -80 -74 -107 -5 -21 -14 -52 -21 -70 -16 -40 -2 -109 22 -107 11
1 21 -12 29 -39 l12 -40 25 42 24 41 50 -6 c67 -9 95 10 104 70 6 38 12 46 37
55 29 10 29 10 23 -18 -9 -43 11 -103 45 -136 l30 -29 0 26 c0 55 15 75 62 81
55 7 81 37 72 83 -4 22 0 42 11 62 15 25 16 35 6 63 -11 31 -9 35 24 69 37 38
39 56 8 92 -21 24 -8 52 43 94 44 36 44 37 44 100 l0 63 123 73 c143 84 287
188 372 268 70 67 229 192 271 213 16 8 53 20 82 26 65 14 86 24 134 67 21 19
48 36 61 39 33 9 57 55 57 112 0 55 -18 87 -76 137 -22 19 -55 63 -73 98 -19
35 -61 91 -94 125 -34 34 -59 64 -56 66 2 2 29 10 59 19 30 8 62 18 71 22 11
5 30 -13 71 -66 73 -96 78 -107 78 -170 0 -62 4 -70 48 -92 25 -13 33 -22 29
-37 -12 -46 52 -159 90 -159 8 0 13 -12 13 -30 0 -22 5 -30 18 -30 11 0 26
-16 40 -45 12 -24 38 -63 59 -86 54 -60 188 -166 247 -196 28 -14 97 -54 154
-89 57 -36 142 -84 190 -108 48 -24 157 -89 242 -145 114 -75 154 -106 155
-122 1 -12 11 -29 21 -38 11 -9 25 -28 32 -43 6 -16 17 -28 23 -28 6 0 33 -15
59 -34 27 -19 66 -44 88 -55 28 -14 51 -38 74 -77 18 -30 55 -90 82 -132 27
-42 59 -107 72 -144 24 -72 66 -153 149 -288 60 -96 81 -156 89 -250 3 -36 14
-83 26 -105 16 -32 20 -58 20 -143 0 -104 0 -105 -32 -142 -18 -20 -45 -60
-60 -88 -26 -48 -30 -51 -58 -46 -20 4 -30 2 -30 -5 0 -7 -10 -11 -22 -10 -41
4 -58 -1 -58 -15 0 -8 -15 -29 -34 -48 -19 -19 -38 -47 -42 -62 -4 -15 -17
-39 -30 -53 -25 -27 -52 -99 -41 -109 3 -4 18 3 33 15 32 25 61 27 85 5 10 -9
36 -18 59 -21 33 -5 48 -1 71 16 24 18 38 21 73 16 39 -6 45 -4 69 25 15 17
27 36 27 41 0 19 83 99 102 99 17 0 19 -4 12 -27 -11 -38 -9 -96 5 -122 7 -12
30 -33 52 -47 22 -13 45 -36 51 -49 15 -34 33 -31 48 8 7 17 22 39 32 47 40
33 50 148 16 179 -21 20 -21 21 -6 108 14 78 14 97 0 200 -13 91 -13 117 -3
136 9 17 9 30 2 51 -6 15 -11 45 -11 66 0 21 -5 61 -12 88 -9 42 -17 54 -45
69 -28 15 -43 36 -79 112 -24 51 -72 132 -107 180 -83 113 -100 142 -127 225
-14 43 -49 109 -92 172 -37 56 -75 122 -84 146 -23 64 -47 167 -49 216 -3 51
-44 113 -90 135 -16 8 -78 50 -136 93 -58 44 -120 87 -137 96 -39 21 -107 124
-183 278 -89 179 -131 237 -242 330 -54 45 -113 101 -130 125 -18 23 -50 64
-71 90 -32 37 -39 54 -38 81 2 19 -8 57 -21 86 -22 48 -24 63 -19 162 l4 108
52 -6 c28 -3 75 -8 104 -12 73 -9 134 15 173 69 16 22 29 49 29 60 0 32 59
208 88 260 31 58 138 142 269 213 48 26 166 92 260 146 129 74 195 106 260
124 49 14 142 43 208 64 66 21 165 47 220 59 96 19 435 73 540 86 28 4 100 15
160 26 244 42 365 51 718 56 387 6 569 -4 802 -43 567 -94 1046 -234 1467
-430 177 -82 218 -108 554 -345 155 -110 284 -199 288 -199 33 0 -66 122 -191
237 -278 254 -529 430 -707 497 -34 13 -97 41 -141 63 -101 51 -376 160 -520
207 -280 90 -886 246 -1190 306 -88 17 -162 33 -166 35 -24 15 -517 89 -674
101 -332 25 -420 27 -698 15 -346 -16 -555 -34 -821 -71 -384 -54 -521 -69
-710 -81 -185 -11 -252 -9 -815 26 -47 3 -98 12 -114 20 -17 8 -40 15 -52 15
-54 0 -204 33 -256 56 -31 14 -67 27 -80 29 -85 11 -238 63 -336 116 -198 104
-405 165 -663 195 -124 14 -166 15 -290 5 -153 -12 -259 -26 -325 -42 -58 -14
-279 -38 -355 -39 -86 0 -138 -15 -175 -50 -54 -52 -132 -64 -214 -35 -50 17
-144 8 -235 -24 -33 -12 -83 -21 -112 -21 -57 0 -201 46 -269 85 -108 63 -300
325 -344 469 -51 165 -77 378 -90 731 -6 138 -17 313 -25 390 -8 77 -20 190
-26 250 -15 148 -45 315 -72 400 -27 85 -82 167 -222 331 -94 109 -117 130
-170 155 -33 16 -66 29 -71 29 -6 0 -16 9 -22 19 -7 11 -32 28 -55 39 -53 23
-209 37 -226 20 -9 -9 -18 -9 -37 0 -27 13 -28 13 -60 5z m11395 -4339 c19
-21 2 -9 -37 26 -40 35 -73 66 -73 68 0 8 76 -57 110 -94z m-8604 -246 c19 -9
33 -31 49 -73 12 -33 38 -103 58 -155 35 -93 36 -98 26 -163 -7 -44 -7 -83 -1
-112 l10 -45 -42 -11 c-38 -10 -42 -9 -56 12 -31 47 -49 59 -93 59 -39 0 -48
5 -99 58 -85 86 -153 204 -193 338 -19 62 -41 130 -50 150 -8 20 -15 40 -15
43 0 9 371 -83 406 -101z"/>
</g>
</svg>
