<?xml version="1.0" standalone="no"?>
<!DOCTYPE svg PUBLIC "-//W3C//DTD SVG 20010904//EN"
 "http://www.w3.org/TR/2001/REC-SVG-20010904/DTD/svg10.dtd">
<svg version="1.0" xmlns="http://www.w3.org/2000/svg"
 width="1280.000000pt" height="796.000000pt" viewBox="0 0 1280.000000 796.000000"
 preserveAspectRatio="xMidYMid meet">
<metadata>
Created by potrace 1.15, written by Peter Selinger 2001-2017
</metadata>
<g transform="translate(0.000000,796.000000) scale(0.100000,-0.100000)"
fill="#000000" stroke="none">
<path d="M4569 7847 c-36 -28 -43 -59 -40 -196 2 -141 -13 -389 -30 -506 -9
-65 -44 -231 -55 -264 -6 -18 -29 13 -62 83 -46 100 -156 235 -271 333 l-75
64 -17 -54 c-37 -118 -92 -188 -162 -209 -62 -19 -142 4 -327 92 -173 82 -274
120 -322 120 l-28 0 0 -81 c0 -55 4 -85 13 -93 7 -6 21 -36 31 -66 10 -30 52
-125 92 -211 78 -167 121 -281 130 -353 l7 -45 -64 21 c-35 11 -92 21 -126 22
-52 1 -65 -3 -87 -23 -16 -15 -28 -39 -31 -65 l-7 -42 -151 33 c-206 44 -344
63 -458 63 -223 0 -271 -67 -181 -254 72 -151 165 -274 380 -505 94 -100 94
-101 68 -111 -26 -10 -89 -18 -326 -45 -210 -23 -330 -62 -413 -136 l-39 -34
46 -60 c26 -33 92 -106 146 -162 113 -116 121 -136 68 -176 -41 -31 -175 -99
-248 -127 -59 -22 -83 -39 -118 -84 -25 -32 -31 -106 -9 -106 7 0 18 -20 25
-45 6 -24 46 -95 88 -157 93 -137 114 -178 114 -218 0 -52 -15 -66 -121 -111
-57 -23 -117 -56 -136 -72 -41 -36 -42 -64 -9 -198 28 -111 25 -140 -17 -177
-17 -15 -47 -43 -67 -63 -19 -19 -55 -47 -80 -61 -50 -29 -120 -94 -121 -112
0 -6 -4 -49 -8 -95 -7 -74 -12 -88 -35 -108 -31 -27 -79 -30 -122 -9 -16 8
-48 19 -71 24 l-43 10 -10 -38 c-6 -21 -31 -66 -56 -100 -43 -59 -46 -61 -64
-45 -37 33 -42 67 -37 232 3 87 10 192 16 233 6 41 25 215 41 385 30 303 56
530 66 570 12 50 -84 -152 -123 -260 -109 -294 -170 -521 -212 -785 -5 -36
-13 -82 -16 -103 -8 -48 -23 -38 -53 31 -17 38 -19 56 -12 93 22 116 30 405
18 600 -7 107 -12 238 -12 292 1 76 -1 95 -11 87 -6 -5 -15 -7 -18 -4 -3 4 -9
-7 -13 -22 -4 -16 -13 -38 -20 -49 -44 -73 -90 -283 -106 -492 l-12 -160 -63
121 c-155 295 -218 449 -230 565 -5 41 -8 49 -16 36 -21 -39 12 -414 48 -530
8 -27 0 -15 -82 120 -98 162 -149 255 -164 298 -7 20 -16 37 -19 37 -8 0 15
-212 36 -330 9 -52 31 -140 49 -195 18 -55 32 -101 31 -102 -2 -2 -17 19 -35
46 -37 59 -119 134 -174 163 l-40 20 7 -29 c45 -179 211 -507 357 -703 131
-178 339 -398 469 -497 286 -217 604 -291 980 -227 153 26 243 51 685 194 269
87 519 140 662 140 l61 0 -49 -90 c-26 -50 -57 -103 -67 -118 -34 -48 -227
-354 -279 -442 -28 -47 -88 -161 -134 -255 -79 -164 -82 -172 -82 -240 1 -41
9 -96 21 -132 33 -102 186 -309 323 -437 l84 -77 8 38 c4 21 6 50 3 66 -3 15
-3 27 0 27 3 0 32 -18 65 -40 33 -22 64 -40 69 -40 6 0 42 -41 73 -84 5 -7 10
-6 16 3 8 12 12 12 25 2 14 -12 16 -8 16 35 0 27 3 65 6 85 l6 36 37 -17 c20
-10 41 -19 47 -21 7 -2 28 -24 48 -48 l36 -43 22 48 c14 31 23 72 24 112 1 34
5 62 8 62 3 0 22 0 41 0 l35 0 0 -204 c0 -239 14 -442 36 -508 17 -53 67 -103
134 -136 25 -12 113 -39 197 -61 195 -51 222 -65 261 -135 17 -30 36 -57 41
-61 6 -3 18 19 28 55 20 73 57 110 108 110 19 0 37 -5 40 -11 4 -5 28 -25 53
-44 l46 -33 22 48 c39 84 76 94 197 56 l48 -15 -7 47 c-4 26 -13 67 -20 92 -8
25 -10 46 -6 48 33 11 72 45 72 62 0 24 -71 114 -79 101 -4 -5 -26 2 -51 16
-42 22 -37 24 23 7 39 -11 -59 81 -116 109 -29 14 -90 31 -136 38 -50 8 -96
21 -115 34 -77 52 -101 164 -94 445 5 181 6 189 55 390 61 245 89 384 103 505
12 100 48 235 63 235 5 0 57 -16 116 -36 127 -42 232 -58 493 -75 226 -14 398
-3 515 33 60 19 196 28 210 15 2 -3 -8 -43 -21 -91 -14 -47 -44 -186 -67 -309
-40 -216 -42 -230 -49 -512 -9 -333 -14 -361 -85 -444 -60 -71 -95 -140 -101
-204 -3 -29 -12 -79 -20 -113 -21 -90 -3 -154 60 -213 23 -22 45 -73 60 -144
l7 -28 29 21 c51 36 92 37 143 2 47 -33 57 -52 78 -144 6 -32 16 -58 20 -58 4
0 22 30 39 66 34 70 61 91 104 80 26 -6 37 -19 88 -101 28 -45 31 -48 43 -31
8 10 19 41 25 69 14 60 44 97 77 97 13 0 54 -23 91 -51 l67 -52 3 92 c1 50 4
91 5 91 1 -1 38 -9 82 -20 44 -10 82 -17 84 -15 8 8 -25 72 -74 145 -40 60
-51 71 -53 53 -3 -20 -10 -17 -97 39 -208 132 -231 204 -136 415 22 48 65 161
95 250 30 90 73 201 94 246 39 82 218 388 293 498 53 78 134 149 226 196 145
76 153 77 478 78 160 0 308 4 330 9 49 9 142 -22 185 -63 16 -14 72 -109 126
-211 239 -456 427 -730 668 -979 126 -128 216 -203 360 -301 113 -75 150 -112
227 -226 82 -122 132 -166 260 -229 107 -52 116 -55 183 -54 87 3 162 -18 236
-65 30 -19 56 -32 57 -28 1 4 4 24 8 46 9 52 44 86 90 86 30 0 35 3 35 22 0
19 11 11 69 -46 l68 -68 12 33 c14 40 14 116 1 124 -19 12 -10 25 16 25 15 0
44 5 65 12 30 8 48 8 80 -1 23 -7 43 -11 45 -9 1 2 -14 31 -36 65 l-39 62 41
3 41 3 -34 44 c-19 24 -57 57 -86 72 -53 29 -217 85 -407 139 -150 43 -205 72
-284 152 -76 78 -120 141 -194 278 -125 232 -165 297 -261 422 -129 166 -156
206 -200 293 -88 175 -91 241 -41 802 8 86 34 123 104 147 52 18 81 19 465 15
694 -7 955 -3 1115 15 270 32 466 83 675 179 55 25 138 56 185 70 143 43 480
127 568 143 161 28 264 83 326 172 32 46 79 172 65 172 -5 0 -9 12 -9 28 0 36
-50 121 -93 159 -45 39 -120 57 -352 84 -198 23 -290 41 -344 68 -116 59 -260
80 -611 90 -292 8 -310 12 -380 75 -43 38 -80 61 -80 48 0 -15 -128 -201 -134
-195 -3 4 -6 16 -6 28 0 32 -37 136 -57 157 -26 29 -51 21 -112 -37 -95 -90
-149 -101 -251 -50 -77 39 -85 54 -85 159 1 50 6 106 13 125 7 19 10 36 7 39
-8 8 -105 -44 -220 -118 -107 -69 -252 -146 -260 -138 -2 2 2 28 10 58 27 109
38 269 31 460 -4 101 -9 186 -11 188 -11 11 -173 -48 -421 -153 -105 -45 -286
-105 -315 -105 -13 0 -16 6 -12 23 6 28 56 193 94 312 106 334 152 542 153
695 1 122 -8 153 -54 195 -32 29 -168 27 -269 -4 -163 -50 -394 -161 -559
-267 -45 -30 -84 -54 -86 -54 -7 0 16 144 34 210 90 330 93 348 92 495 0 212
-44 595 -92 816 -20 93 -52 155 -94 185 -73 51 -269 -36 -665 -295 -108 -71
-211 -136 -230 -146 l-34 -17 6 92 c3 51 2 116 -4 144 -12 65 -69 186 -149
311 -116 185 -170 313 -170 403 l0 35 -47 -7 c-107 -14 -216 -94 -383 -279
l-105 -116 -24 22 c-13 12 -75 81 -137 154 -261 301 -338 284 -338 -79 -1 -76
-3 -138 -6 -138 -3 0 -90 88 -195 195 -197 202 -240 234 -313 235 -19 0 -47
-9 -62 -20 -30 -21 -73 -101 -85 -157 -3 -18 -10 -33 -14 -33 -14 0 -122 74
-246 169 -66 50 -147 105 -179 121 -63 32 -128 39 -157 17z m-1037 -6137 c30
-74 58 -153 62 -175 4 -22 10 -50 13 -62 7 -30 -17 -30 -88 -1 -76 31 -118 59
-161 106 -37 40 -78 111 -78 132 0 21 68 115 121 169 l53 54 12 -44 c6 -24 36
-105 66 -179z"/>
</g>
</svg>
