<?xml version="1.0" standalone="no"?>
<!DOCTYPE svg PUBLIC "-//W3C//DTD SVG 20010904//EN"
 "http://www.w3.org/TR/2001/REC-SVG-20010904/DTD/svg10.dtd">
<svg version="1.0" xmlns="http://www.w3.org/2000/svg"
 width="1280.000000pt" height="640.000000pt" viewBox="0 0 1280.000000 640.000000"
 preserveAspectRatio="xMidYMid meet">
<metadata>
Created by potrace 1.15, written by Peter Selinger 2001-2017
</metadata>
<g transform="translate(0.000000,640.000000) scale(0.100000,-0.100000)"
fill="#000000" stroke="none">
<path d="M4227 5880 c-3 -8 -8 -50 -11 -92 -8 -108 -33 -174 -147 -395 -117
-226 -138 -281 -146 -388 -9 -135 44 -284 130 -361 116 -105 269 -120 516 -48
47 13 86 22 88 21 1 -2 -13 -18 -31 -36 -32 -31 -45 -35 -168 -56 -281 -48
-537 -136 -766 -262 -48 -26 -91 -50 -96 -52 -5 -2 6 18 24 44 119 173 99 415
-49 577 -74 81 -165 138 -380 238 -102 47 -212 103 -244 123 -32 20 -61 37
-66 37 -4 0 -11 -53 -15 -117 -4 -65 -14 -185 -24 -268 -21 -193 -23 -595 -3
-675 39 -156 126 -233 243 -216 46 7 150 52 197 85 23 16 104 41 91 28 -3 -3
-43 -33 -90 -67 -193 -143 -376 -303 -850 -750 -664 -625 -728 -681 -868 -763
-158 -92 -259 -114 -586 -127 -302 -12 -401 -30 -508 -93 -78 -46 -126 -97
-201 -210 -41 -62 -104 -148 -141 -192 -156 -187 -165 -300 -28 -363 117 -53
198 -39 386 68 218 124 392 159 891 181 434 19 673 -8 825 -93 140 -78 195
-159 194 -283 -1 -97 -28 -171 -155 -428 -99 -200 -117 -248 -134 -359 -3 -21
-13 -44 -22 -53 -8 -9 -14 -17 -12 -19 2 -2 45 3 94 11 103 15 362 22 387 10
13 -7 24 7 61 81 62 126 118 203 221 310 140 145 291 251 564 395 127 68 147
75 206 78 63 4 67 3 111 -35 108 -90 226 -276 260 -411 8 -32 15 -86 15 -118
0 -38 6 -69 17 -88 21 -35 27 -36 47 -8 21 31 81 38 212 27 63 -6 130 -7 150
-4 49 10 107 71 130 137 24 70 24 225 -1 372 -10 59 -16 109 -14 111 2 2 94
-16 204 -40 315 -69 439 -85 697 -91 143 -4 275 -1 358 7 72 6 133 10 135 8 2
-2 -14 -60 -35 -129 -42 -142 -76 -300 -67 -322 13 -35 337 -44 442 -13 140
42 210 104 294 261 62 116 103 180 116 180 5 0 27 -28 49 -63 185 -288 198
-304 283 -364 45 -32 84 -66 88 -77 4 -12 28 -25 78 -40 56 -16 169 -40 195
-41 1 0 2 -7 2 -15 0 -24 24 -17 55 15 l29 30 -28 0 c-27 0 -27 1 -20 48 4 26
19 92 35 147 15 55 30 116 34 136 7 36 6 37 -31 49 -21 7 -59 34 -84 59 -65
65 -85 125 -85 263 0 100 2 109 22 123 18 12 21 22 16 46 -12 59 57 100 202
120 64 8 383 12 1115 13 833 1 1124 -3 1555 -18 877 -31 1211 -27 1485 20 327
56 624 184 915 393 58 42 99 63 148 76 37 10 67 22 67 28 0 8 -13 7 -75 -9
-15 -4 -11 3 15 27 24 23 28 31 15 27 -73 -20 -383 -107 -495 -138 -74 -21
-137 -36 -139 -34 -2 2 3 12 12 22 9 9 30 49 47 87 17 39 40 86 51 105 144
257 184 414 160 629 -6 58 -14 116 -17 129 -11 41 -32 24 -44 -35 -17 -89 -82
-368 -85 -372 -2 -1 -6 14 -10 35 -11 71 -55 288 -66 327 -6 22 -15 36 -22 34
-7 -3 -11 -9 -10 -14 29 -139 24 -294 -12 -440 -48 -189 -185 -472 -271 -558
-29 -28 -25 -10 15 76 103 219 132 447 86 669 -24 114 -88 270 -111 270 -17 0
-17 9 2 -102 44 -254 -44 -698 -173 -866 -21 -28 -23 -36 -12 -44 10 -7 4 -8
-20 -4 -18 3 -42 6 -52 6 -12 0 -19 7 -19 18 0 19 153 270 176 288 19 16 37
164 29 244 -9 91 -41 204 -76 270 -38 71 -89 134 -100 123 -5 -5 0 -51 11
-103 25 -118 27 -338 5 -485 -16 -106 -68 -331 -79 -342 -18 -19 -824 119
-1336 228 -1141 243 -1690 438 -2165 767 -321 223 -665 478 -975 723 -108 85
-211 166 -230 181 l-35 27 75 -24 c41 -13 97 -33 124 -45 103 -46 207 -11 326
110 115 117 180 240 201 384 15 101 2 199 -57 431 -50 200 -64 325 -45 414 6
30 9 56 7 59 -3 2 -33 -21 -68 -53 -84 -76 -162 -121 -380 -219 -312 -141
-365 -173 -470 -284 -87 -92 -111 -153 -111 -277 0 -103 21 -171 80 -256 19
-28 31 -50 26 -48 -4 2 -36 19 -70 37 -140 72 -325 137 -575 201 l-188 48 123
6 c133 6 209 22 304 67 120 55 205 164 238 301 20 86 19 141 -5 233 -28 111
-92 224 -251 446 -81 115 -159 235 -187 292 -26 53 -53 97 -59 98 -7 0 -20
-15 -29 -32 -38 -76 -136 -187 -335 -378 -269 -260 -366 -382 -403 -509 -57
-194 46 -349 269 -406 32 -8 86 -15 118 -15 64 0 70 -10 26 -42 -23 -17 -28
-17 -149 6 -181 35 -302 47 -477 49 -108 2 -149 5 -137 12 65 38 138 102 168
147 72 106 71 220 -3 374 -70 147 -133 228 -366 474 -118 124 -225 249 -267
310 -12 20 -17 22 -21 10z"/>
<path d="M8300 4392 c-56 -58 -103 -89 -340 -226 -238 -138 -378 -254 -432
-359 -29 -58 -29 -137 2 -197 30 -60 116 -141 192 -183 55 -31 92 -44 207 -76
22 -6 19 -9 -30 -29 l-54 -22 100 5 c218 11 359 85 421 220 15 32 29 90 36
142 11 89 9 108 -34 503 -5 52 -7 137 -4 188 4 50 3 92 -1 92 -5 -1 -33 -27
-63 -58z"/>
<path d="M2015 4239 c-4 -5 4 -35 17 -67 22 -55 23 -68 24 -342 1 -337 9 -385
83 -487 61 -84 155 -123 238 -98 51 16 90 45 72 55 -6 4 34 47 99 107 128 116
162 154 189 208 45 90 34 166 -38 274 -82 123 -220 208 -447 275 -67 20 -147
47 -177 61 -31 13 -57 20 -60 14z"/>
<path d="M8968 3778 c-49 -76 -118 -134 -249 -207 -208 -117 -270 -170 -315
-266 -47 -100 -23 -236 54 -309 17 -16 82 -55 144 -86 l113 -58 -35 -11 c-30
-9 -23 -10 45 -7 197 10 322 98 365 254 18 69 13 243 -10 367 -12 61 -31 167
-43 237 -13 70 -26 130 -29 133 -4 4 -22 -17 -40 -47z"/>
<path d="M1450 3375 c0 -3 9 -33 20 -66 14 -40 25 -118 35 -237 14 -182 20
-215 49 -271 36 -69 126 -90 226 -52 54 20 59 18 34 -17 -20 -29 -11 -28 39 7
62 42 141 130 173 192 24 45 28 66 28 124 -1 131 -81 227 -219 264 -22 5 -99
17 -171 25 -72 9 -143 20 -158 26 -30 11 -56 13 -56 5z"/>
<path d="M9517 3344 c-4 -4 -7 -21 -7 -39 0 -60 -49 -133 -182 -272 -135 -140
-178 -205 -178 -271 0 -95 114 -197 236 -209 57 -6 118 5 204 39 66 26 68 27
52 37 -9 5 -5 16 13 41 44 59 58 122 52 229 -6 114 -33 200 -110 345 -50 96
-65 114 -80 100z"/>
<path d="M10051 2973 c-10 -21 -59 -90 -107 -153 -107 -141 -134 -195 -134
-271 0 -67 27 -115 80 -141 47 -24 102 -22 183 6 47 17 65 20 56 10 -6 -8 -7
-14 -2 -14 14 0 99 92 117 127 38 75 17 160 -74 308 -24 39 -51 90 -61 115 -9
24 -21 46 -27 48 -6 2 -20 -14 -31 -35z"/>
<path d="M10565 2724 c-11 -20 -57 -71 -103 -113 -108 -97 -136 -144 -130
-212 9 -85 71 -127 168 -114 32 4 50 3 50 -4 0 -19 60 10 100 48 55 52 67 101
47 189 -16 72 -89 242 -104 242 -5 0 -17 -16 -28 -36z"/>
<path d="M10979 2578 c-12 -18 -62 -74 -110 -124 -97 -102 -129 -154 -129
-214 0 -42 8 -47 42 -29 15 8 41 7 104 -6 125 -25 221 -2 277 64 37 44 35 84
-5 149 -44 69 -139 192 -149 192 -4 0 -18 -15 -30 -32z"/>
</g>
</svg>
