<?xml version="1.0" standalone="no"?>
<!DOCTYPE svg PUBLIC "-//W3C//DTD SVG 20010904//EN"
 "http://www.w3.org/TR/2001/REC-SVG-20010904/DTD/svg10.dtd">
<svg version="1.0" xmlns="http://www.w3.org/2000/svg"
 width="807.000000pt" height="1280.000000pt" viewBox="0 0 807.000000 1280.000000"
 preserveAspectRatio="xMidYMid meet">
<metadata>
Created by potrace 1.15, written by Peter Selinger 2001-2017
</metadata>
<g transform="translate(0.000000,1280.000000) scale(0.100000,-0.100000)"
fill="#000000" stroke="none">
<path d="M6136 12779 c-14 -11 -26 -27 -26 -34 0 -11 -8 -13 -29 -9 -37 8 -84
-16 -142 -73 l-46 -45 -82 42 c-179 90 -289 92 -466 12 l-110 -50 -240 -21
c-416 -36 -430 -39 -523 -81 -83 -38 -84 -39 -159 -145 -41 -59 -77 -120 -79
-138 -10 -60 76 -207 201 -348 89 -101 137 -237 189 -539 26 -150 56 -538 56
-731 l0 -106 -100 -202 c-78 -158 -100 -212 -100 -244 0 -23 -7 -82 -15 -132
-29 -179 -16 -285 36 -285 10 0 19 -3 19 -6 0 -4 -29 -120 -65 -258 -45 -174
-85 -301 -130 -416 -90 -227 -92 -234 -130 -420 -18 -91 -47 -219 -64 -285
-63 -250 -214 -669 -344 -955 -61 -135 -131 -299 -197 -457 -5 -12 -18 -24
-29 -28 -12 -3 -64 -68 -116 -143 -95 -136 -96 -136 -157 -158 -33 -13 -66
-28 -73 -36 -16 -16 -65 -174 -115 -369 -44 -170 -40 -163 -302 -514 -154
-207 -170 -225 -257 -288 -147 -108 -227 -182 -249 -229 -11 -24 -24 -74 -27
-113 -5 -53 -13 -80 -35 -110 -19 -28 -37 -81 -60 -175 -18 -74 -36 -151 -41
-170 -24 -91 -176 -241 -328 -324 -91 -50 -174 -124 -200 -179 -16 -33 -21
-61 -20 -113 2 -75 -23 -144 -75 -213 -14 -19 -26 -46 -26 -59 0 -42 -53 -79
-160 -112 -108 -34 -176 -72 -209 -118 -42 -60 -72 -140 -78 -211 -6 -69 -6
-69 -56 -107 -45 -35 -55 -38 -102 -36 -48 3 -55 0 -135 -60 -109 -81 -260
-226 -316 -304 -67 -94 -191 -365 -261 -569 -50 -148 -109 -394 -138 -578 -28
-186 -29 -188 -14 -240 21 -75 81 -97 159 -57 44 22 67 52 99 130 58 137 158
278 333 471 63 68 129 147 147 174 40 59 58 75 85 75 26 0 133 75 140 98 3 10
40 48 82 86 42 38 81 79 86 92 14 30 50 31 88 4 88 -63 183 -76 260 -38 39 20
47 31 68 86 14 35 33 67 44 73 12 6 80 24 152 38 127 27 131 28 128 52 -2 13
-12 33 -23 45 -44 47 -8 81 100 93 67 7 74 10 116 51 l45 44 0 81 c0 123 27
156 143 177 57 11 80 22 156 78 49 35 97 76 106 90 10 15 38 33 64 43 111 39
188 120 212 224 10 44 9 59 -9 117 -19 62 -19 72 -6 134 38 183 55 208 155
231 57 13 103 34 188 85 90 55 118 67 140 63 35 -7 77 31 69 61 -8 30 9 50 65
77 49 23 57 32 109 122 31 54 61 108 67 120 6 12 18 84 27 160 16 142 55 314
94 416 31 83 90 147 90 100 1 -28 34 -94 74 -146 32 -42 36 -54 36 -107 0 -91
-27 -276 -59 -402 -31 -122 -73 -221 -145 -334 -24 -39 -86 -153 -138 -255
-52 -101 -110 -206 -129 -234 -87 -122 -227 -420 -274 -580 -25 -85 -25 -94
-14 -172 l12 -82 -144 -226 c-138 -217 -147 -229 -227 -293 -133 -105 -272
-295 -272 -371 0 -17 -7 -49 -17 -72 -15 -38 -24 -46 -97 -80 -76 -35 -84 -37
-124 -26 -33 9 -49 8 -75 -2 -17 -7 -56 -17 -85 -22 -63 -11 -118 -37 -149
-71 -46 -49 -278 -407 -315 -484 -21 -45 -38 -86 -38 -92 0 -6 -25 -73 -55
-151 -96 -246 -154 -467 -176 -672 -14 -131 -8 -198 26 -254 35 -61 82 -76
147 -47 40 17 51 30 113 138 138 238 171 282 332 445 l154 156 85 18 c81 17
89 21 179 94 75 60 95 83 101 109 5 25 10 32 23 27 64 -26 157 -11 211 34 28
23 34 37 45 101 8 44 11 103 8 142 -10 111 -7 112 219 61 l118 -26 82 22 c46
13 124 25 173 28 80 5 93 8 118 32 27 25 28 28 22 97 -9 93 2 103 108 96 72
-4 73 -4 117 33 56 46 69 86 77 220 4 77 2 114 -11 157 -9 31 -16 81 -16 111
0 81 19 209 35 233 23 35 94 64 159 64 31 0 76 4 99 10 23 5 80 16 127 25 102
19 209 69 268 123 37 34 42 44 42 83 0 24 4 49 8 55 4 6 34 14 67 17 54 5 63
10 97 47 20 22 51 76 70 118 31 73 33 84 33 192 -1 111 -2 120 -48 250 -63
182 -107 435 -107 621 0 105 10 126 86 184 36 28 94 74 128 103 33 29 81 64
106 77 25 13 79 58 120 100 41 42 115 108 163 147 48 39 94 83 102 98 8 16 23
31 33 34 10 4 31 33 46 65 26 53 27 62 16 95 -6 19 -16 38 -21 41 -17 11 -9
23 21 30 17 4 62 27 100 53 66 43 70 48 80 96 15 73 30 229 30 312 0 68 -2 74
-46 140 -59 87 -92 161 -110 245 -23 113 -55 201 -79 223 -24 22 -24 23 -8 72
8 27 19 99 23 159 7 99 11 118 44 183 25 50 39 95 46 145 6 47 37 150 90 297
45 124 88 244 96 266 14 37 59 94 67 83 2 -2 35 -48 74 -102 65 -89 71 -102
66 -135 -8 -60 -66 -226 -133 -382 -81 -190 -93 -243 -88 -400 l3 -125 55
-114 c30 -62 65 -121 77 -131 13 -10 23 -26 23 -36 0 -36 20 -90 53 -146 22
-35 37 -76 41 -109 31 -236 76 -340 199 -452 45 -41 113 -110 150 -153 l67
-79 4 -345 c2 -251 8 -372 19 -446 23 -142 46 -239 73 -309 13 -33 37 -119 52
-190 l28 -130 -23 -65 c-30 -83 -25 -121 25 -205 30 -51 65 -88 144 -154 58
-48 118 -91 134 -94 16 -3 40 -10 54 -15 l26 -10 -18 -118 c-9 -66 -17 -140
-17 -165 -1 -25 -12 -78 -26 -118 -39 -117 -50 -221 -31 -310 17 -81 60 -165
98 -194 25 -19 27 -19 109 7 46 14 86 22 90 18 124 -151 123 -149 248 -447 93
-220 160 -362 282 -590 89 -165 166 -303 173 -307 23 -15 68 -7 107 19 49 32
70 69 64 114 -3 19 -14 187 -25 374 -33 570 -52 720 -99 812 -19 39 -20 44 -5
85 8 24 35 64 61 90 l45 46 1 119 c2 105 -1 127 -27 203 -15 47 -47 114 -71
150 -23 36 -57 99 -75 140 -17 41 -43 100 -57 130 -14 30 -30 84 -36 121 l-10
67 40 69 c55 92 71 134 84 215 l11 70 -50 97 c-28 53 -69 139 -92 191 -23 52
-47 101 -53 109 -7 8 -26 55 -43 105 -17 50 -73 197 -124 326 -120 304 -253
706 -281 845 -21 105 -21 118 -11 335 12 220 25 309 58 372 8 15 14 47 14 72
0 41 -3 46 -26 52 -18 5 -31 19 -43 48 -33 75 -34 84 -12 91 11 3 43 33 71 65
l52 60 -12 107 c-28 271 -49 371 -96 463 -12 25 -36 79 -53 121 -16 42 -54
114 -84 160 -62 95 -135 283 -144 369 l-6 54 34 -32 c19 -18 37 -32 41 -32 5
0 17 -20 29 -44 14 -32 36 -54 77 -81 31 -21 96 -77 143 -124 94 -95 117 -139
139 -262 6 -35 18 -97 27 -137 l15 -72 -26 -31 c-14 -17 -26 -35 -26 -40 0
-25 31 -79 74 -129 82 -96 174 -315 183 -437 3 -41 0 -99 -7 -135 -19 -102
-79 -288 -111 -350 -35 -68 -38 -113 -9 -128 12 -6 30 -8 41 -5 30 10 185 142
258 220 185 199 255 358 282 641 13 137 0 343 -27 433 -13 46 -18 51 -50 57
l-36 7 6 47 c5 39 1 60 -20 111 -34 81 -79 140 -227 301 l-118 129 -129 259
c-70 142 -138 288 -150 324 -13 41 -31 73 -48 86 -25 20 -26 22 -14 77 15 73
3 95 -85 161 -108 80 -138 118 -152 186 -11 57 -10 60 19 112 l31 53 -17 63
c-8 35 -32 106 -52 158 l-36 94 49 236 c44 214 49 250 53 405 2 94 -1 235 -8
315 -19 232 -24 518 -11 596 7 38 28 120 47 183 41 133 81 352 90 496 3 55 12
148 19 207 l13 107 54 61 c53 60 98 160 98 218 0 28 21 60 112 165 73 85 85
115 75 200 -5 37 -1 69 14 119 20 63 20 70 5 93 -9 13 -16 35 -16 49 0 28 -80
127 -112 139 -11 4 -106 12 -212 17 -254 13 -288 18 -362 51 -39 18 -81 29
-107 29 -24 0 -110 11 -191 25 -81 14 -172 25 -201 25 -30 0 -57 5 -61 11 -8
14 -104 59 -125 59 -9 0 -28 -9 -43 -21z"/>
</g>
</svg>
