<?xml version="1.0" encoding="UTF-8" standalone="no"?>
<!-- Created with Inkscape (http://www.inkscape.org/) -->

<svg
   xmlns:dc="http://purl.org/dc/elements/1.1/"
   xmlns:cc="http://creativecommons.org/ns#"
   xmlns:rdf="http://www.w3.org/1999/02/22-rdf-syntax-ns#"
   xmlns:svg="http://www.w3.org/2000/svg"
   xmlns="http://www.w3.org/2000/svg"
   xmlns:sodipodi="http://sodipodi.sourceforge.net/DTD/sodipodi-0.dtd"
   xmlns:inkscape="http://www.inkscape.org/namespaces/inkscape"
   width="17.642344in"
   height="11.147053in"
   viewBox="0 0 1587.8109 1003.2348"
   id="svg10886"
   version="1.1"
   inkscape:version="0.91 r13725"
   sodipodi:docname="Thecodontosaurus Scale.svg">
  <defs
     id="defs10888">
    <marker
       inkscape:stockid="Arrow2Lstart"
       orient="auto"
       refY="0"
       refX="0"
       id="Arrow2Lstart"
       style="overflow:visible"
       inkscape:isstock="true">
      <path
         id="path10614"
         style="fill:#000000;fill-opacity:1;fill-rule:evenodd;stroke:#000000;stroke-width:0.625;stroke-linejoin:round;stroke-opacity:1"
         d="M 8.7185878,4.0337352 -2.2072895,0.01601326 8.7185884,-4.0017078 c -1.7454984,2.3720609 -1.7354408,5.6174519 -6e-7,8.035443 z"
         transform="matrix(1.1,0,0,1.1,1.1,0)"
         inkscape:connector-curvature="0" />
    </marker>
    <marker
       inkscape:stockid="Arrow2Lend"
       orient="auto"
       refY="0"
       refX="0"
       id="Arrow2Lend"
       style="overflow:visible"
       inkscape:isstock="true">
      <path
         id="path10617"
         style="fill:#000000;fill-opacity:1;fill-rule:evenodd;stroke:#000000;stroke-width:0.625;stroke-linejoin:round;stroke-opacity:1"
         d="M 8.7185878,4.0337352 -2.2072895,0.01601326 8.7185884,-4.0017078 c -1.7454984,2.3720609 -1.7354408,5.6174519 -6e-7,8.035443 z"
         transform="matrix(-1.1,0,0,-1.1,-1.1,0)"
         inkscape:connector-curvature="0" />
    </marker>
  </defs>
  <sodipodi:namedview
     id="base"
     pagecolor="#ffffff"
     bordercolor="#666666"
     borderopacity="1.0"
     inkscape:pageopacity="0.0"
     inkscape:pageshadow="2"
     inkscape:zoom="0.24748737"
     inkscape:cx="448.48714"
     inkscape:cy="316.03144"
     inkscape:document-units="px"
     inkscape:current-layer="layer1"
     showgrid="false"
     inkscape:window-width="1366"
     inkscape:window-height="709"
     inkscape:window-x="0"
     inkscape:window-y="0"
     inkscape:window-maximized="1"
     units="in"
     fit-margin-top="2"
     fit-margin-left="2"
     fit-margin-right="2"
     fit-margin-bottom="1"
     showborder="true" />
  <metadata
     id="metadata10891">
    <rdf:RDF>
      <cc:Work
         rdf:about="">
        <dc:format>image/svg+xml</dc:format>
        <dc:type
           rdf:resource="http://purl.org/dc/dcmitype/StillImage" />
        <dc:title></dc:title>
      </cc:Work>
    </rdf:RDF>
  </metadata>
  <g
     inkscape:label="Layer 1"
     inkscape:groupmode="layer"
     id="layer1"
     transform="translate(4988.5251,-40.256743)">
    <g
       id="g14726"
       transform="matrix(0.09448324,0,0,0.09448324,-4060.522,669.78199)"
       style="fill:#00ccff">
      <path
         sodipodi:nodetypes="cssssssssssssssssssssssssssc"
         inkscape:connector-curvature="0"
         id="path14689"
         d="m -4321.0547,342.83075 c 0,0 97.5633,24.90887 180.597,34.80949 83.5515,9.96238 185.1208,21.09339 256.3714,25.65786 119.878,7.67965 346.1179,61.27531 422.9193,87.85947 191.7126,66.35967 314.4064,96.18938 492.9143,186.72978 51.0755,25.90581 65.3321,141.92233 90.0004,193.60683 22.3187,46.762 67.8071,80.0806 110.7481,109.0786 191.7779,129.50762 408.8386,231.13232 632.8961,289.00522 244.248,63.088 502.1348,95.1073 753.3488,72.1131 133.6426,-12.2326 262.1206,-61.7162 387.14747,-110.4835 167.25997,-65.2402 289.69471,-145.7542 457.69805,-209.0557 157.50109,-59.34432 321.25617,-107.85272 487.687152,-132.93392 314.921168,-47.4587 660.470208,-68.3526 978.945168,-69.525 400.45056,-1.4743 800.19066,35.2635 1200.54066,44.356 332.4794,7.5511 665.0953,7.6251 997.6595,8.4649 428.3796,1.0818 856.9768,-18.2204 1285.135,-4.4134 215.1854,6.9393 853.3443,95.7517 644.4027,43.8268 -162.1299,-40.2917 -404.1833,-82.2786 -608.6438,-107.6736 -209.978,-26.0803 -421.922,-32.9235 -633.1278,-45.6948 -287.893,-17.4084 -576.9483,-16.5604 -864.2292,-42.1572 C 2531.811,678.96666 2115.2933,608.28979 1697.0412,553.62659 1203.53,489.1275 711.71244,410.38568 216.69565,358.69648 -36.935938,332.2125 -291.28618,310.71478 -546.05987,299.72631 c -309.106,-13.33186 -619.09043,-22.93488 -928.14213,-8.39874 -373.6193,17.57305 -754.275,108.76855 -1127.3864,82.53569 -182.1296,-12.80524 -423.5624,-72.02454 -596.6609,-130.09365 -123.8461,-41.54647 -491.6212,-190.12296 -708.0629,-232.3708 -135.5092,-26.45041 -310.6239,6.60802 -310.6239,6.60802"
         style="color:#000000;clip-rule:nonzero;display:inline;overflow:visible;visibility:visible;opacity:1;isolation:auto;mix-blend-mode:normal;color-interpolation:sRGB;color-interpolation-filters:linearRGB;solid-color:#000000;solid-opacity:1;fill:#00ccff;fill-opacity:1;fill-rule:evenodd;stroke:none;stroke-width:1.30599999;stroke-linecap:round;stroke-linejoin:miter;stroke-miterlimit:4;stroke-dasharray:none;stroke-dashoffset:0;stroke-opacity:1;color-rendering:auto;image-rendering:auto;shape-rendering:auto;text-rendering:auto;enable-background:accumulate" />
      <path
         sodipodi:nodetypes="csssscsscsscsscsscscsscszcscc"
         inkscape:connector-curvature="0"
         id="path14710"
         d="m -2516.3876,804.10713 c 0,0 147.0225,377.62737 188.5714,582.85707 7.4378,36.7386 14.1909,80.1793 -5.0674,112.3376 -85.2579,142.367 -271.4003,367.4938 -287.4724,405.3375 -16.0723,37.8437 -18.8203,125.9696 -27.3986,97.9812 -6.8309,-22.2865 -10.7466,-32.1728 -10.7466,-32.1728 0,0 -9.837,28.789 -16.2066,55.1008 -9.2114,38.0529 -16.0506,63.9462 -28.914,115.5468 -8.8922,35.6708 -4.6797,-90.5869 -4.6797,-90.5869 0,0 -39.6589,124.9741 -59.4076,199.3391 -5.7219,21.5478 -37.2041,55.5816 -37.2041,55.5816 0,0 4.7838,-23.8418 5.5508,-35.9393 0.9528,-15.0283 -1.9339,-30.1189 -1.2021,-45.1595 2.2261,-45.7592 27.0296,-134.1873 27.0296,-134.1873 0,0 -29.9046,76.225 -47.0285,112.5976 -8.778,18.644 -19.0294,37.2134 -33.2796,52.0991 -19.5285,20.3998 -69.3417,48.6766 -69.3417,48.6766 0,0 22.7339,-39.8642 29.9402,-61.4935 4.0837,-12.2572 2.0376,-26.2719 7.3239,-38.0606 29.6445,-66.1083 68.2429,-182.5077 68.2429,-182.5077 0,0 -17.4065,27.3345 -25.948,39.4158 -10.314,14.5891 -24.223,26.9675 -39.5013,36.2298 -55.1515,33.4357 -171.9024,54.5128 -171.9024,54.5128 0,0 101.2073,-55.5723 131.3842,-109.8329 9.1649,-16.4792 0.9929,-38.6675 8.6346,-55.9057 15.1664,-34.2116 49.4611,-56.3974 70.7079,-87.2037 18.8862,-27.3841 31.1722,-58.9559 50.1247,-86.2942 103.4804,-149.2665 242.0864,-378.4547 242.0864,-378.4547 l -198.5817,-526.95742"
         style="color:#000000;clip-rule:nonzero;display:inline;overflow:visible;visibility:visible;opacity:1;isolation:auto;mix-blend-mode:normal;color-interpolation:sRGB;color-interpolation-filters:linearRGB;solid-color:#000000;solid-opacity:1;fill:#00ccff;fill-opacity:1;fill-rule:evenodd;stroke:none;stroke-width:1.30599999;stroke-linecap:round;stroke-linejoin:miter;stroke-miterlimit:4;stroke-dasharray:none;stroke-dashoffset:0;stroke-opacity:1;color-rendering:auto;image-rendering:auto;shape-rendering:auto;text-rendering:auto;enable-background:accumulate" />
      <path
         sodipodi:nodetypes="csssscsssssc"
         inkscape:connector-curvature="0"
         id="path14716"
         d="m -4174.0141,13.006036 c 0,0 -95.806,5.883 -142.5934,15.7716 -75.8426,16.029899 -149.8474,41.1135 -221.7216,70.151 -14.5768,5.889204 -36.0307,21.690504 -48.1946,31.650704 -29.523,24.1745 -55.116,62.9207 -71.2682,97.4912 -12.926,27.6649 -12.4241,71.8041 -12.4241,71.8041 0,0 13.9976,27.4321 24.4733,38.4261 8.0799,8.4797 17.8306,15.9011 28.6923,20.2841 8.3903,3.3858 17.7846,4.2481 26.8311,4.1025 21.6834,-0.3491 42.4048,-9.5314 63.9616,-11.8978 51.0601,-5.605 102.6754,-7.2494 154.0073,-5.3558 88.1176,3.2508 262.9769,28.6481 262.9769,28.6481"
         style="color:#000000;clip-rule:nonzero;display:inline;overflow:visible;visibility:visible;opacity:1;isolation:auto;mix-blend-mode:normal;color-interpolation:sRGB;color-interpolation-filters:linearRGB;solid-color:#000000;solid-opacity:1;fill:#00ccff;fill-opacity:1;fill-rule:evenodd;stroke:none;stroke-width:1.30599999;stroke-linecap:round;stroke-linejoin:miter;stroke-miterlimit:4;stroke-dasharray:none;stroke-dashoffset:0;stroke-opacity:1;color-rendering:auto;image-rendering:auto;shape-rendering:auto;text-rendering:auto;enable-background:accumulate" />
      <path
         sodipodi:nodetypes="ccssssssscssssscsscsssssssssccssscssssssssssssssssc"
         inkscape:connector-curvature="0"
         id="path14718"
         d="m -704.39226,368.81225 -256.93229,870.03815 c 0,0 13.9582,46.5025 18.82421,70.2528 6.80678,33.2233 15.9575,66.8314 14.43578,100.7107 -1.78469,39.7324 -18.70379,77.3182 -27.4505,116.1172 -11.29819,50.1168 -10.08088,93.6099 -9.47009,144.9808 1.1747,98.7984 26.3852,197.1762 46.1893,293.9765 6.70298,32.7636 19.2332,65.5503 16.8259,98.9058 -2.46001,34.0862 -21.33511,64.9369 -31.52971,97.5557 -15.97868,51.1258 -46.4488,153.8343 -46.4488,153.8343 0,0 5.8038,41.874 8.2538,62.8672 1.8274,15.6584 4.38411,31.2899 4.80721,47.0489 0.23369,8.7065 1.2315,17.752 -1.25729,26.0984 -1.49391,5.0098 -6.77181,8.4265 -7.94831,13.5202 -2.73211,11.8291 -2.2639,25.2872 2.81959,36.3122 5.36892,11.6436 27.2317,27.1666 27.2317,27.1666 0,0 -35.24358,-7.5168 -49.69228,-17.4981 -11.14386,-7.6981 -19.17376,-19.4818 -26.18586,-31.0696 -5.474,-9.0458 -6.9519,-11.1781 -6.9519,-11.1781 0,0 -3.1207,9.7251 -4.8069,14.545 -2.6531,7.5844 -5.0418,15.2909 -8.3529,22.612 -8.3752,18.5177 -14.7826,39.1083 -28.9972,53.634 -22.2248,22.7114 -54.4275,32.9476 -82.8571,47.1429 -13.9294,6.9551 -27.642,15.2693 -42.8571,18.5714 -25.1336,5.4547 -51.4612,5.1018 -77.143,6.4794 -21.4822,1.1523 -33.6235,3.4942 -64.2857,0.6636 -4.67,-0.4311 -1.1317,-7.907 -5.5916,-9.3576 -10.8681,-3.5353 -25.6812,-3.3457 -36.4286,0.5409 -12.1922,4.4092 -28.8885,12.7557 -28.8885,12.7557 l 0.9087,-13.9391 c 0,0 -23.5063,-2.1933 -32.8571,-8.5714 -5.3508,-3.6496 -5.3636,-13.4408 -11.4285,-15.7144 -16.0087,-6.001 -33.5378,-3.2863 -50.0001,1.3271 -17.3998,4.8761 -51.4285,27.2445 -51.4285,27.2445 0,0 21.6159,-32.4795 35.7143,-45.7144 15.9853,-15.0065 33.3396,-30.6629 54.2858,-37.1429 17.7418,-5.4887 37.1594,-0.7881 55.7141,0 22.4416,0.9532 44.6821,5.9386 67.1428,5.7143 18.1942,-0.1816 36.7947,-0.7015 54.2858,-5.7142 19.8587,-5.6912 38.3306,-15.9821 55.7144,-27.1428 23.3449,-14.9878 47.9447,-30.4389 64.2857,-52.8574 47.2383,-64.8067 64.627,-147.1512 88.5869,-223.6843 11.4419,-36.5479 21.4756,-73.8638 26.1609,-111.8733 2.1827,-17.7076 2.042,-35.7175 0.8336,-53.518 -0.8261,-12.1685 -3.6379,-24.1202 -5.5092,-36.1722 -11.8437,-76.2818 -13.1235,-155.0735 -36.1924,-228.7417 -17.2085,-54.9542 -46.6942,-105.4912 -75.1464,-155.5567 -27.3574,-48.1388 -67.0256,-88.9642 -91.5238,-138.6191 -25.0926,-50.8596 -43.5391,-105.3773 -55.632,-160.7858 -6.9875,-32.0171 -10.2728,-65.0921 -9.487,-97.8533 6.8751,-286.62338 123.9524,-851.13906 123.9524,-851.13906"
         style="color:#000000;clip-rule:nonzero;display:inline;overflow:visible;visibility:visible;opacity:1;isolation:auto;mix-blend-mode:normal;color-interpolation:sRGB;color-interpolation-filters:linearRGB;solid-color:#000000;solid-opacity:1;fill:#00ccff;fill-opacity:1;fill-rule:evenodd;stroke:none;stroke-width:1.30599999;stroke-linecap:round;stroke-linejoin:miter;stroke-miterlimit:4;stroke-dasharray:none;stroke-dashoffset:0;stroke-opacity:1;color-rendering:auto;image-rendering:auto;shape-rendering:auto;text-rendering:auto;enable-background:accumulate" />
      <path
         inkscape:transform-center-y="676.58711"
         inkscape:transform-center-x="-728.5932"
         style="color:#000000;clip-rule:nonzero;display:inline;overflow:visible;visibility:visible;opacity:1;isolation:auto;mix-blend-mode:normal;color-interpolation:sRGB;color-interpolation-filters:linearRGB;solid-color:#000000;solid-opacity:1;fill:#00ccff;fill-opacity:1;fill-rule:evenodd;stroke:none;stroke-width:1.30599999;stroke-linecap:round;stroke-linejoin:miter;stroke-miterlimit:4;stroke-dasharray:none;stroke-dashoffset:0;stroke-opacity:1;color-rendering:auto;image-rendering:auto;shape-rendering:auto;text-rendering:auto;enable-background:accumulate"
         d="m -996.91002,377.43242 401.20648,594.85797 c 0,0 50.05202,9.12189 73.0534,16.783 32.17561,10.71681 65.85642,19.59601 94.43588,37.85351 33.51692,21.4118 57.60762,54.8571 86.8352,81.8314 37.75334,34.843 76.02815,55.5353 120.82203,80.6918 86.14921,48.3818 183.952135,75.7378 277.685768,106.9871 31.72559,10.577 66.384832,16.1188 94.067892,34.8813 28.28946,19.1735 45.56942,50.9452 68.72082,76.0834 36.28694,39.4009 110.00001,117.1429 110.00001,117.1429 0,0 39.16584,15.9108 58.57151,24.2857 14.47429,6.2466 29.28989,11.8481 43.14918,19.3613 7.65684,4.1508 15.98935,7.8093 21.97322,14.138 3.5916,3.7986 3.9116,10.0777 7.73469,13.6435 8.87821,8.2807 20.76741,14.6043 32.85709,15.7144 12.7681,1.1721 37.14279,-10 37.14279,-10 0,0 -24.13148,26.7635 -39.9999,34.2858 -12.23866,5.8018 -26.45866,6.8639 -39.99997,7.1428 -10.57089,0.2178 -13.1565,0.4314 -13.1565,0.4314 0,0 6.86181,7.5652 10.1929,11.4355 5.24176,6.0898 10.72141,12.0118 15.40611,18.5398 11.8492,16.512 15.04893,15.2134 20.52121,34.7864 8.55632,30.603 1.64751,21.1179 22.7173,44.9048 10.32323,11.6546 21.90331,22.7481 29.03081,36.5901 11.7739,22.8654 3.85502,7.9289 26.78484,19.5768 19.18027,9.7431 10.64377,2.0615 39.52856,12.7317 4.39933,1.625 -0.95331,7.9304 2.97911,10.4859 9.58279,6.2277 23.9403,9.8784 35.32741,8.9059 12.91782,-1.1033 31.20548,-4.8441 31.20548,-4.8441 l -4.48545,13.2289 c 0,0 22.13771,8.2025 29.51909,16.7834 4.22395,4.9101 1.70206,14.3711 6.97189,18.1369 13.91004,9.9399 31.54452,11.8545 48.63993,11.659 18.06892,-0.2065 56.72743,-13.0054 56.72743,-13.0054 0,0 -29.28565,25.7782 -46.32913,34.9132 -19.3245,10.3578 -40.13964,20.9891 -62.04923,21.827 -18.55788,0.7098 -36.09723,-8.8563 -53.81575,-14.4198 -21.43022,-6.7291 -41.62251,-17.3009 -63.37597,-22.8974 -17.6213,-4.5336 -36.68068,-4.2464 -53.66281,-10.9462 -29.05262,-11.4617 -55.48871,-29.4704 -79.86185,-48.9992 -36.0929,-28.9193 -81.25672,-76.4848 -96.59978,-99.5977 -48.66761,-73.313 -83.69468,-112.4014 -137.99431,-171.4179 -25.93048,-28.1829 -53.23012,-55.5302 -83.80468,-78.5926 -14.24383,-10.744 -29.91129,-19.6272 -45.931175,-27.4809 -10.951251,-5.3689 -22.707636,-8.9096 -34.080553,-13.3149 -71.983868,-27.884 -140.859384,-66.1716 -216.192382,-83.0274 -56.19601,-12.5742 -114.70517,-12.3073 -172.28927,-12.6997 -55.36813,-0.3772 -110.55803,13.5638 -165.8096,9.9523 -56.59197,-3.6988 -113.02889,-14.9826 -167.06056,-32.214 -31.22131,-9.9572 -61.50776,-23.6496 -89.4869,-40.7107 -244.78564,-149.2659 -595.08734,-741.49062 -595.08734,-741.49062"
         id="path14720"
         inkscape:connector-curvature="0"
         sodipodi:nodetypes="ccssssssscssssscsscsssssssssccssscssssssssssssssssc" />
      <path
         inkscape:transform-center-y="440.6622"
         inkscape:transform-center-x="-473.20242"
         style="color:#000000;clip-rule:nonzero;display:inline;overflow:visible;visibility:visible;opacity:1;isolation:auto;mix-blend-mode:normal;color-interpolation:sRGB;color-interpolation-filters:linearRGB;solid-color:#000000;solid-opacity:1;fill:#00ccff;fill-opacity:1;fill-rule:evenodd;stroke:none;stroke-width:1.30599999;stroke-linecap:round;stroke-linejoin:miter;stroke-miterlimit:4;stroke-dasharray:none;stroke-dashoffset:0;stroke-opacity:1;color-rendering:auto;image-rendering:auto;shape-rendering:auto;text-rendering:auto;enable-background:accumulate"
         d="m -2671.8862,798.90973 c 0,0 398.686,72.5774 595.2696,144.69155 35.1908,12.90927 75.732,29.91257 93.0369,63.16282 76.6101,147.2011 170.8699,423.6901 194.6868,457.2044 23.8168,33.5146 97.4448,82.0187 69.1101,74.6646 -22.5624,-5.8557 -33.0349,-7.699 -33.0349,-7.699 0,0 19.3701,23.46 38.4464,42.6688 27.589,27.7798 46.0628,47.1694 83.279,85.1569 25.727,26.2601 -79.6152,-43.4663 -79.6152,-43.4663 0,0 85.6808,99.248 138.6814,155.0253 15.3575,16.1615 27.8567,60.8067 27.8567,60.8067 0,0 -17.803,-16.5641 -27.7061,-23.5545 -12.3023,-8.684 -26.6689,-14.13 -39.0975,-22.6321 -37.8125,-25.8665 -100.1444,-93.3163 -100.1444,-93.3163 0,0 49.2649,65.4026 71.2778,99.0423 11.2831,17.2437 21.7308,35.7033 26.946,55.6395 7.1473,27.3209 5.1402,84.5652 5.1402,84.5652 0,0 -22.0483,-40.2475 -36.6977,-57.7161 -8.3018,-9.8993 -21.3116,-15.4978 -28.5843,-26.1761 -40.7836,-59.8816 -119.7158,-153.7344 -119.7158,-153.7344 0,0 14.166,29.1459 19.9827,42.7503 7.0245,16.428 10.2827,34.7602 10.1692,52.6264 -0.409,64.494 -43.6133,174.9857 -43.6133,174.9857 0,0 5.6783,-115.3211 -24.7343,-169.45 -9.2364,-16.4392 -32.4177,-21.1011 -43.0985,-36.6404 -21.1975,-30.8403 -22.131,-71.6749 -37.2427,-105.9107 -13.4331,-30.4324 -33.8907,-57.4363 -47.2501,-87.9011 -72.9416,-166.3376 -195.5622,-404.4617 -195.5622,-404.4617 l -552.8969,-106.8824"
         id="path14724"
         inkscape:connector-curvature="0"
         sodipodi:nodetypes="csssscsscsscsscsscscsscszcscc" />
    </g>
    <g
       transform="matrix(6.330307,0,0,6.3303069,-3201.8553,-6114.5097)"
       id="g16467"
       style="opacity:0.5;fill:#666666;stroke:#000000;stroke-width:0.15797022;stroke-miterlimit:4;stroke-dasharray:none">
      <path
         style="fill:#666666;fill-rule:evenodd;stroke:#000000;stroke-width:0.15797022;stroke-linecap:butt;stroke-linejoin:miter;stroke-miterlimit:4;stroke-dasharray:none;stroke-opacity:1"
         d="m -448.83285,744.63976 0,365.53934"
         id="path4400"
         inkscape:connector-curvature="0" />
      <path
         style="fill:#666666;fill-rule:evenodd;stroke:#000000;stroke-width:0.15797022;stroke-linecap:butt;stroke-linejoin:miter;stroke-miterlimit:4;stroke-dasharray:none;stroke-opacity:1"
         d="m -387.93615,1110.1791 0,-365.42731"
         id="path4402"
         inkscape:connector-curvature="0" />
      <path
         style="fill:#666666;fill-rule:evenodd;stroke:#000000;stroke-width:0.15797022;stroke-linecap:butt;stroke-linejoin:miter;stroke-miterlimit:4;stroke-dasharray:none;stroke-opacity:1"
         d="m -327.0395,1110.1791 0,-365.42731"
         id="path4404"
         inkscape:connector-curvature="0" />
      <path
         style="fill:#666666;fill-rule:evenodd;stroke:#000000;stroke-width:0.15797022;stroke-linecap:butt;stroke-linejoin:miter;stroke-miterlimit:4;stroke-dasharray:none;stroke-opacity:1"
         d="m -266.14285,744.75179 0,366.05911"
         id="path4406"
         inkscape:connector-curvature="0"
         sodipodi:nodetypes="cc" />
      <path
         style="fill:#666666;fill-rule:evenodd;stroke:#000000;stroke-width:0.15797022;stroke-linecap:butt;stroke-linejoin:miter;stroke-miterlimit:4;stroke-dasharray:none;stroke-opacity:1"
         d="m -205.2462,1110.811 0,-365.70206"
         id="path4408"
         inkscape:connector-curvature="0"
         sodipodi:nodetypes="cc" />
      <path
         style="fill:#666666;fill-rule:evenodd;stroke:#000000;stroke-width:0.15797022;stroke-linecap:butt;stroke-linejoin:miter;stroke-miterlimit:4;stroke-dasharray:none;stroke-opacity:1"
         d="m -144.34955,1110.811 0,-366.05921"
         id="path4410"
         inkscape:connector-curvature="0"
         sodipodi:nodetypes="cc" />
      <path
         style="fill:#666666;fill-rule:evenodd;stroke:#000000;stroke-width:0.15797022;stroke-linecap:butt;stroke-linejoin:miter;stroke-miterlimit:4;stroke-dasharray:none;stroke-opacity:1"
         d="m -83.452903,744.39465 0,366.41635"
         id="path4412"
         inkscape:connector-curvature="0"
         sodipodi:nodetypes="cc" />
      <path
         style="fill:#666666;fill-rule:evenodd;stroke:#000000;stroke-width:0.15797022;stroke-linecap:butt;stroke-linejoin:miter;stroke-miterlimit:4;stroke-dasharray:none;stroke-opacity:1"
         d="m -22.556253,1110.1791 0,-365.78445"
         id="path4414"
         inkscape:connector-curvature="0" />
      <path
         style="fill:#666666;fill-rule:evenodd;stroke:#000000;stroke-width:0.15797022;stroke-linecap:butt;stroke-linejoin:miter;stroke-miterlimit:4;stroke-dasharray:none;stroke-opacity:1"
         d="m 38.340397,745.10893 0,365.07017"
         id="path4416"
         inkscape:connector-curvature="0" />
      <path
         style="fill:#666666;fill-rule:evenodd;stroke:#000000;stroke-width:0.15797022;stroke-linecap:butt;stroke-linejoin:miter;stroke-miterlimit:4;stroke-dasharray:none;stroke-opacity:1"
         d="m 99.237047,1110.1791 0,-365.07017"
         id="path4418"
         inkscape:connector-curvature="0" />
      <path
         style="fill:#666666;fill-rule:evenodd;stroke:#000000;stroke-width:0.15797022;stroke-linecap:butt;stroke-linejoin:miter;stroke-miterlimit:4;stroke-dasharray:none;stroke-opacity:1"
         d="m 160.1337,1110.1791 0,-365.78445"
         id="path4420"
         inkscape:connector-curvature="0" />
      <path
         style="fill:#666666;fill-rule:evenodd;stroke:#000000;stroke-width:0.15797022;stroke-linecap:butt;stroke-linejoin:miter;stroke-miterlimit:4;stroke-dasharray:none;stroke-opacity:1"
         d="m 221.03035,745.10895 0,365.57755"
         id="path4422"
         inkscape:connector-curvature="0" />
      <path
         style="fill:#666666;fill-rule:evenodd;stroke:#000000;stroke-width:0.15797022;stroke-linecap:butt;stroke-linejoin:miter;stroke-miterlimit:4;stroke-dasharray:none;stroke-opacity:1"
         d="m 281.927,1110.6865 0,-366.29184"
         id="path4424"
         inkscape:connector-curvature="0" />
      <path
         style="fill:#666666;fill-rule:evenodd;stroke:#000000;stroke-width:0.15797022;stroke-linecap:butt;stroke-linejoin:miter;stroke-miterlimit:4;stroke-dasharray:none;stroke-opacity:1"
         d="m 342.82365,744.7518 0,365.9347"
         id="path4426"
         inkscape:connector-curvature="0" />
      <path
         style="fill:#666666;fill-rule:evenodd;stroke:#000000;stroke-width:0.15797022;stroke-linecap:butt;stroke-linejoin:miter;stroke-miterlimit:4;stroke-dasharray:none;stroke-opacity:1"
         d="m 403.7203,744.7518 0,365.9347"
         id="path4428"
         inkscape:connector-curvature="0" />
      <path
         style="fill:#666666;fill-rule:evenodd;stroke:#000000;stroke-width:0.15797022;stroke-linecap:butt;stroke-linejoin:miter;stroke-miterlimit:4;stroke-dasharray:none;stroke-opacity:1"
         d="m 464.61695,1110.6865 0,-366.29184"
         id="path4430"
         inkscape:connector-curvature="0" />
      <path
         style="fill:#666666;fill-rule:evenodd;stroke:#000000;stroke-width:0.15797022;stroke-linecap:butt;stroke-linejoin:miter;stroke-miterlimit:4;stroke-dasharray:none;stroke-opacity:1"
         d="m 525.5136,744.39466 0,366.29184"
         id="path4432"
         inkscape:connector-curvature="0" />
      <path
         style="fill:#666666;fill-rule:evenodd;stroke:#000000;stroke-width:0.15797022;stroke-linecap:butt;stroke-linejoin:miter;stroke-miterlimit:4;stroke-dasharray:none;stroke-opacity:1"
         d="m 586.41025,1110.6865 0,-366.29184"
         id="path4434"
         inkscape:connector-curvature="0" />
      <path
         style="fill:#666666;fill-rule:evenodd;stroke:#000000;stroke-width:0.15797022;stroke-linecap:butt;stroke-linejoin:miter;stroke-miterlimit:4;stroke-dasharray:none;stroke-opacity:1"
         d="m -509.46725,744.79918 1095.80479,0"
         id="path4618-31"
         inkscape:connector-curvature="0" />
      <path
         style="fill:#666666;fill-rule:evenodd;stroke:#000000;stroke-width:0.15797022;stroke-linecap:butt;stroke-linejoin:miter;stroke-miterlimit:4;stroke-dasharray:none;stroke-opacity:1"
         d="m -509.36265,806.56579 1095.71896,0"
         id="path4618-49"
         inkscape:connector-curvature="0" />
      <path
         style="fill:#666666;fill-rule:evenodd;stroke:#000000;stroke-width:0.15797022;stroke-linecap:butt;stroke-linejoin:miter;stroke-miterlimit:4;stroke-dasharray:none;stroke-opacity:1"
         d="m -509.57195,866.59248 1096.00556,0"
         id="path4618-2"
         inkscape:connector-curvature="0" />
      <path
         style="fill:#666666;fill-rule:evenodd;stroke:#000000;stroke-width:0.15797022;stroke-linecap:butt;stroke-linejoin:miter;stroke-miterlimit:4;stroke-dasharray:none;stroke-opacity:1"
         d="m -509.64585,927.48913 1095.97537,0"
         id="path4618-06"
         inkscape:connector-curvature="0" />
      <path
         style="fill:#666666;fill-rule:evenodd;stroke:#000000;stroke-width:0.15797022;stroke-linecap:butt;stroke-linejoin:miter;stroke-miterlimit:4;stroke-dasharray:none;stroke-opacity:1"
         d="m -509.60255,988.38578 1096.278,0"
         id="path4618-89"
         inkscape:connector-curvature="0" />
      <path
         style="fill:#666666;fill-rule:evenodd;stroke:#000000;stroke-width:0.15797022;stroke-linecap:butt;stroke-linejoin:miter;stroke-miterlimit:4;stroke-dasharray:none;stroke-opacity:1"
         d="m -509.72945,1049.2824 1096.27243,0"
         id="path4618-26"
         inkscape:connector-curvature="0" />
      <path
         style="fill:#666666;fill-rule:evenodd;stroke:#000000;stroke-width:0.15797022;stroke-linecap:butt;stroke-linejoin:miter;stroke-miterlimit:4;stroke-dasharray:none;stroke-opacity:1"
         d="m -509.26495,1110.8964 1096.1245,0"
         id="path4618-26-9"
         inkscape:connector-curvature="0" />
      <path
         style="fill:#666666;fill-rule:evenodd;stroke:#000000;stroke-width:0.15797022;stroke-linecap:butt;stroke-linejoin:miter;stroke-miterlimit:4;stroke-dasharray:none;stroke-opacity:1"
         d="m -509.63865,744.36786 0,366.25354"
         id="path4400-3"
         inkscape:connector-curvature="0" />
    </g>
    <g
       id="g32533"
       transform="translate(-5470.5229,182.91206)">
      <g
         id="g34189">
        <path
           sodipodi:nodetypes="cc"
           inkscape:connector-curvature="0"
           id="path4618-31-7"
           d="m 973.69541,343.48184 763.46629,0"
           style="fill:none;fill-rule:evenodd;stroke:#000000;stroke-width:3.15995049;stroke-linecap:butt;stroke-linejoin:miter;stroke-miterlimit:4;stroke-dasharray:none;stroke-opacity:1;marker-start:url(#Arrow2Lstart);marker-end:url(#Arrow2Lend)" />
        <text
           xml:space="preserve"
           style="font-style:normal;font-weight:normal;font-size:53.96036911px;line-height:125%;font-family:Sans;letter-spacing:0px;word-spacing:0px;fill:#000000;fill-opacity:1;stroke:none;stroke-width:1.00000012;stroke-linecap:butt;stroke-linejoin:miter;stroke-miterlimit:4;stroke-dasharray:none;stroke-opacity:1"
           x="1203.6218"
           y="346.88553"
           id="text7898-8"
           sodipodi:linespacing="125%"
           transform="scale(1.0420271,0.95966793)"><tspan
             sodipodi:role="line"
             x="1203.6218"
             y="346.88553"
             id="tspan7900-6"
             style="font-style:normal;font-variant:normal;font-weight:normal;font-stretch:normal;font-size:50px;font-family:'Nimbus Sans L';-inkscape-font-specification:'Nimbus Sans L'"><tspan
               x="1203.6218"
               y="346.88553"
               style="font-style:normal;font-variant:normal;font-weight:normal;font-stretch:normal;font-size:50px;line-height:125%;font-family:'Nimbus Sans L';-inkscape-font-specification:'Nimbus Sans L';text-align:start;writing-mode:lr-tb;text-anchor:start;stroke-width:1.00000012;stroke-miterlimit:4;stroke-dasharray:none"
               id="tspan7902-8">2 meters</tspan></tspan></text>
      </g>
    </g>
    <g
       transform="translate(-5776.1574,221.04986)"
       id="g32593">
      <rect
         rx="0"
         y="62.807144"
         x="1464.8539"
         height="53.149605"
         width="53.149605"
         id="rect32587"
         style="opacity:1;fill:#00ccff;fill-opacity:1;fill-rule:evenodd;stroke:none;stroke-width:1;stroke-linecap:round;stroke-miterlimit:4;stroke-dasharray:none;stroke-opacity:1" />
      <text
         sodipodi:linespacing="125%"
         id="text32589"
         y="104.62756"
         x="1540.0001"
         style="font-style:normal;font-weight:normal;font-size:40px;line-height:125%;font-family:Sans;letter-spacing:0px;word-spacing:0px;fill:#000000;fill-opacity:1;stroke:none;stroke-width:1px;stroke-linecap:butt;stroke-linejoin:miter;stroke-opacity:1"
         xml:space="preserve"><tspan
           style="font-style:italic;font-variant:normal;font-weight:normal;font-stretch:condensed;font-size:45px;font-family:'Nimbus Sans L';-inkscape-font-specification:'Nimbus Sans L Italic Condensed'"
           y="104.62756"
           x="1540.0001"
           id="tspan32591"
           sodipodi:role="line">Thecodontosaurus antiquus</tspan></text>
    </g>
    <path
       inkscape:connector-curvature="0"
       d="m -4589.5718,584.28876 c -1.9761,1.5083 -1.0395,4.8873 -1.9682,7.1927 -1.0189,2.5295 -3.9123,7.1848 -3.9123,7.1848 0,0 -1.2685,2.5327 -2.2269,4.4455 -0.58,1.1567 -1.0455,2.0829 -1.0455,2.0829 0,0 1.5207,-8.2446 1.9643,-12.4093 0.4144,-3.904 0.6484,1.9564 0.6484,-11.7609 0,-13.7212 1.417,-27.8962 0.6597,-41.816 -0.3818,-7.0131 -2.1795,-13.8966 -2.6161,-20.9064 -0.3397,-5.435 0,-16.3376 0,-16.3376 0,0 8.49,19.6342 10.4566,30.0592 1.0507,5.5677 0.7495,11.3206 0.6485,16.9855 -0.2094,11.7904 6.0318,27.2548 -2.6081,35.2796 0,0 -4e-4,0 -4e-4,0 z m -163.6904,-30.3254 c -4.9626,0 -0.6978,5.6059 -0.2979,7.8686 1.962,11.1046 -1.686,14.0777 -2.024,21.1525 -0.1675,3.4806 0,10.453 0,10.453 l -3.9244,-3.9202 c 0,0 -1.126,-5.1945 -1.3001,-7.8365 -0.4282,-6.5238 0.3351,-13.0718 0.6442,-19.602 0.4515,-9.4722 1.7614,-28.3933 1.7614,-28.3933 0,0 3.386,10.6037 4.5366,16.0397 0.2932,1.396 -4.3314,4.2382 0.6042,4.2382 l 5e-4,0 z m 204.8625,-63.7599 -3.2645,-28.0911 c 0,0 -12.4172,-21.558 -3.2681,-28.0944 9.1486,-6.533 6.5322,-2.6127 0.6516,-11.1055 -5.8804,-8.4928 -6.5317,-21.5636 -11.7609,-35.9397 -5.2278,-14.3709 -14.5166,-16.4604 -14.9542,-17.5502 -0.4376,-1.0893 -6.7542,-8.9349 -8.4965,-11.1172 -1.7409,-2.1793 -26.818,-19.5638 -42.0552,-25.7129 -2.4848,-1.0026 -5.2283,-0.8695 -7.8486,-1.7415 -2.6122,-0.8695 -4.7191,-3.3658 -7.4072,-4.3535 -1.5915,-0.5852 -0.8677,0.6502 -5.0101,-0.8752 -4.1395,-1.5245 -5.515,-2.6653 -6.7551,-5.2283 -2.9106,-6.016 -0.6517,-17.0019 0.2188,-20.0476 0.871,-3.0494 1.9602,-8.4969 4.1391,-8.934 2.1789,-0.4376 2.3982,-6.9702 3.2724,-11.7731 0.8709,-4.787 -1.0935,-6.7472 -1.9644,-6.7472 -0.8704,0 -0.929,-0.9231 -1.0934,-1.5272 -0.6312,-2.3233 -0.8713,-5.0143 0.6563,-7.1927 1.5259,-2.1753 0.6517,-13.7291 0.2188,-18.3015 -0.4329,-4.5767 -2.4787,-3.6285 -3.7057,-5.4513 -1.3154,-1.9542 -2.3838,-4.0944 -3.9204,-5.8805 -2.1118,-2.4555 -4.7246,-4.4347 -7.1884,-6.5368 -1.4156,-1.2075 -2.8497,-2.3978 -4.3579,-3.487 -1.4057,-1.0152 -2.7226,-2.2683 -4.3617,-2.8348 -4.6166,-1.5961 -8.4968,-1.5264 -14.5962,-1.308 -6.1033,0.2188 -15.4708,7.1926 -21.7926,13.0769 -6.318,5.881 -4.9071,9.9088 -6.1035,15.2526 -0.7945,3.5498 -0.8886,7.2638 -0.6521,10.8942 0.1257,1.9192 1.2341,3.7481 1.0897,5.6658 -0.2653,3.5233 -2.9405,6.5094 -3.539,9.9918 -0.5162,3.0055 -1.9984,6.8453 0,9.149 1.01,1.1638 3.4218,-0.3677 4.5766,0.6517 1.861,1.6427 1.1679,4.8312 1.9564,7.1848 1.4901,4.4491 4.4808,8.4374 5.2283,13.0694 1.1465,7.1061 3.4214,16.1282 -1.3079,21.5544 -1.4593,1.6742 -4.5055,0.4002 -6.5326,1.3079 -1.9891,0.8901 -3.4856,2.6165 -5.2289,3.9246 -3.4851,2.6141 -6.8692,5.3689 -10.4566,7.8406 -8.0622,5.5546 -9.1524,7.1894 -24.8346,15.6818 -15.685,8.4936 -23.5331,20.2541 -29.415,39.1998 -5.8833,18.9504 -20.2621,33.3195 -20.2621,33.3195 l 7.1889,4.5725 9.1529,9.1487 c 0,0 3.2681,35.2795 0,43.1244 -3.2681,7.8369 -1.308,25.4745 -1.308,50.305 0,24.8303 4.9062,19.4931 6.5326,29.3991 1.9876,12.1063 3.2692,24.3445 3.924,36.5956 0.4656,8.6975 -0.9863,8.1664 0,16.8208 0.6587,5.7748 0.7174,12.1422 3.9246,16.9897 3.269,4.9407 9.6765,6.8426 14.3737,10.453 3.561,2.7375 10.4609,8.4928 10.4609,8.4928 0,0 6.5307,75.9491 8.4927,117.1123 1.9625,41.1648 20.0708,65.5088 15.0375,97.3503 -0.3491,2.2162 -0.6525,0.6555 -5.8846,3.2682 -5.2289,2.6113 2.7798,6.2487 4.5724,9.1486 1.7181,2.7799 6.3367,4.6047 5.8847,7.8411 -0.9454,6.7728 -12.4182,8.4919 -16.3376,12.4094 -3.9212,3.9194 -3.7724,4.1517 -3.2724,6.5364 0.3491,1.6646 3.7896,1.565 3.9246,3.2602 0.3676,4.6181 -6.8031,6.4666 -9.1492,10.4614 -3.2788,5.5829 -5.2343,12.4079 -6.5405,18.2899 -1.3057,5.879 9.1529,13.0749 22.226,13.7253 13.0732,0.6502 20.2584,-5.2289 26.7989,-8.497 6.5326,-3.2645 5.5565,-9.7179 7.1848,-15.0254 1.2917,-4.2118 -0.7159,-9.5733 1.9639,-13.0695 2.3143,-3.0187 7.1712,-2.6523 10.4571,-4.5683 2.8231,-1.6459 6.115,-3.1099 7.8406,-5.8846 1.8727,-3.0108 1.6357,-6.9232 1.9644,-10.4529 0.2002,-2.1683 -1.0273,-4.613 0,-6.5327 1.1106,-2.0765 4.3928,-2.0924 5.8767,-3.9207 1.478,-1.8215 2.59,-4.1871 2.6161,-6.5328 0.047,-3.722 -3.0992,-6.8258 -3.9204,-10.4566 -2.7961,-12.367 -2.636,-25.233 -3.2681,-37.8961 -1.5752,-31.5427 -2.5728,-63.1808 -1.3043,-94.7375 0.4654,-11.5831 2.2958,-23.0718 3.2681,-34.6233 1.4845,-17.6279 3.9167,-52.9251 3.9167,-52.9251 0,0 0.377,25.1184 3.2681,37.2396 1.3611,5.706 4.5525,10.819 6.5405,16.3377 2.1712,6.0252 4.8239,11.976 5.8769,18.2935 5.5155,33.0882 5.2319,73.1753 1.9642,100.6143 -3.269,27.4465 0.4236,30.1309 4.5763,44.4282 0.4049,1.4039 1.5049,2.5341 1.9564,3.9246 0.8178,2.5192 0.5354,5.3037 1.308,7.8369 0.768,2.5178 1.6925,5.0799 3.2682,7.1885 2.5876,3.4628 8.9545,4.2536 9.8013,8.4928 0.4766,2.3879 -3.5518,4.1195 -3.2607,6.5368 0.4421,3.6825 4.5743,5.8623 7.1889,8.4928 1.416,1.4244 3.6033,2.1631 4.5766,3.9203 2.1329,3.8528 0.472,8.9206 1.9602,13.0652 2.1454,5.9773 4.6679,12.5979 9.8007,16.3381 5.4249,3.952 6.5369,3.9138 19.6101,4.5683 13.0694,0.654 12.4717,-1.3942 16.9934,-5.2246 3.7165,-3.1481 5.988,-8.2294 6.5326,-13.0694 1.0289,-9.1314 -2.8384,-18.3686 -6.5326,-26.7827 -1.5784,-3.5954 -3.7191,-7.0656 -6.5363,-9.8008 -2.9493,-2.8636 -9.4144,-2.5606 -10.4571,-6.5368 -0.6922,-2.6403 3.2458,-4.544 3.9203,-7.1885 1.1837,-4.6427 2.9493,-10.5982 0,-14.3737 -1.106,-1.4156 -4.3802,0.2792 -5.2288,-1.3039 -1.5282,-2.8524 2.603,-5.9763 3.2608,-9.1448 1.9963,-9.6184 2.129,-19.5817 1.968,-29.4034 -0.1443,-8.7535 -5.2278,-20.2532 -2.6124,-26.1342 2.6133,-5.8763 -1.3158,-52.9225 0.6444,-73.1757 1.96,-20.2585 -0.4609,-84.1049 -0.4609,-84.1049 0,0 11.092,-1.4304 20.1504,-11.0767 7.0097,-7.465 13.5023,-7.3561 15.0338,-17.4808 0.4659,-3.0825 -1.268,-6.1054 -1.9606,-9.145 -1.444,-6.3357 0.9472,-5.6463 0.5772,-12.1337 -1.112,-19.4979 5.3712,-38.7015 7.1889,-58.1462 1.2792,-13.6904 2.6123,-41.168 2.6123,-41.168 l 0,4e-4 z"
       style="fill:#00aad4;fill-opacity:1;fill-rule:nonzero;stroke:none"
       id="path3443"
       sodipodi:nodetypes="sscccsssscsssssssccsscssssaccsssssssssssssssssssssssssssssssssssssccccsssssscsssssssssssssssssssssssscssssssssssssssssssssssssssscssssscca" />
  </g>
</svg>
