<?xml version="1.0" standalone="no"?>
<!DOCTYPE svg PUBLIC "-//W3C//DTD SVG 20010904//EN"
 "http://www.w3.org/TR/2001/REC-SVG-20010904/DTD/svg10.dtd">
<svg version="1.0" xmlns="http://www.w3.org/2000/svg"
 width="1280.000000pt" height="1261.000000pt" viewBox="0 0 1280.000000 1261.000000"
 preserveAspectRatio="xMidYMid meet">
<metadata>
Created by potrace 1.15, written by Peter Selinger 2001-2017
</metadata>
<g transform="translate(0.000000,1261.000000) scale(0.100000,-0.100000)"
fill="#000000" stroke="none">
<path d="M4095 12594 c-372 -22 -436 -30 -539 -70 -441 -170 -915 -580 -1153
-997 -148 -260 -343 -824 -407 -1177 -89 -489 -80 -1031 20 -1309 62 -170 185
-450 295 -671 115 -230 173 -314 383 -565 221 -262 204 -249 664 -529 240
-145 289 -171 481 -250 232 -96 347 -138 516 -193 209 -68 553 -233 914 -440
234 -134 341 -208 458 -315 184 -169 267 -277 333 -438 17 -41 65 -185 107
-320 l76 -245 -23 -130 c-42 -246 -70 -373 -106 -491 -42 -139 -89 -258 -110
-275 -19 -15 -166 8 -609 96 -176 35 -426 80 -555 100 -129 20 -262 42 -295
50 -59 14 -226 31 -555 57 -107 8 -354 13 -700 13 -588 0 -584 0 -720 -62 -41
-19 -129 -55 -195 -80 -147 -56 -197 -80 -301 -148 -145 -94 -288 -247 -418
-447 -137 -210 -159 -294 -160 -598 -1 -238 3 -265 69 -402 45 -94 47 -141 5
-163 -16 -8 -36 -15 -44 -15 -20 0 -234 -68 -269 -86 -41 -20 -57 -18 -103 19
-91 72 -244 278 -300 402 -76 171 -104 303 -104 492 0 243 38 411 144 640 212
457 552 1145 600 1216 33 48 49 86 93 217 54 164 65 231 66 380 1 139 -16 251
-53 355 -10 28 -30 91 -45 140 -34 113 -65 175 -105 209 -35 29 -43 31 -71 16
-27 -15 -24 -55 9 -147 39 -112 38 -221 -5 -358 -17 -55 -43 -145 -58 -200
-56 -205 -119 -335 -204 -423 -113 -117 -299 -352 -361 -457 -13 -22 -38 -56
-55 -75 -17 -20 -55 -78 -85 -130 -29 -52 -75 -118 -101 -146 -113 -121 -157
-216 -298 -641 -107 -319 -162 -518 -198 -713 -26 -146 -22 -348 11 -530 15
-80 36 -206 47 -280 38 -254 98 -505 154 -641 49 -121 151 -237 318 -361 208
-154 535 -296 725 -314 88 -8 140 -32 205 -92 64 -60 213 -155 361 -229 60
-30 141 -76 180 -103 99 -67 437 -239 578 -294 65 -26 160 -58 210 -72 51 -14
190 -56 308 -94 458 -148 630 -191 835 -210 55 -5 170 -16 255 -24 429 -42
1115 -53 1775 -29 441 17 595 38 1280 182 349 73 952 218 1128 272 84 25 347
157 527 265 91 54 160 104 215 156 l81 77 118 -75 c272 -172 447 -236 791
-285 83 -11 233 -38 335 -60 266 -56 364 -70 548 -76 227 -8 739 21 942 53
186 29 302 80 430 187 306 256 492 849 390 1242 -38 148 -96 249 -199 350 -86
84 -171 139 -281 181 -52 21 -96 38 -97 38 -1 1 7 37 18 81 39 162 20 393 -47
573 -59 157 -200 379 -313 493 -67 68 -91 84 -201 137 -134 65 -330 139 -457
173 -43 11 -105 29 -138 39 -66 21 -191 45 -310 60 -152 19 -634 -14 -1300
-91 -143 -16 -323 -36 -400 -44 -166 -17 -595 -20 -851 -5 -196 12 -414 37
-427 49 -4 5 8 64 27 132 80 280 101 439 93 723 -4 184 -10 242 -46 456 -52
315 -78 402 -174 595 -155 311 -390 617 -734 956 -356 351 -575 510 -1043 757
-164 86 -770 332 -1136 461 -90 32 -200 79 -248 107 -179 102 -522 379 -708
572 -100 103 -142 182 -215 397 -126 371 -159 659 -113 979 53 359 154 657
284 833 111 151 336 279 531 303 92 11 557 -10 573 -27 7 -7 32 -13 55 -13 26
0 62 -11 94 -28 214 -111 747 -580 931 -819 85 -110 277 -210 727 -381 352
-133 410 -152 500 -158 57 -5 77 -2 105 14 38 21 80 75 80 103 0 34 -71 87
-213 160 -171 87 -233 128 -311 205 -136 136 -326 428 -445 684 -75 162 -95
233 -88 314 8 86 20 95 104 72 121 -32 335 -117 468 -187 72 -37 191 -89 265
-114 269 -94 281 -112 219 -325 -16 -58 -31 -127 -32 -155 -2 -44 1 -50 19
-53 50 -7 128 98 214 289 28 63 54 117 58 121 15 15 169 38 250 38 l84 0 -7
-32 c-4 -18 -18 -71 -32 -118 -13 -47 -27 -120 -30 -164 -6 -72 -5 -78 13 -74
26 5 79 79 165 231 83 149 144 222 192 232 59 12 174 74 226 121 94 85 129
172 111 277 -29 160 -41 174 -164 193 -155 25 -463 139 -565 209 -80 55 -174
98 -477 218 -483 192 -534 203 -899 197 -137 -3 -326 -4 -420 -4 -166 1 -174
2 -325 43 -273 73 -472 121 -605 145 -210 39 -493 95 -585 116 -97 22 -134 23
-445 4z"/>
</g>
</svg>
