<?xml version="1.0" standalone="no"?>
<!DOCTYPE svg PUBLIC "-//W3C//DTD SVG 20010904//EN"
 "http://www.w3.org/TR/2001/REC-SVG-20010904/DTD/svg10.dtd">
<svg version="1.0" xmlns="http://www.w3.org/2000/svg"
 width="1280.000000pt" height="786.000000pt" viewBox="0 0 1280.000000 786.000000"
 preserveAspectRatio="xMidYMid meet">
<metadata>
Created by potrace 1.15, written by Peter Selinger 2001-2017
</metadata>
<g transform="translate(0.000000,786.000000) scale(0.100000,-0.100000)"
fill="#000000" stroke="none">
<path d="M8438 7843 c-8 -10 -21 -28 -27 -40 l-11 -22 -38 21 c-33 18 -47 20
-132 15 -157 -10 -288 -50 -625 -190 -325 -135 -540 -270 -711 -448 -103 -108
-141 -164 -244 -359 -115 -216 -178 -322 -225 -377 -35 -41 -39 -43 -92 -43
-102 0 -206 44 -524 220 -214 119 -348 187 -414 210 -27 10 -74 34 -102 53
-84 56 -171 72 -398 72 -231 -1 -442 -27 -715 -91 -472 -110 -1042 -392 -1525
-754 -329 -248 -588 -496 -727 -697 -86 -125 -93 -133 -98 -106 -5 27 -7 25
-42 -37 -54 -96 -92 -182 -153 -353 -73 -199 -129 -312 -225 -446 -180 -253
-325 -414 -679 -752 -346 -331 -502 -521 -605 -740 -78 -164 -111 -303 -122
-512 -42 -787 492 -1494 1441 -1907 163 -71 392 -146 517 -170 381 -72 826
-128 1408 -175 400 -32 517 -47 960 -115 484 -75 728 -100 965 -100 l130 1
-64 61 c-87 82 -188 146 -366 233 -362 176 -766 308 -1540 504 -261 66 -339
89 -663 191 -303 97 -639 269 -880 450 l-42 32 0 -36 c0 -39 -6 -43 -35 -22
-11 8 -16 20 -12 29 3 9 2 19 -3 22 -5 3 -16 27 -24 53 -7 26 -41 115 -75 199
-95 238 -123 339 -128 468 -4 95 -2 118 16 166 27 71 79 125 150 156 69 30 79
35 175 100 184 124 266 101 266 -75 0 -99 -22 -210 -101 -522 -39 -151 -73
-307 -76 -345 -5 -62 -2 -77 20 -121 79 -155 309 -269 667 -328 425 -71 713
-56 815 42 68 66 70 72 64 147 -9 109 -54 193 -179 329 -39 44 -80 96 -90 115
-37 75 -51 214 -29 296 6 22 37 92 69 155 32 64 69 148 83 186 20 55 79 306
123 523 5 22 8 23 52 16 57 -9 281 -82 502 -164 163 -61 369 -121 415 -121 54
0 87 -76 124 -282 53 -295 61 -429 51 -848 -5 -216 6 -281 57 -349 47 -61 94
-74 308 -82 105 -4 205 -12 224 -18 22 -7 49 -7 80 -1 25 5 116 16 201 24 243
24 312 46 334 108 11 31 -17 94 -69 155 -19 23 -35 43 -35 46 0 2 18 9 40 16
59 18 100 56 100 95 0 41 -14 61 -131 182 -109 114 -133 153 -155 258 -14 67
-14 85 1 188 21 154 29 177 79 245 94 128 283 230 552 298 37 9 106 15 170 15
209 0 377 31 494 90 33 17 64 30 71 30 29 0 122 34 156 57 26 18 38 22 41 13
3 -8 33 -46 69 -86 69 -80 160 -218 216 -329 64 -129 91 -240 147 -630 59
-399 89 -495 183 -582 101 -93 203 -123 513 -148 212 -17 433 -19 503 -4 58
12 112 45 126 77 5 12 15 22 20 22 6 0 20 6 30 14 19 14 19 15 -11 32 -37 21
-64 81 -43 95 15 9 20 1 -83 119 -164 187 -202 285 -257 665 -17 116 -38 218
-66 320 -25 93 -43 140 -138 380 -84 211 -108 302 -114 427 -3 58 -2 127 1
152 7 42 10 46 34 46 77 0 226 -108 447 -321 95 -92 171 -157 197 -169 95 -43
205 -16 389 94 68 41 126 71 129 66 12 -20 -9 -207 -29 -260 -12 -30 -21 -56
-21 -58 0 -2 36 25 80 59 212 164 329 342 406 615 110 394 139 436 424 612 63
39 122 75 130 80 24 15 -63 35 -155 35 -82 0 -248 -21 -390 -49 -51 -10 -114
-15 -171 -13 l-91 4 -73 60 c-222 181 -304 262 -352 342 -44 74 -128 246 -128
262 0 4 64 19 143 34 519 99 1023 143 1737 151 609 7 804 20 1177 82 226 37
358 74 506 142 50 22 74 38 65 43 -25 13 -183 30 -351 38 -156 7 -547 1 -846
-14 -69 -3 -123 -3 -120 -1 3 3 73 19 155 35 221 44 347 75 459 114 101 34
243 101 280 132 19 15 19 16 -10 11 -183 -31 -645 -37 -2120 -26 -586 5 -654
3 -805 -14 -227 -27 -375 -26 -465 2 -187 57 -307 200 -434 520 -83 209 -123
412 -123 637 0 167 8 214 73 433 71 238 83 295 84 397 0 84 -3 96 -35 160 -37
74 -56 87 -82 58z"/>
</g>
</svg>
