<?xml version="1.0" standalone="no"?>
<!DOCTYPE svg PUBLIC "-//W3C//DTD SVG 20010904//EN"
 "http://www.w3.org/TR/2001/REC-SVG-20010904/DTD/svg10.dtd">
<svg version="1.0" xmlns="http://www.w3.org/2000/svg"
 width="1280.000000pt" height="720.000000pt" viewBox="0 0 1280.000000 720.000000"
 preserveAspectRatio="xMidYMid meet">
<metadata>
Created by potrace 1.15, written by Peter Selinger 2001-2017
</metadata>
<g transform="translate(0.000000,720.000000) scale(0.100000,-0.100000)"
fill="#000000" stroke="none">
<path d="M7391 6125 c-36 -31 -55 -84 -46 -132 l6 -35 -33 7 c-48 11 -131 49
-147 68 -20 25 -41 21 -41 -8 0 -32 29 -89 93 -185 95 -140 111 -224 54 -286
-54 -59 -157 -58 -157 2 0 57 -62 126 -133 150 -42 14 -57 15 -107 4 -65 -14
-203 -85 -198 -102 3 -7 32 -10 81 -9 l77 2 0 -54 c0 -41 6 -63 25 -91 30 -45
31 -53 5 -61 -31 -10 -87 13 -177 72 -127 83 -200 109 -344 119 -145 11 -287
-16 -484 -93 -93 -37 -133 -47 -178 -47 -55 -1 -61 2 -93 37 -41 44 -46 93
-13 123 11 10 91 64 177 120 86 56 158 106 160 112 5 17 -61 81 -88 84 -24 3
-25 1 -25 -49 0 -66 -19 -89 -43 -53 -29 44 -80 95 -87 88 -4 -4 1 -32 10 -63
10 -30 15 -58 12 -61 -3 -4 -30 14 -59 40 -48 42 -54 45 -65 29 -16 -22 -16
-48 2 -98 21 -57 20 -60 -25 -78 l-40 -16 -20 38 c-23 45 -74 91 -101 91 -23
0 -23 1 -3 -67 9 -30 13 -57 9 -61 -10 -11 -92 38 -142 85 -26 23 -50 43 -55
43 -16 0 -8 -81 12 -120 11 -22 20 -42 20 -44 0 -11 -60 -36 -87 -36 -24 0
-31 7 -46 45 -21 49 -88 125 -112 125 -18 0 -18 0 -1 -41 20 -49 35 -138 24
-145 -21 -13 -58 27 -73 80 -20 69 -54 120 -83 124 -29 4 -28 -11 2 -41 14
-14 30 -44 36 -68 25 -98 53 -134 102 -127 21 3 23 0 20 -32 -8 -79 -82 -152
-156 -154 -24 -1 -48 2 -52 7 -14 13 31 61 80 85 54 26 54 27 6 127 -32 66
-94 144 -105 133 -4 -4 -1 -52 7 -107 10 -73 11 -101 3 -101 -16 0 -78 85
-114 157 -41 82 -74 91 -125 34 -19 -21 -19 -28 0 -163 9 -61 -1 -98 -25 -98
-27 0 -104 91 -147 172 -19 38 -39 68 -45 68 -5 0 -9 -29 -9 -64 0 -36 -4 -67
-8 -70 -5 -3 -26 17 -46 44 -43 56 -62 64 -52 23 14 -61 18 -113 9 -113 -13 0
-53 91 -60 137 -7 44 -20 50 -46 24 -22 -22 -27 -75 -12 -118 6 -19 4 -23 -13
-23 -27 0 -42 20 -56 76 -8 31 -22 55 -39 68 -27 20 -28 20 -61 2 -42 -22 -55
-47 -58 -111 l-3 -50 -48 63 c-27 34 -52 62 -58 62 -5 0 -7 -23 -3 -57 l7 -58
-30 40 c-37 49 -71 80 -79 72 -4 -4 -2 -29 3 -57 6 -27 8 -52 5 -55 -3 -3 -17
-5 -32 -5 -31 0 -59 28 -89 88 -26 52 -60 70 -96 54 -28 -13 -32 -45 -15 -120
9 -39 8 -46 -12 -72 -50 -61 -120 -78 -158 -38 -29 31 -25 37 20 31 27 -4 47
0 65 11 21 14 25 24 25 67 0 106 -82 156 -152 92 -10 -9 -18 -24 -18 -35 0
-29 -18 -21 -46 22 -36 55 -60 58 -134 21 -76 -39 -104 -39 -139 -2 -21 22
-33 27 -58 24 -17 -3 -48 0 -68 7 -27 9 -39 9 -50 0 -21 -17 -30 -70 -14 -84
15 -14 92 -38 182 -57 31 -7 57 -16 57 -21 0 -14 -133 -9 -187 7 -27 8 -65 25
-84 38 -41 29 -43 62 -4 112 14 19 22 36 18 38 -5 3 -91 26 -193 52 -102 25
-254 64 -337 86 -84 21 -157 39 -163 39 -22 0 -9 -53 20 -80 36 -33 37 -40 9
-40 -34 0 -86 37 -121 87 -34 47 -101 93 -135 93 -11 0 -26 -7 -34 -16 -10
-13 -10 -17 2 -25 8 -5 19 -9 26 -9 17 0 63 -59 63 -81 0 -33 -48 -24 -86 17
l-34 36 -67 -21 c-36 -12 -70 -21 -73 -21 -4 0 -10 14 -14 32 -7 35 -42 78
-63 78 -26 0 -54 -39 -47 -65 12 -48 -36 -28 -77 31 -37 55 -74 67 -101 34
-18 -22 -19 -22 -63 -6 -24 10 -61 26 -82 36 -47 23 -60 13 -46 -35 12 -36 4
-45 -17 -21 -6 8 -31 22 -54 31 -45 17 -82 10 -117 -21 -15 -13 -20 -12 -47
16 -38 37 -68 39 -84 5 -11 -25 -14 -26 -80 -19 -59 6 -68 4 -68 -10 0 -21
-10 -20 -26 2 -23 32 -241 13 -389 -34 -76 -24 -165 -66 -165 -76 0 -6 26 -7
63 -4 152 14 817 18 977 6 187 -13 411 -37 418 -44 2 -3 -12 -13 -32 -22 -45
-22 -47 -38 -4 -30 18 4 103 9 188 12 151 6 156 5 189 -18 46 -31 54 -53 15
-44 -48 12 -152 19 -179 12 -35 -9 -31 -24 13 -44 30 -13 61 -16 172 -12 264
8 291 6 337 -19 28 -17 50 -40 69 -75 15 -28 34 -59 42 -68 16 -19 82 -25 82
-8 0 5 -16 31 -35 56 -37 49 -40 67 -11 72 33 7 65 -26 81 -82 18 -61 43 -88
80 -88 43 0 49 15 21 57 -30 43 -32 53 -12 61 40 15 96 -56 96 -123 0 -24 4
-43 8 -43 18 0 43 39 49 75 6 36 7 37 41 31 44 -7 102 -46 102 -68 0 -20 -39
-33 -72 -25 -21 6 -48 -7 -48 -23 0 -20 54 -70 75 -70 33 0 70 33 94 86 21 45
24 46 57 41 38 -6 104 -43 104 -58 0 -5 -11 -16 -25 -25 -52 -34 -86 -124 -47
-124 43 0 122 83 122 127 0 39 39 49 94 25 25 -12 46 -26 46 -33 0 -7 -16 -27
-35 -46 -38 -36 -78 -106 -68 -117 22 -21 58 -1 131 74 70 71 82 80 115 80 70
0 86 -75 36 -171 -26 -52 -17 -64 29 -40 53 27 82 62 103 123 17 50 20 53 50
51 47 -2 85 -34 82 -69 -3 -36 -31 -75 -69 -94 -53 -28 -55 -30 -44 -50 14
-26 61 -34 102 -17 26 11 42 30 67 78 48 91 76 119 121 119 24 0 43 -7 55 -20
17 -19 16 -21 -13 -67 -35 -55 -82 -157 -82 -178 0 -34 69 -5 108 45 10 14 35
55 55 91 41 74 59 93 101 109 36 13 91 -3 107 -32 9 -17 3 -27 -41 -74 -28
-30 -62 -79 -76 -109 -41 -94 -30 -106 50 -53 75 49 126 128 141 217 4 23 13
45 21 48 49 18 109 -45 100 -105 -6 -41 -42 -90 -90 -123 -20 -13 -36 -30 -36
-37 0 -21 46 -36 82 -26 43 13 72 58 88 136 16 81 33 114 71 133 24 13 37 14
64 5 18 -6 80 -10 140 -8 103 3 107 2 127 -22 27 -33 19 -73 -30 -158 -46 -80
-54 -109 -41 -134 15 -27 35 -22 84 23 44 40 105 145 105 180 0 10 -12 32 -26
49 l-27 31 20 20 c33 33 153 39 153 7 0 -6 -11 -39 -24 -72 -30 -76 -49 -168
-44 -221 l3 -40 36 38 c64 69 106 168 117 277 l7 75 105 7 c58 4 231 14 385
23 154 8 360 21 458 27 97 6 180 8 183 5 3 -3 -1 -28 -10 -54 -62 -187 -265
-378 -565 -532 l-104 -54 -34 18 c-39 22 -45 17 -62 -50 -12 -49 -41 -106 -80
-155 -16 -20 -29 -25 -63 -25 -39 0 -43 -3 -46 -26 -2 -14 4 -31 12 -38 13
-11 60 16 308 180 316 208 412 263 484 274 107 16 202 -23 245 -99 49 -87 31
-369 -42 -646 -30 -113 -38 -130 -65 -130 -13 0 -38 -13 -56 -29 -29 -26 -33
-35 -32 -79 0 -41 7 -59 37 -101 23 -32 32 -51 23 -51 -7 0 -19 7 -26 15 -7 8
-18 15 -24 15 -6 0 -195 -184 -419 -408 -224 -224 -409 -406 -412 -404 -2 2 0
15 6 29 12 31 12 56 0 48 -12 -7 -156 -255 -210 -362 -24 -46 -46 -83 -50 -83
-14 0 -31 50 -31 88 1 57 32 113 96 170 32 29 62 52 66 52 4 0 8 5 8 10 0 19
-37 10 -83 -21 -50 -33 -104 -101 -129 -164 -40 -98 -43 -117 -41 -320 2 -128
-3 -250 -13 -340 -23 -205 -28 -365 -15 -438 38 -200 162 -378 333 -478 79
-46 88 -44 87 26 0 45 -28 126 -46 132 -6 2 -14 -13 -18 -36 -4 -23 -10 -41
-14 -41 -18 0 -71 74 -71 99 0 17 139 13 201 -5 83 -24 168 -73 228 -132 66
-65 73 -59 68 53 -2 57 -10 92 -25 122 -29 55 -11 56 38 3 20 -22 39 -40 42
-40 4 0 11 14 17 31 18 51 -4 115 -59 170 -37 37 -67 54 -165 92 -68 27 -141
63 -169 84 -88 68 -156 195 -156 293 0 58 -16 74 -31 31 -6 -17 -14 -31 -18
-31 -13 0 -21 151 -20 345 1 145 4 173 12 142 13 -47 30 -43 38 9 22 127 117
300 254 463 122 145 456 439 463 406 2 -8 9 -15 15 -15 32 0 355 197 388 236
47 57 -211 -10 -284 -74 -22 -19 -32 -10 -18 17 18 32 70 66 150 97 40 15 87
42 104 58 l30 30 18 -23 c11 -13 19 -34 19 -47 0 -42 18 -32 83 49 49 61 97
145 97 172 0 23 15 18 67 -21 231 -176 565 -169 793 16 103 84 220 126 333
118 37 -3 57 0 57 7 0 14 -208 221 -215 213 -3 -3 0 -35 6 -72 7 -36 9 -69 6
-73 -4 -3 -8 -4 -10 -2 -2 2 -54 81 -117 176 -62 95 -117 170 -121 167 -10 -6
20 -78 97 -231 34 -68 58 -123 54 -123 -11 0 -119 135 -172 213 -50 76 -47 72
-54 64 -8 -8 64 -160 110 -231 20 -32 35 -60 33 -63 -14 -13 -201 102 -251
156 -48 50 -62 40 -29 -21 32 -61 131 -164 186 -193 46 -24 47 -45 2 -89 -41
-41 -128 -71 -175 -61 -44 10 -37 20 25 35 88 21 86 52 -4 52 -51 0 -117 -28
-134 -58 -16 -28 -29 -15 -22 23 9 49 31 90 55 106 27 16 25 37 -2 37 -27 0
-108 -38 -108 -51 0 -5 -6 -9 -13 -9 -15 0 -35 93 -64 290 -23 151 -25 702 -4
795 28 125 73 182 151 192 51 7 97 -12 115 -48 8 -15 15 -55 15 -88 0 -71 15
-111 43 -111 17 0 19 5 13 33 -14 67 -27 179 -22 184 3 3 25 -6 50 -21 38 -22
76 -34 76 -23 0 2 -32 77 -70 167 -39 90 -67 167 -63 171 12 11 85 29 95 23 4
-3 8 -20 8 -38 0 -39 18 -96 31 -96 5 0 9 22 9 50 0 52 32 150 54 170 14 10
22 2 73 -69 2 -3 9 2 17 10 31 34 47 223 27 312 -17 72 -26 64 -62 -49 -13
-41 -27 -74 -31 -74 -12 0 -10 125 3 176 13 49 12 48 41 33 30 -16 108 -13
157 7 43 17 50 36 15 42 -95 16 -147 52 -165 112 -10 34 -9 43 9 74 20 35 21
36 2 36 -10 0 -32 -11 -49 -25z m-6071 -275 c0 -5 -4 -10 -9 -10 -6 0 -13 5
-16 10 -3 6 1 10 9 10 9 0 16 -4 16 -10z m857 -115 c19 -26 32 -53 30 -59 -5
-13 -63 -9 -90 6 -14 7 -16 17 -12 46 13 79 22 80 72 7z m173 -39 c24 -10 41
-11 65 -3 27 8 38 6 73 -18 23 -15 53 -42 67 -61 24 -32 25 -34 6 -34 -34 0
-72 19 -102 52 -28 29 -31 30 -48 14 -24 -22 -51 -20 -84 7 -20 15 -26 27 -22
40 8 20 5 20 45 3z m2286 -46 c15 -31 44 -127 44 -147 0 -37 -25 0 -56 82 -19
50 -34 91 -34 93 0 2 8 2 17 0 10 -2 23 -14 29 -28z m-621 -111 c15 -44 24
-83 20 -87 -4 -4 -18 7 -31 23 -39 49 -59 145 -30 145 9 0 24 -30 41 -81z
m-905 34 c0 -15 -11 -39 -26 -54 l-26 -27 26 -17 c15 -10 39 -15 63 -13 46 4
53 -20 12 -39 -32 -16 -84 -1 -99 27 -16 30 -11 83 10 118 24 39 40 41 40 5z
m230 2 c10 -12 10 -21 1 -41 -13 -30 -35 -27 -39 5 -7 46 14 65 38 36z m198
-31 c13 -26 20 -49 17 -53 -11 -11 -55 49 -55 75 0 37 14 29 38 -22z m1962 28
c0 -26 -11 -34 -27 -21 -20 17 -16 39 7 39 13 0 20 -7 20 -18z m-102 -30 c21
-28 -11 -96 -55 -113 -48 -18 -90 30 -81 92 6 45 106 60 136 21z m-194 -15
c-3 -8 -23 -24 -44 -36 -57 -32 -59 -42 -8 -39 38 3 43 0 46 -19 4 -30 -35
-54 -93 -56 -55 -2 -68 12 -61 66 6 52 30 77 75 77 20 0 43 5 51 10 22 14 40
12 34 -3z m1084 -94 c-3 -60 -16 -74 -56 -58 -13 5 -12 10 13 29 43 35 26 47
-54 40 -42 -4 -75 -2 -87 4 -16 9 -16 12 -4 16 20 7 127 23 163 25 28 1 28 1
25 -56z m258 27 c24 -12 53 -37 68 -61 41 -61 43 -116 11 -240 -24 -92 -26
-116 -22 -209 7 -116 14 -153 31 -147 12 4 14 189 3 246 -9 46 12 36 42 -19
20 -35 24 -57 24 -114 -1 -39 -6 -91 -12 -116 -18 -77 -13 -198 14 -320 53
-240 20 -377 -105 -436 -30 -15 -63 -34 -73 -42 -27 -24 -47 -78 -47 -126 0
-93 -44 -166 -98 -166 -67 0 -78 65 -37 215 14 50 30 109 36 132 13 50 50 93
79 93 24 0 25 8 6 36 -43 62 -39 150 10 223 24 35 24 37 24 296 0 143 -5 298
-10 345 -9 80 -9 86 11 101 20 15 20 19 9 115 -13 110 -22 134 -50 134 -22 0
-50 -26 -50 -47 0 -31 -25 -5 -28 30 -3 30 2 43 27 67 36 36 76 39 137 10z
m450 5 c18 -15 18 -15 -5 -13 -14 2 -26 9 -29 16 -5 17 10 15 34 -3z m-2622
-1 c24 -9 19 -29 -9 -42 -13 -6 -34 -32 -47 -59 l-23 -48 -53 1 c-60 2 -99 23
-108 60 -11 44 11 55 76 38 72 -19 87 -18 95 6 7 22 32 50 45 50 5 0 15 -3 24
-6z m-722 -49 c-23 -85 -180 -103 -170 -20 2 25 7 30 28 27 65 -6 83 -4 108
15 33 25 44 18 34 -22z m110 -11 c17 -9 44 -14 60 -12 32 5 53 -13 44 -38 -5
-14 -16 -16 -54 -11 -75 9 -102 23 -102 52 0 29 10 31 52 9z m972 0 c25 -25 4
-52 -48 -59 -59 -9 -80 -4 -84 22 -6 45 96 74 132 37z m-670 -34 c28 -28 12
-40 -47 -34 -79 8 -99 14 -94 27 12 39 104 43 141 7z m476 15 c17 -21 7 -39
-33 -58 -68 -33 -127 -15 -127 38 0 21 6 24 43 28 88 8 105 7 117 -8z m2456
-71 c7 -27 -7 -50 -25 -40 -6 4 -11 20 -11 37 0 37 27 40 36 3z m-596 -125 c0
-3 -9 -35 -20 -69 -26 -82 -26 -90 11 -136 29 -37 31 -42 24 -99 -16 -149 -27
-167 -54 -86 -11 36 -11 48 2 89 15 44 15 48 -2 67 -46 50 -52 92 -21 143 12
19 20 50 20 76 0 23 3 46 7 50 7 7 33 -20 33 -35z m517 15 c-9 -9 -28 6 -21
18 4 6 10 6 17 -1 6 -6 8 -13 4 -17z m-477 -684 c0 -46 -3 -60 -15 -60 -17 0
-30 59 -21 95 4 14 13 25 21 25 12 0 15 -14 15 -60z m357 -560 c-16 -41 0 -81
40 -100 39 -18 42 -30 8 -30 -17 0 -47 20 -90 60 -49 46 -72 60 -95 60 -16 0
-30 4 -30 10 0 12 28 19 95 23 28 2 57 4 67 5 14 2 15 -2 5 -28z m-227 -35 c0
-14 -4 -25 -10 -25 -11 0 -14 33 -3 43 11 11 13 8 13 -18z m-313 -61 c9 -23
-11 -38 -26 -20 -13 16 -7 36 10 36 5 0 12 -7 16 -16z m-1175 -1439 c18 -41
-17 -516 -44 -588 -8 -21 -17 -27 -32 -25 -12 2 -20 9 -18 18 17 72 46 333 58
518 6 103 15 122 36 77z m22 -667 c19 -30 61 -176 53 -184 -26 -26 -75 63 -84
152 -6 59 6 71 31 32z m151 -81 c40 -50 71 -77 168 -144 47 -33 47 -33 47 -92
0 -41 -5 -65 -18 -81 l-17 -21 -80 34 c-122 52 -163 75 -175 97 -16 30 -4 57
30 64 44 8 50 47 17 107 -26 45 -35 90 -19 88 4 0 25 -24 47 -52z m-237 16
c23 -61 24 -113 3 -113 -14 0 -41 71 -41 105 0 43 23 47 38 8z m61 -209 c30
-38 27 -54 -9 -54 -23 0 -33 6 -42 24 -23 53 15 75 51 30z m582 -22 c14 -12
20 -25 16 -35 -6 -15 -10 -15 -42 4 -37 22 -43 34 -22 42 20 9 24 8 48 -11z
m-536 -108 c27 -18 34 -44 11 -44 -19 0 -67 40 -61 51 9 13 22 11 50 -7z m448
-15 c26 -12 57 -57 57 -83 0 -22 -10 -20 -50 14 -19 17 -40 30 -47 30 -19 0
-26 19 -13 35 15 18 22 18 53 4z"/>
<path d="M6605 4578 c-5 -15 -35 -358 -35 -401 0 -18 4 -27 13 -25 19 7 45
158 53 306 6 120 5 132 -10 132 -9 0 -19 -6 -21 -12z"/>
<path d="M5287 1553 c-4 -3 -7 -24 -7 -45 0 -71 82 -116 131 -72 25 23 15 39
-52 84 -63 43 -62 43 -72 33z"/>
<path d="M7880 6101 l-36 -38 -32 28 c-87 78 -176 -7 -159 -150 3 -26 11 -59
18 -75 l13 -27 31 37 c38 46 78 49 111 10 28 -31 29 -31 61 -6 34 26 92 26
127 -1 25 -20 25 -21 10 -50 -17 -33 -16 -80 2 -86 6 -2 27 31 48 72 21 46 41
75 49 73 15 -6 22 -58 7 -58 -16 0 -60 -104 -76 -180 -8 -40 -14 -130 -14
-235 0 -212 -18 -328 -86 -562 -10 -36 -27 -27 -21 10 3 17 9 79 12 137 3 58
10 168 15 245 5 77 14 226 20 330 6 105 12 209 15 233 6 52 -11 56 -49 11 -61
-72 -64 -93 -55 -434 3 -145 2 -154 -29 -262 -45 -155 -62 -260 -62 -383 0
-234 76 -488 202 -673 22 -32 38 -60 36 -62 -2 -2 -84 57 -183 131 -98 74
-183 134 -187 134 -21 0 1 -27 107 -127 63 -61 115 -113 115 -116 0 -4 -18 4
-40 18 -42 27 -60 31 -60 15 0 -18 52 -164 72 -205 20 -38 20 -40 2 -53 -11
-7 -77 -51 -149 -99 -206 -136 -375 -272 -561 -456 l-92 -89 -36 12 c-20 6
-36 15 -36 19 0 10 244 213 397 330 163 125 162 142 -2 43 -275 -166 -408
-271 -453 -356 -23 -45 -26 -62 -25 -141 0 -74 8 -115 42 -234 58 -201 68
-270 48 -346 -17 -66 -11 -81 27 -71 33 8 50 39 36 65 -15 29 -13 81 3 81 27
0 146 -288 186 -450 15 -60 41 -217 41 -246 0 -33 15 -37 55 -18 78 37 108
156 65 253 -12 24 -52 89 -91 143 -66 91 -109 176 -109 214 0 29 19 10 94 -96
84 -117 154 -244 184 -335 26 -76 45 -182 42 -232 -2 -21 -2 -44 -1 -50 3 -33
101 5 144 56 41 49 61 113 54 179 -6 74 -41 151 -128 284 -76 117 -119 205
-119 244 0 13 -7 27 -15 30 -25 10 -45 -16 -45 -56 0 -42 6 -59 88 -232 32
-68 76 -162 97 -211 22 -48 44 -87 50 -87 6 0 16 12 22 27 l11 28 1 -26 c2
-52 -64 -189 -90 -189 -5 0 -9 18 -9 40 0 55 -36 217 -67 298 -36 98 -101 218
-155 290 -27 35 -48 67 -48 72 0 5 16 17 35 26 47 22 85 69 85 104 0 32 -20
62 -190 290 -66 89 -120 166 -120 170 0 20 260 239 435 367 189 138 520 338
702 423 32 15 53 31 53 41 0 23 -50 65 -174 148 -125 84 -187 150 -209 223 -9
29 -28 130 -42 223 -14 94 -28 184 -31 200 -10 49 6 22 46 -77 73 -181 166
-348 283 -505 102 -136 184 -223 211 -223 32 0 36 8 20 38 -26 50 17 50 72 0
21 -18 23 -18 152 13 136 32 166 49 88 49 -54 0 -66 13 -31 36 14 9 25 20 25
25 0 5 -23 18 -50 30 -65 28 -141 111 -171 187 -38 94 -33 271 19 677 23 182
44 344 47 362 l6 32 54 -26 c56 -28 66 -45 46 -82 -6 -10 -25 -69 -44 -132
-95 -313 -121 -604 -68 -770 38 -118 128 -218 231 -254 22 -8 40 -12 40 -9 0
3 -31 36 -68 72 -107 105 -152 223 -152 397 0 118 9 171 98 584 10 48 23 48
54 0 60 -92 61 -226 4 -424 -81 -281 -74 -386 31 -487 41 -40 114 -77 151 -78
35 0 89 26 117 56 14 15 28 24 32 21 3 -4 1 -31 -6 -61 -8 -38 -24 -68 -50
-98 -36 -40 -42 -43 -90 -44 -41 0 -55 -5 -67 -22 -8 -12 -46 -47 -85 -77 -75
-61 -99 -96 -99 -148 0 -39 18 -57 104 -108 76 -44 183 -148 234 -227 53 -82
100 -196 115 -279 7 -37 16 -66 22 -66 5 1 23 41 39 90 16 48 31 90 33 93 3 3
29 -22 58 -55 30 -33 57 -57 60 -53 7 7 -12 175 -21 190 -3 4 -116 94 -252
199 -136 106 -253 198 -261 205 -33 30 56 148 148 195 48 25 144 38 155 21 3
-6 -14 -31 -39 -55 -65 -65 -58 -107 18 -107 47 0 209 81 294 146 117 91 163
173 163 291 0 63 -5 85 -29 137 -51 104 -217 284 -241 260 -15 -16 37 -106
105 -182 82 -92 107 -139 107 -206 0 -40 -5 -60 -26 -91 -28 -40 -53 -61 -63
-52 -2 3 5 19 17 35 54 73 33 158 -75 307 -121 167 -177 344 -177 560 0 101 5
149 22 215 12 47 23 91 23 99 3 22 -45 45 -76 37 -24 -6 -27 -11 -27 -52 0
-55 -16 -50 -25 9 -24 162 -135 522 -158 514 -10 -3 -46 -134 -47 -169 -1 -92
-96 109 -115 244 -8 55 -19 54 -60 -7 -16 -25 -32 -45 -35 -45 -3 0 -22 30
-42 68 -20 37 -42 67 -49 67 -19 0 -30 -87 -19 -148 6 -27 19 -70 30 -95 l21
-46 -23 -18 c-13 -10 -26 -18 -29 -18 -4 0 -32 -47 -64 -105 -32 -58 -60 -104
-62 -101 -3 3 16 59 41 125 25 67 46 129 46 140 0 26 -24 43 -52 36 -16 -4
-29 -1 -37 9 -25 30 -38 16 -56 -61 -112 -494 -186 -1109 -164 -1369 5 -56 13
-113 18 -128 14 -36 -3 -43 -33 -13 -54 54 -55 128 -6 647 5 52 14 147 19 210
6 63 20 212 31 330 11 118 20 232 20 252 0 32 5 41 35 60 32 21 75 87 75 116
0 18 -25 14 -45 -8 -12 -13 -33 -20 -69 -22 l-51 -3 -7 -115 c-16 -272 -63
-612 -123 -895 -8 -38 -15 -73 -15 -77 0 -5 -5 -8 -11 -8 -19 0 3 353 37 590
27 191 64 408 79 457 20 66 75 130 126 143 54 15 112 -2 141 -40 12 -17 25
-30 30 -30 5 0 18 20 30 44 l21 44 -31 32 c-34 34 -41 70 -17 90 22 18 18 39
-9 46 -41 10 -64 -11 -68 -58 -4 -62 -26 -60 -95 6 -31 31 -60 56 -64 56 -15
0 -17 -45 -4 -77 14 -33 14 -34 -8 -27 -29 9 -119 66 -136 87 -20 25 -34 21
-54 -13 -17 -28 -21 -30 -60 -24 -52 8 -67 20 -67 50 0 34 16 38 38 9 20 -25
32 -24 32 5 0 22 -41 60 -65 60 -10 0 -35 -17 -55 -39z m-113 -47 c8 -21 -13
-42 -28 -27 -13 13 -5 43 11 43 6 0 13 -7 17 -16z m451 -153 c3 -8 -1 -12 -9
-9 -7 2 -15 10 -17 17 -3 8 1 12 9 9 7 -2 15 -10 17 -17z m618 -267 c47 -66
53 -84 28 -84 -32 0 -52 20 -59 60 -8 50 -34 54 -65 10 -12 -16 -28 -30 -36
-30 -16 0 -19 26 -4 35 17 11 11 98 -9 132 -11 17 -17 34 -13 37 9 10 108 -91
158 -160z m-214 -46 c-7 -7 -12 -8 -12 -2 0 14 12 26 19 19 2 -3 -1 -11 -7
-17z m355 -58 c36 -22 68 -64 59 -79 -4 -6 -20 -2 -41 11 -26 15 -44 18 -70
14 -40 -8 -42 -3 -15 42 23 38 25 38 67 12z m-172 -33 c27 -27 36 -47 49 -112
31 -151 47 -210 78 -277 30 -65 41 -78 52 -59 10 15 -13 122 -35 168 -17 34
-19 47 -10 56 9 9 14 9 21 -3 28 -48 37 -55 55 -40 13 11 16 25 13 62 -3 26
-3 48 0 48 18 0 42 -38 42 -66 0 -26 -7 -39 -34 -59 l-34 -26 20 -67 c61 -207
70 -243 64 -249 -3 -4 -22 9 -41 27 -19 18 -37 31 -40 28 -8 -8 13 -96 36
-147 17 -40 18 -46 4 -60 -19 -20 -26 -12 -65 79 -18 41 -50 113 -71 158 -22
46 -39 86 -39 88 0 13 -126 254 -151 289 -17 23 -48 52 -70 64 -55 31 -49 73
14 111 51 31 103 26 142 -13z m166 -90 c-1 -12 -15 -9 -19 4 -3 6 1 10 8 8 6
-3 11 -8 11 -12z m-441 -48 c0 -21 -11 -85 -25 -142 -51 -211 -92 -461 -115
-692 -12 -119 -12 -120 13 -177 44 -100 131 -205 213 -259 38 -25 37 -40 -6
-62 -25 -13 -50 -17 -89 -14 -48 3 -58 8 -93 45 -21 23 -38 51 -38 62 0 20 1
20 34 -5 45 -34 136 -69 148 -57 6 6 -10 24 -41 46 -68 50 -161 153 -195 216
-27 49 -28 57 -21 129 4 42 8 144 9 226 2 160 -3 137 79 400 14 44 42 134 62
200 21 66 39 123 42 128 10 17 23 -7 23 -44z m-133 -113 c-3 -8 -11 -32 -16
-53 -6 -21 -15 -45 -21 -53 -8 -12 -10 -12 -10 5 0 28 32 115 43 115 5 0 7 -6
4 -14z m743 -135 c13 -25 13 -71 0 -71 -12 0 -30 42 -30 71 0 25 16 25 30 0z
m-790 -70 c0 -11 -4 -23 -10 -26 -6 -4 -10 5 -10 19 0 14 5 26 10 26 6 0 10
-9 10 -19z m572 -273 c68 -138 108 -299 108 -437 0 -98 -21 -145 -67 -149 -18
-2 -43 4 -57 14 -37 23 -94 105 -112 158 -15 45 -15 53 26 259 22 116 43 218
46 225 7 22 19 7 56 -70z m248 -97 c58 -166 58 -167 121 -252 34 -46 49 -76
49 -98 0 -38 -26 -43 -40 -7 -12 33 -48 56 -87 56 -49 0 -79 35 -128 148 -37
86 -43 107 -34 125 11 19 13 16 30 -29 31 -83 93 -179 110 -168 5 3 -4 31 -20
62 -51 103 -77 214 -65 278 3 19 8 33 10 31 2 -2 27 -68 54 -146z m-1010 -229
c0 -5 -6 -16 -13 -27 -16 -20 -33 -5 -23 20 6 16 36 21 36 7z m1078 -159 c2
-8 -5 -13 -17 -13 -12 0 -21 6 -21 16 0 18 31 15 38 -3z m108 -98 c4 -8 -1
-27 -11 -41 -15 -24 -18 -24 -34 -10 -16 15 -20 13 -49 -22 -33 -42 -82 -68
-108 -58 -38 15 7 114 61 136 36 16 135 12 141 -5z m-1036 -71 c0 -8 -4 -12
-10 -9 -5 3 -10 10 -10 16 0 5 5 9 10 9 6 0 10 -7 10 -16z m-70 -185 c0 -5 -4
-9 -10 -9 -5 0 -10 7 -10 16 0 8 5 12 10 9 6 -3 10 -10 10 -16z m570 -78 c0
-13 -40 -61 -51 -61 -15 0 -10 32 8 52 17 19 43 24 43 9z m-1840 -720 c0 -4
50 -111 111 -237 140 -287 157 -334 125 -334 -26 0 -54 50 -85 148 -32 103
-76 196 -134 284 -48 72 -59 102 -47 134 9 22 30 26 30 5z m136 -108 c40 -100
71 -150 134 -214 48 -50 70 -81 75 -106 7 -37 -2 -93 -14 -93 -15 0 -241 411
-241 438 0 27 32 9 46 -25z m-42 -364 c-3 -5 -10 -7 -15 -3 -5 3 -7 10 -3 15
3 5 10 7 15 3 5 -3 7 -10 3 -15z m316 1 c0 -5 -2 -10 -4 -10 -3 0 -8 5 -11 10
-3 6 -1 10 4 10 6 0 11 -4 11 -10z m-6 -606 c8 -20 8 -78 0 -98 -12 -31 -24
-4 -24 55 0 57 11 77 24 43z"/>
<path d="M8723 5453 c-4 -10 2 -23 17 -35 41 -33 67 -5 29 31 -27 25 -38 26
-46 4z"/>
<path d="M7212 6113 c2 -10 10 -18 18 -18 8 0 16 8 18 18 2 12 -3 17 -18 17
-15 0 -20 -5 -18 -17z"/>
<path d="M8122 6108 c2 -15 11 -24 26 -26 24 -4 30 16 10 36 -20 20 -40 14
-36 -10z"/>
<path d="M6665 6105 c-199 -27 -440 -91 -440 -116 0 -25 54 -21 153 11 129 42
258 60 425 60 113 0 137 3 137 14 0 46 -93 56 -275 31z"/>
<path d="M7548 6048 c-9 -23 3 -38 28 -38 25 0 28 7 18 34 -7 19 -40 21 -46 4z"/>
<path d="M10463 5986 c-26 -23 -27 -26 -15 -58 22 -63 8 -144 -30 -176 -13
-10 -18 -8 -33 15 -10 16 -48 58 -83 96 -94 97 -113 89 -56 -25 44 -87 119
-155 213 -192 62 -24 72 -8 26 43 -56 62 -38 84 50 60 54 -15 75 -36 75 -75 0
-41 -23 -64 -64 -64 -45 0 -72 -33 -95 -114 -10 -37 -27 -76 -36 -86 -19 -21
-69 -27 -80 -11 -7 12 40 49 72 57 18 5 22 11 17 23 -4 9 -16 48 -26 86 -11
39 -27 77 -35 87 -8 9 -42 21 -75 27 -76 13 -131 41 -185 93 -42 41 -47 64
-12 55 26 -7 34 10 10 22 -33 18 -70 12 -97 -14 -33 -33 -33 -33 121 -149 140
-105 175 -139 175 -172 0 -24 -31 -64 -50 -64 -5 0 -16 13 -25 29 -8 17 -28
38 -44 47 -33 19 -33 35 0 27 31 -9 21 37 -13 56 -25 15 -28 14 -52 -12 -14
-15 -35 -27 -46 -27 -33 0 -21 -32 18 -52 46 -22 46 -22 28 -56 -16 -30 -65
-72 -85 -72 -6 0 -11 29 -13 68 -3 65 -4 67 -28 64 -14 -1 -32 2 -40 8 -13 9
-10 14 15 35 l30 24 -37 38 c-20 21 -44 55 -53 76 -9 21 -21 37 -28 34 -18 -6
-20 -72 -3 -106 20 -38 21 -95 1 -111 -12 -10 -24 -3 -69 40 -30 29 -59 50
-63 47 -4 -3 -6 -40 -3 -84 5 -76 6 -78 30 -75 89 12 133 13 142 4 7 -7 0 -15
-23 -25 -56 -23 -249 -85 -324 -105 -58 -14 -71 -21 -73 -40 -2 -12 -6 -22 -9
-22 -22 0 -88 131 -108 216 -35 144 -35 143 -65 159 -16 8 -36 12 -45 8 -15
-5 -16 -15 -9 -72 5 -36 9 -126 9 -198 0 -75 4 -133 9 -133 5 0 24 12 43 26
19 14 37 24 39 21 3 -3 -16 -38 -41 -77 -60 -94 -62 -100 -36 -100 31 0 71
-44 71 -77 0 -15 -21 -69 -46 -120 -54 -107 -54 -139 0 -98 29 22 101 105 126
145 16 26 21 4 10 -45 -6 -29 -7 -52 -2 -57 6 -6 53 41 118 116 59 69 110 124
112 121 2 -2 -7 -40 -22 -83 -14 -44 -26 -82 -26 -86 0 -20 32 10 151 143 77
85 135 143 137 135 3 -14 -36 -103 -60 -136 -21 -29 0 -32 41 -5 44 29 81 75
101 124 11 30 10 35 -14 64 -14 17 -26 42 -26 56 0 35 22 24 34 -16 9 -32 11
-33 48 -27 l38 6 -37 -72 c-48 -93 -46 -88 -35 -88 5 0 35 21 66 46 31 26 59
45 61 42 3 -3 0 -19 -6 -37 -6 -18 -9 -35 -6 -38 3 -3 41 31 84 75 101 103
242 195 199 129 -25 -37 -46 -106 -35 -113 15 -9 36 12 106 107 79 109 143
144 218 119 62 -21 71 -72 30 -188 -28 -79 -31 -112 -13 -130 20 -20 26 -14
33 31 14 87 45 160 102 240 40 58 38 77 -12 77 -33 0 -35 2 -35 34 0 47 24 99
67 147 32 35 88 69 114 69 20 0 7 -30 -31 -73 -22 -25 -40 -49 -40 -54 0 -4
25 -28 55 -53 30 -25 55 -47 55 -50 0 -3 -30 -22 -65 -44 -36 -21 -65 -40 -65
-42 0 -2 11 -14 25 -28 14 -14 25 -30 25 -35 0 -6 -23 -20 -50 -32 -28 -12
-57 -31 -65 -43 -44 -62 9 -146 92 -146 77 0 147 65 191 180 43 111 38 235
-14 351 -23 51 -25 62 -13 70 25 18 122 1 212 -36 90 -37 167 -49 189 -27 17
17 2 29 -47 35 -69 10 -161 62 -241 138 -40 38 -79 69 -86 69 -21 0 -58 -30
-58 -46 0 -12 8 -13 35 -8 28 5 35 3 35 -10 0 -23 -27 -31 -56 -16 -22 12 -27
11 -52 -12 -35 -33 -93 -51 -135 -43 -73 16 -129 64 -188 163 -24 42 -36 35
-37 -22 -1 -53 -40 -141 -62 -141 -23 0 -61 86 -66 152 l-4 58 20 -45 c30 -65
35 -73 48 -78 18 -6 15 64 -5 105 -14 30 -45 53 -73 53 -5 0 -21 -11 -37 -24z
m252 -247 c27 -17 62 -32 79 -32 34 -2 47 -24 19 -33 -10 -3 -26 -10 -35 -15
-10 -5 -22 -9 -28 -9 -11 0 -120 104 -120 114 0 15 40 3 85 -25z m-362 -143
c6 -15 -1 -26 -15 -26 -4 0 -8 9 -8 20 0 23 15 27 23 6z m237 -80 c0 -16 -18
-31 -27 -22 -8 8 5 36 17 36 5 0 10 -6 10 -14z m-369 -106 c10 -6 19 -20 19
-32 0 -19 -4 -20 -41 -14 -60 10 -83 24 -68 42 13 16 62 19 90 4z m-341 -75
c0 -8 -7 -15 -15 -15 -8 0 -15 7 -15 15 0 8 7 15 15 15 8 0 15 -7 15 -15z
m-80 -94 c0 -27 -15 -49 -26 -39 -7 8 8 68 17 68 5 0 9 -13 9 -29z m-85 10 c8
-13 -82 -52 -122 -54 -38 -1 -48 6 -40 28 5 10 20 15 54 15 26 0 55 5 63 10
19 12 37 13 45 1z m-165 -155 c-17 -22 -32 -9 -19 16 8 14 14 17 22 9 7 -7 6
-15 -3 -25z"/>
<path d="M6104 5970 c-73 -37 -103 -37 -155 -3 -28 18 -43 23 -51 15 -7 -7 -3
-17 16 -33 16 -14 26 -33 26 -49 0 -15 2 -29 5 -32 15 -15 249 96 242 115 -6
20 -23 17 -83 -13z"/>
<path d="M6583 5990 c-13 -5 -23 -18 -23 -29 0 -22 2 -21 -119 -46 -44 -9 -83
-23 -96 -35 -17 -16 -35 -20 -86 -20 -76 0 -160 -20 -227 -54 -57 -29 -258
-160 -289 -189 -49 -45 -12 -89 52 -62 20 8 48 23 63 33 41 29 149 68 224 82
51 9 79 21 114 49 l47 36 131 0 c130 0 130 0 136 24 5 24 9 25 90 26 47 1 100
5 118 9 25 6 32 4 32 -8 0 -19 -15 -28 -65 -41 -22 -5 -40 -14 -40 -20 0 -15
64 -18 96 -4 38 15 79 64 79 94 0 31 -22 47 -75 53 -47 5 -53 10 -33 30 28 28
65 14 118 -47 57 -65 73 -74 173 -91 82 -15 128 -44 143 -90 15 -44 59 -55 73
-18 22 60 -88 243 -177 295 -46 27 -50 28 -242 30 -110 2 -205 -1 -217 -7z"/>
<path d="M1595 5919 c-9 -14 34 -59 56 -59 37 0 32 24 -11 53 -29 20 -36 21
-45 6z"/>
<path d="M5410 5851 c0 -17 6 -21 31 -21 24 0 30 4 27 18 -2 10 -14 18 -31 20
-22 3 -27 -1 -27 -17z"/>
<path d="M7766 5852 c-4 -6 -44 -293 -48 -337 -2 -30 4 -36 30 -33 42 5 63 58
69 178 5 80 2 108 -11 145 -18 46 -31 61 -40 47z"/>
<path d="M7573 5826 c-30 -37 -46 -108 -39 -160 7 -47 61 -166 76 -166 4 0 12
6 18 13 17 20 52 152 52 193 0 44 -34 109 -66 131 -20 13 -24 12 -41 -11z"/>
<path d="M5253 5824 c-7 -19 11 -39 26 -30 16 10 13 33 -4 40 -9 3 -18 -1 -22
-10z"/>
<path d="M5066 5792 c-8 -13 65 -145 74 -135 12 11 -4 87 -24 118 -16 25 -40
33 -50 17z"/>
<path d="M9116 5719 c-37 -91 -30 -191 18 -245 18 -21 28 -26 49 -20 41 10 43
40 7 94 -30 44 -31 51 -28 127 2 67 0 80 -13 83 -11 2 -22 -11 -33 -39z"/>
<path d="M1230 5740 c-21 -13 -2 -29 43 -37 30 -4 37 -2 37 10 0 29 -50 46
-80 27z"/>
<path d="M1143 5733 c-7 -2 -13 -9 -13 -13 0 -15 35 -29 50 -20 11 7 11 11 1
24 -14 17 -18 18 -38 9z"/>
<path d="M9952 5678 c3 -23 44 -52 91 -64 26 -6 28 -4 25 16 -2 16 -17 31 -48
46 -57 30 -72 30 -68 2z"/>
<path d="M4425 5653 c3 -10 11 -40 18 -67 12 -53 61 -116 78 -99 23 23 -53
183 -87 183 -11 0 -14 -5 -9 -17z"/>
<path d="M11680 5647 c0 -7 8 -24 18 -38 114 -167 293 -276 502 -304 73 -10
123 -37 181 -96 61 -63 102 -148 128 -271 23 -107 26 -154 11 -163 -18 -11
-114 -33 -193 -44 -226 -31 -470 6 -685 106 l-77 35 61 28 c40 18 71 41 90 66
60 78 76 90 152 109 92 22 132 57 132 116 0 79 -49 144 -191 249 -142 105
-168 120 -210 120 -56 0 -63 -18 -28 -69 56 -84 37 -209 -41 -275 -36 -30 -55
-34 -47 -8 41 128 48 223 22 285 -33 79 -95 127 -164 127 -33 0 -49 -7 -80
-36 -48 -42 -58 -78 -36 -130 14 -34 14 -39 0 -61 -9 -13 -28 -28 -42 -34 -23
-9 -25 -13 -20 -49 13 -101 96 -177 204 -187 32 -2 89 -14 127 -26 68 -20 187
-85 190 -102 3 -21 -273 -55 -440 -55 -171 0 -409 31 -487 63 -50 22 -104 73
-110 107 -8 37 -22 38 -92 4 -65 -30 -95 -68 -95 -120 0 -30 8 -46 45 -85 41
-44 45 -52 45 -100 0 -28 -5 -90 -11 -138 -14 -105 0 -165 59 -256 45 -68 756
-847 835 -914 126 -107 277 -131 368 -58 34 26 59 81 59 129 0 63 -15 91 -60
117 -84 47 -160 163 -160 244 0 21 -12 43 -40 73 -39 42 -46 63 -41 124 4 52
-120 308 -219 455 -28 42 -87 121 -132 176 -44 55 -78 103 -75 106 3 3 46 6
94 6 150 1 205 -15 422 -124 108 -54 203 -99 212 -99 9 0 23 7 30 16 11 13 26
15 71 11 72 -6 78 -11 78 -53 0 -39 11 -42 59 -18 46 23 149 38 203 30 43 -6
49 -11 56 -38 4 -18 13 -33 19 -35 11 -4 33 55 33 90 0 15 11 17 98 17 62 0
115 6 143 15 76 26 149 112 149 176 0 41 -54 183 -92 243 -92 145 -246 259
-405 300 -122 32 -122 15 1 -39 122 -53 216 -113 288 -186 135 -134 176 -303
96 -395 -43 -49 -61 -45 -77 17 -8 28 -28 80 -46 115 -18 38 -27 64 -20 64 7
0 37 -9 68 -19 35 -12 59 -16 63 -10 11 19 -61 123 -141 204 -125 127 -253
199 -415 236 -73 16 -75 21 -17 33 42 10 32 22 -27 35 -57 13 -154 69 -194
114 -19 20 -30 24 -60 20 -30 -4 -46 1 -90 30 -28 20 -52 30 -52 24z m-1046
-644 c73 -84 103 -109 205 -172 177 -110 307 -252 386 -425 36 -78 81 -224 71
-233 -22 -22 -298 115 -379 188 -70 63 -103 117 -112 189 -4 30 -12 66 -17 79
-13 35 4 46 42 26 18 -9 97 -68 177 -132 79 -63 147 -112 150 -109 29 29 -181
234 -362 356 -193 129 -282 196 -295 221 -17 30 12 59 58 59 30 0 42 -8 76
-47z m32 -529 c8 -20 13 -41 11 -47 -4 -13 -32 27 -42 61 -11 37 15 26 31 -14z
m317 -230 c45 -38 152 -89 249 -118 109 -34 135 -61 219 -228 33 -68 76 -144
95 -170 50 -68 136 -142 199 -173 54 -27 73 -55 36 -55 -50 0 -209 66 -261
108 -21 17 -22 22 -11 35 19 23 7 34 -44 39 -56 7 -109 45 -144 106 -14 25
-49 71 -78 102 -62 67 -83 112 -83 180 0 56 -8 60 -51 30 l-28 -21 -42 38
c-22 20 -54 60 -70 88 -42 73 -38 83 14 39z"/>
<path d="M10830 4542 c0 -22 66 -121 86 -129 23 -8 37 12 30 42 -15 60 -116
137 -116 87z"/>
<path d="M11314 3918 c4 -28 12 -61 18 -72 14 -28 49 -66 61 -66 15 0 -2 70
-34 132 -37 74 -54 76 -45 6z"/>
<path d="M1990 5545 c0 -39 67 -59 106 -31 28 21 7 38 -55 44 -44 4 -51 2 -51
-13z"/>
<path d="M7517 5553 c-2 -5 -17 -54 -32 -110 -27 -97 -45 -124 -59 -88 -9 25
-26 17 -26 -14 0 -19 11 -39 32 -60 30 -29 31 -33 20 -64 -27 -75 -6 -224 49
-345 24 -53 29 -78 29 -138 0 -64 3 -76 25 -101 24 -27 25 -28 40 -9 23 31 18
88 -15 158 -36 76 -39 135 -10 228 12 36 24 98 27 137 5 62 3 73 -11 79 -25 9
-30 -1 -36 -64 -10 -109 -48 -36 -49 94 -1 82 20 169 53 216 13 18 13 24 1 49
-16 31 -31 43 -38 32z"/>
<path d="M9575 5520 c-9 -29 29 -104 61 -118 32 -15 91 -15 100 -1 4 7 -7 22
-25 36 -17 14 -38 40 -46 59 -9 22 -21 34 -34 34 -11 0 -26 3 -34 6 -10 3 -18
-2 -22 -16z"/>
<path d="M9430 5496 c0 -41 29 -96 63 -116 28 -18 67 -27 67 -16 0 18 -66 139
-80 146 -32 17 -50 12 -50 -14z"/>
<path d="M7830 5470 c-14 -33 -8 -60 14 -60 16 0 29 44 21 71 -9 27 -21 24
-35 -11z"/>
<path d="M7643 5450 c-34 -14 -45 -45 -39 -108 17 -171 17 -191 2 -273 -30
-163 -19 -245 45 -314 38 -42 40 -46 34 -89 -6 -38 -4 -47 10 -52 29 -11 47
20 56 97 23 203 31 308 25 334 -9 34 -62 89 -77 79 -8 -5 -10 -39 -5 -118 6
-105 -2 -152 -21 -132 -4 4 -10 83 -12 174 -3 159 9 303 31 361 5 15 4 28 -3
37 -13 16 -16 16 -46 4z"/>
<path d="M7737 5360 c-16 -41 -27 -101 -27 -152 0 -58 6 -68 28 -46 8 8 14 5
22 -16 9 -23 13 -26 25 -16 19 16 19 43 0 81 -9 16 -22 60 -29 97 -7 37 -16
60 -19 52z"/>
<path d="M7807 5353 c-3 -5 -1 -19 4 -32 12 -31 34 -13 24 18 -6 21 -20 28
-28 14z"/>
<path d="M7332 5278 c4 -40 38 -54 38 -16 0 24 -16 48 -33 48 -4 0 -7 -15 -5
-32z"/>
<path d="M12124 5242 c-20 -13 -34 -50 -34 -90 0 -78 75 -118 134 -71 30 24
33 56 10 105 -26 53 -76 79 -110 56z"/>
<path d="M7324 5189 c-23 -45 -15 -97 34 -209 22 -53 46 -123 52 -158 13 -66
26 -78 36 -37 7 28 4 43 -25 152 -14 52 -19 92 -15 140 7 112 -45 184 -82 112z"/>
<path d="M6115 5183 c-52 -27 -94 -74 -101 -112 -13 -71 -51 -117 -131 -161
-24 -13 -43 -27 -43 -32 0 -14 54 -8 95 11 70 31 111 92 127 185 2 11 21 29
44 40 56 28 74 45 74 67 0 23 -24 24 -65 2z"/>
<path d="M4623 5108 c-17 -18 -38 -46 -46 -63 -20 -40 -57 -154 -57 -176 0
-19 23 -31 44 -23 25 9 116 230 116 281 0 23 -25 14 -57 -19z"/>
<path d="M6911 5034 c-39 -104 -48 -265 -20 -342 13 -34 29 -17 29 31 0 23 7
105 15 182 8 77 15 150 15 163 0 39 -18 24 -39 -34z"/>
<path d="M11160 5062 c0 -24 52 -72 79 -72 37 0 75 28 61 45 -16 20 -140 43
-140 27z"/>
<path d="M12365 5047 c-8 -13 -21 -45 -29 -71 -23 -77 -65 -108 -96 -71 -28
34 -53 4 -66 -75 -6 -35 -4 -40 13 -40 11 0 28 9 37 19 11 12 30 19 53 18 53
-2 85 39 111 146 12 47 22 89 22 92 0 15 -31 2 -45 -18z"/>
<path d="M11943 5053 c-18 -2 -33 -8 -33 -13 0 -4 17 -22 37 -38 l38 -30 -48
-51 c-37 -40 -47 -57 -47 -84 l0 -35 88 5 c103 7 113 11 152 65 44 60 40 68
-29 68 -41 0 -65 5 -75 16 -24 23 -20 44 8 44 36 0 76 18 76 33 0 9 -17 17
-46 21 -47 6 -63 6 -121 -1z"/>
<path d="M7266 4979 c-19 -97 1 -199 40 -199 11 0 14 20 14 103 0 101 -7 127
-36 127 -6 0 -14 -14 -18 -31z"/>
<path d="M4466 4954 c-3 -9 -6 -27 -6 -41 0 -39 25 -22 28 20 3 37 -11 50 -22
21z"/>
<path d="M9214 4935 c-7 -30 -1 -40 21 -32 20 8 20 57 0 57 -8 0 -17 -11 -21
-25z"/>
<path d="M11794 4935 c-7 -18 12 -45 32 -45 19 0 18 46 -2 54 -22 8 -24 8 -30
-9z"/>
<path d="M12413 4864 c-7 -18 6 -45 26 -52 9 -3 11 6 9 29 -3 36 -24 50 -35
23z"/>
<path d="M5730 4814 c-54 -31 -100 -73 -100 -92 0 -21 38 -5 100 42 30 23 56
50 58 59 5 23 -5 21 -58 -9z"/>
<path d="M11603 4715 c-8 -22 16 -36 40 -24 23 13 17 33 -11 37 -14 2 -25 -3
-29 -13z"/>
<path d="M12207 4613 c-11 -10 -8 -41 4 -49 16 -9 43 21 36 40 -7 16 -28 21
-40 9z"/>
<path d="M6896 4581 c-16 -25 -7 -193 14 -276 28 -112 97 -248 164 -322 54
-59 135 -111 155 -98 6 3 -24 41 -67 83 -125 126 -199 277 -228 465 -23 145
-28 165 -38 148z"/>
<path d="M5378 4539 c-24 -13 -23 -39 1 -39 20 0 37 28 24 41 -4 4 -16 3 -25
-2z"/>
<path d="M7721 4341 c-18 -12 -3 -38 49 -84 36 -33 70 -48 70 -31 0 11 -42 77
-63 102 -22 24 -34 27 -56 13z"/>
<path d="M7977 4343 c-21 -20 7 -106 48 -152 37 -41 135 -99 135 -81 0 7 -18
33 -41 58 -22 26 -55 77 -72 114 -29 63 -50 81 -70 61z"/>
<path d="M7520 4301 c0 -34 17 -66 57 -109 35 -38 63 -53 63 -35 0 10 -50 93
-78 131 -28 36 -42 41 -42 13z"/>
<path d="M7432 4273 c2 -10 10 -18 18 -18 22 0 18 29 -3 33 -14 3 -18 -1 -15
-15z"/>
<path d="M7154 4236 c-11 -30 7 -67 58 -119 67 -69 72 -47 12 49 -54 85 -62
92 -70 70z"/>
<path d="M11590 4051 c0 -22 15 -35 30 -26 7 4 7 13 0 26 -14 25 -30 25 -30 0z"/>
<path d="M9274 3828 c-27 -13 -51 -55 -38 -67 5 -5 38 -16 74 -25 154 -38 313
-145 410 -276 l54 -73 19 24 c26 33 18 96 -17 126 -59 50 -5 60 67 12 49 -32
80 -68 96 -113 12 -30 40 -26 42 8 6 113 -50 171 -235 242 -189 72 -215 81
-320 119 -105 37 -119 39 -152 23z"/>
<path d="M6039 3798 c-13 -18 -80 -109 -149 -203 -175 -237 -174 -235 -163
-246 7 -7 52 41 130 133 155 185 201 253 217 321 9 37 -8 34 -35 -5z"/>
<path d="M7682 3782 c-37 -32 -54 -62 -36 -62 22 0 114 74 114 92 0 19 -38 5
-78 -30z"/>
<path d="M5580 3225 c-52 -47 -96 -90 -98 -96 -2 -5 6 -9 18 -9 22 0 102 69
152 132 56 72 22 59 -72 -27z"/>
<path d="M4855 2393 c-24 -77 -26 -186 -4 -191 20 -4 48 51 49 94 0 16 2 56 3
89 2 48 -1 60 -14 63 -12 2 -21 -13 -34 -55z"/>
</g>
</svg>
